# Blender v2.79 (sub 0) OBJ File: ''
# www.blender.org
mtllib Force.mtl
o Cone
v 0.100334 1.018700 -2.282122
v 0.862801 0.576505 -2.282045
v 0.979543 -0.297141 -2.282063
v 0.482534 -0.902758 -2.282109
v -0.197554 -0.993169 -2.282147
v -0.862799 -0.576503 -2.282026
v 0.000000 -0.000000 3.389366
v -0.979545 0.297143 -2.282079
v -0.562583 0.841967 -2.282136
vn 0.4950 0.8536 0.1621
vn 0.9781 0.1307 0.1621
vn 0.7625 -0.6258 0.1645
vn 0.1299 -0.9774 0.1666
vn -0.5235 -0.8359 0.1646
vn -0.9781 -0.1307 0.1621
vn -0.7830 0.5993 0.1666
vn -0.2540 0.9527 0.1666
vn 0.0000 -0.0000 -1.0000
usemtl None
s off
f 1//1 7//1 2//1
f 2//2 7//2 3//2
f 3//3 7//3 4//3
f 4//4 7//4 5//4
f 5//5 7//5 6//5
f 6//6 7//6 8//6
f 8//7 7//7 9//7
f 9//8 7//8 1//8
f 4//9 5//9 6//9 8//9 9//9 1//9 2//9 3//9
