# Blender v2.79 (sub 0) OBJ File: ''
# www.blender.org
mtllib FinalDream2.mtl
o Text
v 6.056700 0.010000 0.000000
v 6.056700 0.010000 -0.671978
v 6.152764 0.010000 -0.671978
v 6.152764 0.010000 -0.479850
v 6.248828 0.010000 -0.479850
v 6.248828 0.010000 -0.383786
v 6.152764 0.010000 -0.383786
v 6.152764 0.010000 0.000000
v 6.440486 0.010000 -0.479850
v 6.440486 0.010000 -0.671978
v 6.536551 0.010000 -0.671978
v 6.536551 0.010000 0.000000
v 6.440486 0.010000 0.000000
v 6.440486 0.010000 -0.383786
v 6.344892 0.010000 -0.383786
v 6.344892 0.010000 -0.479850
v 6.248828 0.010000 -0.288191
v 6.248828 0.010000 -0.383786
v 6.344892 0.010000 -0.383786
v 6.344892 0.010000 -0.288191
v 5.426850 0.010000 0.000000
v 5.426850 0.010000 -0.671978
v 5.906700 0.010000 -0.671978
v 5.906700 0.010000 0.000000
v 5.810637 0.010000 0.000000
v 5.810637 0.010000 -0.288191
v 5.522914 0.010000 -0.288191
v 5.522914 0.010000 0.000000
v 5.810637 0.010000 -0.575914
v 5.522914 0.010000 -0.575914
v 5.522914 0.010000 -0.383786
v 5.810637 0.010000 -0.383786
v 4.797000 0.010000 0.000000
v 4.797000 0.010000 -0.671978
v 5.276851 0.010000 -0.671978
v 5.276851 0.010000 -0.575914
v 4.893064 0.010000 -0.575914
v 4.893064 0.010000 -0.383786
v 5.276851 0.010000 -0.383786
v 5.276851 0.010000 -0.288191
v 4.893064 0.010000 -0.288191
v 4.893064 0.010000 -0.096064
v 5.276851 0.010000 -0.096064
v 5.276851 0.010000 0.000000
v 4.167150 0.010000 0.000000
v 4.167150 0.010000 -0.671978
v 4.647000 0.010000 -0.671978
v 4.647000 0.010000 -0.383786
v 4.550937 0.010000 -0.383786
v 4.550937 0.010000 -0.575914
v 4.263214 0.010000 -0.575914
v 4.263214 0.010000 -0.383786
v 4.550937 0.010000 -0.383786
v 4.550937 0.010000 -0.288191
v 4.263214 0.010000 -0.288191
v 4.263214 0.010000 0.000000
v 4.550937 0.010000 0.000000
v 4.550937 0.010000 -0.288191
v 4.647000 0.010000 -0.288191
v 4.647000 0.010000 0.000000
v 3.537301 0.010000 0.000000
v 3.537301 0.010000 -0.671978
v 3.921087 0.010000 -0.671978
v 3.921087 0.010000 -0.575914
v 3.633364 0.010000 -0.575914
v 3.633364 0.010000 -0.096064
v 3.921087 0.010000 -0.096064
v 3.921087 0.010000 0.000000
v 3.921087 0.010000 -0.096064
v 3.921087 0.010000 -0.575914
v 4.017151 0.010000 -0.575914
v 4.017151 0.010000 -0.096064
v 2.519400 0.010000 0.000000
v 2.519400 0.010000 -0.671978
v 2.615464 0.010000 -0.671978
v 2.615464 0.010000 -0.096064
v 2.999250 0.010000 -0.096064
v 2.999250 0.010000 0.000000
v 1.889550 0.010000 0.000000
v 1.889550 0.010000 -0.671978
v 2.369400 0.010000 -0.671978
v 2.369400 0.010000 0.000000
v 2.273336 0.010000 0.000000
v 2.273336 0.010000 -0.288191
v 1.985614 0.010000 -0.288191
v 1.985614 0.010000 0.000000
v 2.273336 0.010000 -0.575914
v 1.985614 0.010000 -0.575914
v 1.985614 0.010000 -0.383786
v 2.273336 0.010000 -0.383786
v 1.259700 0.010000 0.000000
v 1.259700 0.010000 -0.671978
v 1.355764 0.010000 -0.671978
v 1.355764 0.010000 -0.479850
v 1.451828 0.010000 -0.479850
v 1.451828 0.010000 -0.383786
v 1.355764 0.010000 -0.383786
v 1.355764 0.010000 0.000000
v 1.643486 0.010000 -0.288191
v 1.643486 0.010000 -0.671978
v 1.739550 0.010000 -0.671978
v 1.739550 0.010000 0.000000
v 1.643486 0.010000 0.000000
v 1.643486 0.010000 -0.192127
v 1.547891 0.010000 -0.192127
v 1.547891 0.010000 -0.288191
v 1.451828 0.010000 -0.288191
v 1.451828 0.010000 -0.383786
v 1.547891 0.010000 -0.383786
v 1.547891 0.010000 -0.288191
v 0.629850 0.010000 -0.575914
v 0.629850 0.010000 -0.671978
v 1.109700 0.010000 -0.671978
v 1.109700 0.010000 -0.575914
v 0.918041 0.010000 -0.575914
v 0.918041 0.010000 -0.096064
v 1.109700 0.010000 -0.096064
v 1.109700 0.010000 0.000000
v 0.629850 0.010000 0.000000
v 0.629850 0.010000 -0.096064
v 0.821977 0.010000 -0.096064
v 0.821977 0.010000 -0.575914
v 0.000000 0.010000 0.000000
v 0.000000 0.010000 -0.671978
v 0.479850 0.010000 -0.671978
v 0.479850 0.010000 -0.575914
v 0.096064 0.010000 -0.575914
v 0.096064 0.010000 -0.383786
v 0.479850 0.010000 -0.383786
v 0.479850 0.010000 -0.288191
v 0.096064 0.010000 -0.288191
v 0.096064 0.010000 0.000000
v 6.056700 -0.010000 0.000000
v 6.056700 -0.010000 -0.671978
v 6.152764 -0.010000 -0.671978
v 6.152764 -0.010000 -0.479850
v 6.248828 -0.010000 -0.479850
v 6.248828 -0.010000 -0.383786
v 6.152764 -0.010000 -0.383786
v 6.152764 -0.010000 0.000000
v 6.440486 -0.010000 -0.479850
v 6.440486 -0.010000 -0.671978
v 6.536551 -0.010000 -0.671978
v 6.536551 -0.010000 0.000000
v 6.440486 -0.010000 0.000000
v 6.440486 -0.010000 -0.383786
v 6.344892 -0.010000 -0.383786
v 6.344892 -0.010000 -0.479850
v 6.248828 -0.010000 -0.288191
v 6.248828 -0.010000 -0.383786
v 6.344892 -0.010000 -0.383786
v 6.344892 -0.010000 -0.288191
v 5.426850 -0.010000 0.000000
v 5.426850 -0.010000 -0.671978
v 5.906700 -0.010000 -0.671978
v 5.906700 -0.010000 0.000000
v 5.810637 -0.010000 0.000000
v 5.810637 -0.010000 -0.288191
v 5.522914 -0.010000 -0.288191
v 5.522914 -0.010000 0.000000
v 5.810637 -0.010000 -0.575914
v 5.522914 -0.010000 -0.575914
v 5.522914 -0.010000 -0.383786
v 5.810637 -0.010000 -0.383786
v 4.797000 -0.010000 0.000000
v 4.797000 -0.010000 -0.671978
v 5.276851 -0.010000 -0.671978
v 5.276851 -0.010000 -0.575914
v 4.893064 -0.010000 -0.575914
v 4.893064 -0.010000 -0.383786
v 5.276851 -0.010000 -0.383786
v 5.276851 -0.010000 -0.288191
v 4.893064 -0.010000 -0.288191
v 4.893064 -0.010000 -0.096064
v 5.276851 -0.010000 -0.096064
v 5.276851 -0.010000 0.000000
v 4.167150 -0.010000 0.000000
v 4.167150 -0.010000 -0.671978
v 4.647000 -0.010000 -0.671978
v 4.647000 -0.010000 -0.383786
v 4.550937 -0.010000 -0.383786
v 4.550937 -0.010000 -0.575914
v 4.263214 -0.010000 -0.575914
v 4.263214 -0.010000 -0.383786
v 4.550937 -0.010000 -0.383786
v 4.550937 -0.010000 -0.288191
v 4.263214 -0.010000 -0.288191
v 4.263214 -0.010000 0.000000
v 4.550937 -0.010000 0.000000
v 4.550937 -0.010000 -0.288191
v 4.647000 -0.010000 -0.288191
v 4.647000 -0.010000 0.000000
v 3.537301 -0.010000 0.000000
v 3.537301 -0.010000 -0.671978
v 3.921087 -0.010000 -0.671978
v 3.921087 -0.010000 -0.575914
v 3.633364 -0.010000 -0.575914
v 3.633364 -0.010000 -0.096064
v 3.921087 -0.010000 -0.096064
v 3.921087 -0.010000 0.000000
v 3.921087 -0.010000 -0.096064
v 3.921087 -0.010000 -0.575914
v 4.017151 -0.010000 -0.575914
v 4.017151 -0.010000 -0.096064
v 2.519400 -0.010000 0.000000
v 2.519400 -0.010000 -0.671978
v 2.615464 -0.010000 -0.671978
v 2.615464 -0.010000 -0.096064
v 2.999250 -0.010000 -0.096064
v 2.999250 -0.010000 0.000000
v 1.889550 -0.010000 0.000000
v 1.889550 -0.010000 -0.671978
v 2.369400 -0.010000 -0.671978
v 2.369400 -0.010000 0.000000
v 2.273336 -0.010000 0.000000
v 2.273336 -0.010000 -0.288191
v 1.985614 -0.010000 -0.288191
v 1.985614 -0.010000 0.000000
v 2.273336 -0.010000 -0.575914
v 1.985614 -0.010000 -0.575914
v 1.985614 -0.010000 -0.383786
v 2.273336 -0.010000 -0.383786
v 1.259700 -0.010000 0.000000
v 1.259700 -0.010000 -0.671978
v 1.355764 -0.010000 -0.671978
v 1.355764 -0.010000 -0.479850
v 1.451828 -0.010000 -0.479850
v 1.451828 -0.010000 -0.383786
v 1.355764 -0.010000 -0.383786
v 1.355764 -0.010000 0.000000
v 1.643486 -0.010000 -0.288191
v 1.643486 -0.010000 -0.671978
v 1.739550 -0.010000 -0.671978
v 1.739550 -0.010000 0.000000
v 1.643486 -0.010000 0.000000
v 1.643486 -0.010000 -0.192127
v 1.547891 -0.010000 -0.192127
v 1.547891 -0.010000 -0.288191
v 1.451828 -0.010000 -0.288191
v 1.451828 -0.010000 -0.383786
v 1.547891 -0.010000 -0.383786
v 1.547891 -0.010000 -0.288191
v 0.629850 -0.010000 -0.575914
v 0.629850 -0.010000 -0.671978
v 1.109700 -0.010000 -0.671978
v 1.109700 -0.010000 -0.575914
v 0.918041 -0.010000 -0.575914
v 0.918041 -0.010000 -0.096064
v 1.109700 -0.010000 -0.096064
v 1.109700 -0.010000 0.000000
v 0.629850 -0.010000 0.000000
v 0.629850 -0.010000 -0.096064
v 0.821977 -0.010000 -0.096064
v 0.821977 -0.010000 -0.575914
v 0.000000 -0.010000 0.000000
v 0.000000 -0.010000 -0.671978
v 0.479850 -0.010000 -0.671978
v 0.479850 -0.010000 -0.575914
v 0.096064 -0.010000 -0.575914
v 0.096064 -0.010000 -0.383786
v 0.479850 -0.010000 -0.383786
v 0.479850 -0.010000 -0.288191
v 0.096064 -0.010000 -0.288191
v 0.096064 -0.010000 0.000000
v 0.000000 -0.010000 0.000000
v 0.000000 0.010000 0.000000
v 0.000000 -0.010000 -0.671978
v 0.000000 0.010000 -0.671978
v 0.479850 -0.010000 -0.671978
v 0.479850 0.010000 -0.671978
v 0.479850 -0.010000 -0.575914
v 0.479850 0.010000 -0.575914
v 0.096064 -0.010000 -0.575914
v 0.096064 0.010000 -0.575914
v 0.096064 -0.010000 -0.383786
v 0.096064 0.010000 -0.383786
v 0.479850 -0.010000 -0.383786
v 0.479850 0.010000 -0.383786
v 0.479850 -0.010000 -0.288191
v 0.479850 0.010000 -0.288191
v 0.096064 -0.010000 -0.288191
v 0.096064 0.010000 -0.288191
v 0.096064 -0.010000 0.000000
v 0.096064 0.010000 0.000000
v 0.629850 -0.010000 -0.575914
v 0.629850 0.010000 -0.575914
v 0.629850 -0.010000 -0.671978
v 0.629850 0.010000 -0.671978
v 1.109700 -0.010000 -0.671978
v 1.109700 0.010000 -0.671978
v 1.109700 -0.010000 -0.575914
v 1.109700 0.010000 -0.575914
v 0.918041 -0.010000 -0.575914
v 0.918041 0.010000 -0.575914
v 0.918041 -0.010000 -0.096064
v 0.918041 0.010000 -0.096064
v 1.109700 -0.010000 -0.096064
v 1.109700 0.010000 -0.096064
v 1.109700 -0.010000 0.000000
v 1.109700 0.010000 0.000000
v 0.629850 -0.010000 0.000000
v 0.629850 0.010000 0.000000
v 0.629850 -0.010000 -0.096064
v 0.629850 0.010000 -0.096064
v 0.821977 -0.010000 -0.096064
v 0.821977 0.010000 -0.096064
v 0.821977 -0.010000 -0.575914
v 0.821977 0.010000 -0.575914
v 1.259700 -0.010000 0.000000
v 1.259700 0.010000 0.000000
v 1.259700 -0.010000 -0.671978
v 1.259700 0.010000 -0.671978
v 1.355764 -0.010000 -0.671978
v 1.355764 0.010000 -0.671978
v 1.355764 -0.010000 -0.479850
v 1.355764 0.010000 -0.479850
v 1.451828 -0.010000 -0.479850
v 1.451828 0.010000 -0.479850
v 1.451828 -0.010000 -0.383786
v 1.451828 0.010000 -0.383786
v 1.355764 -0.010000 -0.383786
v 1.355764 0.010000 -0.383786
v 1.355764 -0.010000 0.000000
v 1.355764 0.010000 0.000000
v 1.643486 -0.010000 -0.288191
v 1.643486 0.010000 -0.288191
v 1.643486 -0.010000 -0.671978
v 1.643486 0.010000 -0.671978
v 1.739550 -0.010000 -0.671978
v 1.739550 0.010000 -0.671978
v 1.739550 -0.010000 0.000000
v 1.739550 0.010000 0.000000
v 1.643486 -0.010000 0.000000
v 1.643486 0.010000 0.000000
v 1.643486 -0.010000 -0.192127
v 1.643486 0.010000 -0.192127
v 1.547891 -0.010000 -0.192127
v 1.547891 0.010000 -0.192127
v 1.547891 -0.010000 -0.288191
v 1.547891 0.010000 -0.288191
v 1.451828 -0.010000 -0.288191
v 1.451828 0.010000 -0.288191
v 1.451828 -0.010000 -0.383786
v 1.451828 0.010000 -0.383786
v 1.547891 -0.010000 -0.383786
v 1.547891 0.010000 -0.383786
v 1.547891 -0.010000 -0.288191
v 1.547891 0.010000 -0.288191
v 1.889550 -0.010000 0.000000
v 1.889550 0.010000 0.000000
v 1.889550 -0.010000 -0.671978
v 1.889550 0.010000 -0.671978
v 2.369400 -0.010000 -0.671978
v 2.369400 0.010000 -0.671978
v 2.369400 -0.010000 0.000000
v 2.369400 0.010000 0.000000
v 2.273336 -0.010000 0.000000
v 2.273336 0.010000 0.000000
v 2.273336 -0.010000 -0.288191
v 2.273336 0.010000 -0.288191
v 1.985614 -0.010000 -0.288191
v 1.985614 0.010000 -0.288191
v 1.985614 -0.010000 0.000000
v 1.985614 0.010000 0.000000
v 2.273336 -0.010000 -0.575914
v 2.273336 0.010000 -0.575914
v 1.985614 -0.010000 -0.575914
v 1.985614 0.010000 -0.575914
v 1.985614 -0.010000 -0.383786
v 1.985614 0.010000 -0.383786
v 2.273336 -0.010000 -0.383786
v 2.273336 0.010000 -0.383786
v 2.519400 -0.010000 0.000000
v 2.519400 0.010000 0.000000
v 2.519400 -0.010000 -0.671978
v 2.519400 0.010000 -0.671978
v 2.615464 -0.010000 -0.671978
v 2.615464 0.010000 -0.671978
v 2.615464 -0.010000 -0.096064
v 2.615464 0.010000 -0.096064
v 2.999250 -0.010000 -0.096064
v 2.999250 0.010000 -0.096064
v 2.999250 -0.010000 0.000000
v 2.999250 0.010000 0.000000
v 3.537301 -0.010000 0.000000
v 3.537301 0.010000 0.000000
v 3.537301 -0.010000 -0.671978
v 3.537301 0.010000 -0.671978
v 3.921087 -0.010000 -0.671978
v 3.921087 0.010000 -0.671978
v 3.921087 -0.010000 -0.575914
v 3.921087 0.010000 -0.575914
v 3.633364 -0.010000 -0.575914
v 3.633364 0.010000 -0.575914
v 3.633364 -0.010000 -0.096064
v 3.633364 0.010000 -0.096064
v 3.921087 -0.010000 -0.096064
v 3.921087 0.010000 -0.096064
v 3.921087 -0.010000 0.000000
v 3.921087 0.010000 0.000000
v 3.921087 -0.010000 -0.096064
v 3.921087 0.010000 -0.096064
v 3.921087 -0.010000 -0.575914
v 3.921087 0.010000 -0.575914
v 4.017151 -0.010000 -0.575914
v 4.017151 0.010000 -0.575914
v 4.017151 -0.010000 -0.096064
v 4.017151 0.010000 -0.096064
v 4.167150 -0.010000 0.000000
v 4.167150 0.010000 0.000000
v 4.167150 -0.010000 -0.671978
v 4.167150 0.010000 -0.671978
v 4.647000 -0.010000 -0.671978
v 4.647000 0.010000 -0.671978
v 4.647000 -0.010000 -0.383786
v 4.647000 0.010000 -0.383786
v 4.550937 -0.010000 -0.383786
v 4.550937 0.010000 -0.383786
v 4.550937 -0.010000 -0.575914
v 4.550937 0.010000 -0.575914
v 4.263214 -0.010000 -0.575914
v 4.263214 0.010000 -0.575914
v 4.263214 -0.010000 -0.383786
v 4.263214 0.010000 -0.383786
v 4.550937 -0.010000 -0.383786
v 4.550937 0.010000 -0.383786
v 4.550937 -0.010000 -0.288191
v 4.550937 0.010000 -0.288191
v 4.263214 -0.010000 -0.288191
v 4.263214 0.010000 -0.288191
v 4.263214 -0.010000 0.000000
v 4.263214 0.010000 0.000000
v 4.550937 -0.010000 0.000000
v 4.550937 0.010000 0.000000
v 4.550937 -0.010000 -0.288191
v 4.550937 0.010000 -0.288191
v 4.647000 -0.010000 -0.288191
v 4.647000 0.010000 -0.288191
v 4.647000 -0.010000 0.000000
v 4.647000 0.010000 0.000000
v 4.797000 -0.010000 0.000000
v 4.797000 0.010000 0.000000
v 4.797000 -0.010000 -0.671978
v 4.797000 0.010000 -0.671978
v 5.276851 -0.010000 -0.671978
v 5.276851 0.010000 -0.671978
v 5.276851 -0.010000 -0.575914
v 5.276851 0.010000 -0.575914
v 4.893064 -0.010000 -0.575914
v 4.893064 0.010000 -0.575914
v 4.893064 -0.010000 -0.383786
v 4.893064 0.010000 -0.383786
v 5.276851 -0.010000 -0.383786
v 5.276851 0.010000 -0.383786
v 5.276851 -0.010000 -0.288191
v 5.276851 0.010000 -0.288191
v 4.893064 -0.010000 -0.288191
v 4.893064 0.010000 -0.288191
v 4.893064 -0.010000 -0.096064
v 4.893064 0.010000 -0.096064
v 5.276851 -0.010000 -0.096064
v 5.276851 0.010000 -0.096064
v 5.276851 -0.010000 0.000000
v 5.276851 0.010000 0.000000
v 5.426850 -0.010000 0.000000
v 5.426850 0.010000 0.000000
v 5.426850 -0.010000 -0.671978
v 5.426850 0.010000 -0.671978
v 5.906700 -0.010000 -0.671978
v 5.906700 0.010000 -0.671978
v 5.906700 -0.010000 0.000000
v 5.906700 0.010000 0.000000
v 5.810637 -0.010000 0.000000
v 5.810637 0.010000 0.000000
v 5.810637 -0.010000 -0.288191
v 5.810637 0.010000 -0.288191
v 5.522914 -0.010000 -0.288191
v 5.522914 0.010000 -0.288191
v 5.522914 -0.010000 0.000000
v 5.522914 0.010000 0.000000
v 5.810637 -0.010000 -0.575914
v 5.810637 0.010000 -0.575914
v 5.522914 -0.010000 -0.575914
v 5.522914 0.010000 -0.575914
v 5.522914 -0.010000 -0.383786
v 5.522914 0.010000 -0.383786
v 5.810637 -0.010000 -0.383786
v 5.810637 0.010000 -0.383786
v 6.056700 -0.010000 0.000000
v 6.056700 0.010000 0.000000
v 6.056700 -0.010000 -0.671978
v 6.056700 0.010000 -0.671978
v 6.152764 -0.010000 -0.671978
v 6.152764 0.010000 -0.671978
v 6.152764 -0.010000 -0.479850
v 6.152764 0.010000 -0.479850
v 6.248828 -0.010000 -0.479850
v 6.248828 0.010000 -0.479850
v 6.248828 -0.010000 -0.383786
v 6.248828 0.010000 -0.383786
v 6.152764 -0.010000 -0.383786
v 6.152764 0.010000 -0.383786
v 6.152764 -0.010000 0.000000
v 6.152764 0.010000 0.000000
v 6.440486 -0.010000 -0.479850
v 6.440486 0.010000 -0.479850
v 6.440486 -0.010000 -0.671978
v 6.440486 0.010000 -0.671978
v 6.536551 -0.010000 -0.671978
v 6.536551 0.010000 -0.671978
v 6.536551 -0.010000 0.000000
v 6.536551 0.010000 0.000000
v 6.440486 -0.010000 0.000000
v 6.440486 0.010000 0.000000
v 6.440486 -0.010000 -0.383786
v 6.440486 0.010000 -0.383786
v 6.344892 -0.010000 -0.383786
v 6.344892 0.010000 -0.383786
v 6.344892 -0.010000 -0.479850
v 6.344892 0.010000 -0.479850
v 6.248828 -0.010000 -0.288191
v 6.248828 0.010000 -0.288191
v 6.248828 -0.010000 -0.383786
v 6.248828 0.010000 -0.383786
v 6.344892 -0.010000 -0.383786
v 6.344892 0.010000 -0.383786
v 6.344892 -0.010000 -0.288191
v 6.344892 0.010000 -0.288191
vn 0.0000 1.0000 0.0000
vn 0.0000 0.0000 1.0000
vn 0.0000 -1.0000 0.0000
vn 0.0000 0.0000 -1.0000
vn -0.7071 0.0000 0.7071
vn -0.7071 0.0000 -0.7071
vn 0.7071 0.0000 -0.7071
vn 0.7071 0.0000 0.7071
usemtl None
s off
f 1//1 3//1 2//1
f 1//1 4//1 3//1
f 9//1 11//1 10//1
f 9//1 12//1 11//1
f 1//1 7//1 4//1
f 7//1 5//1 4//1
f 7//1 6//1 5//1
f 15//1 9//1 16//1
f 15//1 14//1 9//1
f 14//1 12//1 9//1
f 1//1 8//1 7//1
f 17//1 19//1 18//1
f 17//1 20//1 19//1
f 13//1 12//1 14//1
f 21//1 30//1 22//1
f 30//1 23//1 22//1
f 30//1 29//1 23//1
f 29//1 24//1 23//1
f 21//1 31//1 30//1
f 32//1 24//1 29//1
f 21//1 27//1 31//1
f 27//1 32//1 31//1
f 27//1 26//1 32//1
f 26//1 24//1 32//1
f 21//1 28//1 27//1
f 25//1 24//1 26//1
f 33//1 37//1 34//1
f 37//1 35//1 34//1
f 37//1 36//1 35//1
f 33//1 38//1 37//1
f 33//1 41//1 38//1
f 41//1 39//1 38//1
f 41//1 40//1 39//1
f 33//1 42//1 41//1
f 33//1 43//1 42//1
f 33//1 44//1 43//1
f 45//1 51//1 46//1
f 51//1 47//1 46//1
f 51//1 50//1 47//1
f 50//1 48//1 47//1
f 45//1 52//1 51//1
f 49//1 48//1 50//1
f 45//1 55//1 52//1
f 55//1 53//1 52//1
f 55//1 54//1 53//1
f 45//1 56//1 55//1
f 57//1 59//1 58//1
f 57//1 60//1 59//1
f 61//1 65//1 62//1
f 65//1 63//1 62//1
f 65//1 64//1 63//1
f 61//1 66//1 65//1
f 69//1 71//1 70//1
f 69//1 72//1 71//1
f 61//1 67//1 66//1
f 61//1 68//1 67//1
f 73//1 75//1 74//1
f 73//1 76//1 75//1
f 73//1 77//1 76//1
f 73//1 78//1 77//1
f 79//1 88//1 80//1
f 88//1 81//1 80//1
f 88//1 87//1 81//1
f 87//1 82//1 81//1
f 79//1 89//1 88//1
f 90//1 82//1 87//1
f 79//1 85//1 89//1
f 85//1 90//1 89//1
f 85//1 84//1 90//1
f 84//1 82//1 90//1
f 79//1 86//1 85//1
f 83//1 82//1 84//1
f 91//1 93//1 92//1
f 91//1 94//1 93//1
f 99//1 101//1 100//1
f 99//1 102//1 101//1
f 91//1 97//1 94//1
f 97//1 95//1 94//1
f 97//1 96//1 95//1
f 91//1 98//1 97//1
f 107//1 109//1 108//1
f 107//1 110//1 109//1
f 105//1 99//1 106//1
f 105//1 104//1 99//1
f 104//1 102//1 99//1
f 103//1 102//1 104//1
f 111//1 113//1 112//1
f 111//1 114//1 113//1
f 122//2 114//2 111//2
f 121//1 115//1 122//1
f 115//2 114//2 122//2
f 121//1 116//1 115//1
f 119//1 121//1 120//1
f 119//1 116//1 121//1
f 119//1 117//1 116//1
f 119//1 118//1 117//1
f 123//1 127//1 124//1
f 127//1 125//1 124//1
f 127//1 126//1 125//1
f 123//1 128//1 127//1
f 123//1 131//1 128//1
f 131//1 129//1 128//1
f 131//1 130//1 129//1
f 123//1 132//1 131//1
f 135//3 133//3 134//3
f 136//3 133//3 135//3
f 143//3 141//3 142//3
f 144//3 141//3 143//3
f 139//3 133//3 136//3
f 137//3 139//3 136//3
f 138//3 139//3 137//3
f 141//3 147//3 148//3
f 146//3 147//3 141//3
f 144//3 146//3 141//3
f 140//3 133//3 139//3
f 151//3 149//3 150//3
f 152//3 149//3 151//3
f 144//3 145//3 146//3
f 162//3 153//3 154//3
f 155//3 162//3 154//3
f 161//3 162//3 155//3
f 156//3 161//3 155//3
f 163//3 153//3 162//3
f 156//3 164//3 161//3
f 159//3 153//3 163//3
f 164//3 159//3 163//3
f 158//3 159//3 164//3
f 156//3 158//3 164//3
f 160//3 153//3 159//3
f 156//3 157//3 158//3
f 169//3 165//3 166//3
f 167//3 169//3 166//3
f 168//3 169//3 167//3
f 170//3 165//3 169//3
f 173//3 165//3 170//3
f 171//3 173//3 170//3
f 172//3 173//3 171//3
f 174//3 165//3 173//3
f 175//3 165//3 174//3
f 176//3 165//3 175//3
f 183//3 177//3 178//3
f 179//3 183//3 178//3
f 182//3 183//3 179//3
f 180//3 182//3 179//3
f 184//3 177//3 183//3
f 180//3 181//3 182//3
f 187//3 177//3 184//3
f 185//3 187//3 184//3
f 186//3 187//3 185//3
f 188//3 177//3 187//3
f 191//3 189//3 190//3
f 192//3 189//3 191//3
f 197//3 193//3 194//3
f 195//3 197//3 194//3
f 196//3 197//3 195//3
f 198//3 193//3 197//3
f 203//3 201//3 202//3
f 204//3 201//3 203//3
f 199//3 193//3 198//3
f 200//3 193//3 199//3
f 207//3 205//3 206//3
f 208//3 205//3 207//3
f 209//3 205//3 208//3
f 210//3 205//3 209//3
f 220//3 211//3 212//3
f 213//3 220//3 212//3
f 219//3 220//3 213//3
f 214//3 219//3 213//3
f 221//3 211//3 220//3
f 214//3 222//3 219//3
f 217//3 211//3 221//3
f 222//3 217//3 221//3
f 216//3 217//3 222//3
f 214//3 216//3 222//3
f 218//3 211//3 217//3
f 214//3 215//3 216//3
f 225//3 223//3 224//3
f 226//3 223//3 225//3
f 233//3 231//3 232//3
f 234//3 231//3 233//3
f 229//3 223//3 226//3
f 227//3 229//3 226//3
f 228//3 229//3 227//3
f 230//3 223//3 229//3
f 241//3 239//3 240//3
f 242//3 239//3 241//3
f 231//3 237//3 238//3
f 236//3 237//3 231//3
f 234//3 236//3 231//3
f 234//3 235//3 236//3
f 245//3 243//3 244//3
f 246//3 243//3 245//3
f 246//4 254//4 243//4
f 247//3 253//3 254//3
f 246//2 247//2 254//2
f 248//3 253//3 247//3
f 253//3 251//3 252//3
f 248//3 251//3 253//3
f 249//3 251//3 248//3
f 250//3 251//3 249//3
f 259//3 255//3 256//3
f 257//3 259//3 256//3
f 258//3 259//3 257//3
f 260//3 255//3 259//3
f 263//3 255//3 260//3
f 261//3 263//3 260//3
f 262//3 263//3 261//3
f 264//3 255//3 263//3
s 1
f 266//5 268//6 267//6 265//5
f 268//6 270//7 269//7 267//6
f 270//7 272//8 271//8 269//7
f 272//8 274//8 273//8 271//8
f 274//8 276//7 275//7 273//8
f 276//7 278//7 277//7 275//7
f 278//7 280//8 279//8 277//7
f 280//8 282//8 281//8 279//8
f 282//8 284//8 283//8 281//8
f 284//8 266//5 265//5 283//8
f 286//5 288//6 287//6 285//5
f 288//6 290//7 289//7 287//6
f 290//7 292//8 291//8 289//7
f 292//8 294//8 293//8 291//8
f 294//8 296//7 295//7 293//8
f 296//7 298//7 297//7 295//7
f 298//7 300//8 299//8 297//7
f 300//8 302//5 301//5 299//8
f 302//5 304//6 303//6 301//5
f 304//6 306//6 305//6 303//6
f 306//6 308//5 307//5 305//6
f 308//5 286//5 285//5 307//5
f 310//5 312//6 311//6 309//5
f 312//6 314//7 313//7 311//6
f 314//7 316//7 315//7 313//7
f 316//7 318//7 317//7 315//7
f 318//7 320//8 319//8 317//7
f 320//8 322//8 321//8 319//8
f 322//8 324//8 323//8 321//8
f 324//8 310//5 309//5 323//8
f 326//6 328//6 327//6 325//6
f 328//6 330//7 329//7 327//6
f 330//7 332//8 331//8 329//7
f 332//8 334//5 333//5 331//8
f 334//5 336//5 335//5 333//5
f 336//5 338//5 337//5 335//5
f 338//5 340//6 339//6 337//5
f 340//6 326//6 325//6 339//6
f 342//5 344//6 343//6 341//5
f 344//6 346//7 345//7 343//6
f 346//7 348//8 347//8 345//7
f 348//8 342//5 341//5 347//8
f 350//5 352//6 351//6 349//5
f 352//6 354//7 353//7 351//6
f 354//7 356//8 355//8 353//7
f 356//8 358//5 357//5 355//8
f 358//5 360//5 359//5 357//5
f 360//5 362//8 361//8 359//5
f 362//8 364//8 363//8 361//8
f 364//8 350//5 349//5 363//8
f 366//5 368//8 367//8 365//5
f 368//8 370//7 369//7 367//8
f 370//7 372//6 371//6 369//7
f 372//6 366//5 365//5 371//6
f 374//5 376//6 375//6 373//5
f 376//6 378//7 377//7 375//6
f 378//7 380//7 379//7 377//7
f 380//7 382//7 381//7 379//7
f 382//7 384//8 383//8 381//7
f 384//8 374//5 373//5 383//8
f 386//5 388//6 387//6 385//5
f 388//6 390//7 389//7 387//6
f 390//7 392//8 391//8 389//7
f 392//8 394//8 393//8 391//8
f 394//8 396//7 395//7 393//8
f 396//7 398//7 397//7 395//7
f 398//7 400//8 399//8 397//7
f 400//8 386//5 385//5 399//8
f 402//5 404//6 403//6 401//5
f 404//6 406//7 405//7 403//6
f 406//7 408//8 407//8 405//7
f 408//8 402//5 401//5 407//8
f 410//5 412//6 411//6 409//5
f 412//6 414//7 413//7 411//6
f 414//7 416//8 415//8 413//7
f 416//8 418//5 417//5 415//8
f 418//5 420//5 419//5 417//5
f 420//5 422//8 421//8 419//5
f 422//8 424//7 423//7 421//8
f 424//7 426//7 425//7 423//7
f 426//7 428//8 427//8 425//7
f 428//8 430//8 429//8 427//8
f 430//8 432//8 431//8 429//8
f 432//8 410//5 409//5 431//8
f 434//5 436//6 435//6 433//5
f 436//6 438//7 437//7 435//6
f 438//7 440//8 439//8 437//7
f 440//8 434//5 433//5 439//8
f 442//5 444//6 443//6 441//5
f 444//6 446//7 445//7 443//6
f 446//7 448//8 447//8 445//7
f 448//8 450//8 449//8 447//8
f 450//8 452//7 451//7 449//8
f 452//7 454//7 453//7 451//7
f 454//7 456//8 455//8 453//7
f 456//8 458//8 457//8 455//8
f 458//8 460//7 459//7 457//8
f 460//7 462//7 461//7 459//7
f 462//7 464//8 463//8 461//7
f 464//8 442//5 441//5 463//8
f 466//5 468//6 467//6 465//5
f 468//6 470//7 469//7 467//6
f 470//7 472//8 471//8 469//7
f 472//8 474//5 473//5 471//8
f 474//5 476//5 475//5 473//5
f 476//5 478//8 477//8 475//5
f 478//8 480//8 479//8 477//8
f 480//8 466//5 465//5 479//8
f 482//5 484//8 483//8 481//5
f 484//8 486//7 485//7 483//8
f 486//7 488//6 487//6 485//7
f 488//6 482//5 481//5 487//6
f 490//5 492//6 491//6 489//5
f 492//6 494//7 493//7 491//6
f 494//7 496//7 495//7 493//7
f 496//7 498//7 497//7 495//7
f 498//7 500//8 499//8 497//7
f 500//8 502//8 501//8 499//8
f 502//8 504//8 503//8 501//8
f 504//8 490//5 489//5 503//8
f 506//6 508//6 507//6 505//6
f 508//6 510//7 509//7 507//6
f 510//7 512//8 511//8 509//7
f 512//8 514//5 513//5 511//8
f 514//5 516//5 515//5 513//5
f 516//5 518//5 517//5 515//5
f 518//5 520//6 519//6 517//5
f 520//6 506//6 505//6 519//6
f 522//5 524//6 523//6 521//5
f 524//6 526//7 525//7 523//6
f 526//7 528//8 527//8 525//7
f 528//8 522//5 521//5 527//8
