# Blender v2.79 (sub 0) OBJ File: ''
# www.blender.org
mtllib keyR.mtl
o Text
v 0.000000 0.010000 0.000000
v 0.000000 0.010000 -0.671978
v 0.479850 0.010000 -0.671978
v 0.479850 0.010000 -0.383786
v 0.383786 0.010000 -0.383786
v 0.383786 0.010000 -0.575914
v 0.096064 0.010000 -0.575914
v 0.096064 0.010000 -0.383786
v 0.383786 0.010000 -0.383786
v 0.383786 0.010000 -0.288191
v 0.096064 0.010000 -0.288191
v 0.096064 0.010000 0.000000
v 0.383786 0.010000 0.000000
v 0.383786 0.010000 -0.288191
v 0.479850 0.010000 -0.288191
v 0.479850 0.010000 0.000000
v 0.000000 -0.010000 0.000000
v 0.000000 -0.010000 -0.671978
v 0.479850 -0.010000 -0.671978
v 0.479850 -0.010000 -0.383786
v 0.383786 -0.010000 -0.383786
v 0.383786 -0.010000 -0.575914
v 0.096064 -0.010000 -0.575914
v 0.096064 -0.010000 -0.383786
v 0.383786 -0.010000 -0.383786
v 0.383786 -0.010000 -0.288191
v 0.096064 -0.010000 -0.288191
v 0.096064 -0.010000 0.000000
v 0.383786 -0.010000 0.000000
v 0.383786 -0.010000 -0.288191
v 0.479850 -0.010000 -0.288191
v 0.479850 -0.010000 0.000000
v 0.000000 -0.010000 0.000000
v 0.000000 0.010000 0.000000
v 0.000000 -0.010000 -0.671978
v 0.000000 0.010000 -0.671978
v 0.479850 -0.010000 -0.671978
v 0.479850 0.010000 -0.671978
v 0.479850 -0.010000 -0.383786
v 0.479850 0.010000 -0.383786
v 0.383786 -0.010000 -0.383786
v 0.383786 0.010000 -0.383786
v 0.383786 -0.010000 -0.575914
v 0.383786 0.010000 -0.575914
v 0.096064 -0.010000 -0.575914
v 0.096064 0.010000 -0.575914
v 0.096064 -0.010000 -0.383786
v 0.096064 0.010000 -0.383786
v 0.383786 -0.010000 -0.383786
v 0.383786 0.010000 -0.383786
v 0.383786 -0.010000 -0.288191
v 0.383786 0.010000 -0.288191
v 0.096064 -0.010000 -0.288191
v 0.096064 0.010000 -0.288191
v 0.096064 -0.010000 0.000000
v 0.096064 0.010000 0.000000
v 0.383786 -0.010000 0.000000
v 0.383786 0.010000 0.000000
v 0.383786 -0.010000 -0.288191
v 0.383786 0.010000 -0.288191
v 0.479850 -0.010000 -0.288191
v 0.479850 0.010000 -0.288191
v 0.479850 -0.010000 0.000000
v 0.479850 0.010000 0.000000
vn 0.0000 1.0000 0.0000
vn 0.0000 -1.0000 0.0000
vn -0.7071 0.0000 0.7071
vn -0.7071 0.0000 -0.7071
vn 0.7071 0.0000 -0.7071
vn 0.7071 0.0000 0.7071
usemtl None
s off
f 1//1 7//1 2//1
f 7//1 3//1 2//1
f 7//1 6//1 3//1
f 6//1 4//1 3//1
f 1//1 8//1 7//1
f 5//1 4//1 6//1
f 1//1 11//1 8//1
f 11//1 9//1 8//1
f 11//1 10//1 9//1
f 1//1 12//1 11//1
f 13//1 15//1 14//1
f 13//1 16//1 15//1
f 23//2 17//2 18//2
f 19//2 23//2 18//2
f 22//2 23//2 19//2
f 20//2 22//2 19//2
f 24//2 17//2 23//2
f 20//2 21//2 22//2
f 27//2 17//2 24//2
f 25//2 27//2 24//2
f 26//2 27//2 25//2
f 28//2 17//2 27//2
f 31//2 29//2 30//2
f 32//2 29//2 31//2
s 1
f 34//3 36//4 35//4 33//3
f 36//4 38//5 37//5 35//4
f 38//5 40//6 39//6 37//5
f 40//6 42//3 41//3 39//6
f 42//3 44//3 43//3 41//3
f 44//3 46//6 45//6 43//3
f 46//6 48//5 47//5 45//6
f 48//5 50//5 49//5 47//5
f 50//5 52//6 51//6 49//5
f 52//6 54//6 53//6 51//6
f 54//6 56//6 55//6 53//6
f 56//6 34//3 33//3 55//6
f 58//3 60//4 59//4 57//3
f 60//4 62//5 61//5 59//4
f 62//5 64//6 63//6 61//5
f 64//6 58//3 57//3 63//6
