# Blender v2.79 (sub 0) OBJ File: ''
# www.blender.org
mtllib LeftMouse.mtl
o Plane_Plane.004
v 0.000000 0.000000 3.000000
v 1.000000 0.000000 2.000000
v 0.000000 0.000000 2.000000
v 0.000000 0.000000 -2.000000
v 0.000000 0.000000 -3.000000
v 6.000000 0.000000 -2.000000
v 6.000000 0.000000 -3.000000
v 5.000000 0.000000 2.000000
v 6.000000 0.000000 2.000000
v 5.000000 0.000000 3.000000
v 6.000000 0.000000 3.000000
v 1.000000 0.000000 3.000000
v 5.000000 0.000000 -6.000000
v 6.000000 0.000000 -6.000000
v 5.000000 0.000000 -7.000000
v 6.000000 0.000000 -7.000000
v 1.000000 0.000000 -6.000000
v 1.000000 0.000000 -7.000000
v 0.000000 0.000000 -6.000000
v 0.000000 0.000000 -7.000000
v 1.000000 0.000000 -3.000000
v 5.000000 0.000000 -2.000000
v 5.000000 0.000000 -3.000000
v 1.000000 0.000000 -2.000000
v 3.000000 0.000000 -3.000000
v 3.000000 0.000000 -6.000000
v 0.000000 0.100000 3.000000
v 1.000000 0.100000 2.000000
v 0.000000 0.100000 2.000000
v 0.000000 0.100000 -2.000000
v 0.000000 0.100000 -3.000000
v 6.000000 0.100000 -2.000000
v 6.000000 0.100000 -3.000000
v 5.000000 0.100000 2.000000
v 6.000000 0.100000 2.000000
v 5.000000 0.100000 3.000000
v 6.000000 0.100000 3.000000
v 1.000000 0.100000 3.000000
v 5.000000 0.100000 -6.000000
v 6.000000 0.100000 -6.000000
v 5.000000 0.100000 -7.000000
v 6.000000 0.100000 -7.000000
v 1.000000 0.100000 -6.000000
v 1.000000 0.100000 -7.000000
v 0.000000 0.100000 -6.000000
v 0.000000 0.100000 -7.000000
v 1.000000 0.100000 -3.000000
v 5.000000 0.100000 -2.000000
v 5.000000 0.100000 -3.000000
v 1.000000 0.100000 -2.000000
v 3.000000 0.100000 -3.000000
v 3.000000 0.100000 -6.000000
vn 0.0000 -1.0000 0.0000
vn 0.0000 0.0000 1.0000
vn 0.0000 1.0000 0.0000
vn 1.0000 0.0000 0.0000
vn -1.0000 0.0000 0.0000
vn 0.0000 0.0000 -1.0000
usemtl None
s off
f 1//1 3//1 2//1 12//1
f 3//1 4//1 24//1 2//1
f 4//1 5//1 21//1 24//1
f 21//1 23//1 22//1 24//1
f 23//1 7//1 6//1 22//1
f 6//1 9//1 8//1 22//1
f 9//1 11//1 10//1 8//1
f 10//1 12//1 2//1 8//1
f 23//1 13//1 14//1 7//1
f 13//1 15//1 16//1 14//1
f 13//1 26//1 17//1 18//1 15//1
f 17//1 19//1 20//1 18//1
f 17//1 21//1 5//1 19//1
f 25//2 21//2 23//2
f 17//1 26//1 25//1 21//1
f 27//3 38//3 28//3 29//3
f 29//3 28//3 50//3 30//3
f 30//3 50//3 47//3 31//3
f 47//3 50//3 48//3 49//3
f 49//3 48//3 32//3 33//3
f 32//3 48//3 34//3 35//3
f 35//3 34//3 36//3 37//3
f 36//3 34//3 28//3 38//3
f 49//3 33//3 40//3 39//3
f 39//3 40//3 42//3 41//3
f 39//3 41//3 44//3 43//3 52//3
f 43//3 44//3 46//3 45//3
f 43//3 45//3 31//3 47//3
f 51//2 49//2 47//2
f 43//3 47//3 51//3 52//3
f 11//4 9//4 35//4 37//4
f 1//2 12//2 38//2 27//2
f 13//5 23//5 49//5 39//5
f 15//6 18//6 44//6 41//6
f 5//5 4//5 30//5 31//5
f 12//2 10//2 36//2 38//2
f 26//2 13//2 39//2 52//2
f 4//5 3//5 29//5 30//5
f 20//5 19//5 45//5 46//5
f 24//2 22//2 48//2 50//2
f 7//4 14//4 40//4 33//4
f 2//4 24//4 50//4 28//4
f 18//6 20//6 46//6 44//6
f 6//4 7//4 33//4 32//4
f 16//6 15//6 41//6 42//6
f 9//4 6//4 32//4 35//4
f 14//4 16//4 42//4 40//4
f 8//6 2//6 28//6 34//6
f 25//4 26//4 52//4 51//4
f 10//2 11//2 37//2 36//2
f 19//5 5//5 31//5 45//5
f 3//5 1//5 27//5 29//5
f 22//5 8//5 34//5 48//5
f 25//2 23//2 49//2 51//2
