# Blender v2.79 (sub 0) OBJ File: ''
# www.blender.org
mtllib Mouse.mtl
o Plane_Plane.004
v 0.000000 0.000000 3.000000
v 1.000000 0.000000 2.000000
v 0.000000 0.000000 2.000000
v 0.000000 0.000000 -2.000000
v 0.000000 0.000000 -3.000000
v 6.000000 0.000000 -2.000000
v 6.000000 0.000000 -3.000000
v 5.000000 0.000000 2.000000
v 6.000000 0.000000 2.000000
v 5.000000 0.000000 3.000000
v 6.000000 0.000000 3.000000
v 1.000000 0.000000 3.000000
v 5.000000 0.000000 -6.000000
v 6.000000 0.000000 -6.000000
v 5.000000 0.000000 -7.000000
v 6.000000 0.000000 -7.000000
v 1.000000 0.000000 -6.000000
v 1.000000 0.000000 -7.000000
v 0.000000 0.000000 -6.000000
v 0.000000 0.000000 -7.000000
v 1.000000 0.000000 -3.000000
v 5.000000 0.000000 -2.000000
v 5.000000 0.000000 -3.000000
v 1.000000 0.000000 -2.000000
v 3.000000 0.000000 -3.000000
v 0.000000 0.100000 3.000000
v 1.000000 0.100000 2.000000
v 0.000000 0.100000 2.000000
v 0.000000 0.100000 -2.000000
v 0.000000 0.100000 -3.000000
v 6.000000 0.100000 -2.000000
v 6.000000 0.100000 -3.000000
v 5.000000 0.100000 2.000000
v 6.000000 0.100000 2.000000
v 5.000000 0.100000 3.000000
v 6.000000 0.100000 3.000000
v 1.000000 0.100000 3.000000
v 5.000000 0.100000 -6.000000
v 6.000000 0.100000 -6.000000
v 5.000000 0.100000 -7.000000
v 6.000000 0.100000 -7.000000
v 1.000000 0.100000 -6.000000
v 1.000000 0.100000 -7.000000
v 0.000000 0.100000 -6.000000
v 0.000000 0.100000 -7.000000
v 1.000000 0.100000 -3.000000
v 5.000000 0.100000 -2.000000
v 5.000000 0.100000 -3.000000
v 1.000000 0.100000 -2.000000
v 3.000000 0.100000 -3.000000
vn 0.0000 -1.0000 0.0000
vn 0.0000 0.0000 1.0000
vn 0.0000 1.0000 0.0000
vn 1.0000 0.0000 0.0000
vn -1.0000 0.0000 0.0000
vn 0.0000 0.0000 -1.0000
usemtl None
s off
f 1//1 3//1 2//1 12//1
f 3//1 4//1 24//1 2//1
f 4//1 5//1 21//1 24//1
f 21//1 23//1 22//1 24//1
f 23//1 7//1 6//1 22//1
f 6//1 9//1 8//1 22//1
f 9//1 11//1 10//1 8//1
f 10//1 12//1 2//1 8//1
f 23//1 13//1 14//1 7//1
f 13//1 15//1 16//1 14//1
f 13//1 17//1 18//1 15//1
f 17//1 19//1 20//1 18//1
f 17//1 21//1 5//1 19//1
f 25//2 21//2 23//2
f 26//3 37//3 27//3 28//3
f 28//3 27//3 49//3 29//3
f 29//3 49//3 46//3 30//3
f 46//3 49//3 47//3 48//3
f 48//3 47//3 31//3 32//3
f 31//3 47//3 33//3 34//3
f 34//3 33//3 35//3 36//3
f 35//3 33//3 27//3 37//3
f 48//3 32//3 39//3 38//3
f 38//3 39//3 41//3 40//3
f 38//3 40//3 43//3 42//3
f 42//3 43//3 45//3 44//3
f 42//3 44//3 30//3 46//3
f 50//2 48//2 46//2
f 11//4 9//4 34//4 36//4
f 1//2 12//2 37//2 26//2
f 13//5 23//5 48//5 38//5
f 15//6 18//6 43//6 40//6
f 5//5 4//5 29//5 30//5
f 12//2 10//2 35//2 37//2
f 17//2 13//2 38//2 42//2
f 4//5 3//5 28//5 29//5
f 20//5 19//5 44//5 45//5
f 24//2 22//2 47//2 49//2
f 7//4 14//4 39//4 32//4
f 2//4 24//4 49//4 27//4
f 21//2 25//2 50//2 46//2
f 18//6 20//6 45//6 43//6
f 6//4 7//4 32//4 31//4
f 16//6 15//6 40//6 41//6
f 9//4 6//4 31//4 34//4
f 14//4 16//4 41//4 39//4
f 8//6 2//6 27//6 33//6
f 10//2 11//2 36//2 35//2
f 21//4 17//4 42//4 46//4
f 19//5 5//5 30//5 44//5
f 3//5 1//5 26//5 28//5
f 22//5 8//5 33//5 47//5
f 25//2 23//2 48//2 50//2
