# Blender v2.79 (sub 0) OBJ File: ''
# www.blender.org
mtllib Space.mtl
o Text
v 2.319400 0.010000 0.000000
v 2.319400 0.010000 -0.671978
v 2.799251 0.010000 -0.671978
v 2.799251 0.010000 -0.575914
v 2.415464 0.010000 -0.575914
v 2.415464 0.010000 -0.383786
v 2.799251 0.010000 -0.383786
v 2.799251 0.010000 -0.288191
v 2.415464 0.010000 -0.288191
v 2.415464 0.010000 -0.096064
v 2.799251 0.010000 -0.096064
v 2.799251 0.010000 0.000000
v 1.739550 0.010000 0.000000
v 1.739550 0.010000 -0.671978
v 2.219400 0.010000 -0.671978
v 2.219400 0.010000 -0.575914
v 1.835614 0.010000 -0.575914
v 1.835614 0.010000 -0.096064
v 2.219400 0.010000 -0.096064
v 2.219400 0.010000 0.000000
v 1.159700 0.010000 0.000000
v 1.159700 0.010000 -0.671978
v 1.639550 0.010000 -0.671978
v 1.639550 0.010000 0.000000
v 1.543486 0.010000 0.000000
v 1.543486 0.010000 -0.288191
v 1.255764 0.010000 -0.288191
v 1.255764 0.010000 0.000000
v 1.543486 0.010000 -0.575914
v 1.255764 0.010000 -0.575914
v 1.255764 0.010000 -0.383786
v 1.543486 0.010000 -0.383786
v 0.579850 0.010000 0.000000
v 0.579850 0.010000 -0.671978
v 1.059700 0.010000 -0.671978
v 1.059700 0.010000 -0.288191
v 0.675914 0.010000 -0.288191
v 0.675914 0.010000 0.000000
v 0.963636 0.010000 -0.575914
v 0.675914 0.010000 -0.575914
v 0.675914 0.010000 -0.383786
v 0.963636 0.010000 -0.383786
v 0.096064 0.010000 -0.575914
v 0.096064 0.010000 -0.671978
v 0.479850 0.010000 -0.671978
v 0.479850 0.010000 -0.575914
v 0.000000 0.010000 -0.383786
v 0.000000 0.010000 -0.575914
v 0.096064 0.010000 -0.575914
v 0.096064 0.010000 -0.383786
v 0.096064 0.010000 -0.288191
v 0.096064 0.010000 -0.383786
v 0.383786 0.010000 -0.383786
v 0.383786 0.010000 -0.288191
v 0.383786 0.010000 -0.096064
v 0.383786 0.010000 -0.288191
v 0.479850 0.010000 -0.288191
v 0.479850 0.010000 -0.096064
v 0.000000 0.010000 0.000000
v 0.000000 0.010000 -0.096064
v 0.383786 0.010000 -0.096064
v 0.383786 0.010000 0.000000
v 2.319400 -0.010000 0.000000
v 2.319400 -0.010000 -0.671978
v 2.799251 -0.010000 -0.671978
v 2.799251 -0.010000 -0.575914
v 2.415464 -0.010000 -0.575914
v 2.415464 -0.010000 -0.383786
v 2.799251 -0.010000 -0.383786
v 2.799251 -0.010000 -0.288191
v 2.415464 -0.010000 -0.288191
v 2.415464 -0.010000 -0.096064
v 2.799251 -0.010000 -0.096064
v 2.799251 -0.010000 0.000000
v 1.739550 -0.010000 0.000000
v 1.739550 -0.010000 -0.671978
v 2.219400 -0.010000 -0.671978
v 2.219400 -0.010000 -0.575914
v 1.835614 -0.010000 -0.575914
v 1.835614 -0.010000 -0.096064
v 2.219400 -0.010000 -0.096064
v 2.219400 -0.010000 0.000000
v 1.159700 -0.010000 0.000000
v 1.159700 -0.010000 -0.671978
v 1.639550 -0.010000 -0.671978
v 1.639550 -0.010000 0.000000
v 1.543486 -0.010000 0.000000
v 1.543486 -0.010000 -0.288191
v 1.255764 -0.010000 -0.288191
v 1.255764 -0.010000 0.000000
v 1.543486 -0.010000 -0.575914
v 1.255764 -0.010000 -0.575914
v 1.255764 -0.010000 -0.383786
v 1.543486 -0.010000 -0.383786
v 0.579850 -0.010000 0.000000
v 0.579850 -0.010000 -0.671978
v 1.059700 -0.010000 -0.671978
v 1.059700 -0.010000 -0.288191
v 0.675914 -0.010000 -0.288191
v 0.675914 -0.010000 0.000000
v 0.963636 -0.010000 -0.575914
v 0.675914 -0.010000 -0.575914
v 0.675914 -0.010000 -0.383786
v 0.963636 -0.010000 -0.383786
v 0.096064 -0.010000 -0.575914
v 0.096064 -0.010000 -0.671978
v 0.479850 -0.010000 -0.671978
v 0.479850 -0.010000 -0.575914
v 0.000000 -0.010000 -0.383786
v 0.000000 -0.010000 -0.575914
v 0.096064 -0.010000 -0.575914
v 0.096064 -0.010000 -0.383786
v 0.096064 -0.010000 -0.288191
v 0.096064 -0.010000 -0.383786
v 0.383786 -0.010000 -0.383786
v 0.383786 -0.010000 -0.288191
v 0.383786 -0.010000 -0.096064
v 0.383786 -0.010000 -0.288191
v 0.479850 -0.010000 -0.288191
v 0.479850 -0.010000 -0.096064
v 0.000000 -0.010000 0.000000
v 0.000000 -0.010000 -0.096064
v 0.383786 -0.010000 -0.096064
v 0.383786 -0.010000 0.000000
v 0.096064 -0.010000 -0.575914
v 0.096064 0.010000 -0.575914
v 0.096064 -0.010000 -0.671978
v 0.096064 0.010000 -0.671978
v 0.479850 -0.010000 -0.671978
v 0.479850 0.010000 -0.671978
v 0.479850 -0.010000 -0.575914
v 0.479850 0.010000 -0.575914
v 0.000000 -0.010000 -0.383786
v 0.000000 0.010000 -0.383786
v 0.000000 -0.010000 -0.575914
v 0.000000 0.010000 -0.575914
v 0.096064 -0.010000 -0.575914
v 0.096064 0.010000 -0.575914
v 0.096064 -0.010000 -0.383786
v 0.096064 0.010000 -0.383786
v 0.096064 -0.010000 -0.288191
v 0.096064 0.010000 -0.288191
v 0.096064 -0.010000 -0.383786
v 0.096064 0.010000 -0.383786
v 0.383786 -0.010000 -0.383786
v 0.383786 0.010000 -0.383786
v 0.383786 -0.010000 -0.288191
v 0.383786 0.010000 -0.288191
v 0.383786 -0.010000 -0.096064
v 0.383786 0.010000 -0.096064
v 0.383786 -0.010000 -0.288191
v 0.383786 0.010000 -0.288191
v 0.479850 -0.010000 -0.288191
v 0.479850 0.010000 -0.288191
v 0.479850 -0.010000 -0.096064
v 0.479850 0.010000 -0.096064
v 0.000000 -0.010000 0.000000
v 0.000000 0.010000 0.000000
v 0.000000 -0.010000 -0.096064
v 0.000000 0.010000 -0.096064
v 0.383786 -0.010000 -0.096064
v 0.383786 0.010000 -0.096064
v 0.383786 -0.010000 0.000000
v 0.383786 0.010000 0.000000
v 0.579850 -0.010000 0.000000
v 0.579850 0.010000 0.000000
v 0.579850 -0.010000 -0.671978
v 0.579850 0.010000 -0.671978
v 1.059700 -0.010000 -0.671978
v 1.059700 0.010000 -0.671978
v 1.059700 -0.010000 -0.288191
v 1.059700 0.010000 -0.288191
v 0.675914 -0.010000 -0.288191
v 0.675914 0.010000 -0.288191
v 0.675914 -0.010000 0.000000
v 0.675914 0.010000 0.000000
v 0.963636 -0.010000 -0.575914
v 0.963636 0.010000 -0.575914
v 0.675914 -0.010000 -0.575914
v 0.675914 0.010000 -0.575914
v 0.675914 -0.010000 -0.383786
v 0.675914 0.010000 -0.383786
v 0.963636 -0.010000 -0.383786
v 0.963636 0.010000 -0.383786
v 1.159700 -0.010000 0.000000
v 1.159700 0.010000 0.000000
v 1.159700 -0.010000 -0.671978
v 1.159700 0.010000 -0.671978
v 1.639550 -0.010000 -0.671978
v 1.639550 0.010000 -0.671978
v 1.639550 -0.010000 0.000000
v 1.639550 0.010000 0.000000
v 1.543486 -0.010000 0.000000
v 1.543486 0.010000 0.000000
v 1.543486 -0.010000 -0.288191
v 1.543486 0.010000 -0.288191
v 1.255764 -0.010000 -0.288191
v 1.255764 0.010000 -0.288191
v 1.255764 -0.010000 0.000000
v 1.255764 0.010000 0.000000
v 1.543486 -0.010000 -0.575914
v 1.543486 0.010000 -0.575914
v 1.255764 -0.010000 -0.575914
v 1.255764 0.010000 -0.575914
v 1.255764 -0.010000 -0.383786
v 1.255764 0.010000 -0.383786
v 1.543486 -0.010000 -0.383786
v 1.543486 0.010000 -0.383786
v 1.739550 -0.010000 0.000000
v 1.739550 0.010000 0.000000
v 1.739550 -0.010000 -0.671978
v 1.739550 0.010000 -0.671978
v 2.219400 -0.010000 -0.671978
v 2.219400 0.010000 -0.671978
v 2.219400 -0.010000 -0.575914
v 2.219400 0.010000 -0.575914
v 1.835614 -0.010000 -0.575914
v 1.835614 0.010000 -0.575914
v 1.835614 -0.010000 -0.096064
v 1.835614 0.010000 -0.096064
v 2.219400 -0.010000 -0.096064
v 2.219400 0.010000 -0.096064
v 2.219400 -0.010000 0.000000
v 2.219400 0.010000 0.000000
v 2.319400 -0.010000 0.000000
v 2.319400 0.010000 0.000000
v 2.319400 -0.010000 -0.671978
v 2.319400 0.010000 -0.671978
v 2.799251 -0.010000 -0.671978
v 2.799251 0.010000 -0.671978
v 2.799251 -0.010000 -0.575914
v 2.799251 0.010000 -0.575914
v 2.415464 -0.010000 -0.575914
v 2.415464 0.010000 -0.575914
v 2.415464 -0.010000 -0.383786
v 2.415464 0.010000 -0.383786
v 2.799251 -0.010000 -0.383786
v 2.799251 0.010000 -0.383786
v 2.799251 -0.010000 -0.288191
v 2.799251 0.010000 -0.288191
v 2.415464 -0.010000 -0.288191
v 2.415464 0.010000 -0.288191
v 2.415464 -0.010000 -0.096064
v 2.415464 0.010000 -0.096064
v 2.799251 -0.010000 -0.096064
v 2.799251 0.010000 -0.096064
v 2.799251 -0.010000 0.000000
v 2.799251 0.010000 0.000000
vn 0.0000 1.0000 0.0000
vn 0.0000 -1.0000 0.0000
vn -0.7071 0.0000 0.7071
vn -0.7071 0.0000 -0.7071
vn 0.7071 0.0000 -0.7071
vn 0.7071 0.0000 0.7071
usemtl None
s off
f 1//1 5//1 2//1
f 5//1 3//1 2//1
f 5//1 4//1 3//1
f 1//1 6//1 5//1
f 1//1 9//1 6//1
f 9//1 7//1 6//1
f 9//1 8//1 7//1
f 1//1 10//1 9//1
f 1//1 11//1 10//1
f 1//1 12//1 11//1
f 13//1 17//1 14//1
f 17//1 15//1 14//1
f 17//1 16//1 15//1
f 13//1 18//1 17//1
f 13//1 19//1 18//1
f 13//1 20//1 19//1
f 21//1 30//1 22//1
f 30//1 23//1 22//1
f 30//1 29//1 23//1
f 29//1 24//1 23//1
f 21//1 31//1 30//1
f 32//1 24//1 29//1
f 21//1 27//1 31//1
f 27//1 32//1 31//1
f 27//1 26//1 32//1
f 26//1 24//1 32//1
f 21//1 28//1 27//1
f 25//1 24//1 26//1
f 33//1 40//1 34//1
f 40//1 35//1 34//1
f 40//1 39//1 35//1
f 39//1 36//1 35//1
f 33//1 41//1 40//1
f 42//1 36//1 39//1
f 33//1 37//1 41//1
f 37//1 42//1 41//1
f 37//1 36//1 42//1
f 33//1 38//1 37//1
f 55//1 57//1 56//1
f 55//1 58//1 57//1
f 59//1 61//1 60//1
f 59//1 62//1 61//1
f 43//1 45//1 44//1
f 43//1 46//1 45//1
f 47//1 49//1 48//1
f 47//1 50//1 49//1
f 51//1 53//1 52//1
f 51//1 54//1 53//1
f 67//2 63//2 64//2
f 65//2 67//2 64//2
f 66//2 67//2 65//2
f 68//2 63//2 67//2
f 71//2 63//2 68//2
f 69//2 71//2 68//2
f 70//2 71//2 69//2
f 72//2 63//2 71//2
f 73//2 63//2 72//2
f 74//2 63//2 73//2
f 79//2 75//2 76//2
f 77//2 79//2 76//2
f 78//2 79//2 77//2
f 80//2 75//2 79//2
f 81//2 75//2 80//2
f 82//2 75//2 81//2
f 92//2 83//2 84//2
f 85//2 92//2 84//2
f 91//2 92//2 85//2
f 86//2 91//2 85//2
f 93//2 83//2 92//2
f 86//2 94//2 91//2
f 89//2 83//2 93//2
f 94//2 89//2 93//2
f 88//2 89//2 94//2
f 86//2 88//2 94//2
f 90//2 83//2 89//2
f 86//2 87//2 88//2
f 102//2 95//2 96//2
f 97//2 102//2 96//2
f 101//2 102//2 97//2
f 98//2 101//2 97//2
f 103//2 95//2 102//2
f 98//2 104//2 101//2
f 99//2 95//2 103//2
f 104//2 99//2 103//2
f 98//2 99//2 104//2
f 100//2 95//2 99//2
f 119//2 117//2 118//2
f 120//2 117//2 119//2
f 123//2 121//2 122//2
f 124//2 121//2 123//2
f 107//2 105//2 106//2
f 108//2 105//2 107//2
f 111//2 109//2 110//2
f 112//2 109//2 111//2
f 115//2 113//2 114//2
f 116//2 113//2 115//2
s 1
f 126//3 128//4 127//4 125//3
f 128//4 130//5 129//5 127//4
f 130//5 132//6 131//6 129//5
f 132//6 126//3 125//3 131//6
f 134//3 136//4 135//4 133//3
f 136//4 138//5 137//5 135//4
f 138//5 140//6 139//6 137//5
f 140//6 134//3 133//3 139//6
f 142//3 144//4 143//4 141//3
f 144//4 146//5 145//5 143//4
f 146//5 148//6 147//6 145//5
f 148//6 142//3 141//3 147//6
f 150//3 152//4 151//4 149//3
f 152//4 154//5 153//5 151//4
f 154//5 156//6 155//6 153//5
f 156//6 150//3 149//3 155//6
f 158//3 160//4 159//4 157//3
f 160//4 162//5 161//5 159//4
f 162//5 164//6 163//6 161//5
f 164//6 158//3 157//3 163//6
f 166//3 168//4 167//4 165//3
f 168//4 170//5 169//5 167//4
f 170//5 172//6 171//6 169//5
f 172//6 174//6 173//6 171//6
f 174//6 176//6 175//6 173//6
f 176//6 166//3 165//3 175//6
f 178//3 180//6 179//6 177//3
f 180//6 182//5 181//5 179//6
f 182//5 184//4 183//4 181//5
f 184//4 178//3 177//3 183//4
f 186//3 188//4 187//4 185//3
f 188//4 190//5 189//5 187//4
f 190//5 192//6 191//6 189//5
f 192//6 194//3 193//3 191//6
f 194//3 196//3 195//3 193//3
f 196//3 198//6 197//6 195//3
f 198//6 200//6 199//6 197//6
f 200//6 186//3 185//3 199//6
f 202//3 204//6 203//6 201//3
f 204//6 206//5 205//5 203//6
f 206//5 208//4 207//4 205//5
f 208//4 202//3 201//3 207//4
f 210//3 212//4 211//4 209//3
f 212//4 214//5 213//5 211//4
f 214//5 216//6 215//6 213//5
f 216//6 218//6 217//6 215//6
f 218//6 220//5 219//5 217//6
f 220//5 222//5 221//5 219//5
f 222//5 224//6 223//6 221//5
f 224//6 210//3 209//3 223//6
f 226//3 228//4 227//4 225//3
f 228//4 230//5 229//5 227//4
f 230//5 232//6 231//6 229//5
f 232//6 234//6 233//6 231//6
f 234//6 236//5 235//5 233//6
f 236//5 238//5 237//5 235//5
f 238//5 240//6 239//6 237//5
f 240//6 242//6 241//6 239//6
f 242//6 244//5 243//5 241//6
f 244//5 246//5 245//5 243//5
f 246//5 248//6 247//6 245//5
f 248//6 226//3 225//3 247//6
