# MagicaVoxel @ Ephtracy

# group
g home-38

# material
mtllib home-38.mtl
usemtl palette

# normals
vn -1 0 0
vn 1 0 0
vn 0 0 1
vn 0 0 -1
vn 0 -1 0
vn 0 1 0

# texcoords
vt 0.0527344 0.5
vt 0.0605469 0.5

# verts
v -4 5 16
v -4 5 9
v -4 5 -9
v -4 5 -16
v -4 8 16
v -4 8 9
v -4 8 -9
v -4 8 -16
v 2 11 15
v 2 11 14
v 2 11 -14
v 2 11 -15
v 2 12 15
v 2 12 14
v 2 12 -14
v 2 12 -15
v 3 0 16
v 3 0 10
v 3 0 -10
v 3 0 -16
v 3 5 16
v 3 5 10
v 3 5 -10
v 3 5 -16
v 3 7 15
v 3 7 10
v 3 7 -10
v 3 7 -15
v 3 8 15
v 3 8 10
v 3 8 -10
v 3 8 -15
v 4 8 15
v 4 8 14
v 4 8 -14
v 4 8 -15
v 4 11 15
v 4 11 14
v 4 11 -14
v 4 11 -15
v 5 5 10
v 5 5 9
v 5 5 -9
v 5 5 -10
v 5 6 10
v 5 6 9
v 5 6 -9
v 5 6 -10
v 13 11 15
v 13 11 14
v 13 11 -15
v 13 11 -16
v 13 12 15
v 13 12 14
v 13 12 -15
v 13 12 -16
v 14 7 15
v 14 7 10
v 14 7 -10
v 14 7 -15
v 14 8 15
v 14 8 10
v 14 8 -10
v 14 8 -15
v 15 0 16
v 15 0 10
v 15 0 -10
v 15 0 -16
v 15 5 16
v 15 5 10
v 15 5 -10
v 15 5 -16
v 15 8 15
v 15 8 14
v 15 8 -15
v 15 8 -16
v 15 11 15
v 15 11 14
v 15 11 -15
v 15 11 -16
v 17 5 10
v 17 5 9
v 17 5 -9
v 17 5 -10
v 17 6 10
v 17 6 9
v 17 6 -9
v 17 6 -10
v 23 7 15
v 23 7 10
v 23 7 -10
v 23 7 -15
v 23 8 15
v 23 8 10
v 23 8 -10
v 23 8 -15
v -3 7 15
v -3 7 10
v -3 7 -10
v -3 7 -15
v -3 8 15
v -3 8 10
v -3 8 -10
v -3 8 -15
v 3 5 10
v 3 5 9
v 3 5 -9
v 3 5 -10
v 3 6 10
v 3 6 9
v 3 6 -9
v 3 6 -10
v 5 0 16
v 5 0 10
v 5 0 -10
v 5 0 -16
v 5 5 16
v 5 5 10
v 5 5 -10
v 5 5 -16
v 5 8 15
v 5 8 14
v 5 8 -14
v 5 8 -15
v 5 11 15
v 5 11 14
v 5 11 -14
v 5 11 -15
v 6 7 15
v 6 7 10
v 6 7 -10
v 6 7 -15
v 6 8 15
v 6 8 10
v 6 8 -10
v 6 8 -15
v 7 11 15
v 7 11 14
v 7 11 -14
v 7 11 -15
v 7 12 15
v 7 12 14
v 7 12 -14
v 7 12 -15
v 15 5 10
v 15 5 9
v 15 5 -9
v 15 5 -10
v 15 6 10
v 15 6 9
v 15 6 -9
v 15 6 -10
v 16 8 15
v 16 8 14
v 16 8 -15
v 16 8 -16
v 16 11 15
v 16 11 14
v 16 11 -15
v 16 11 -16
v 17 0 16
v 17 0 10
v 17 0 -10
v 17 0 -16
v 17 5 16
v 17 5 10
v 17 5 -10
v 17 5 -16
v 17 7 15
v 17 7 10
v 17 7 -10
v 17 7 -15
v 17 8 15
v 17 8 10
v 17 8 -10
v 17 8 -15
v 18 11 15
v 18 11 14
v 18 11 -15
v 18 11 -16
v 18 12 15
v 18 12 14
v 18 12 -15
v 18 12 -16
v 24 5 16
v 24 5 9
v 24 5 -9
v 24 5 -16
v 24 8 16
v 24 8 9
v 24 8 -9
v 24 8 -16
v -4 5 16
v -4 8 16
v 3 0 16
v 3 5 16
v 3 6 16
v 5 0 16
v 5 5 16
v 5 6 16
v 15 0 16
v 15 5 16
v 15 6 16
v 17 0 16
v 17 5 16
v 17 6 16
v 24 5 16
v 24 8 16
v 2 11 15
v 2 12 15
v 4 8 15
v 4 11 15
v 5 8 15
v 5 11 15
v 7 11 15
v 7 12 15
v 13 11 15
v 13 12 15
v 15 8 15
v 15 11 15
v 16 8 15
v 16 11 15
v 18 11 15
v 18 12 15
v -3 7 10
v -3 8 10
v 3 7 10
v 3 8 10
v 6 7 10
v 6 8 10
v 14 7 10
v 14 8 10
v 17 7 10
v 17 8 10
v 23 7 10
v 23 8 10
v -4 5 -9
v -4 8 -9
v 3 5 -9
v 3 6 -9
v 5 5 -9
v 5 6 -9
v 15 5 -9
v 15 6 -9
v 17 5 -9
v 17 6 -9
v 24 5 -9
v 24 8 -9
v 3 0 -10
v 3 5 -10
v 3 6 -10
v 5 0 -10
v 5 5 -10
v 5 6 -10
v 15 0 -10
v 15 5 -10
v 15 6 -10
v 17 0 -10
v 17 5 -10
v 17 6 -10
v 2 11 -14
v 2 12 -14
v 4 8 -14
v 4 11 -14
v 5 8 -14
v 5 11 -14
v 7 11 -14
v 7 12 -14
v -3 7 -15
v -3 8 -15
v 3 7 -15
v 3 8 -15
v 6 7 -15
v 6 8 -15
v 13 11 -15
v 13 12 -15
v 14 7 -15
v 14 8 -15
v 15 8 -15
v 15 11 -15
v 16 8 -15
v 16 11 -15
v 17 7 -15
v 17 8 -15
v 18 11 -15
v 18 12 -15
v 23 7 -15
v 23 8 -15
v -3 7 15
v -3 8 15
v 3 7 15
v 3 8 15
v 6 7 15
v 6 8 15
v 14 7 15
v 14 8 15
v 17 7 15
v 17 8 15
v 23 7 15
v 23 8 15
v 2 11 14
v 2 12 14
v 4 8 14
v 4 11 14
v 5 8 14
v 5 11 14
v 7 11 14
v 7 12 14
v 13 11 14
v 13 12 14
v 15 8 14
v 15 11 14
v 16 8 14
v 16 11 14
v 18 11 14
v 18 12 14
v 3 0 10
v 3 5 10
v 3 6 10
v 5 0 10
v 5 5 10
v 5 6 10
v 15 0 10
v 15 5 10
v 15 6 10
v 17 0 10
v 17 5 10
v 17 6 10
v -4 5 9
v -4 8 9
v 3 5 9
v 3 6 9
v 5 5 9
v 5 6 9
v 15 5 9
v 15 6 9
v 17 5 9
v 17 6 9
v 24 5 9
v 24 8 9
v -3 7 -10
v -3 8 -10
v 3 7 -10
v 3 8 -10
v 6 7 -10
v 6 8 -10
v 14 7 -10
v 14 8 -10
v 17 7 -10
v 17 8 -10
v 23 7 -10
v 23 8 -10
v 2 11 -15
v 2 12 -15
v 4 8 -15
v 4 11 -15
v 5 8 -15
v 5 11 -15
v 7 11 -15
v 7 12 -15
v -4 5 -16
v -4 8 -16
v 3 0 -16
v 3 5 -16
v 3 6 -16
v 5 0 -16
v 5 5 -16
v 5 6 -16
v 13 11 -16
v 13 12 -16
v 15 0 -16
v 15 5 -16
v 15 6 -16
v 15 8 -16
v 15 11 -16
v 16 8 -16
v 16 11 -16
v 17 0 -16
v 17 5 -16
v 17 6 -16
v 18 11 -16
v 18 12 -16
v 24 5 -16
v 24 8 -16
v 3 0 16
v 5 0 16
v 15 0 16
v 17 0 16
v 3 0 10
v 5 0 10
v 15 0 10
v 17 0 10
v 3 0 -10
v 5 0 -10
v 15 0 -10
v 17 0 -10
v 3 0 -16
v 5 0 -16
v 15 0 -16
v 17 0 -16
v -4 5 16
v 3 5 16
v 5 5 16
v 15 5 16
v 17 5 16
v 24 5 16
v 3 5 10
v 5 5 10
v 15 5 10
v 17 5 10
v -4 5 9
v 3 5 9
v 5 5 9
v 15 5 9
v 17 5 9
v 24 5 9
v -4 5 -9
v 3 5 -9
v 5 5 -9
v 15 5 -9
v 17 5 -9
v 24 5 -9
v 3 5 -10
v 5 5 -10
v 15 5 -10
v 17 5 -10
v -4 5 -16
v 3 5 -16
v 5 5 -16
v 15 5 -16
v 17 5 -16
v 24 5 -16
v 3 6 10
v 5 6 10
v 15 6 10
v 17 6 10
v 3 6 9
v 5 6 9
v 15 6 9
v 17 6 9
v 3 6 -9
v 5 6 -9
v 15 6 -9
v 17 6 -9
v 3 6 -10
v 5 6 -10
v 15 6 -10
v 17 6 -10
v 2 11 15
v 4 11 15
v 5 11 15
v 7 11 15
v 13 11 15
v 15 11 15
v 16 11 15
v 18 11 15
v 2 11 14
v 4 11 14
v 5 11 14
v 7 11 14
v 13 11 14
v 15 11 14
v 16 11 14
v 18 11 14
v 2 11 -14
v 4 11 -14
v 5 11 -14
v 7 11 -14
v 2 11 -15
v 4 11 -15
v 5 11 -15
v 7 11 -15
v 13 11 -15
v 15 11 -15
v 16 11 -15
v 18 11 -15
v 13 11 -16
v 15 11 -16
v 16 11 -16
v 18 11 -16
v -3 7 15
v 3 7 15
v 6 7 15
v 14 7 15
v 17 7 15
v 23 7 15
v -3 7 10
v 3 7 10
v 6 7 10
v 14 7 10
v 17 7 10
v 23 7 10
v -3 7 -10
v 3 7 -10
v 6 7 -10
v 14 7 -10
v 17 7 -10
v 23 7 -10
v -3 7 -15
v 3 7 -15
v 6 7 -15
v 14 7 -15
v 17 7 -15
v 23 7 -15
v -4 8 16
v 24 8 16
v -3 8 15
v 3 8 15
v 4 8 15
v 5 8 15
v 6 8 15
v 14 8 15
v 15 8 15
v 16 8 15
v 17 8 15
v 23 8 15
v 4 8 14
v 5 8 14
v 15 8 14
v 16 8 14
v -3 8 10
v 3 8 10
v 6 8 10
v 14 8 10
v 17 8 10
v 23 8 10
v -4 8 9
v 24 8 9
v -4 8 -9
v 24 8 -9
v -3 8 -10
v 3 8 -10
v 6 8 -10
v 14 8 -10
v 17 8 -10
v 23 8 -10
v 4 8 -14
v 5 8 -14
v -3 8 -15
v 3 8 -15
v 4 8 -15
v 5 8 -15
v 6 8 -15
v 14 8 -15
v 15 8 -15
v 16 8 -15
v 17 8 -15
v 23 8 -15
v -4 8 -16
v 15 8 -16
v 16 8 -16
v 24 8 -16
v 2 12 15
v 7 12 15
v 13 12 15
v 18 12 15
v 2 12 14
v 7 12 14
v 13 12 14
v 18 12 14
v 2 12 -14
v 7 12 -14
v 2 12 -15
v 7 12 -15
v 13 12 -15
v 18 12 -15
v 13 12 -16
v 18 12 -16

# faces
f 5/1/1 2/1/1 1/1/1
f 6/1/1 2/1/1 5/1/1
f 7/1/1 4/1/1 3/1/1
f 8/1/1 4/1/1 7/1/1
f 13/2/1 10/2/1 9/2/1
f 14/2/1 10/2/1 13/2/1
f 15/2/1 12/2/1 11/2/1
f 16/2/1 12/2/1 15/2/1
f 21/2/1 18/2/1 17/2/1
f 22/2/1 18/2/1 21/2/1
f 23/2/1 20/2/1 19/2/1
f 24/2/1 20/2/1 23/2/1
f 29/1/1 26/1/1 25/1/1
f 30/1/1 26/1/1 29/1/1
f 31/1/1 28/1/1 27/1/1
f 32/1/1 28/1/1 31/1/1
f 37/2/1 34/2/1 33/2/1
f 38/2/1 34/2/1 37/2/1
f 39/2/1 36/2/1 35/2/1
f 40/2/1 36/2/1 39/2/1
f 45/1/1 42/1/1 41/1/1
f 46/1/1 42/1/1 45/1/1
f 47/1/1 44/1/1 43/1/1
f 48/1/1 44/1/1 47/1/1
f 53/2/1 50/2/1 49/2/1
f 54/2/1 50/2/1 53/2/1
f 55/2/1 52/2/1 51/2/1
f 56/2/1 52/2/1 55/2/1
f 61/1/1 58/1/1 57/1/1
f 62/1/1 58/1/1 61/1/1
f 63/1/1 60/1/1 59/1/1
f 64/1/1 60/1/1 63/1/1
f 69/2/1 66/2/1 65/2/1
f 70/2/1 66/2/1 69/2/1
f 71/2/1 68/2/1 67/2/1
f 72/2/1 68/2/1 71/2/1
f 77/2/1 74/2/1 73/2/1
f 78/2/1 74/2/1 77/2/1
f 79/2/1 76/2/1 75/2/1
f 80/2/1 76/2/1 79/2/1
f 85/1/1 82/1/1 81/1/1
f 86/1/1 82/1/1 85/1/1
f 87/1/1 84/1/1 83/1/1
f 88/1/1 84/1/1 87/1/1
f 93/1/1 90/1/1 89/1/1
f 94/1/1 90/1/1 93/1/1
f 95/1/1 92/1/1 91/1/1
f 96/1/1 92/1/1 95/1/1
f 97/1/2 98/1/2 101/1/2
f 101/1/2 98/1/2 102/1/2
f 99/1/2 100/1/2 103/1/2
f 103/1/2 100/1/2 104/1/2
f 105/1/2 106/1/2 109/1/2
f 109/1/2 106/1/2 110/1/2
f 107/1/2 108/1/2 111/1/2
f 111/1/2 108/1/2 112/1/2
f 113/2/2 114/2/2 117/2/2
f 117/2/2 114/2/2 118/2/2
f 115/2/2 116/2/2 119/2/2
f 119/2/2 116/2/2 120/2/2
f 121/2/2 122/2/2 125/2/2
f 125/2/2 122/2/2 126/2/2
f 123/2/2 124/2/2 127/2/2
f 127/2/2 124/2/2 128/2/2
f 129/1/2 130/1/2 133/1/2
f 133/1/2 130/1/2 134/1/2
f 131/1/2 132/1/2 135/1/2
f 135/1/2 132/1/2 136/1/2
f 137/2/2 138/2/2 141/2/2
f 141/2/2 138/2/2 142/2/2
f 139/2/2 140/2/2 143/2/2
f 143/2/2 140/2/2 144/2/2
f 145/1/2 146/1/2 149/1/2
f 149/1/2 146/1/2 150/1/2
f 147/1/2 148/1/2 151/1/2
f 151/1/2 148/1/2 152/1/2
f 153/2/2 154/2/2 157/2/2
f 157/2/2 154/2/2 158/2/2
f 155/2/2 156/2/2 159/2/2
f 159/2/2 156/2/2 160/2/2
f 161/2/2 162/2/2 165/2/2
f 165/2/2 162/2/2 166/2/2
f 163/2/2 164/2/2 167/2/2
f 167/2/2 164/2/2 168/2/2
f 169/1/2 170/1/2 173/1/2
f 173/1/2 170/1/2 174/1/2
f 171/1/2 172/1/2 175/1/2
f 175/1/2 172/1/2 176/1/2
f 177/2/2 178/2/2 181/2/2
f 181/2/2 178/2/2 182/2/2
f 179/2/2 180/2/2 183/2/2
f 183/2/2 180/2/2 184/2/2
f 185/1/2 186/1/2 189/1/2
f 189/1/2 186/1/2 190/1/2
f 187/1/2 188/1/2 191/1/2
f 191/1/2 188/1/2 192/1/2
f 196/1/3 194/1/3 193/1/3
f 197/1/3 194/1/3 196/1/3
f 198/2/3 196/2/3 195/2/3
f 198/2/3 197/2/3 196/2/3
f 199/2/3 197/2/3 198/2/3
f 200/1/3 194/1/3 197/1/3
f 200/2/3 197/2/3 199/2/3
f 202/1/3 200/1/3 199/1/3
f 203/1/3 194/1/3 200/1/3
f 203/1/3 200/1/3 202/1/3
f 204/2/3 202/2/3 201/2/3
f 204/2/3 203/2/3 202/2/3
f 205/2/3 203/2/3 204/2/3
f 206/1/3 194/1/3 203/1/3
f 206/2/3 203/2/3 205/2/3
f 207/1/3 206/1/3 205/1/3
f 208/1/3 194/1/3 206/1/3
f 208/1/3 206/1/3 207/1/3
f 212/2/3 210/2/3 209/2/3
f 213/2/3 212/2/3 211/2/3
f 214/2/3 210/2/3 212/2/3
f 214/2/3 212/2/3 213/2/3
f 215/2/3 210/2/3 214/2/3
f 216/2/3 210/2/3 215/2/3
f 220/2/3 218/2/3 217/2/3
f 221/2/3 220/2/3 219/2/3
f 222/2/3 218/2/3 220/2/3
f 222/2/3 220/2/3 221/2/3
f 223/2/3 218/2/3 222/2/3
f 224/2/3 218/2/3 223/2/3
f 227/1/3 226/1/3 225/1/3
f 228/1/3 226/1/3 227/1/3
f 231/1/3 230/1/3 229/1/3
f 232/1/3 230/1/3 231/1/3
f 235/1/3 234/1/3 233/1/3
f 236/1/3 234/1/3 235/1/3
f 239/1/3 238/1/3 237/1/3
f 240/1/3 238/1/3 239/1/3
f 242/1/3 238/1/3 240/1/3
f 243/1/3 242/1/3 241/1/3
f 244/1/3 238/1/3 242/1/3
f 244/1/3 242/1/3 243/1/3
f 246/1/3 238/1/3 244/1/3
f 247/1/3 246/1/3 245/1/3
f 248/1/3 238/1/3 246/1/3
f 248/1/3 246/1/3 247/1/3
f 252/2/3 250/2/3 249/2/3
f 252/2/3 251/2/3 250/2/3
f 253/2/3 251/2/3 252/2/3
f 254/2/3 251/2/3 253/2/3
f 258/2/3 256/2/3 255/2/3
f 258/2/3 257/2/3 256/2/3
f 259/2/3 257/2/3 258/2/3
f 260/2/3 257/2/3 259/2/3
f 264/2/3 262/2/3 261/2/3
f 265/2/3 264/2/3 263/2/3
f 266/2/3 262/2/3 264/2/3
f 266/2/3 264/2/3 265/2/3
f 267/2/3 262/2/3 266/2/3
f 268/2/3 262/2/3 267/2/3
f 271/1/3 270/1/3 269/1/3
f 272/1/3 270/1/3 271/1/3
f 277/1/3 274/1/3 273/1/3
f 278/1/3 274/1/3 277/1/3
f 280/2/3 276/2/3 275/2/3
f 281/2/3 280/2/3 279/2/3
f 282/2/3 276/2/3 280/2/3
f 282/2/3 280/2/3 281/2/3
f 285/2/3 276/2/3 282/2/3
f 286/2/3 276/2/3 285/2/3
f 287/1/3 284/1/3 283/1/3
f 288/1/3 284/1/3 287/1/3
f 289/1/4 290/1/4 291/1/4
f 291/1/4 290/1/4 292/1/4
f 293/1/4 294/1/4 295/1/4
f 295/1/4 294/1/4 296/1/4
f 297/1/4 298/1/4 299/1/4
f 299/1/4 298/1/4 300/1/4
f 301/2/4 302/2/4 304/2/4
f 303/2/4 304/2/4 305/2/4
f 304/2/4 302/2/4 306/2/4
f 305/2/4 304/2/4 306/2/4
f 306/2/4 302/2/4 307/2/4
f 307/2/4 302/2/4 308/2/4
f 309/2/4 310/2/4 312/2/4
f 311/2/4 312/2/4 313/2/4
f 312/2/4 310/2/4 314/2/4
f 313/2/4 312/2/4 314/2/4
f 314/2/4 310/2/4 315/2/4
f 315/2/4 310/2/4 316/2/4
f 317/2/4 318/2/4 320/2/4
f 318/2/4 319/2/4 320/2/4
f 320/2/4 319/2/4 321/2/4
f 321/2/4 319/2/4 322/2/4
f 323/2/4 324/2/4 326/2/4
f 324/2/4 325/2/4 326/2/4
f 326/2/4 325/2/4 327/2/4
f 327/2/4 325/2/4 328/2/4
f 329/1/4 330/1/4 331/1/4
f 331/1/4 330/1/4 332/1/4
f 332/1/4 330/1/4 334/1/4
f 333/1/4 334/1/4 335/1/4
f 334/1/4 330/1/4 336/1/4
f 335/1/4 334/1/4 336/1/4
f 336/1/4 330/1/4 338/1/4
f 337/1/4 338/1/4 339/1/4
f 338/1/4 330/1/4 340/1/4
f 339/1/4 338/1/4 340/1/4
f 341/1/4 342/1/4 343/1/4
f 343/1/4 342/1/4 344/1/4
f 345/1/4 346/1/4 347/1/4
f 347/1/4 346/1/4 348/1/4
f 349/1/4 350/1/4 351/1/4
f 351/1/4 350/1/4 352/1/4
f 353/2/4 354/2/4 356/2/4
f 355/2/4 356/2/4 357/2/4
f 356/2/4 354/2/4 358/2/4
f 357/2/4 356/2/4 358/2/4
f 358/2/4 354/2/4 359/2/4
f 359/2/4 354/2/4 360/2/4
f 361/1/4 362/1/4 364/1/4
f 364/1/4 362/1/4 365/1/4
f 363/2/4 364/2/4 366/2/4
f 364/2/4 365/2/4 366/2/4
f 366/2/4 365/2/4 367/2/4
f 365/1/4 362/1/4 368/1/4
f 367/2/4 365/2/4 368/2/4
f 367/1/4 368/1/4 372/1/4
f 368/1/4 362/1/4 373/1/4
f 372/1/4 368/1/4 373/1/4
f 373/1/4 362/1/4 374/1/4
f 369/2/4 370/2/4 375/2/4
f 373/1/4 374/1/4 376/1/4
f 374/2/4 375/2/4 376/2/4
f 375/2/4 370/2/4 377/2/4
f 376/2/4 375/2/4 377/2/4
f 371/2/4 372/2/4 378/2/4
f 372/2/4 373/2/4 378/2/4
f 378/2/4 373/2/4 379/2/4
f 373/1/4 376/1/4 380/1/4
f 379/2/4 373/2/4 380/2/4
f 377/2/4 370/2/4 381/2/4
f 381/2/4 370/2/4 382/2/4
f 379/1/4 380/1/4 383/1/4
f 380/1/4 376/1/4 384/1/4
f 383/1/4 380/1/4 384/1/4
f 389/2/5 386/2/5 385/2/5
f 390/2/5 386/2/5 389/2/5
f 391/2/5 388/2/5 387/2/5
f 392/2/5 388/2/5 391/2/5
f 397/2/5 394/2/5 393/2/5
f 398/2/5 394/2/5 397/2/5
f 399/2/5 396/2/5 395/2/5
f 400/2/5 396/2/5 399/2/5
f 407/1/5 402/1/5 401/1/5
f 408/1/5 404/1/5 403/1/5
f 409/1/5 404/1/5 408/1/5
f 410/1/5 406/1/5 405/1/5
f 411/1/5 407/1/5 401/1/5
f 412/1/5 407/1/5 411/1/5
f 413/1/5 409/1/5 408/1/5
f 414/1/5 409/1/5 413/1/5
f 415/1/5 406/1/5 410/1/5
f 416/1/5 406/1/5 415/1/5
f 423/1/5 418/1/5 417/1/5
f 424/1/5 420/1/5 419/1/5
f 425/1/5 420/1/5 424/1/5
f 426/1/5 422/1/5 421/1/5
f 427/1/5 423/1/5 417/1/5
f 428/1/5 423/1/5 427/1/5
f 429/1/5 425/1/5 424/1/5
f 430/1/5 425/1/5 429/1/5
f 431/1/5 422/1/5 426/1/5
f 432/1/5 422/1/5 431/1/5
f 437/1/5 434/1/5 433/1/5
f 438/1/5 434/1/5 437/1/5
f 439/1/5 436/1/5 435/1/5
f 440/1/5 436/1/5 439/1/5
f 445/1/5 442/1/5 441/1/5
f 446/1/5 442/1/5 445/1/5
f 447/1/5 444/1/5 443/1/5
f 448/1/5 444/1/5 447/1/5
f 457/2/5 450/2/5 449/2/5
f 458/2/5 450/2/5 457/2/5
f 459/2/5 452/2/5 451/2/5
f 460/2/5 452/2/5 459/2/5
f 461/2/5 454/2/5 453/2/5
f 462/2/5 454/2/5 461/2/5
f 463/2/5 456/2/5 455/2/5
f 464/2/5 456/2/5 463/2/5
f 469/2/5 466/2/5 465/2/5
f 470/2/5 466/2/5 469/2/5
f 471/2/5 468/2/5 467/2/5
f 472/2/5 468/2/5 471/2/5
f 477/2/5 474/2/5 473/2/5
f 478/2/5 474/2/5 477/2/5
f 479/2/5 476/2/5 475/2/5
f 480/2/5 476/2/5 479/2/5
f 481/1/6 482/1/6 487/1/6
f 487/1/6 482/1/6 488/1/6
f 483/1/6 484/1/6 489/1/6
f 489/1/6 484/1/6 490/1/6
f 485/1/6 486/1/6 491/1/6
f 491/1/6 486/1/6 492/1/6
f 493/1/6 494/1/6 499/1/6
f 499/1/6 494/1/6 500/1/6
f 495/1/6 496/1/6 501/1/6
f 501/1/6 496/1/6 502/1/6
f 497/1/6 498/1/6 503/1/6
f 503/1/6 498/1/6 504/1/6
f 505/1/6 506/1/6 507/1/6
f 507/1/6 506/1/6 508/1/6
f 508/1/6 506/1/6 509/1/6
f 509/1/6 506/1/6 510/1/6
f 510/1/6 506/1/6 511/1/6
f 511/1/6 506/1/6 512/1/6
f 512/1/6 506/1/6 513/1/6
f 513/1/6 506/1/6 514/1/6
f 514/1/6 506/1/6 515/1/6
f 515/1/6 506/1/6 516/1/6
f 508/1/6 509/1/6 517/1/6
f 510/1/6 511/1/6 518/1/6
f 512/1/6 513/1/6 519/1/6
f 514/1/6 515/1/6 520/1/6
f 505/1/6 507/1/6 521/1/6
f 517/1/6 518/1/6 522/1/6
f 508/1/6 517/1/6 522/1/6
f 518/1/6 511/1/6 523/1/6
f 522/1/6 518/1/6 523/1/6
f 519/1/6 520/1/6 524/1/6
f 512/1/6 519/1/6 524/1/6
f 520/1/6 515/1/6 525/1/6
f 524/1/6 520/1/6 525/1/6
f 516/1/6 506/1/6 526/1/6
f 522/1/6 523/1/6 527/1/6
f 525/1/6 526/1/6 527/1/6
f 524/1/6 525/1/6 527/1/6
f 505/1/6 521/1/6 527/1/6
f 523/1/6 524/1/6 527/1/6
f 521/1/6 522/1/6 527/1/6
f 526/1/6 506/1/6 528/1/6
f 527/1/6 526/1/6 528/1/6
f 529/1/6 530/1/6 531/1/6
f 531/1/6 530/1/6 532/1/6
f 532/1/6 530/1/6 533/1/6
f 533/1/6 530/1/6 534/1/6
f 534/1/6 530/1/6 535/1/6
f 535/1/6 530/1/6 536/1/6
f 532/1/6 533/1/6 537/1/6
f 537/1/6 533/1/6 538/1/6
f 529/1/6 531/1/6 539/1/6
f 532/1/6 537/1/6 540/1/6
f 540/1/6 537/1/6 541/1/6
f 538/1/6 533/1/6 542/1/6
f 542/1/6 533/1/6 543/1/6
f 534/1/6 535/1/6 544/1/6
f 544/1/6 535/1/6 545/1/6
f 545/1/6 535/1/6 546/1/6
f 546/1/6 535/1/6 547/1/6
f 536/1/6 530/1/6 548/1/6
f 540/1/6 541/1/6 549/1/6
f 542/1/6 543/1/6 549/1/6
f 529/1/6 539/1/6 549/1/6
f 539/1/6 540/1/6 549/1/6
f 544/1/6 545/1/6 549/1/6
f 543/1/6 544/1/6 549/1/6
f 541/1/6 542/1/6 549/1/6
f 549/1/6 545/1/6 550/1/6
f 547/1/6 548/1/6 551/1/6
f 546/1/6 547/1/6 551/1/6
f 548/1/6 530/1/6 552/1/6
f 551/1/6 548/1/6 552/1/6
f 553/2/6 554/2/6 557/2/6
f 557/2/6 554/2/6 558/2/6
f 555/2/6 556/2/6 559/2/6
f 559/2/6 556/2/6 560/2/6
f 561/2/6 562/2/6 563/2/6
f 563/2/6 562/2/6 564/2/6
f 565/2/6 566/2/6 567/2/6
f 567/2/6 566/2/6 568/2/6
