# MagicaVoxel @ Ephtracy

# group
g home-59

# material
mtllib home-59.mtl
usemtl palette

# normals
vn -1 0 0
vn 1 0 0
vn 0 0 1
vn 0 0 -1
vn 0 -1 0
vn 0 1 0

# texcoords
vt 0.0253906 0.5
vt 0.0566406 0.5
vt 0.0605469 0.5
vt 0.939453 0.5
vt 0.943359 0.5

# verts
v -12 0 -8
v -12 0 -12
v -12 2 -8
v -12 2 -12
v -10 2 -8
v -10 2 -12
v -10 7 -8
v -10 7 -9
v -10 7 -11
v -10 7 -12
v -10 10 -8
v -10 10 -9
v -10 10 -11
v -10 10 -12
v -10 16 -8
v -10 16 -12
v -8 0 -7
v -8 0 -8
v -8 0 -12
v -8 0 -13
v -8 2 -7
v -8 2 -8
v -8 2 -12
v -8 2 -13
v 0 2 -8
v 0 2 -12
v 0 8 -8
v 0 8 -9
v 0 8 -11
v 0 8 -12
v 0 9 -8
v 0 9 -9
v 0 9 -11
v 0 9 -12
v 0 14 -8
v 0 14 -12
v -8 2 -8
v -8 2 -12
v -8 8 -8
v -8 8 -9
v -8 8 -11
v -8 8 -12
v -8 9 -8
v -8 9 -9
v -8 9 -11
v -8 9 -12
v -8 14 -8
v -8 14 -12
v 0 0 -7
v 0 0 -8
v 0 0 -12
v 0 0 -13
v 0 2 -7
v 0 2 -8
v 0 2 -12
v 0 2 -13
v 2 2 -8
v 2 2 -12
v 2 7 -8
v 2 7 -9
v 2 7 -11
v 2 7 -12
v 2 10 -8
v 2 10 -9
v 2 10 -11
v 2 10 -12
v 2 16 -8
v 2 16 -12
v 4 0 -8
v 4 0 -12
v 4 2 -8
v 4 2 -12
v -8 0 -7
v -8 2 -7
v 0 0 -7
v 0 2 -7
v -12 0 -8
v -12 2 -8
v -10 2 -8
v -10 7 -8
v -10 10 -8
v -10 16 -8
v -9 2 -8
v -9 7 -8
v -9 8 -8
v -9 9 -8
v -9 10 -8
v -9 15 -8
v -8 0 -8
v -8 2 -8
v -8 8 -8
v -8 9 -8
v -8 14 -8
v 0 0 -8
v 0 2 -8
v 0 8 -8
v 0 9 -8
v 0 14 -8
v 1 2 -8
v 1 7 -8
v 1 8 -8
v 1 9 -8
v 1 10 -8
v 1 15 -8
v 2 2 -8
v 2 7 -8
v 2 10 -8
v 2 16 -8
v 4 0 -8
v 4 2 -8
v -12 0 -12
v -12 2 -12
v -10 2 -12
v -10 7 -12
v -10 10 -12
v -10 16 -12
v -9 2 -12
v -9 7 -12
v -9 8 -12
v -9 9 -12
v -9 10 -12
v -9 15 -12
v -8 0 -12
v -8 2 -12
v -8 8 -12
v -8 9 -12
v -8 14 -12
v 0 0 -12
v 0 2 -12
v 0 8 -12
v 0 9 -12
v 0 14 -12
v 1 2 -12
v 1 7 -12
v 1 8 -12
v 1 9 -12
v 1 10 -12
v 1 15 -12
v 2 2 -12
v 2 7 -12
v 2 10 -12
v 2 16 -12
v 4 0 -12
v 4 2 -12
v -8 0 -13
v -8 2 -13
v 0 0 -13
v 0 2 -13
v -8 0 -7
v 0 0 -7
v -12 0 -8
v -8 0 -8
v 0 0 -8
v 4 0 -8
v -11 0 -9
v -8 0 -9
v 0 0 -9
v 3 0 -9
v -11 0 -11
v -8 0 -11
v 0 0 -11
v 3 0 -11
v -12 0 -12
v -8 0 -12
v 0 0 -12
v 4 0 -12
v -8 0 -13
v 0 0 -13
v -8 14 -8
v 0 14 -8
v -8 14 -12
v 0 14 -12
v -8 2 -7
v 0 2 -7
v -12 2 -8
v -10 2 -8
v -8 2 -8
v 0 2 -8
v 2 2 -8
v 4 2 -8
v -12 2 -12
v -10 2 -12
v -8 2 -12
v 0 2 -12
v 2 2 -12
v 4 2 -12
v -8 2 -13
v 0 2 -13
v -10 16 -8
v 2 16 -8
v -8 16 -9
v 0 16 -9
v -8 16 -11
v 0 16 -11
v -10 16 -12
v 2 16 -12

# faces
f 3/3/1 2/3/1 1/3/1
f 4/3/1 2/3/1 3/3/1
f 7/1/1 6/1/1 5/1/1
f 8/1/1 6/1/1 7/1/1
f 9/1/1 6/1/1 8/1/1
f 10/1/1 6/1/1 9/1/1
f 11/3/1 8/3/1 7/3/1
f 12/1/1 9/1/1 8/1/1
f 12/3/1 8/3/1 11/3/1
f 13/3/1 10/3/1 9/3/1
f 13/1/1 9/1/1 12/1/1
f 14/3/1 10/3/1 13/3/1
f 15/1/1 12/1/1 11/1/1
f 15/1/1 13/1/1 12/1/1
f 15/1/1 14/1/1 13/1/1
f 16/1/1 14/1/1 15/1/1
f 21/3/1 18/3/1 17/3/1
f 22/3/1 18/3/1 21/3/1
f 23/3/1 20/3/1 19/3/1
f 24/3/1 20/3/1 23/3/1
f 27/3/1 26/3/1 25/3/1
f 28/3/1 26/3/1 27/3/1
f 29/3/1 26/3/1 28/3/1
f 30/3/1 26/3/1 29/3/1
f 31/5/1 28/5/1 27/5/1
f 32/3/1 29/3/1 28/3/1
f 32/5/1 28/5/1 31/5/1
f 33/4/1 30/4/1 29/4/1
f 33/3/1 29/3/1 32/3/1
f 34/4/1 30/4/1 33/4/1
f 35/3/1 32/3/1 31/3/1
f 35/3/1 33/3/1 32/3/1
f 35/3/1 34/3/1 33/3/1
f 36/3/1 34/3/1 35/3/1
f 37/3/2 38/3/2 39/3/2
f 39/3/2 38/3/2 40/3/2
f 40/3/2 38/3/2 41/3/2
f 41/3/2 38/3/2 42/3/2
f 39/5/2 40/5/2 43/5/2
f 40/3/2 41/3/2 44/3/2
f 43/5/2 40/5/2 44/5/2
f 41/4/2 42/4/2 45/4/2
f 44/3/2 41/3/2 45/3/2
f 45/4/2 42/4/2 46/4/2
f 43/3/2 44/3/2 47/3/2
f 44/3/2 45/3/2 47/3/2
f 45/3/2 46/3/2 47/3/2
f 47/3/2 46/3/2 48/3/2
f 49/3/2 50/3/2 53/3/2
f 53/3/2 50/3/2 54/3/2
f 51/3/2 52/3/2 55/3/2
f 55/3/2 52/3/2 56/3/2
f 57/1/2 58/1/2 59/1/2
f 59/1/2 58/1/2 60/1/2
f 60/1/2 58/1/2 61/1/2
f 61/1/2 58/1/2 62/1/2
f 59/3/2 60/3/2 63/3/2
f 60/1/2 61/1/2 64/1/2
f 63/3/2 60/3/2 64/3/2
f 61/3/2 62/3/2 65/3/2
f 64/1/2 61/1/2 65/1/2
f 65/3/2 62/3/2 66/3/2
f 63/1/2 64/1/2 67/1/2
f 64/1/2 65/1/2 67/1/2
f 65/1/2 66/1/2 67/1/2
f 67/1/2 66/1/2 68/1/2
f 69/3/2 70/3/2 71/3/2
f 71/3/2 70/3/2 72/3/2
f 75/3/3 74/3/3 73/3/3
f 76/3/3 74/3/3 75/3/3
f 79/3/3 78/3/3 77/3/3
f 83/3/3 79/3/3 77/3/3
f 83/1/3 80/1/3 79/1/3
f 84/3/3 81/3/3 80/3/3
f 84/1/3 80/1/3 83/1/3
f 85/3/3 81/3/3 84/3/3
f 86/3/3 81/3/3 85/3/3
f 87/1/3 82/1/3 81/1/3
f 87/3/3 81/3/3 86/3/3
f 88/1/3 82/1/3 87/1/3
f 89/3/3 83/3/3 77/3/3
f 89/3/3 84/3/3 83/3/3
f 89/3/3 85/3/3 84/3/3
f 90/3/3 85/3/3 89/3/3
f 91/5/3 86/5/3 85/5/3
f 91/3/3 85/3/3 90/3/3
f 92/3/3 88/3/3 87/3/3
f 92/5/3 86/5/3 91/5/3
f 92/3/3 87/3/3 86/3/3
f 93/3/3 88/3/3 92/3/3
f 98/3/3 88/3/3 93/3/3
f 99/3/3 95/3/3 94/3/3
f 99/3/3 96/3/3 95/3/3
f 100/3/3 96/3/3 99/3/3
f 101/5/3 97/5/3 96/5/3
f 101/3/3 96/3/3 100/3/3
f 102/3/3 98/3/3 97/3/3
f 102/5/3 97/5/3 101/5/3
f 103/3/3 98/3/3 102/3/3
f 104/1/3 82/1/3 88/1/3
f 104/3/3 98/3/3 103/3/3
f 104/3/3 88/3/3 98/3/3
f 105/1/3 100/1/3 99/1/3
f 105/3/3 99/3/3 94/3/3
f 106/3/3 103/3/3 102/3/3
f 106/1/3 100/1/3 105/1/3
f 106/3/3 101/3/3 100/3/3
f 106/3/3 102/3/3 101/3/3
f 107/1/3 104/1/3 103/1/3
f 107/3/3 103/3/3 106/3/3
f 108/1/3 82/1/3 104/1/3
f 108/1/3 104/1/3 107/1/3
f 109/3/3 105/3/3 94/3/3
f 110/3/3 105/3/3 109/3/3
f 111/3/4 112/3/4 113/3/4
f 111/3/4 113/3/4 117/3/4
f 113/1/4 114/1/4 117/1/4
f 114/3/4 115/3/4 118/3/4
f 117/1/4 114/1/4 118/1/4
f 118/3/4 115/3/4 119/3/4
f 119/3/4 115/3/4 120/3/4
f 115/1/4 116/1/4 121/1/4
f 120/3/4 115/3/4 121/3/4
f 121/1/4 116/1/4 122/1/4
f 111/3/4 117/3/4 123/3/4
f 117/3/4 118/3/4 123/3/4
f 118/3/4 119/3/4 123/3/4
f 123/3/4 119/3/4 124/3/4
f 119/4/4 120/4/4 125/4/4
f 124/3/4 119/3/4 125/3/4
f 121/3/4 122/3/4 126/3/4
f 125/4/4 120/4/4 126/4/4
f 120/3/4 121/3/4 126/3/4
f 126/3/4 122/3/4 127/3/4
f 127/3/4 122/3/4 132/3/4
f 128/3/4 129/3/4 133/3/4
f 129/3/4 130/3/4 133/3/4
f 133/3/4 130/3/4 134/3/4
f 130/4/4 131/4/4 135/4/4
f 134/3/4 130/3/4 135/3/4
f 131/3/4 132/3/4 136/3/4
f 135/4/4 131/4/4 136/4/4
f 136/3/4 132/3/4 137/3/4
f 122/1/4 116/1/4 138/1/4
f 137/3/4 132/3/4 138/3/4
f 132/3/4 122/3/4 138/3/4
f 133/1/4 134/1/4 139/1/4
f 128/3/4 133/3/4 139/3/4
f 136/3/4 137/3/4 140/3/4
f 139/1/4 134/1/4 140/1/4
f 134/3/4 135/3/4 140/3/4
f 135/3/4 136/3/4 140/3/4
f 137/1/4 138/1/4 141/1/4
f 140/3/4 137/3/4 141/3/4
f 138/1/4 116/1/4 142/1/4
f 141/1/4 138/1/4 142/1/4
f 128/3/4 139/3/4 143/3/4
f 143/3/4 139/3/4 144/3/4
f 145/3/4 146/3/4 147/3/4
f 147/3/4 146/3/4 148/3/4
f 152/3/5 150/3/5 149/3/5
f 153/3/5 150/3/5 152/3/5
f 155/3/5 152/3/5 151/3/5
f 156/2/5 153/2/5 152/2/5
f 156/3/5 152/3/5 155/3/5
f 157/3/5 154/3/5 153/3/5
f 157/2/5 153/2/5 156/2/5
f 158/3/5 154/3/5 157/3/5
f 159/2/5 156/2/5 155/2/5
f 159/3/5 155/3/5 151/3/5
f 159/2/5 158/2/5 157/2/5
f 159/2/5 157/2/5 156/2/5
f 160/2/5 158/2/5 159/2/5
f 161/2/5 158/2/5 160/2/5
f 162/3/5 154/3/5 158/3/5
f 162/2/5 158/2/5 161/2/5
f 163/3/5 159/3/5 151/3/5
f 163/3/5 160/3/5 159/3/5
f 164/2/5 161/2/5 160/2/5
f 164/3/5 160/3/5 163/3/5
f 165/3/5 162/3/5 161/3/5
f 165/2/5 161/2/5 164/2/5
f 166/3/5 154/3/5 162/3/5
f 166/3/5 162/3/5 165/3/5
f 167/3/5 165/3/5 164/3/5
f 168/3/5 165/3/5 167/3/5
f 171/3/5 170/3/5 169/3/5
f 172/3/5 170/3/5 171/3/5
f 173/3/6 174/3/6 177/3/6
f 177/3/6 174/3/6 178/3/6
f 175/3/6 176/3/6 181/3/6
f 181/3/6 176/3/6 182/3/6
f 177/3/6 178/3/6 183/3/6
f 183/3/6 178/3/6 184/3/6
f 179/3/6 180/3/6 185/3/6
f 185/3/6 180/3/6 186/3/6
f 183/3/6 184/3/6 187/3/6
f 187/3/6 184/3/6 188/3/6
f 189/1/6 190/1/6 191/1/6
f 191/1/6 190/1/6 192/1/6
f 189/1/6 191/1/6 193/1/6
f 191/3/6 192/3/6 193/3/6
f 192/1/6 190/1/6 194/1/6
f 193/3/6 192/3/6 194/3/6
f 189/1/6 193/1/6 195/1/6
f 193/1/6 194/1/6 195/1/6
f 194/1/6 190/1/6 196/1/6
f 195/1/6 194/1/6 196/1/6
