# MagicaVoxel @ Ephtracy

# group
g home-1

# material
mtllib home-1.mtl
usemtl palette

# normals
vn -1 0 0
vn 1 0 0
vn 0 0 1
vn 0 0 -1
vn 0 -1 0
vn 0 1 0

# texcoords
vt 0.00585938 0.5
vt 0.0214844 0.5

# verts
v -50 0 40
v -50 0 -40
v -50 4 40
v -50 4 -36
v -50 4 -40
v -50 6 40
v -50 6 -36
v -46 4 36
v -46 4 -36
v -46 6 36
v -46 6 -36
v 50 0 40
v 50 0 -40
v 50 4 40
v 50 4 36
v 50 4 -40
v 50 6 40
v 50 6 36
v -50 0 40
v -50 4 40
v -50 6 40
v 50 0 40
v 50 4 40
v 50 6 40
v -46 4 36
v -46 6 36
v 50 4 36
v 50 6 36
v -50 4 -36
v -50 6 -36
v -46 4 -36
v -46 6 -36
v -50 0 -40
v -50 4 -40
v 50 0 -40
v 50 4 -40
v -50 0 40
v 50 0 40
v -50 0 -40
v 50 0 -40
v -46 4 36
v 50 4 36
v -50 4 -36
v -46 4 -36
v -50 4 -40
v 50 4 -40
v -50 6 40
v 50 6 40
v -46 6 36
v 50 6 36
v -50 6 -36
v -46 6 -36

# faces
f 3/1/1 2/1/1 1/1/1
f 4/1/1 2/1/1 3/1/1
f 5/1/1 2/1/1 4/1/1
f 6/2/1 4/2/1 3/2/1
f 7/2/1 4/2/1 6/2/1
f 8/2/2 9/2/2 10/2/2
f 10/2/2 9/2/2 11/2/2
f 12/1/2 13/1/2 14/1/2
f 14/1/2 13/1/2 15/1/2
f 15/1/2 13/1/2 16/1/2
f 14/2/2 15/2/2 17/2/2
f 17/2/2 15/2/2 18/2/2
f 22/1/3 20/1/3 19/1/3
f 23/2/3 21/2/3 20/2/3
f 23/1/3 20/1/3 22/1/3
f 24/2/3 21/2/3 23/2/3
f 25/2/4 26/2/4 27/2/4
f 27/2/4 26/2/4 28/2/4
f 29/2/4 30/2/4 31/2/4
f 31/2/4 30/2/4 32/2/4
f 33/1/4 34/1/4 35/1/4
f 35/1/4 34/1/4 36/1/4
f 39/1/5 38/1/5 37/1/5
f 40/1/5 38/1/5 39/1/5
f 41/1/6 42/1/6 44/1/6
f 43/1/6 44/1/6 45/1/6
f 44/1/6 42/1/6 46/1/6
f 45/1/6 44/1/6 46/1/6
f 47/2/6 48/2/6 49/2/6
f 49/2/6 48/2/6 50/2/6
f 47/2/6 49/2/6 51/2/6
f 51/2/6 49/2/6 52/2/6
