# MagicaVoxel @ Ephtracy

# group
g home-3

# material
mtllib home-3.mtl
usemtl palette

# normals
vn -1 0 0
vn 1 0 0
vn 0 0 1
vn 0 0 -1
vn 0 -1 0
vn 0 1 0

# texcoords
vt 0.00585938 0.5
vt 0.0214844 0.5
vt 0.0488281 0.5
vt 0.0605469 0.5

# verts
v -50 0 40
v -50 0 -40
v -50 3 -32
v -50 3 -40
v -50 4 40
v -50 4 36
v -50 4 -28
v -50 4 -31
v -50 4 -32
v -50 4 -40
v -50 6 40
v -50 6 36
v -50 6 -28
v -50 6 -31
v -50 6 -32
v -14 4 36
v -14 4 16
v -14 4 8
v -14 4 -28
v -14 4 -32
v -14 4 -40
v -14 6 36
v -14 6 16
v -14 6 8
v -14 6 -28
v -14 6 -32
v -14 6 -40
v 46 4 36
v 46 4 16
v 46 4 8
v 46 4 -28
v 46 4 -32
v 46 4 -40
v 46 6 36
v 46 6 16
v 46 6 8
v 46 6 -28
v 46 6 -32
v 46 6 -40
v -10 4 36
v -10 4 16
v -10 4 8
v -10 4 -28
v -10 4 -32
v -10 4 -40
v -10 6 36
v -10 6 16
v -10 6 8
v -10 6 -28
v -10 6 -32
v -10 6 -40
v 50 0 40
v 50 0 -40
v 50 4 40
v 50 4 16
v 50 4 8
v 50 4 -40
v 50 6 40
v 50 6 16
v 50 6 8
v 50 6 -40
v -50 0 40
v -50 4 40
v -50 6 40
v 50 0 40
v 50 4 40
v 50 6 40
v -14 4 8
v -14 6 8
v -10 4 8
v -10 6 8
v 46 4 8
v 46 6 8
v 50 4 8
v 50 6 8
v -50 4 -28
v -50 6 -28
v -14 4 -28
v -14 6 -28
v -10 4 -28
v -10 6 -28
v 46 4 -28
v 46 6 -28
v -50 4 36
v -50 6 36
v -14 4 36
v -14 6 36
v -10 4 36
v -10 6 36
v 46 4 36
v 46 6 36
v -14 4 16
v -14 6 16
v -10 4 16
v -10 6 16
v 46 4 16
v 46 6 16
v 50 4 16
v 50 6 16
v -50 4 -32
v -50 6 -32
v -14 4 -32
v -14 6 -32
v -10 4 -32
v -10 6 -32
v 46 4 -32
v 46 6 -32
v -50 0 -40
v -50 3 -40
v -50 4 -40
v -14 3 -40
v -14 4 -40
v -14 6 -40
v -13 4 -40
v -13 6 -40
v -11 4 -40
v -11 6 -40
v -10 3 -40
v -10 4 -40
v -10 6 -40
v 46 3 -40
v 46 4 -40
v 46 6 -40
v 47 4 -40
v 47 6 -40
v 50 0 -40
v 50 4 -40
v 50 6 -40
v -50 0 40
v 50 0 40
v -50 0 -40
v 50 0 -40
v -50 4 36
v -14 4 36
v -10 4 36
v 46 4 36
v -14 4 16
v -10 4 16
v 46 4 16
v 50 4 16
v -14 4 8
v -10 4 8
v 46 4 8
v 50 4 8
v -50 4 -28
v -14 4 -28
v -10 4 -28
v 46 4 -28
v -50 4 -32
v -14 4 -32
v -10 4 -32
v 46 4 -32
v -50 4 -40
v -14 4 -40
v -10 4 -40
v 46 4 -40
v -50 6 40
v 50 6 40
v -50 6 36
v -14 6 36
v -10 6 36
v 46 6 36
v -14 6 16
v -10 6 16
v 46 6 16
v 50 6 16
v -14 6 8
v -10 6 8
v 46 6 8
v 50 6 8
v -50 6 -28
v -14 6 -28
v -10 6 -28
v 46 6 -28
v -50 6 -31
v -14 6 -31
v -10 6 -31
v 46 6 -31
v -50 6 -32
v -14 6 -32
v -13 6 -32
v -11 6 -32
v -10 6 -32
v 46 6 -32
v 47 6 -32
v -14 6 -40
v -13 6 -40
v -11 6 -40
v -10 6 -40
v 46 6 -40
v 47 6 -40
v 50 6 -40

# faces
f 3/1/1 2/1/1 1/1/1
f 4/1/1 2/1/1 3/1/1
f 5/1/1 3/1/1 1/1/1
f 6/1/1 3/1/1 5/1/1
f 7/1/1 3/1/1 6/1/1
f 8/1/1 3/1/1 7/1/1
f 9/4/1 4/4/1 3/4/1
f 9/1/1 3/1/1 8/1/1
f 10/4/1 4/4/1 9/4/1
f 11/2/1 6/2/1 5/2/1
f 12/2/1 6/2/1 11/2/1
f 13/2/1 8/2/1 7/2/1
f 14/3/1 9/3/1 8/3/1
f 14/2/1 8/2/1 13/2/1
f 15/3/1 9/3/1 14/3/1
f 22/2/1 17/2/1 16/2/1
f 23/2/1 17/2/1 22/2/1
f 24/2/1 19/2/1 18/2/1
f 25/2/1 19/2/1 24/2/1
f 26/3/1 21/3/1 20/3/1
f 27/3/1 21/3/1 26/3/1
f 34/2/1 29/2/1 28/2/1
f 35/2/1 29/2/1 34/2/1
f 36/2/1 31/2/1 30/2/1
f 37/2/1 31/2/1 36/2/1
f 38/3/1 33/3/1 32/3/1
f 39/3/1 33/3/1 38/3/1
f 40/2/2 41/2/2 46/2/2
f 46/2/2 41/2/2 47/2/2
f 42/2/2 43/2/2 48/2/2
f 48/2/2 43/2/2 49/2/2
f 44/3/2 45/3/2 50/3/2
f 50/3/2 45/3/2 51/3/2
f 52/1/2 53/1/2 54/1/2
f 54/1/2 53/1/2 55/1/2
f 55/1/2 53/1/2 56/1/2
f 56/1/2 53/1/2 57/1/2
f 54/2/2 55/2/2 58/2/2
f 58/2/2 55/2/2 59/2/2
f 56/2/2 57/2/2 60/2/2
f 60/2/2 57/2/2 61/2/2
f 65/1/3 63/1/3 62/1/3
f 66/2/3 64/2/3 63/2/3
f 66/1/3 63/1/3 65/1/3
f 67/2/3 64/2/3 66/2/3
f 70/2/3 69/2/3 68/2/3
f 71/2/3 69/2/3 70/2/3
f 74/2/3 73/2/3 72/2/3
f 75/2/3 73/2/3 74/2/3
f 78/2/3 77/2/3 76/2/3
f 79/2/3 77/2/3 78/2/3
f 82/2/3 81/2/3 80/2/3
f 83/2/3 81/2/3 82/2/3
f 84/2/4 85/2/4 86/2/4
f 86/2/4 85/2/4 87/2/4
f 88/2/4 89/2/4 90/2/4
f 90/2/4 89/2/4 91/2/4
f 92/2/4 93/2/4 94/2/4
f 94/2/4 93/2/4 95/2/4
f 96/2/4 97/2/4 98/2/4
f 98/2/4 97/2/4 99/2/4
f 100/3/4 101/3/4 102/3/4
f 102/3/4 101/3/4 103/3/4
f 104/3/4 105/3/4 106/3/4
f 106/3/4 105/3/4 107/3/4
f 108/1/4 109/1/4 111/1/4
f 109/4/4 110/4/4 111/4/4
f 111/4/4 110/4/4 112/4/4
f 111/1/4 112/1/4 114/1/4
f 112/3/4 113/3/4 114/3/4
f 114/3/4 113/3/4 115/3/4
f 111/1/4 114/1/4 116/1/4
f 114/2/4 115/2/4 116/2/4
f 116/2/4 115/2/4 117/2/4
f 108/1/4 111/1/4 118/1/4
f 111/1/4 116/1/4 118/1/4
f 116/3/4 117/3/4 119/3/4
f 118/1/4 116/1/4 119/1/4
f 119/3/4 117/3/4 120/3/4
f 108/1/4 118/1/4 121/1/4
f 118/4/4 119/4/4 121/4/4
f 121/4/4 119/4/4 122/4/4
f 121/1/4 122/1/4 124/1/4
f 122/3/4 123/3/4 124/3/4
f 124/3/4 123/3/4 125/3/4
f 108/1/4 121/1/4 126/1/4
f 121/1/4 124/1/4 126/1/4
f 124/2/4 125/2/4 127/2/4
f 126/1/4 124/1/4 127/1/4
f 127/2/4 125/2/4 128/2/4
f 131/1/5 130/1/5 129/1/5
f 132/1/5 130/1/5 131/1/5
f 133/1/6 134/1/6 137/1/6
f 135/1/6 136/1/6 138/1/6
f 138/1/6 136/1/6 139/1/6
f 133/1/6 137/1/6 141/1/6
f 139/1/6 140/1/6 141/1/6
f 138/1/6 139/1/6 141/1/6
f 137/1/6 138/1/6 141/1/6
f 141/1/6 140/1/6 142/1/6
f 142/1/6 140/1/6 143/1/6
f 143/1/6 140/1/6 144/1/6
f 133/1/6 141/1/6 145/1/6
f 145/1/6 141/1/6 146/1/6
f 142/1/6 143/1/6 147/1/6
f 147/1/6 143/1/6 148/1/6
f 149/4/6 150/4/6 153/4/6
f 153/4/6 150/4/6 154/4/6
f 151/4/6 152/4/6 155/4/6
f 155/4/6 152/4/6 156/4/6
f 157/2/6 158/2/6 159/2/6
f 159/2/6 158/2/6 160/2/6
f 160/2/6 158/2/6 161/2/6
f 161/2/6 158/2/6 162/2/6
f 160/2/6 161/2/6 163/2/6
f 163/2/6 161/2/6 164/2/6
f 162/2/6 158/2/6 165/2/6
f 165/2/6 158/2/6 166/2/6
f 167/2/6 168/2/6 172/2/6
f 172/2/6 168/2/6 173/2/6
f 169/2/6 170/2/6 174/2/6
f 172/2/6 173/2/6 175/2/6
f 173/2/6 174/2/6 175/2/6
f 171/2/6 172/2/6 175/2/6
f 175/2/6 174/2/6 176/2/6
f 176/2/6 174/2/6 177/2/6
f 174/2/6 170/2/6 178/2/6
f 177/2/6 174/2/6 178/2/6
f 175/3/6 176/3/6 179/3/6
f 176/2/6 177/2/6 180/2/6
f 179/3/6 176/3/6 180/3/6
f 180/2/6 177/2/6 181/2/6
f 181/2/6 177/2/6 182/2/6
f 177/3/6 178/3/6 183/3/6
f 182/2/6 177/2/6 183/2/6
f 178/2/6 170/2/6 184/2/6
f 183/3/6 178/3/6 184/3/6
f 184/2/6 170/2/6 185/2/6
f 180/3/6 181/3/6 186/3/6
f 181/2/6 182/2/6 187/2/6
f 186/3/6 181/3/6 187/3/6
f 182/3/6 183/3/6 188/3/6
f 187/2/6 182/2/6 188/2/6
f 188/3/6 183/3/6 189/3/6
f 184/3/6 185/3/6 190/3/6
f 185/2/6 170/2/6 191/2/6
f 190/3/6 185/3/6 191/3/6
f 191/2/6 170/2/6 192/2/6
