# MagicaVoxel @ Ephtracy

# group
g Electrocity-28

# material
mtllib Electrocity-28.mtl
usemtl palette

# normals
vn -1 0 0
vn 1 0 0
vn 0 0 1
vn 0 0 -1
vn 0 -1 0
vn 0 1 0

# texcoords
vt 0.0253906 0.5
vt 0.0292969 0.5
vt 0.0449219 0.5
vt 0.0488281 0.5

# verts
v 40 0 36
v 40 0 -36
v 40 2 34
v 40 2 21
v 40 2 17
v 40 2 4
v 40 2 -0
v 40 2 -13
v 40 2 -17
v 40 2 -30
v 40 3 35
v 40 3 34
v 40 3 21
v 40 3 20
v 40 3 18
v 40 3 17
v 40 3 4
v 40 3 3
v 40 3 1
v 40 3 -0
v 40 3 -13
v 40 3 -14
v 40 3 -16
v 40 3 -17
v 40 3 -30
v 40 3 -31
v 40 5 -31
v 40 5 -36
v 40 24 35
v 40 24 34
v 40 24 21
v 40 24 20
v 40 24 18
v 40 24 17
v 40 24 4
v 40 24 3
v 40 24 1
v 40 24 -0
v 40 24 -13
v 40 24 -14
v 40 24 -16
v 40 24 -17
v 40 25 34
v 40 25 21
v 40 25 17
v 40 25 4
v 40 25 -0
v 40 25 -13
v 40 25 -17
v 40 25 -20
v 40 26 36
v 40 26 -20
v 41 2 34
v 41 2 21
v 41 2 17
v 41 2 4
v 41 2 -0
v 41 2 -13
v 41 2 -17
v 41 2 -30
v 41 3 35
v 41 3 34
v 41 3 21
v 41 3 20
v 41 3 18
v 41 3 17
v 41 3 4
v 41 3 3
v 41 3 1
v 41 3 -0
v 41 3 -13
v 41 3 -14
v 41 3 -16
v 41 3 -17
v 41 3 -30
v 41 3 -31
v 41 5 -31
v 41 9 -25
v 41 9 -31
v 41 13 -24
v 41 13 -25
v 41 15 -23
v 41 15 -24
v 41 17 -22
v 41 17 -23
v 41 20 -21
v 41 20 -22
v 41 22 -20
v 41 22 -21
v 41 24 35
v 41 24 34
v 41 24 21
v 41 24 20
v 41 24 18
v 41 24 17
v 41 24 4
v 41 24 3
v 41 24 1
v 41 24 -0
v 41 24 -13
v 41 24 -14
v 41 24 -16
v 41 24 -17
v 41 25 34
v 41 25 21
v 41 25 17
v 41 25 4
v 41 25 -0
v 41 25 -13
v 41 25 -17
v 41 25 -20
v 44 0 36
v 44 0 -36
v 44 2 34
v 44 2 21
v 44 2 17
v 44 2 4
v 44 2 -0
v 44 2 -13
v 44 2 -17
v 44 2 -30
v 44 3 35
v 44 3 34
v 44 3 21
v 44 3 20
v 44 3 18
v 44 3 17
v 44 3 4
v 44 3 3
v 44 3 1
v 44 3 -0
v 44 3 -13
v 44 3 -14
v 44 3 -16
v 44 3 -17
v 44 3 -30
v 44 3 -31
v 44 5 -31
v 44 5 -36
v 44 9 -25
v 44 9 -31
v 44 13 -24
v 44 13 -25
v 44 15 -23
v 44 15 -24
v 44 17 -22
v 44 17 -23
v 44 20 -21
v 44 20 -22
v 44 22 -20
v 44 22 -21
v 44 24 35
v 44 24 34
v 44 24 21
v 44 24 20
v 44 24 18
v 44 24 17
v 44 24 4
v 44 24 3
v 44 24 1
v 44 24 -0
v 44 24 -13
v 44 24 -14
v 44 24 -16
v 44 24 -17
v 44 25 34
v 44 25 21
v 44 25 17
v 44 25 4
v 44 25 -0
v 44 25 -13
v 44 25 -17
v 44 25 -20
v 44 26 36
v 44 26 -20
v 40 0 36
v 40 26 36
v 44 0 36
v 44 26 36
v 40 2 21
v 40 3 21
v 40 24 21
v 40 25 21
v 41 2 21
v 41 3 21
v 41 24 21
v 41 25 21
v 40 3 20
v 40 24 20
v 41 3 20
v 41 24 20
v 40 2 4
v 40 3 4
v 40 24 4
v 40 25 4
v 41 2 4
v 41 3 4
v 41 24 4
v 41 25 4
v 40 3 3
v 40 24 3
v 41 3 3
v 41 24 3
v 40 2 -13
v 40 3 -13
v 40 24 -13
v 40 25 -13
v 41 2 -13
v 41 3 -13
v 41 24 -13
v 41 25 -13
v 40 3 -14
v 40 24 -14
v 41 3 -14
v 41 24 -14
v 40 2 -30
v 40 3 -30
v 41 2 -30
v 41 3 -30
v 40 3 -31
v 40 5 -31
v 41 3 -31
v 41 5 -31
v 40 3 35
v 40 24 35
v 41 3 35
v 41 24 35
v 40 2 34
v 40 3 34
v 40 24 34
v 40 25 34
v 41 2 34
v 41 3 34
v 41 24 34
v 41 25 34
v 40 3 18
v 40 24 18
v 41 3 18
v 41 24 18
v 40 2 17
v 40 3 17
v 40 24 17
v 40 25 17
v 41 2 17
v 41 3 17
v 41 24 17
v 41 25 17
v 40 3 1
v 40 24 1
v 41 3 1
v 41 24 1
v 40 2 -0
v 40 3 -0
v 40 24 -0
v 40 25 -0
v 41 2 -0
v 41 3 -0
v 41 24 -0
v 41 25 -0
v 40 3 -16
v 40 24 -16
v 41 3 -16
v 41 24 -16
v 40 2 -17
v 40 3 -17
v 40 24 -17
v 40 25 -17
v 41 2 -17
v 41 3 -17
v 41 24 -17
v 41 25 -17
v 40 25 -20
v 40 26 -20
v 41 22 -20
v 41 25 -20
v 42 22 -20
v 42 25 -20
v 43 22 -20
v 43 25 -20
v 44 22 -20
v 44 25 -20
v 44 26 -20
v 41 20 -21
v 41 22 -21
v 42 20 -21
v 42 22 -21
v 43 20 -21
v 43 22 -21
v 44 20 -21
v 44 22 -21
v 41 17 -22
v 41 20 -22
v 42 17 -22
v 42 20 -22
v 43 17 -22
v 43 20 -22
v 44 17 -22
v 44 20 -22
v 41 15 -23
v 41 17 -23
v 42 15 -23
v 42 17 -23
v 43 15 -23
v 43 17 -23
v 44 15 -23
v 44 17 -23
v 41 13 -24
v 41 15 -24
v 42 13 -24
v 42 15 -24
v 43 13 -24
v 43 15 -24
v 44 13 -24
v 44 15 -24
v 41 9 -25
v 41 13 -25
v 42 9 -25
v 42 13 -25
v 43 9 -25
v 43 13 -25
v 44 9 -25
v 44 13 -25
v 41 5 -31
v 41 9 -31
v 42 5 -31
v 42 9 -31
v 43 5 -31
v 43 9 -31
v 44 5 -31
v 44 9 -31
v 40 0 -36
v 40 5 -36
v 44 0 -36
v 44 5 -36
v 40 0 36
v 44 0 36
v 40 0 -36
v 44 0 -36
v 40 24 35
v 41 24 35
v 40 24 34
v 41 24 34
v 40 24 21
v 41 24 21
v 40 24 20
v 41 24 20
v 40 24 18
v 41 24 18
v 40 24 17
v 41 24 17
v 40 24 4
v 41 24 4
v 40 24 3
v 41 24 3
v 40 24 1
v 41 24 1
v 40 24 -0
v 41 24 -0
v 40 24 -13
v 41 24 -13
v 40 24 -14
v 41 24 -14
v 40 24 -16
v 41 24 -16
v 40 24 -17
v 41 24 -17
v 40 25 34
v 41 25 34
v 40 25 21
v 41 25 21
v 40 25 17
v 41 25 17
v 40 25 4
v 41 25 4
v 40 25 -0
v 41 25 -0
v 40 25 -13
v 41 25 -13
v 40 25 -17
v 41 25 -17
v 40 25 -20
v 41 25 -20
v 40 2 34
v 41 2 34
v 40 2 21
v 41 2 21
v 40 2 17
v 41 2 17
v 40 2 4
v 41 2 4
v 40 2 -0
v 41 2 -0
v 40 2 -13
v 41 2 -13
v 40 2 -17
v 41 2 -17
v 40 2 -30
v 41 2 -30
v 40 3 35
v 41 3 35
v 40 3 34
v 41 3 34
v 40 3 21
v 41 3 21
v 40 3 20
v 41 3 20
v 40 3 18
v 41 3 18
v 40 3 17
v 41 3 17
v 40 3 4
v 41 3 4
v 40 3 3
v 41 3 3
v 40 3 1
v 41 3 1
v 40 3 -0
v 41 3 -0
v 40 3 -13
v 41 3 -13
v 40 3 -14
v 41 3 -14
v 40 3 -16
v 41 3 -16
v 40 3 -17
v 41 3 -17
v 40 3 -30
v 41 3 -30
v 40 3 -31
v 41 3 -31
v 40 5 -31
v 41 5 -31
v 42 5 -31
v 43 5 -31
v 44 5 -31
v 40 5 -36
v 44 5 -36
v 41 9 -25
v 42 9 -25
v 43 9 -25
v 44 9 -25
v 41 9 -31
v 42 9 -31
v 43 9 -31
v 44 9 -31
v 41 13 -24
v 42 13 -24
v 43 13 -24
v 44 13 -24
v 41 13 -25
v 42 13 -25
v 43 13 -25
v 44 13 -25
v 41 15 -23
v 42 15 -23
v 43 15 -23
v 44 15 -23
v 41 15 -24
v 42 15 -24
v 43 15 -24
v 44 15 -24
v 41 17 -22
v 42 17 -22
v 43 17 -22
v 44 17 -22
v 41 17 -23
v 42 17 -23
v 43 17 -23
v 44 17 -23
v 41 20 -21
v 42 20 -21
v 43 20 -21
v 44 20 -21
v 41 20 -22
v 42 20 -22
v 43 20 -22
v 44 20 -22
v 41 22 -20
v 42 22 -20
v 43 22 -20
v 44 22 -20
v 41 22 -21
v 42 22 -21
v 43 22 -21
v 44 22 -21
v 40 26 36
v 44 26 36
v 40 26 -20
v 44 26 -20

# faces
f 3/4/1 2/4/1 1/4/1
f 4/4/1 2/4/1 3/4/1
f 5/4/1 2/4/1 4/4/1
f 6/4/1 2/4/1 5/4/1
f 7/4/1 2/4/1 6/4/1
f 8/4/1 2/4/1 7/4/1
f 9/4/1 2/4/1 8/4/1
f 10/4/1 2/4/1 9/4/1
f 11/4/1 3/4/1 1/4/1
f 12/4/1 3/4/1 11/4/1
f 13/4/1 5/4/1 4/4/1
f 14/4/1 5/4/1 13/4/1
f 15/4/1 5/4/1 14/4/1
f 16/4/1 5/4/1 15/4/1
f 17/4/1 7/4/1 6/4/1
f 18/4/1 7/4/1 17/4/1
f 19/4/1 7/4/1 18/4/1
f 20/4/1 7/4/1 19/4/1
f 21/4/1 9/4/1 8/4/1
f 22/4/1 9/4/1 21/4/1
f 23/4/1 9/4/1 22/4/1
f 24/4/1 9/4/1 23/4/1
f 25/4/1 2/4/1 10/4/1
f 26/4/1 2/4/1 25/4/1
f 27/4/1 2/4/1 26/4/1
f 28/4/1 2/4/1 27/4/1
f 29/4/1 11/4/1 1/4/1
f 32/4/1 15/4/1 14/4/1
f 33/4/1 15/4/1 32/4/1
f 36/4/1 19/4/1 18/4/1
f 37/4/1 19/4/1 36/4/1
f 40/4/1 23/4/1 22/4/1
f 41/4/1 23/4/1 40/4/1
f 43/4/1 30/4/1 29/4/1
f 44/4/1 34/4/1 33/4/1
f 44/4/1 32/4/1 31/4/1
f 44/4/1 33/4/1 32/4/1
f 45/4/1 34/4/1 44/4/1
f 46/4/1 38/4/1 37/4/1
f 46/4/1 36/4/1 35/4/1
f 46/4/1 37/4/1 36/4/1
f 47/4/1 38/4/1 46/4/1
f 48/4/1 42/4/1 41/4/1
f 48/4/1 41/4/1 40/4/1
f 48/4/1 40/4/1 39/4/1
f 49/4/1 42/4/1 48/4/1
f 51/4/1 45/4/1 44/4/1
f 51/4/1 50/4/1 49/4/1
f 51/4/1 49/4/1 48/4/1
f 51/4/1 48/4/1 47/4/1
f 51/4/1 43/4/1 29/4/1
f 51/4/1 47/4/1 46/4/1
f 51/4/1 29/4/1 1/4/1
f 51/4/1 44/4/1 43/4/1
f 51/4/1 46/4/1 45/4/1
f 52/4/1 50/4/1 51/4/1
f 62/3/1 54/3/1 53/3/1
f 63/3/1 54/3/1 62/3/1
f 66/3/1 56/3/1 55/3/1
f 67/3/1 56/3/1 66/3/1
f 70/3/1 58/3/1 57/3/1
f 71/3/1 58/3/1 70/3/1
f 74/3/1 60/3/1 59/3/1
f 75/3/1 60/3/1 74/3/1
f 77/3/1 74/3/1 73/3/1
f 77/3/1 76/3/1 75/3/1
f 77/3/1 75/3/1 74/3/1
f 78/3/1 77/3/1 73/3/1
f 79/3/1 77/3/1 78/3/1
f 80/3/1 78/3/1 73/3/1
f 81/3/1 78/3/1 80/3/1
f 82/3/1 80/3/1 73/3/1
f 83/3/1 80/3/1 82/3/1
f 84/3/1 82/3/1 73/3/1
f 85/3/1 82/3/1 84/3/1
f 86/3/1 84/3/1 73/3/1
f 87/3/1 84/3/1 86/3/1
f 88/3/1 86/3/1 73/3/1
f 89/3/1 86/3/1 88/3/1
f 90/3/1 64/3/1 63/3/1
f 90/3/1 62/3/1 61/3/1
f 90/3/1 63/3/1 62/3/1
f 91/3/1 64/3/1 90/3/1
f 92/3/1 64/3/1 91/3/1
f 93/3/1 64/3/1 92/3/1
f 94/3/1 68/3/1 67/3/1
f 94/3/1 66/3/1 65/3/1
f 94/3/1 67/3/1 66/3/1
f 95/3/1 68/3/1 94/3/1
f 96/3/1 68/3/1 95/3/1
f 97/3/1 68/3/1 96/3/1
f 98/3/1 72/3/1 71/3/1
f 98/3/1 70/3/1 69/3/1
f 98/3/1 71/3/1 70/3/1
f 99/3/1 72/3/1 98/3/1
f 100/3/1 72/3/1 99/3/1
f 101/3/1 72/3/1 100/3/1
f 102/3/1 88/3/1 73/3/1
f 103/3/1 88/3/1 102/3/1
f 104/3/1 92/3/1 91/3/1
f 105/3/1 92/3/1 104/3/1
f 106/3/1 96/3/1 95/3/1
f 107/3/1 96/3/1 106/3/1
f 108/3/1 100/3/1 99/3/1
f 109/3/1 100/3/1 108/3/1
f 110/3/1 88/3/1 103/3/1
f 111/3/1 88/3/1 110/3/1
f 112/4/2 113/4/2 114/4/2
f 114/4/2 113/4/2 115/4/2
f 115/4/2 113/4/2 116/4/2
f 116/4/2 113/4/2 117/4/2
f 117/4/2 113/4/2 118/4/2
f 118/4/2 113/4/2 119/4/2
f 119/4/2 113/4/2 120/4/2
f 120/4/2 113/4/2 121/4/2
f 112/4/2 114/4/2 122/4/2
f 114/2/2 115/2/2 123/2/2
f 122/4/2 114/4/2 123/4/2
f 115/4/2 116/4/2 124/4/2
f 123/2/2 115/2/2 124/2/2
f 124/4/2 116/4/2 125/4/2
f 125/4/2 116/4/2 126/4/2
f 116/2/2 117/2/2 127/2/2
f 126/4/2 116/4/2 127/4/2
f 117/4/2 118/4/2 128/4/2
f 127/2/2 117/2/2 128/2/2
f 128/4/2 118/4/2 129/4/2
f 129/4/2 118/4/2 130/4/2
f 118/2/2 119/2/2 131/2/2
f 130/4/2 118/4/2 131/4/2
f 119/4/2 120/4/2 132/4/2
f 131/2/2 119/2/2 132/2/2
f 132/4/2 120/4/2 133/4/2
f 133/4/2 120/4/2 134/4/2
f 120/2/2 121/2/2 135/2/2
f 134/4/2 120/4/2 135/4/2
f 121/4/2 113/4/2 136/4/2
f 135/2/2 121/2/2 136/2/2
f 136/4/2 113/4/2 137/4/2
f 134/2/2 135/2/2 138/2/2
f 137/4/2 113/4/2 138/4/2
f 136/2/2 137/2/2 138/2/2
f 135/2/2 136/2/2 138/2/2
f 138/4/2 113/4/2 139/4/2
f 134/2/2 138/2/2 140/2/2
f 140/2/2 138/2/2 141/2/2
f 134/2/2 140/2/2 142/2/2
f 142/2/2 140/2/2 143/2/2
f 134/2/2 142/2/2 144/2/2
f 144/2/2 142/2/2 145/2/2
f 134/2/2 144/2/2 146/2/2
f 146/2/2 144/2/2 147/2/2
f 134/2/2 146/2/2 148/2/2
f 148/2/2 146/2/2 149/2/2
f 134/2/2 148/2/2 150/2/2
f 150/2/2 148/2/2 151/2/2
f 112/4/2 122/4/2 152/4/2
f 122/2/2 123/2/2 152/2/2
f 123/2/2 124/2/2 152/2/2
f 124/2/2 125/2/2 152/2/2
f 152/2/2 125/2/2 153/2/2
f 153/2/2 125/2/2 154/2/2
f 125/4/2 126/4/2 155/4/2
f 154/2/2 125/2/2 155/2/2
f 126/2/2 127/2/2 156/2/2
f 155/4/2 126/4/2 156/4/2
f 127/2/2 128/2/2 156/2/2
f 128/2/2 129/2/2 156/2/2
f 156/2/2 129/2/2 157/2/2
f 157/2/2 129/2/2 158/2/2
f 129/4/2 130/4/2 159/4/2
f 158/2/2 129/2/2 159/2/2
f 132/2/2 133/2/2 160/2/2
f 159/4/2 130/4/2 160/4/2
f 130/2/2 131/2/2 160/2/2
f 131/2/2 132/2/2 160/2/2
f 160/2/2 133/2/2 161/2/2
f 161/2/2 133/2/2 162/2/2
f 133/4/2 134/4/2 163/4/2
f 162/2/2 133/2/2 163/2/2
f 134/2/2 150/2/2 164/2/2
f 163/4/2 134/4/2 164/4/2
f 164/2/2 150/2/2 165/2/2
f 153/2/2 154/2/2 166/2/2
f 152/4/2 153/4/2 166/4/2
f 154/4/2 155/4/2 167/4/2
f 166/2/2 154/2/2 167/2/2
f 156/4/2 157/4/2 167/4/2
f 155/4/2 156/4/2 167/4/2
f 157/2/2 158/2/2 168/2/2
f 167/4/2 157/4/2 168/4/2
f 158/4/2 159/4/2 169/4/2
f 168/2/2 158/2/2 169/2/2
f 160/4/2 161/4/2 169/4/2
f 159/4/2 160/4/2 169/4/2
f 161/2/2 162/2/2 170/2/2
f 169/4/2 161/4/2 170/4/2
f 162/4/2 163/4/2 171/4/2
f 170/2/2 162/2/2 171/2/2
f 163/4/2 164/4/2 171/4/2
f 164/4/2 165/4/2 171/4/2
f 165/2/2 150/2/2 172/2/2
f 171/4/2 165/4/2 172/4/2
f 172/2/2 150/2/2 173/2/2
f 167/4/2 168/4/2 174/4/2
f 169/4/2 170/4/2 174/4/2
f 172/4/2 173/4/2 174/4/2
f 171/4/2 172/4/2 174/4/2
f 170/4/2 171/4/2 174/4/2
f 152/4/2 166/4/2 174/4/2
f 112/4/2 152/4/2 174/4/2
f 166/4/2 167/4/2 174/4/2
f 168/4/2 169/4/2 174/4/2
f 174/4/2 173/4/2 175/4/2
f 178/4/3 177/4/3 176/4/3
f 179/4/3 177/4/3 178/4/3
f 184/4/3 181/4/3 180/4/3
f 185/4/3 181/4/3 184/4/3
f 186/4/3 183/4/3 182/4/3
f 187/4/3 183/4/3 186/4/3
f 190/4/3 189/4/3 188/4/3
f 191/4/3 189/4/3 190/4/3
f 196/4/3 193/4/3 192/4/3
f 197/4/3 193/4/3 196/4/3
f 198/4/3 195/4/3 194/4/3
f 199/4/3 195/4/3 198/4/3
f 202/4/3 201/4/3 200/4/3
f 203/4/3 201/4/3 202/4/3
f 208/4/3 205/4/3 204/4/3
f 209/4/3 205/4/3 208/4/3
f 210/4/3 207/4/3 206/4/3
f 211/4/3 207/4/3 210/4/3
f 214/4/3 213/4/3 212/4/3
f 215/4/3 213/4/3 214/4/3
f 218/4/3 217/4/3 216/4/3
f 219/4/3 217/4/3 218/4/3
f 222/4/3 221/4/3 220/4/3
f 223/4/3 221/4/3 222/4/3
f 224/4/4 225/4/4 226/4/4
f 226/4/4 225/4/4 227/4/4
f 228/4/4 229/4/4 232/4/4
f 232/4/4 229/4/4 233/4/4
f 230/4/4 231/4/4 234/4/4
f 234/4/4 231/4/4 235/4/4
f 236/4/4 237/4/4 238/4/4
f 238/4/4 237/4/4 239/4/4
f 240/4/4 241/4/4 244/4/4
f 244/4/4 241/4/4 245/4/4
f 242/4/4 243/4/4 246/4/4
f 246/4/4 243/4/4 247/4/4
f 248/4/4 249/4/4 250/4/4
f 250/4/4 249/4/4 251/4/4
f 252/4/4 253/4/4 256/4/4
f 256/4/4 253/4/4 257/4/4
f 254/4/4 255/4/4 258/4/4
f 258/4/4 255/4/4 259/4/4
f 260/4/4 261/4/4 262/4/4
f 262/4/4 261/4/4 263/4/4
f 264/4/4 265/4/4 268/4/4
f 268/4/4 265/4/4 269/4/4
f 266/4/4 267/4/4 270/4/4
f 270/4/4 267/4/4 271/4/4
f 272/4/4 273/4/4 275/4/4
f 274/3/4 275/3/4 276/3/4
f 275/4/4 273/4/4 277/4/4
f 276/3/4 275/3/4 277/3/4
f 276/1/4 277/1/4 278/1/4
f 277/4/4 273/4/4 279/4/4
f 278/1/4 277/1/4 279/1/4
f 278/2/4 279/2/4 280/2/4
f 279/4/4 273/4/4 281/4/4
f 280/2/4 279/2/4 281/2/4
f 281/4/4 273/4/4 282/4/4
f 283/3/4 284/3/4 285/3/4
f 285/3/4 284/3/4 286/3/4
f 285/1/4 286/1/4 287/1/4
f 287/1/4 286/1/4 288/1/4
f 287/2/4 288/2/4 289/2/4
f 289/2/4 288/2/4 290/2/4
f 291/3/4 292/3/4 293/3/4
f 293/3/4 292/3/4 294/3/4
f 293/1/4 294/1/4 295/1/4
f 295/1/4 294/1/4 296/1/4
f 295/2/4 296/2/4 297/2/4
f 297/2/4 296/2/4 298/2/4
f 299/3/4 300/3/4 301/3/4
f 301/3/4 300/3/4 302/3/4
f 301/1/4 302/1/4 303/1/4
f 303/1/4 302/1/4 304/1/4
f 303/2/4 304/2/4 305/2/4
f 305/2/4 304/2/4 306/2/4
f 307/3/4 308/3/4 309/3/4
f 309/3/4 308/3/4 310/3/4
f 309/1/4 310/1/4 311/1/4
f 311/1/4 310/1/4 312/1/4
f 311/2/4 312/2/4 313/2/4
f 313/2/4 312/2/4 314/2/4
f 315/3/4 316/3/4 317/3/4
f 317/3/4 316/3/4 318/3/4
f 317/1/4 318/1/4 319/1/4
f 319/1/4 318/1/4 320/1/4
f 319/2/4 320/2/4 321/2/4
f 321/2/4 320/2/4 322/2/4
f 323/3/4 324/3/4 325/3/4
f 325/3/4 324/3/4 326/3/4
f 325/1/4 326/1/4 327/1/4
f 327/1/4 326/1/4 328/1/4
f 327/2/4 328/2/4 329/2/4
f 329/2/4 328/2/4 330/2/4
f 331/4/4 332/4/4 333/4/4
f 333/4/4 332/4/4 334/4/4
f 337/4/5 336/4/5 335/4/5
f 338/4/5 336/4/5 337/4/5
f 341/4/5 340/4/5 339/4/5
f 342/4/5 340/4/5 341/4/5
f 345/4/5 344/4/5 343/4/5
f 346/4/5 344/4/5 345/4/5
f 349/4/5 348/4/5 347/4/5
f 350/4/5 348/4/5 349/4/5
f 353/4/5 352/4/5 351/4/5
f 354/4/5 352/4/5 353/4/5
f 357/4/5 356/4/5 355/4/5
f 358/4/5 356/4/5 357/4/5
f 361/4/5 360/4/5 359/4/5
f 362/4/5 360/4/5 361/4/5
f 365/4/5 364/4/5 363/4/5
f 366/4/5 364/4/5 365/4/5
f 369/4/5 368/4/5 367/4/5
f 370/4/5 368/4/5 369/4/5
f 373/4/5 372/4/5 371/4/5
f 374/4/5 372/4/5 373/4/5
f 377/4/5 376/4/5 375/4/5
f 378/4/5 376/4/5 377/4/5
f 381/4/5 380/4/5 379/4/5
f 382/4/5 380/4/5 381/4/5
f 383/4/6 384/4/6 385/4/6
f 385/4/6 384/4/6 386/4/6
f 387/4/6 388/4/6 389/4/6
f 389/4/6 388/4/6 390/4/6
f 391/4/6 392/4/6 393/4/6
f 393/4/6 392/4/6 394/4/6
f 395/4/6 396/4/6 397/4/6
f 397/4/6 396/4/6 398/4/6
f 399/4/6 400/4/6 401/4/6
f 401/4/6 400/4/6 402/4/6
f 403/4/6 404/4/6 405/4/6
f 405/4/6 404/4/6 406/4/6
f 407/4/6 408/4/6 409/4/6
f 409/4/6 408/4/6 410/4/6
f 411/4/6 412/4/6 413/4/6
f 413/4/6 412/4/6 414/4/6
f 415/4/6 416/4/6 417/4/6
f 417/4/6 416/4/6 418/4/6
f 419/4/6 420/4/6 421/4/6
f 421/4/6 420/4/6 422/4/6
f 423/4/6 424/4/6 425/4/6
f 425/4/6 424/4/6 426/4/6
f 427/4/6 428/4/6 429/4/6
f 429/4/6 428/4/6 430/4/6
f 431/4/6 432/4/6 436/4/6
f 434/4/6 435/4/6 436/4/6
f 433/4/6 434/4/6 436/4/6
f 432/4/6 433/4/6 436/4/6
f 436/4/6 435/4/6 437/4/6
f 438/3/6 439/3/6 442/3/6
f 439/1/6 440/1/6 443/1/6
f 442/3/6 439/3/6 443/3/6
f 440/2/6 441/2/6 444/2/6
f 443/1/6 440/1/6 444/1/6
f 444/2/6 441/2/6 445/2/6
f 446/3/6 447/3/6 450/3/6
f 447/1/6 448/1/6 451/1/6
f 450/3/6 447/3/6 451/3/6
f 448/2/6 449/2/6 452/2/6
f 451/1/6 448/1/6 452/1/6
f 452/2/6 449/2/6 453/2/6
f 454/3/6 455/3/6 458/3/6
f 455/1/6 456/1/6 459/1/6
f 458/3/6 455/3/6 459/3/6
f 456/2/6 457/2/6 460/2/6
f 459/1/6 456/1/6 460/1/6
f 460/2/6 457/2/6 461/2/6
f 462/3/6 463/3/6 466/3/6
f 463/1/6 464/1/6 467/1/6
f 466/3/6 463/3/6 467/3/6
f 464/2/6 465/2/6 468/2/6
f 467/1/6 464/1/6 468/1/6
f 468/2/6 465/2/6 469/2/6
f 470/3/6 471/3/6 474/3/6
f 471/1/6 472/1/6 475/1/6
f 474/3/6 471/3/6 475/3/6
f 472/2/6 473/2/6 476/2/6
f 475/1/6 472/1/6 476/1/6
f 476/2/6 473/2/6 477/2/6
f 478/3/6 479/3/6 482/3/6
f 479/1/6 480/1/6 483/1/6
f 482/3/6 479/3/6 483/3/6
f 480/2/6 481/2/6 484/2/6
f 483/1/6 480/1/6 484/1/6
f 484/2/6 481/2/6 485/2/6
f 486/4/6 487/4/6 488/4/6
f 488/4/6 487/4/6 489/4/6
