# MagicaVoxel @ Ephtracy

# group
g Electrocity-59

# material
mtllib Electrocity-59.mtl
usemtl palette

# normals
vn -1 0 0
vn 1 0 0
vn 0 0 1
vn 0 0 -1
vn 0 -1 0
vn 0 1 0

# texcoords
vt 0.0410156 0.5
vt 0.0527344 0.5
vt 0.0566406 0.5
vt 0.0605469 0.5
vt 0.939453 0.5
vt 0.943359 0.5

# verts
v -40 0 -16
v -40 0 -24
v -40 1 -16
v -40 1 -24
v -39 1 -17
v -39 1 -23
v -39 2 -17
v -39 2 -23
v -38 2 -18
v -38 2 -22
v -38 4 19
v -38 4 -18
v -38 7 19
v -38 7 -22
v -37 7 19
v -37 7 -22
v -37 8 19
v -37 8 -22
v -31 4 30
v -31 4 29
v -31 4 27
v -31 4 26
v -31 7 30
v -31 7 29
v -31 7 27
v -31 7 26
v -31 8 29
v -31 8 27
v -20 5 -2
v -20 5 -6
v -20 6 14
v -20 6 -2
v -20 6 -6
v -20 6 -7
v -20 7 14
v -20 7 -2
v -20 7 -6
v -20 7 -7
v -20 9 14
v -20 9 -2
v -20 9 -6
v -20 9 -7
v -20 10 14
v -20 10 -2
v -20 10 -6
v -20 10 -7
v -20 11 -2
v -20 11 -6
v -12 0 -0
v -12 0 -1
v -12 0 -7
v -12 0 -8
v -12 5 -2
v -12 5 -6
v -12 6 -1
v -12 6 -2
v -12 6 -6
v -12 6 -7
v -12 7 -1
v -12 7 -7
v -12 9 -1
v -12 9 -7
v -12 10 -1
v -12 10 -2
v -12 10 -6
v -12 10 -7
v -12 11 -2
v -12 11 -6
v -12 15 -1
v -12 15 -7
v -12 16 -0
v -12 16 -8
v -5 0 -0
v -5 0 -1
v -5 0 -7
v -5 0 -8
v -5 15 -0
v -5 15 -1
v -5 15 -7
v -5 15 -8
v 4 0 32
v 4 0 24
v 4 1 32
v 4 1 24
v 5 1 31
v 5 1 25
v 5 2 31
v 5 2 25
v 6 2 30
v 6 2 29
v 6 2 27
v 6 2 26
v 6 4 30
v 6 4 29
v 6 4 27
v 6 4 26
v -35 7 19
v -35 7 -22
v -35 8 19
v -35 8 -22
v -34 2 -18
v -34 2 -22
v -34 4 19
v -34 4 -18
v -34 7 19
v -34 7 -22
v -33 1 -17
v -33 1 -23
v -33 2 -17
v -33 2 -23
v -32 0 -16
v -32 0 -24
v -32 1 -16
v -32 1 -24
v -18 6 14
v -18 6 -1
v -18 7 14
v -18 7 -1
v -18 9 14
v -18 9 -1
v -18 10 14
v -18 10 -1
v -11 0 -0
v -11 0 -1
v -11 0 -7
v -11 0 -8
v -11 15 -0
v -11 15 -1
v -11 15 -7
v -11 15 -8
v -5 0 -1
v -5 0 -7
v -5 4 -5
v -5 4 -6
v -5 5 -5
v -5 5 -6
v -5 7 -3
v -5 7 -4
v -5 8 -3
v -5 8 -4
v -5 11 -4
v -5 11 -5
v -5 12 -2
v -5 12 -3
v -5 12 -4
v -5 12 -5
v -5 13 -2
v -5 13 -3
v -5 15 -1
v -5 15 -7
v -4 0 -0
v -4 0 -1
v -4 0 -7
v -4 0 -8
v -4 15 -1
v -4 15 -7
v -4 16 -0
v -4 16 -8
v 10 2 30
v 10 2 29
v 10 2 27
v 10 2 26
v 10 7 30
v 10 7 29
v 10 7 27
v 10 7 26
v 10 8 29
v 10 8 27
v 11 1 31
v 11 1 25
v 11 2 31
v 11 2 25
v 12 0 32
v 12 0 24
v 12 1 32
v 12 1 24
v 4 0 32
v 4 1 32
v 12 0 32
v 12 1 32
v 5 1 31
v 5 2 31
v 11 1 31
v 11 2 31
v -31 4 30
v -31 7 30
v 6 2 30
v 6 4 30
v 10 2 30
v 10 7 30
v -31 7 29
v -31 8 29
v 10 7 29
v 10 8 29
v -38 4 19
v -38 7 19
v -37 4 19
v -37 7 19
v -37 8 19
v -35 4 19
v -35 7 19
v -35 8 19
v -34 4 19
v -34 7 19
v -20 6 14
v -20 7 14
v -20 9 14
v -20 10 14
v -18 6 14
v -18 7 14
v -18 9 14
v -18 10 14
v -12 0 -0
v -12 16 -0
v -11 0 -0
v -11 15 -0
v -5 0 -0
v -5 15 -0
v -4 0 -0
v -4 16 -0
v -18 6 -1
v -18 7 -1
v -18 9 -1
v -18 10 -1
v -12 6 -1
v -12 7 -1
v -12 9 -1
v -12 10 -1
v -11 0 -1
v -11 15 -1
v -5 0 -1
v -5 15 -1
v -20 5 -2
v -20 6 -2
v -20 10 -2
v -20 11 -2
v -19 6 -2
v -18 6 -2
v -12 5 -2
v -12 6 -2
v -12 10 -2
v -12 11 -2
v -5 0 -7
v -5 15 -7
v -4 0 -7
v -4 15 -7
v -40 0 -16
v -40 1 -16
v -32 0 -16
v -32 1 -16
v -39 1 -17
v -39 2 -17
v -33 1 -17
v -33 2 -17
v -38 2 -18
v -38 4 -18
v -37 2 -18
v -37 4 -18
v -35 2 -18
v -35 4 -18
v -34 2 -18
v -34 4 -18
v -31 7 27
v -31 8 27
v 10 7 27
v 10 8 27
v -31 4 26
v -31 7 26
v 6 2 26
v 6 4 26
v 10 2 26
v 10 7 26
v 5 1 25
v 5 2 25
v 11 1 25
v 11 2 25
v 4 0 24
v 4 1 24
v 12 0 24
v 12 1 24
v -5 0 -1
v -5 15 -1
v -4 0 -1
v -4 15 -1
v -20 5 -6
v -20 6 -6
v -20 10 -6
v -20 11 -6
v -12 5 -6
v -12 6 -6
v -12 10 -6
v -12 11 -6
v -20 6 -7
v -20 7 -7
v -20 9 -7
v -20 10 -7
v -12 6 -7
v -12 7 -7
v -12 9 -7
v -12 10 -7
v -11 0 -7
v -11 15 -7
v -10 12 -7
v -10 13 -7
v -9 12 -7
v -9 13 -7
v -8 6 -7
v -8 7 -7
v -7 6 -7
v -7 7 -7
v -7 11 -7
v -7 12 -7
v -6 11 -7
v -6 12 -7
v -5 0 -7
v -5 15 -7
v -12 0 -8
v -12 16 -8
v -11 0 -8
v -11 15 -8
v -5 0 -8
v -5 15 -8
v -4 0 -8
v -4 16 -8
v -38 2 -22
v -38 7 -22
v -37 2 -22
v -37 7 -22
v -37 8 -22
v -35 2 -22
v -35 7 -22
v -35 8 -22
v -34 2 -22
v -34 7 -22
v -39 1 -23
v -39 2 -23
v -33 1 -23
v -33 2 -23
v -40 0 -24
v -40 1 -24
v -32 0 -24
v -32 1 -24
v 4 0 32
v 12 0 32
v 4 0 24
v 12 0 24
v -12 0 -0
v -11 0 -0
v -5 0 -0
v -4 0 -0
v -12 0 -1
v -11 0 -1
v -5 0 -1
v -4 0 -1
v -11 0 -2
v -6 0 -2
v -11 0 -6
v -6 0 -6
v -12 0 -7
v -11 0 -7
v -5 0 -7
v -4 0 -7
v -12 0 -8
v -11 0 -8
v -5 0 -8
v -4 0 -8
v -40 0 -16
v -32 0 -16
v -40 0 -24
v -32 0 -24
v -31 4 30
v 6 4 30
v -31 4 29
v 6 4 29
v -31 4 27
v 6 4 27
v -31 4 26
v 6 4 26
v -38 4 19
v -37 4 19
v -35 4 19
v -34 4 19
v -38 4 -18
v -37 4 -18
v -35 4 -18
v -34 4 -18
v -20 5 -2
v -12 5 -2
v -20 5 -6
v -12 5 -6
v -20 6 14
v -18 6 14
v -19 6 -1
v -18 6 -1
v -12 6 -1
v -20 6 -2
v -19 6 -2
v -18 6 -2
v -12 6 -2
v -20 6 -6
v -12 6 -6
v -20 6 -7
v -12 6 -7
v -11 15 -0
v -5 15 -0
v -11 15 -1
v -5 15 -1
v -4 15 -1
v -11 15 -7
v -5 15 -7
v -4 15 -7
v -11 15 -8
v -5 15 -8
v 4 1 32
v 12 1 32
v 5 1 31
v 11 1 31
v 5 1 25
v 11 1 25
v 4 1 24
v 12 1 24
v -40 1 -16
v -32 1 -16
v -39 1 -17
v -33 1 -17
v -39 1 -23
v -33 1 -23
v -40 1 -24
v -32 1 -24
v 5 2 31
v 11 2 31
v 6 2 30
v 10 2 30
v 6 2 29
v 10 2 29
v 6 2 27
v 10 2 27
v 6 2 26
v 10 2 26
v 5 2 25
v 11 2 25
v -39 2 -17
v -33 2 -17
v -38 2 -18
v -37 2 -18
v -35 2 -18
v -34 2 -18
v -38 2 -22
v -37 2 -22
v -35 2 -22
v -34 2 -22
v -39 2 -23
v -33 2 -23
v -31 7 30
v 10 7 30
v -31 7 29
v 10 7 29
v -31 7 27
v 10 7 27
v -31 7 26
v 10 7 26
v -38 7 19
v -37 7 19
v -35 7 19
v -34 7 19
v -38 7 -22
v -37 7 -22
v -35 7 -22
v -34 7 -22
v -31 8 29
v 10 8 29
v -31 8 27
v 10 8 27
v -37 8 19
v -35 8 19
v -37 8 -22
v -35 8 -22
v -20 10 14
v -18 10 14
v -18 10 -1
v -12 10 -1
v -20 10 -2
v -12 10 -2
v -20 10 -6
v -12 10 -6
v -20 10 -7
v -12 10 -7
v -20 11 -2
v -12 11 -2
v -20 11 -6
v -12 11 -6
v -12 16 -0
v -4 16 -0
v -12 16 -8
v -4 16 -8

# faces
f 3/4/1 2/4/1 1/4/1
f 4/4/1 2/4/1 3/4/1
f 7/4/1 6/4/1 5/4/1
f 8/4/1 6/4/1 7/4/1
f 12/2/1 10/2/1 9/2/1
f 13/2/1 12/2/1 11/2/1
f 14/2/1 10/2/1 12/2/1
f 14/2/1 12/2/1 13/2/1
f 17/4/1 16/4/1 15/4/1
f 18/4/1 16/4/1 17/4/1
f 23/2/1 20/2/1 19/2/1
f 24/4/1 21/4/1 20/4/1
f 24/2/1 20/2/1 23/2/1
f 25/2/1 22/2/1 21/2/1
f 25/4/1 21/4/1 24/4/1
f 26/2/1 22/2/1 25/2/1
f 27/4/1 25/4/1 24/4/1
f 28/4/1 25/4/1 27/4/1
f 32/2/1 30/2/1 29/2/1
f 33/2/1 30/2/1 32/2/1
f 35/2/1 32/2/1 31/2/1
f 36/4/1 33/4/1 32/4/1
f 36/2/1 32/2/1 35/2/1
f 37/2/1 34/2/1 33/2/1
f 37/4/1 33/4/1 36/4/1
f 38/2/1 34/2/1 37/2/1
f 39/4/1 36/4/1 35/4/1
f 39/4/1 37/4/1 36/4/1
f 39/4/1 38/4/1 37/4/1
f 40/4/1 38/4/1 39/4/1
f 41/4/1 38/4/1 40/4/1
f 42/4/1 38/4/1 41/4/1
f 43/2/1 40/2/1 39/2/1
f 44/4/1 41/4/1 40/4/1
f 44/2/1 40/2/1 43/2/1
f 45/2/1 42/2/1 41/2/1
f 45/4/1 41/4/1 44/4/1
f 46/2/1 42/2/1 45/2/1
f 47/2/1 45/2/1 44/2/1
f 48/2/1 45/2/1 47/2/1
f 53/4/1 51/4/1 50/4/1
f 54/4/1 51/4/1 53/4/1
f 55/2/1 50/2/1 49/2/1
f 55/4/1 53/4/1 50/4/1
f 56/4/1 53/4/1 55/4/1
f 57/4/1 51/4/1 54/4/1
f 58/2/1 52/2/1 51/2/1
f 58/4/1 51/4/1 57/4/1
f 59/2/1 55/2/1 49/2/1
f 60/2/1 52/2/1 58/2/1
f 61/2/1 59/2/1 49/2/1
f 62/2/1 52/2/1 60/2/1
f 63/2/1 61/2/1 49/2/1
f 66/2/1 52/2/1 62/2/1
f 67/4/1 64/4/1 63/4/1
f 68/4/1 66/4/1 65/4/1
f 69/4/1 67/4/1 63/4/1
f 69/4/1 68/4/1 67/4/1
f 69/2/1 63/2/1 49/2/1
f 70/4/1 66/4/1 68/4/1
f 70/4/1 68/4/1 69/4/1
f 70/2/1 52/2/1 66/2/1
f 71/2/1 69/2/1 49/2/1
f 71/2/1 70/2/1 69/2/1
f 72/2/1 52/2/1 70/2/1
f 72/2/1 70/2/1 71/2/1
f 77/2/1 74/2/1 73/2/1
f 78/2/1 74/2/1 77/2/1
f 79/2/1 76/2/1 75/2/1
f 80/2/1 76/2/1 79/2/1
f 83/4/1 82/4/1 81/4/1
f 84/4/1 82/4/1 83/4/1
f 87/4/1 86/4/1 85/4/1
f 88/4/1 86/4/1 87/4/1
f 93/2/1 90/2/1 89/2/1
f 94/4/1 91/4/1 90/4/1
f 94/2/1 90/2/1 93/2/1
f 95/2/1 92/2/1 91/2/1
f 95/4/1 91/4/1 94/4/1
f 96/2/1 92/2/1 95/2/1
f 97/4/2 98/4/2 99/4/2
f 99/4/2 98/4/2 100/4/2
f 101/2/2 102/2/2 104/2/2
f 103/2/2 104/2/2 105/2/2
f 104/2/2 102/2/2 106/2/2
f 105/2/2 104/2/2 106/2/2
f 107/4/2 108/4/2 109/4/2
f 109/4/2 108/4/2 110/4/2
f 111/4/2 112/4/2 113/4/2
f 113/4/2 112/4/2 114/4/2
f 115/2/2 116/2/2 117/2/2
f 117/2/2 116/2/2 118/2/2
f 117/4/2 118/4/2 119/4/2
f 119/4/2 118/4/2 120/4/2
f 119/2/2 120/2/2 121/2/2
f 121/2/2 120/2/2 122/2/2
f 123/2/2 124/2/2 127/2/2
f 127/2/2 124/2/2 128/2/2
f 125/2/2 126/2/2 129/2/2
f 129/2/2 126/2/2 130/2/2
f 131/1/2 132/1/2 133/1/2
f 133/1/2 132/1/2 134/1/2
f 131/1/2 133/1/2 135/1/2
f 133/6/2 134/6/2 135/6/2
f 134/1/2 132/1/2 136/1/2
f 135/6/2 134/6/2 136/6/2
f 131/1/2 135/1/2 137/1/2
f 135/1/2 136/1/2 137/1/2
f 137/1/2 136/1/2 138/1/2
f 131/1/2 137/1/2 139/1/2
f 137/6/2 138/6/2 139/6/2
f 138/1/2 136/1/2 140/1/2
f 139/6/2 138/6/2 140/6/2
f 139/1/2 140/1/2 141/1/2
f 140/1/2 136/1/2 141/1/2
f 141/1/2 136/1/2 142/1/2
f 131/1/2 139/1/2 143/1/2
f 139/1/2 141/1/2 143/1/2
f 143/1/2 141/1/2 144/1/2
f 141/6/2 142/6/2 145/6/2
f 144/1/2 141/1/2 145/1/2
f 142/1/2 136/1/2 146/1/2
f 145/6/2 142/6/2 146/6/2
f 143/6/2 144/6/2 147/6/2
f 131/1/2 143/1/2 147/1/2
f 144/1/2 145/1/2 148/1/2
f 147/6/2 144/6/2 148/6/2
f 145/1/2 146/1/2 148/1/2
f 131/1/2 147/1/2 149/1/2
f 147/1/2 148/1/2 149/1/2
f 136/1/2 132/1/2 150/1/2
f 149/1/2 148/1/2 150/1/2
f 148/1/2 146/1/2 150/1/2
f 146/1/2 136/1/2 150/1/2
f 151/2/2 152/2/2 155/2/2
f 153/2/2 154/2/2 156/2/2
f 151/2/2 155/2/2 157/2/2
f 155/2/2 156/2/2 157/2/2
f 156/2/2 154/2/2 158/2/2
f 157/2/2 156/2/2 158/2/2
f 159/2/2 160/2/2 163/2/2
f 160/4/2 161/4/2 164/4/2
f 163/2/2 160/2/2 164/2/2
f 161/2/2 162/2/2 165/2/2
f 164/4/2 161/4/2 165/4/2
f 165/2/2 162/2/2 166/2/2
f 164/4/2 165/4/2 167/4/2
f 167/4/2 165/4/2 168/4/2
f 169/4/2 170/4/2 171/4/2
f 171/4/2 170/4/2 172/4/2
f 173/4/2 174/4/2 175/4/2
f 175/4/2 174/4/2 176/4/2
f 179/4/3 178/4/3 177/4/3
f 180/4/3 178/4/3 179/4/3
f 183/4/3 182/4/3 181/4/3
f 184/4/3 182/4/3 183/4/3
f 188/2/3 186/2/3 185/2/3
f 189/2/3 188/2/3 187/2/3
f 190/2/3 186/2/3 188/2/3
f 190/2/3 188/2/3 189/2/3
f 193/4/3 192/4/3 191/4/3
f 194/4/3 192/4/3 193/4/3
f 197/2/3 196/2/3 195/2/3
f 198/2/3 196/2/3 197/2/3
f 200/4/3 198/4/3 197/4/3
f 200/4/3 199/4/3 198/4/3
f 201/4/3 199/4/3 200/4/3
f 202/4/3 199/4/3 201/4/3
f 203/2/3 201/2/3 200/2/3
f 204/2/3 201/2/3 203/2/3
f 209/2/3 206/2/3 205/2/3
f 210/4/3 207/4/3 206/4/3
f 210/2/3 206/2/3 209/2/3
f 211/2/3 208/2/3 207/2/3
f 211/4/3 207/4/3 210/4/3
f 212/2/3 208/2/3 211/2/3
f 215/2/3 214/2/3 213/2/3
f 216/2/3 214/2/3 215/2/3
f 218/2/3 214/2/3 216/2/3
f 219/2/3 218/2/3 217/2/3
f 220/2/3 214/2/3 218/2/3
f 220/2/3 218/2/3 219/2/3
f 225/2/3 222/2/3 221/2/3
f 226/4/3 223/4/3 222/4/3
f 226/2/3 222/2/3 225/2/3
f 227/2/3 224/2/3 223/2/3
f 227/4/3 223/4/3 226/4/3
f 228/2/3 224/2/3 227/2/3
f 231/1/3 230/1/3 229/1/3
f 232/1/3 230/1/3 231/1/3
f 237/2/3 234/2/3 233/2/3
f 238/2/3 237/2/3 233/2/3
f 239/2/3 238/2/3 233/2/3
f 240/2/3 238/2/3 239/2/3
f 241/2/3 236/2/3 235/2/3
f 242/2/3 236/2/3 241/2/3
f 245/2/3 244/2/3 243/2/3
f 246/2/3 244/2/3 245/2/3
f 249/4/3 248/4/3 247/4/3
f 250/4/3 248/4/3 249/4/3
f 253/4/3 252/4/3 251/4/3
f 254/4/3 252/4/3 253/4/3
f 257/2/3 256/2/3 255/2/3
f 258/2/3 256/2/3 257/2/3
f 259/4/3 258/4/3 257/4/3
f 260/4/3 258/4/3 259/4/3
f 261/2/3 260/2/3 259/2/3
f 262/2/3 260/2/3 261/2/3
f 263/4/4 264/4/4 265/4/4
f 265/4/4 264/4/4 266/4/4
f 267/2/4 268/2/4 270/2/4
f 269/2/4 270/2/4 271/2/4
f 270/2/4 268/2/4 272/2/4
f 271/2/4 270/2/4 272/2/4
f 273/4/4 274/4/4 275/4/4
f 275/4/4 274/4/4 276/4/4
f 277/4/4 278/4/4 279/4/4
f 279/4/4 278/4/4 280/4/4
f 281/2/4 282/2/4 283/2/4
f 283/2/4 282/2/4 284/2/4
f 285/2/4 286/2/4 289/2/4
f 289/2/4 286/2/4 290/2/4
f 287/2/4 288/2/4 291/2/4
f 291/2/4 288/2/4 292/2/4
f 293/2/4 294/2/4 297/2/4
f 294/4/4 295/4/4 298/4/4
f 297/2/4 294/2/4 298/2/4
f 295/2/4 296/2/4 299/2/4
f 298/4/4 295/4/4 299/4/4
f 299/2/4 296/2/4 300/2/4
f 301/1/4 302/1/4 303/1/4
f 303/1/4 302/1/4 304/1/4
f 301/1/4 303/1/4 305/1/4
f 303/5/4 304/5/4 305/5/4
f 304/1/4 302/1/4 306/1/4
f 305/5/4 304/5/4 306/5/4
f 301/1/4 305/1/4 307/1/4
f 305/1/4 306/1/4 307/1/4
f 307/1/4 306/1/4 308/1/4
f 301/1/4 307/1/4 309/1/4
f 307/5/4 308/5/4 309/5/4
f 308/1/4 306/1/4 310/1/4
f 309/5/4 308/5/4 310/5/4
f 310/1/4 306/1/4 311/1/4
f 311/1/4 306/1/4 312/1/4
f 309/1/4 310/1/4 313/1/4
f 310/1/4 311/1/4 313/1/4
f 311/5/4 312/5/4 313/5/4
f 312/1/4 306/1/4 314/1/4
f 313/5/4 312/5/4 314/5/4
f 301/1/4 309/1/4 315/1/4
f 309/1/4 313/1/4 315/1/4
f 313/1/4 314/1/4 315/1/4
f 306/1/4 302/1/4 316/1/4
f 315/1/4 314/1/4 316/1/4
f 314/1/4 306/1/4 316/1/4
f 317/2/4 318/2/4 319/2/4
f 319/2/4 318/2/4 320/2/4
f 320/2/4 318/2/4 322/2/4
f 321/2/4 322/2/4 323/2/4
f 322/2/4 318/2/4 324/2/4
f 323/2/4 322/2/4 324/2/4
f 325/2/4 326/2/4 327/2/4
f 327/2/4 326/2/4 328/2/4
f 327/4/4 328/4/4 330/4/4
f 328/4/4 329/4/4 330/4/4
f 330/4/4 329/4/4 331/4/4
f 331/4/4 329/4/4 332/4/4
f 330/2/4 331/2/4 333/2/4
f 333/2/4 331/2/4 334/2/4
f 335/4/4 336/4/4 337/4/4
f 337/4/4 336/4/4 338/4/4
f 339/4/4 340/4/4 341/4/4
f 341/4/4 340/4/4 342/4/4
f 345/4/5 344/4/5 343/4/5
f 346/4/5 344/4/5 345/4/5
f 351/2/5 348/2/5 347/2/5
f 352/2/5 348/2/5 351/2/5
f 353/2/5 350/2/5 349/2/5
f 354/2/5 350/2/5 353/2/5
f 355/4/5 352/4/5 351/4/5
f 355/1/5 353/1/5 352/1/5
f 356/1/5 353/1/5 355/1/5
f 357/4/5 355/4/5 351/4/5
f 357/4/5 356/4/5 355/4/5
f 358/1/5 353/1/5 356/1/5
f 358/4/5 356/4/5 357/4/5
f 359/4/5 357/4/5 351/4/5
f 360/1/5 358/1/5 357/1/5
f 360/4/5 357/4/5 359/4/5
f 361/1/5 353/1/5 358/1/5
f 361/1/5 358/1/5 360/1/5
f 363/2/5 360/2/5 359/2/5
f 364/2/5 360/2/5 363/2/5
f 365/2/5 362/2/5 361/2/5
f 366/2/5 362/2/5 365/2/5
f 369/4/5 368/4/5 367/4/5
f 370/4/5 368/4/5 369/4/5
f 373/2/5 372/2/5 371/2/5
f 374/2/5 372/2/5 373/2/5
f 375/4/5 374/4/5 373/4/5
f 376/4/5 374/4/5 375/4/5
f 377/2/5 376/2/5 375/2/5
f 378/2/5 376/2/5 377/2/5
f 383/2/5 380/2/5 379/2/5
f 384/4/5 381/4/5 380/4/5
f 384/2/5 380/2/5 383/2/5
f 385/2/5 382/2/5 381/2/5
f 385/4/5 381/4/5 384/4/5
f 386/2/5 382/2/5 385/2/5
f 389/2/5 388/2/5 387/2/5
f 390/2/5 388/2/5 389/2/5
f 393/2/5 392/2/5 391/2/5
f 394/2/5 392/2/5 393/2/5
f 396/2/5 393/2/5 391/2/5
f 397/3/5 394/3/5 393/3/5
f 397/2/5 393/2/5 396/2/5
f 398/2/5 395/2/5 394/2/5
f 398/3/5 394/3/5 397/3/5
f 399/2/5 395/2/5 398/2/5
f 402/2/5 401/2/5 400/2/5
f 403/2/5 401/2/5 402/2/5
f 406/2/5 405/2/5 404/2/5
f 407/2/5 405/2/5 406/2/5
f 410/2/5 408/2/5 407/2/5
f 411/2/5 408/2/5 410/2/5
f 412/2/5 410/2/5 409/2/5
f 413/2/5 410/2/5 412/2/5
f 414/4/6 415/4/6 416/4/6
f 416/4/6 415/4/6 417/4/6
f 414/4/6 416/4/6 418/4/6
f 417/4/6 415/4/6 419/4/6
f 414/4/6 418/4/6 420/4/6
f 418/4/6 419/4/6 420/4/6
f 419/4/6 415/4/6 421/4/6
f 420/4/6 419/4/6 421/4/6
f 422/4/6 423/4/6 424/4/6
f 424/4/6 423/4/6 425/4/6
f 422/4/6 424/4/6 426/4/6
f 425/4/6 423/4/6 427/4/6
f 422/4/6 426/4/6 428/4/6
f 426/4/6 427/4/6 428/4/6
f 427/4/6 423/4/6 429/4/6
f 428/4/6 427/4/6 429/4/6
f 430/4/6 431/4/6 432/4/6
f 432/4/6 431/4/6 433/4/6
f 430/4/6 432/4/6 434/4/6
f 433/4/6 431/4/6 435/4/6
f 430/4/6 434/4/6 436/4/6
f 435/4/6 431/4/6 437/4/6
f 430/4/6 436/4/6 438/4/6
f 437/4/6 431/4/6 439/4/6
f 430/4/6 438/4/6 440/4/6
f 438/4/6 439/4/6 440/4/6
f 439/4/6 431/4/6 441/4/6
f 440/4/6 439/4/6 441/4/6
f 442/4/6 443/4/6 444/4/6
f 444/4/6 443/4/6 445/4/6
f 445/4/6 443/4/6 446/4/6
f 446/4/6 443/4/6 447/4/6
f 442/4/6 444/4/6 448/4/6
f 447/4/6 443/4/6 451/4/6
f 449/4/6 450/4/6 452/4/6
f 450/4/6 451/4/6 452/4/6
f 442/4/6 448/4/6 452/4/6
f 448/4/6 449/4/6 452/4/6
f 451/4/6 443/4/6 453/4/6
f 452/4/6 451/4/6 453/4/6
f 454/2/6 455/2/6 456/2/6
f 456/2/6 455/2/6 457/2/6
f 458/2/6 459/2/6 460/2/6
f 460/2/6 459/2/6 461/2/6
f 462/2/6 463/2/6 466/2/6
f 466/2/6 463/2/6 467/2/6
f 464/2/6 465/2/6 468/2/6
f 468/2/6 465/2/6 469/2/6
f 470/4/6 471/4/6 472/4/6
f 472/4/6 471/4/6 473/4/6
f 474/4/6 475/4/6 476/4/6
f 476/4/6 475/4/6 477/4/6
f 478/2/6 479/2/6 480/2/6
f 478/2/6 480/2/6 482/2/6
f 480/2/6 481/2/6 482/2/6
f 482/2/6 481/2/6 483/2/6
f 484/2/6 485/2/6 486/2/6
f 486/2/6 485/2/6 487/2/6
f 488/2/6 489/2/6 490/2/6
f 490/2/6 489/2/6 491/2/6
f 492/2/6 493/2/6 494/2/6
f 494/2/6 493/2/6 495/2/6
