# MagicaVoxel @ Ephtracy

# group
g Electrocity-52

# material
mtllib Electrocity-52.mtl
usemtl palette

# normals
vn -1 0 0
vn 1 0 0
vn 0 0 1
vn 0 0 -1
vn 0 -1 0
vn 0 1 0

# texcoords
vt 0.0292969 0.5
vt 0.0488281 0.5

# verts
v -44 0 36
v -44 0 -36
v -44 2 36
v -44 2 -36
v -44 4 36
v -44 4 -32
v -44 8 -32
v -44 8 -36
v 40 0 -16
v 40 0 -17
v 40 2 -16
v 40 2 -17
v 40 4 36
v 40 4 -16
v 40 8 36
v 40 8 -17
v 23 0 -26
v 23 0 -33
v 23 1 -33
v 23 1 -36
v 23 2 -26
v 23 2 -36
v 23 4 -26
v 23 4 -32
v 23 8 -32
v 23 8 -36
v 24 0 -33
v 24 0 -34
v 24 1 -33
v 24 1 -34
v 25 0 -19
v 25 0 -26
v 25 0 -34
v 25 0 -36
v 25 1 -34
v 25 1 -36
v 25 2 -19
v 25 2 -26
v 25 4 -19
v 25 4 -26
v 29 0 -16
v 29 0 -19
v 29 2 -16
v 29 2 -19
v 29 4 -16
v 29 4 -19
v 44 0 36
v 44 0 -17
v 44 2 36
v 44 2 -17
v 44 8 36
v 44 8 -17
v -44 0 36
v -44 2 36
v -44 4 36
v 40 4 36
v 40 8 36
v 44 0 36
v 44 2 36
v 44 8 36
v -44 4 -32
v -44 8 -32
v 23 4 -32
v 23 8 -32
v 23 0 -33
v 23 1 -33
v 24 0 -33
v 24 1 -33
v 24 0 -34
v 24 1 -34
v 25 0 -34
v 25 1 -34
v 29 0 -16
v 29 2 -16
v 29 4 -16
v 40 0 -16
v 40 2 -16
v 40 4 -16
v 40 0 -17
v 40 2 -17
v 40 8 -17
v 44 0 -17
v 44 2 -17
v 44 8 -17
v 25 0 -19
v 25 2 -19
v 25 4 -19
v 29 0 -19
v 29 2 -19
v 29 4 -19
v 23 0 -26
v 23 2 -26
v 23 4 -26
v 25 0 -26
v 25 2 -26
v 25 4 -26
v -44 0 -36
v -44 2 -36
v -44 8 -36
v 23 1 -36
v 23 2 -36
v 23 8 -36
v 25 0 -36
v 25 1 -36
v -44 0 36
v 44 0 36
v 29 0 -16
v 40 0 -16
v 40 0 -17
v 44 0 -17
v 25 0 -19
v 29 0 -19
v 23 0 -26
v 25 0 -26
v 23 0 -33
v 24 0 -33
v 24 0 -34
v 25 0 -34
v -44 0 -36
v 25 0 -36
v 23 1 -33
v 24 1 -33
v 24 1 -34
v 25 1 -34
v 23 1 -36
v 25 1 -36
v -44 4 36
v 40 4 36
v 29 4 -16
v 40 4 -16
v 25 4 -19
v 29 4 -19
v 23 4 -26
v 25 4 -26
v -44 4 -32
v 23 4 -32
v 40 8 36
v 44 8 36
v 40 8 -17
v 44 8 -17
v -44 8 -32
v 23 8 -32
v -44 8 -36
v 23 8 -36

# faces
f 3/2/1 2/2/1 1/2/1
f 4/2/1 2/2/1 3/2/1
f 5/1/1 4/1/1 3/1/1
f 6/1/1 4/1/1 5/1/1
f 7/1/1 4/1/1 6/1/1
f 8/1/1 4/1/1 7/1/1
f 11/2/1 10/2/1 9/2/1
f 12/2/1 10/2/1 11/2/1
f 14/1/1 12/1/1 11/1/1
f 15/1/1 14/1/1 13/1/1
f 16/1/1 12/1/1 14/1/1
f 16/1/1 14/1/1 15/1/1
f 17/2/2 18/2/2 19/2/2
f 17/2/2 19/2/2 21/2/2
f 19/2/2 20/2/2 21/2/2
f 21/2/2 20/2/2 22/2/2
f 21/1/2 22/1/2 23/1/2
f 23/1/2 22/1/2 24/1/2
f 24/1/2 22/1/2 25/1/2
f 25/1/2 22/1/2 26/1/2
f 27/2/2 28/2/2 29/2/2
f 29/2/2 28/2/2 30/2/2
f 33/2/2 34/2/2 35/2/2
f 35/2/2 34/2/2 36/2/2
f 31/2/2 32/2/2 37/2/2
f 37/2/2 32/2/2 38/2/2
f 37/1/2 38/1/2 39/1/2
f 39/1/2 38/1/2 40/1/2
f 41/2/2 42/2/2 43/2/2
f 43/2/2 42/2/2 44/2/2
f 43/1/2 44/1/2 45/1/2
f 45/1/2 44/1/2 46/1/2
f 47/2/2 48/2/2 49/2/2
f 49/2/2 48/2/2 50/2/2
f 49/1/2 50/1/2 51/1/2
f 51/1/2 50/1/2 52/1/2
f 56/1/3 55/1/3 54/1/3
f 58/2/3 54/2/3 53/2/3
f 59/1/3 57/1/3 56/1/3
f 59/2/3 54/2/3 58/2/3
f 59/1/3 56/1/3 54/1/3
f 60/1/3 57/1/3 59/1/3
f 63/1/3 62/1/3 61/1/3
f 64/1/3 62/1/3 63/1/3
f 67/2/3 66/2/3 65/2/3
f 68/2/3 66/2/3 67/2/3
f 71/2/3 70/2/3 69/2/3
f 72/2/3 70/2/3 71/2/3
f 73/2/4 74/2/4 76/2/4
f 74/1/4 75/1/4 77/1/4
f 76/2/4 74/2/4 77/2/4
f 77/1/4 75/1/4 78/1/4
f 79/2/4 80/2/4 82/2/4
f 80/1/4 81/1/4 83/1/4
f 82/2/4 80/2/4 83/2/4
f 83/1/4 81/1/4 84/1/4
f 85/2/4 86/2/4 88/2/4
f 86/1/4 87/1/4 89/1/4
f 88/2/4 86/2/4 89/2/4
f 89/1/4 87/1/4 90/1/4
f 91/2/4 92/2/4 94/2/4
f 92/1/4 93/1/4 95/1/4
f 94/2/4 92/2/4 95/2/4
f 95/1/4 93/1/4 96/1/4
f 97/2/4 98/2/4 100/2/4
f 98/1/4 99/1/4 101/1/4
f 100/2/4 98/2/4 101/2/4
f 101/1/4 99/1/4 102/1/4
f 97/2/4 100/2/4 103/2/4
f 103/2/4 100/2/4 104/2/4
f 107/2/5 106/2/5 105/2/5
f 108/2/5 106/2/5 107/2/5
f 109/2/5 106/2/5 108/2/5
f 110/2/5 106/2/5 109/2/5
f 111/2/5 107/2/5 105/2/5
f 112/2/5 107/2/5 111/2/5
f 113/2/5 111/2/5 105/2/5
f 114/2/5 111/2/5 113/2/5
f 115/2/5 113/2/5 105/2/5
f 117/2/5 116/2/5 115/2/5
f 119/2/5 115/2/5 105/2/5
f 119/2/5 118/2/5 117/2/5
f 119/2/5 117/2/5 115/2/5
f 120/2/5 118/2/5 119/2/5
f 121/2/6 122/2/6 123/2/6
f 121/2/6 123/2/6 125/2/6
f 123/2/6 124/2/6 125/2/6
f 125/2/6 124/2/6 126/2/6
f 127/1/6 128/1/6 129/1/6
f 129/1/6 128/1/6 130/1/6
f 127/1/6 129/1/6 131/1/6
f 131/1/6 129/1/6 132/1/6
f 127/1/6 131/1/6 133/1/6
f 133/1/6 131/1/6 134/1/6
f 127/1/6 133/1/6 135/1/6
f 135/1/6 133/1/6 136/1/6
f 137/1/6 138/1/6 139/1/6
f 139/1/6 138/1/6 140/1/6
f 141/1/6 142/1/6 143/1/6
f 143/1/6 142/1/6 144/1/6
