# MagicaVoxel @ Ephtracy

# group
g Electrocity-74

# material
mtllib Electrocity-74.mtl
usemtl palette

# normals
vn -1 0 0
vn 1 0 0
vn 0 0 1
vn 0 0 -1
vn 0 -1 0
vn 0 1 0

# texcoords
vt 0.00585938 0.5
vt 0.00976563 0.5
vt 0.0175781 0.5
vt 0.0253906 0.5
vt 0.0292969 0.5
vt 0.0527344 0.5
vt 0.0566406 0.5
vt 0.0605469 0.5

# verts
v -39 0 28
v -39 0 -17
v -39 3 20
v -39 3 10
v -39 4 28
v -39 4 20
v -39 4 10
v -39 4 -17
v -39 11 3
v -39 11 -9
v -39 12 4
v -39 12 3
v -39 12 -9
v -39 12 -10
v -39 16 4
v -39 16 3
v -39 16 -9
v -39 16 -10
v -39 17 20
v -39 17 10
v -39 17 3
v -39 17 -9
v -39 24 28
v -39 24 -17
v -36 0 11
v -36 0 10
v -36 2 11
v -36 2 10
v -36 3 20
v -36 3 10
v -36 4 20
v -36 4 10
v -32 10 2
v -32 10 -1
v -32 11 2
v -32 11 -1
v -31 10 3
v -31 10 2
v -31 10 -1
v -31 10 -2
v -31 11 3
v -31 11 2
v -31 11 -1
v -31 11 -2
v -30 4 2
v -30 4 -1
v -30 5 2
v -30 5 -1
v -30 10 4
v -30 10 3
v -30 10 -2
v -30 10 -3
v -30 11 4
v -30 11 3
v -30 11 -2
v -30 11 -3
v -29 5 1
v -29 5 -0
v -29 10 1
v -29 10 -0
v -6 4 28
v -6 4 27
v -6 4 25
v -6 4 -14
v -6 6 27
v -6 6 -14
v -6 24 28
v -6 24 27
v -6 24 -14
v -38 0 11
v -38 0 10
v -38 2 11
v -38 2 10
v -36 4 28
v -36 4 27
v -36 4 25
v -36 4 20
v -36 4 10
v -36 4 -14
v -36 6 27
v -36 6 20
v -36 6 10
v -36 6 -14
v -36 11 3
v -36 11 -9
v -36 12 4
v -36 12 3
v -36 12 -9
v -36 12 -10
v -36 16 4
v -36 16 3
v -36 16 -9
v -36 16 -10
v -36 17 20
v -36 17 10
v -36 17 3
v -36 17 -9
v -36 24 28
v -36 24 27
v -36 24 -14
v -28 5 1
v -28 5 -0
v -28 10 1
v -28 10 -0
v -27 4 2
v -27 4 -1
v -27 5 2
v -27 5 -1
v -27 10 4
v -27 10 3
v -27 10 -2
v -27 10 -3
v -27 11 4
v -27 11 3
v -27 11 -2
v -27 11 -3
v -26 10 3
v -26 10 2
v -26 10 -1
v -26 10 -2
v -26 11 3
v -26 11 2
v -26 11 -1
v -26 11 -2
v -25 10 2
v -25 10 -1
v -25 11 2
v -25 11 -1
v -3 0 28
v -3 0 -17
v -3 4 28
v -3 4 -17
v -3 24 28
v -3 24 -17
v -39 0 28
v -39 4 28
v -39 24 28
v -38 0 28
v -38 4 28
v -36 4 28
v -36 24 28
v -6 4 28
v -6 24 28
v -3 0 28
v -3 4 28
v -3 24 28
v -39 3 10
v -39 4 10
v -39 17 10
v -38 0 10
v -38 2 10
v -38 4 10
v -38 6 10
v -38 17 10
v -36 0 10
v -36 2 10
v -36 3 10
v -36 4 10
v -36 6 10
v -36 17 10
v -30 10 4
v -30 11 4
v -27 10 4
v -27 11 4
v -31 10 3
v -31 11 3
v -30 10 3
v -30 11 3
v -27 10 3
v -27 11 3
v -26 10 3
v -26 11 3
v -32 10 2
v -32 11 2
v -31 10 2
v -31 11 2
v -30 4 2
v -30 5 2
v -27 4 2
v -27 5 2
v -26 10 2
v -26 11 2
v -25 10 2
v -25 11 2
v -29 5 1
v -29 10 1
v -28 5 1
v -28 10 1
v -39 12 -9
v -39 16 -9
v -36 12 -9
v -36 16 -9
v -36 4 -14
v -36 6 -14
v -36 24 -14
v -6 4 -14
v -6 6 -14
v -6 24 -14
v -39 3 20
v -39 4 20
v -39 17 20
v -38 3 20
v -38 4 20
v -38 6 20
v -38 17 20
v -36 3 20
v -36 4 20
v -36 6 20
v -36 17 20
v -38 0 11
v -38 2 11
v -36 0 11
v -36 2 11
v -39 12 3
v -39 16 3
v -36 12 3
v -36 16 3
v -29 5 -0
v -29 10 -0
v -28 5 -0
v -28 10 -0
v -32 10 -1
v -32 11 -1
v -31 10 -1
v -31 11 -1
v -30 4 -1
v -30 5 -1
v -27 4 -1
v -27 5 -1
v -26 10 -1
v -26 11 -1
v -25 10 -1
v -25 11 -1
v -31 10 -2
v -31 11 -2
v -30 10 -2
v -30 11 -2
v -27 10 -2
v -27 11 -2
v -26 10 -2
v -26 11 -2
v -30 10 -3
v -30 11 -3
v -27 10 -3
v -27 11 -3
v -39 0 -17
v -39 4 -17
v -39 24 -17
v -38 0 -17
v -38 4 -17
v -3 0 -17
v -3 4 -17
v -3 24 -17
v -39 0 28
v -38 0 28
v -3 0 28
v -35 0 24
v -7 0 24
v -36 0 13
v -35 0 13
v -38 0 11
v -36 0 11
v -38 0 10
v -36 0 10
v -38 0 5
v -35 0 5
v -35 0 -13
v -7 0 -13
v -39 0 -17
v -38 0 -17
v -3 0 -17
v -38 2 11
v -36 2 11
v -38 2 10
v -36 2 10
v -30 10 4
v -27 10 4
v -31 10 3
v -30 10 3
v -27 10 3
v -26 10 3
v -32 10 2
v -31 10 2
v -30 10 2
v -27 10 2
v -26 10 2
v -25 10 2
v -29 10 1
v -28 10 1
v -29 10 -0
v -28 10 -0
v -32 10 -1
v -31 10 -1
v -30 10 -1
v -27 10 -1
v -26 10 -1
v -25 10 -1
v -31 10 -2
v -30 10 -2
v -27 10 -2
v -26 10 -2
v -30 10 -3
v -27 10 -3
v -39 16 3
v -36 16 3
v -39 16 -9
v -36 16 -9
v -39 17 20
v -38 17 20
v -36 17 20
v -39 17 10
v -38 17 10
v -36 17 10
v -39 3 20
v -38 3 20
v -36 3 20
v -39 3 10
v -36 3 10
v -36 4 28
v -6 4 28
v -36 4 27
v -6 4 27
v -36 4 25
v -6 4 25
v -36 4 20
v -36 4 10
v -30 4 2
v -27 4 2
v -30 4 -1
v -27 4 -1
v -36 4 -14
v -6 4 -14
v -30 5 2
v -27 5 2
v -29 5 1
v -28 5 1
v -29 5 -0
v -28 5 -0
v -30 5 -1
v -27 5 -1
v -30 11 4
v -27 11 4
v -31 11 3
v -30 11 3
v -27 11 3
v -26 11 3
v -32 11 2
v -31 11 2
v -30 11 2
v -27 11 2
v -26 11 2
v -25 11 2
v -32 11 -1
v -31 11 -1
v -30 11 -1
v -27 11 -1
v -26 11 -1
v -25 11 -1
v -31 11 -2
v -30 11 -2
v -27 11 -2
v -26 11 -2
v -30 11 -3
v -27 11 -3
v -39 12 3
v -36 12 3
v -39 12 -9
v -36 12 -9
v -39 24 28
v -36 24 28
v -6 24 28
v -3 24 28
v -38 24 27
v -36 24 27
v -6 24 27
v -4 24 27
v -36 24 -14
v -6 24 -14
v -38 24 -16
v -4 24 -16
v -39 24 -17
v -3 24 -17

# faces
f 3/1/1 2/1/1 1/1/1
f 4/1/1 2/1/1 3/1/1
f 5/1/1 3/1/1 1/1/1
f 6/1/1 3/1/1 5/1/1
f 7/1/1 2/1/1 4/1/1
f 8/1/1 2/1/1 7/1/1
f 9/5/1 8/5/1 7/5/1
f 10/5/1 8/5/1 9/5/1
f 11/5/1 9/5/1 7/5/1
f 12/7/1 10/7/1 9/7/1
f 12/5/1 9/5/1 11/5/1
f 13/5/1 8/5/1 10/5/1
f 13/7/1 10/7/1 12/7/1
f 14/5/1 8/5/1 13/5/1
f 15/7/1 12/7/1 11/7/1
f 15/5/1 11/5/1 7/5/1
f 16/7/1 12/7/1 15/7/1
f 17/7/1 14/7/1 13/7/1
f 18/5/1 8/5/1 14/5/1
f 18/7/1 14/7/1 17/7/1
f 19/5/1 6/5/1 5/5/1
f 20/5/1 16/5/1 15/5/1
f 20/5/1 15/5/1 7/5/1
f 21/7/1 17/7/1 16/7/1
f 21/5/1 16/5/1 20/5/1
f 22/5/1 18/5/1 17/5/1
f 22/7/1 17/7/1 21/7/1
f 23/5/1 20/5/1 19/5/1
f 23/5/1 19/5/1 5/5/1
f 23/5/1 22/5/1 21/5/1
f 23/5/1 21/5/1 20/5/1
f 24/5/1 8/5/1 18/5/1
f 24/5/1 22/5/1 23/5/1
f 24/5/1 18/5/1 22/5/1
f 27/1/1 26/1/1 25/1/1
f 28/1/1 26/1/1 27/1/1
f 31/1/1 30/1/1 29/1/1
f 32/1/1 30/1/1 31/1/1
f 35/8/1 34/8/1 33/8/1
f 36/8/1 34/8/1 35/8/1
f 41/8/1 38/8/1 37/8/1
f 42/8/1 38/8/1 41/8/1
f 43/8/1 40/8/1 39/8/1
f 44/8/1 40/8/1 43/8/1
f 47/8/1 46/8/1 45/8/1
f 48/8/1 46/8/1 47/8/1
f 53/8/1 50/8/1 49/8/1
f 54/8/1 50/8/1 53/8/1
f 55/8/1 52/8/1 51/8/1
f 56/8/1 52/8/1 55/8/1
f 59/8/1 58/8/1 57/8/1
f 60/8/1 58/8/1 59/8/1
f 65/5/1 62/5/1 61/5/1
f 65/3/1 64/3/1 63/3/1
f 65/3/1 63/3/1 62/3/1
f 66/3/1 64/3/1 65/3/1
f 67/5/1 65/5/1 61/5/1
f 68/4/1 66/4/1 65/4/1
f 68/5/1 65/5/1 67/5/1
f 69/4/1 66/4/1 68/4/1
f 70/1/2 71/1/2 72/1/2
f 72/1/2 71/1/2 73/1/2
f 74/5/2 75/5/2 80/5/2
f 75/3/2 76/3/2 80/3/2
f 76/3/2 77/3/2 80/3/2
f 80/3/2 77/3/2 81/3/2
f 78/3/2 79/3/2 82/3/2
f 82/3/2 79/3/2 83/3/2
f 82/4/2 83/4/2 84/4/2
f 84/4/2 83/4/2 85/4/2
f 82/4/2 84/4/2 86/4/2
f 84/7/2 85/7/2 87/7/2
f 86/4/2 84/4/2 87/4/2
f 85/4/2 83/4/2 88/4/2
f 87/7/2 85/7/2 88/7/2
f 88/4/2 83/4/2 89/4/2
f 86/7/2 87/7/2 90/7/2
f 82/4/2 86/4/2 90/4/2
f 90/7/2 87/7/2 91/7/2
f 88/7/2 89/7/2 92/7/2
f 89/4/2 83/4/2 93/4/2
f 92/7/2 89/7/2 93/7/2
f 80/4/2 81/4/2 94/4/2
f 90/4/2 91/4/2 95/4/2
f 82/4/2 90/4/2 95/4/2
f 91/7/2 92/7/2 96/7/2
f 95/4/2 91/4/2 96/4/2
f 92/4/2 93/4/2 97/4/2
f 96/7/2 92/7/2 97/7/2
f 74/5/2 80/5/2 98/5/2
f 94/4/2 95/4/2 99/4/2
f 98/5/2 80/5/2 99/5/2
f 80/4/2 94/4/2 99/4/2
f 96/4/2 97/4/2 99/4/2
f 95/4/2 96/4/2 99/4/2
f 93/4/2 83/4/2 100/4/2
f 99/4/2 97/4/2 100/4/2
f 97/4/2 93/4/2 100/4/2
f 101/8/2 102/8/2 103/8/2
f 103/8/2 102/8/2 104/8/2
f 105/8/2 106/8/2 107/8/2
f 107/8/2 106/8/2 108/8/2
f 109/8/2 110/8/2 113/8/2
f 113/8/2 110/8/2 114/8/2
f 111/8/2 112/8/2 115/8/2
f 115/8/2 112/8/2 116/8/2
f 117/8/2 118/8/2 121/8/2
f 121/8/2 118/8/2 122/8/2
f 119/8/2 120/8/2 123/8/2
f 123/8/2 120/8/2 124/8/2
f 125/8/2 126/8/2 127/8/2
f 127/8/2 126/8/2 128/8/2
f 129/2/2 130/2/2 131/2/2
f 131/2/2 130/2/2 132/2/2
f 131/5/2 132/5/2 133/5/2
f 133/5/2 132/5/2 134/5/2
f 138/1/3 136/1/3 135/1/3
f 139/5/3 137/5/3 136/5/3
f 139/1/3 136/1/3 138/1/3
f 140/2/3 139/2/3 138/2/3
f 140/5/3 137/5/3 139/5/3
f 141/5/3 137/5/3 140/5/3
f 142/2/3 140/2/3 138/2/3
f 144/2/3 142/2/3 138/2/3
f 145/5/3 143/5/3 142/5/3
f 145/2/3 142/2/3 144/2/3
f 146/5/3 143/5/3 145/5/3
f 152/1/3 148/1/3 147/1/3
f 152/5/3 149/5/3 148/5/3
f 153/5/3 149/5/3 152/5/3
f 154/5/3 149/5/3 153/5/3
f 155/1/3 151/1/3 150/1/3
f 156/1/3 151/1/3 155/1/3
f 157/1/3 152/1/3 147/1/3
f 158/3/3 153/3/3 152/3/3
f 158/1/3 152/1/3 157/1/3
f 159/4/3 154/4/3 153/4/3
f 159/3/3 153/3/3 158/3/3
f 160/4/3 154/4/3 159/4/3
f 163/8/3 162/8/3 161/8/3
f 164/8/3 162/8/3 163/8/3
f 167/8/3 166/8/3 165/8/3
f 168/8/3 166/8/3 167/8/3
f 171/8/3 170/8/3 169/8/3
f 172/8/3 170/8/3 171/8/3
f 175/8/3 174/8/3 173/8/3
f 176/8/3 174/8/3 175/8/3
f 179/8/3 178/8/3 177/8/3
f 180/8/3 178/8/3 179/8/3
f 183/8/3 182/8/3 181/8/3
f 184/8/3 182/8/3 183/8/3
f 187/8/3 186/8/3 185/8/3
f 188/8/3 186/8/3 187/8/3
f 191/7/3 190/7/3 189/7/3
f 192/7/3 190/7/3 191/7/3
f 196/3/3 194/3/3 193/3/3
f 197/4/3 195/4/3 194/4/3
f 197/3/3 194/3/3 196/3/3
f 198/4/3 195/4/3 197/4/3
f 199/1/4 200/1/4 202/1/4
f 200/5/4 201/5/4 203/5/4
f 202/1/4 200/1/4 203/1/4
f 203/5/4 201/5/4 204/5/4
f 204/5/4 201/5/4 205/5/4
f 202/2/4 203/2/4 206/2/4
f 203/3/4 204/3/4 207/3/4
f 206/2/4 203/2/4 207/2/4
f 204/4/4 205/4/4 208/4/4
f 207/3/4 204/3/4 208/3/4
f 208/4/4 205/4/4 209/4/4
f 210/2/4 211/2/4 212/2/4
f 212/2/4 211/2/4 213/2/4
f 214/7/4 215/7/4 216/7/4
f 216/7/4 215/7/4 217/7/4
f 218/8/4 219/8/4 220/8/4
f 220/8/4 219/8/4 221/8/4
f 222/8/4 223/8/4 224/8/4
f 224/8/4 223/8/4 225/8/4
f 226/8/4 227/8/4 228/8/4
f 228/8/4 227/8/4 229/8/4
f 230/8/4 231/8/4 232/8/4
f 232/8/4 231/8/4 233/8/4
f 234/8/4 235/8/4 236/8/4
f 236/8/4 235/8/4 237/8/4
f 238/8/4 239/8/4 240/8/4
f 240/8/4 239/8/4 241/8/4
f 242/8/4 243/8/4 244/8/4
f 244/8/4 243/8/4 245/8/4
f 246/1/4 247/1/4 249/1/4
f 247/5/4 248/5/4 250/5/4
f 249/1/4 247/1/4 250/1/4
f 249/2/4 250/2/4 251/2/4
f 250/5/4 248/5/4 252/5/4
f 251/2/4 250/2/4 252/2/4
f 252/5/4 248/5/4 253/5/4
f 257/2/5 256/2/5 255/2/5
f 258/2/5 256/2/5 257/2/5
f 259/2/5 257/2/5 255/2/5
f 260/1/5 258/1/5 257/1/5
f 260/2/5 257/2/5 259/2/5
f 261/1/5 255/1/5 254/1/5
f 261/2/5 259/2/5 255/2/5
f 262/1/5 260/1/5 259/1/5
f 262/2/5 259/2/5 261/2/5
f 263/1/5 261/1/5 254/1/5
f 264/1/5 260/1/5 262/1/5
f 265/1/5 263/1/5 254/1/5
f 265/1/5 264/1/5 263/1/5
f 266/1/5 258/1/5 260/1/5
f 266/1/5 264/1/5 265/1/5
f 266/1/5 260/1/5 264/1/5
f 267/2/5 266/2/5 265/2/5
f 267/1/5 258/1/5 266/1/5
f 268/2/5 256/2/5 258/2/5
f 268/1/5 258/1/5 267/1/5
f 269/1/5 265/1/5 254/1/5
f 270/2/5 267/2/5 265/2/5
f 270/1/5 265/1/5 269/1/5
f 270/2/5 268/2/5 267/2/5
f 271/2/5 256/2/5 268/2/5
f 271/2/5 268/2/5 270/2/5
f 274/1/5 273/1/5 272/1/5
f 275/1/5 273/1/5 274/1/5
f 279/8/5 277/8/5 276/8/5
f 280/8/5 277/8/5 279/8/5
f 283/8/5 279/8/5 278/8/5
f 283/8/5 281/8/5 280/8/5
f 283/8/5 280/8/5 279/8/5
f 284/8/5 281/8/5 283/8/5
f 285/8/5 281/8/5 284/8/5
f 286/8/5 281/8/5 285/8/5
f 288/6/5 285/6/5 284/6/5
f 289/6/5 285/6/5 288/6/5
f 290/6/5 288/6/5 284/6/5
f 291/6/5 285/6/5 289/6/5
f 292/8/5 283/8/5 282/8/5
f 292/8/5 284/8/5 283/8/5
f 293/8/5 284/8/5 292/8/5
f 294/6/5 291/6/5 290/6/5
f 294/8/5 284/8/5 293/8/5
f 294/6/5 290/6/5 284/6/5
f 295/6/5 285/6/5 291/6/5
f 295/6/5 291/6/5 294/6/5
f 295/8/5 287/8/5 286/8/5
f 295/8/5 286/8/5 285/8/5
f 296/8/5 287/8/5 295/8/5
f 297/8/5 287/8/5 296/8/5
f 298/8/5 294/8/5 293/8/5
f 298/8/5 296/8/5 295/8/5
f 298/8/5 295/8/5 294/8/5
f 299/8/5 296/8/5 298/8/5
f 300/8/5 296/8/5 299/8/5
f 301/8/5 296/8/5 300/8/5
f 302/8/5 300/8/5 299/8/5
f 303/8/5 300/8/5 302/8/5
f 306/7/5 305/7/5 304/7/5
f 307/7/5 305/7/5 306/7/5
f 311/5/5 309/5/5 308/5/5
f 312/4/5 310/4/5 309/4/5
f 312/5/5 309/5/5 311/5/5
f 313/4/5 310/4/5 312/4/5
f 314/1/6 315/1/6 317/1/6
f 315/1/6 316/1/6 317/1/6
f 317/1/6 316/1/6 318/1/6
f 319/2/6 320/2/6 321/2/6
f 321/2/6 320/2/6 322/2/6
f 321/2/6 322/2/6 323/2/6
f 323/2/6 322/2/6 324/2/6
f 323/1/6 324/1/6 325/1/6
f 325/1/6 324/1/6 326/1/6
f 326/1/6 324/1/6 327/1/6
f 327/1/6 324/1/6 328/1/6
f 326/1/6 327/1/6 329/1/6
f 328/1/6 324/1/6 330/1/6
f 326/1/6 329/1/6 331/1/6
f 329/1/6 330/1/6 331/1/6
f 330/1/6 324/1/6 332/1/6
f 331/1/6 330/1/6 332/1/6
f 333/8/6 334/8/6 335/8/6
f 335/8/6 334/8/6 336/8/6
f 333/8/6 335/8/6 337/8/6
f 336/8/6 334/8/6 338/8/6
f 333/8/6 337/8/6 339/8/6
f 337/8/6 338/8/6 339/8/6
f 338/8/6 334/8/6 340/8/6
f 339/8/6 338/8/6 340/8/6
f 341/8/6 342/8/6 344/8/6
f 344/8/6 342/8/6 345/8/6
f 343/8/6 344/8/6 348/8/6
f 345/8/6 346/8/6 348/8/6
f 344/8/6 345/8/6 348/8/6
f 348/8/6 346/8/6 349/8/6
f 349/8/6 346/8/6 350/8/6
f 350/8/6 346/8/6 351/8/6
f 347/8/6 348/8/6 353/8/6
f 348/8/6 349/8/6 353/8/6
f 353/8/6 349/8/6 354/8/6
f 349/6/6 350/6/6 355/6/6
f 354/8/6 349/8/6 355/8/6
f 351/8/6 352/8/6 356/8/6
f 355/6/6 350/6/6 356/6/6
f 350/8/6 351/8/6 356/8/6
f 356/8/6 352/8/6 357/8/6
f 357/8/6 352/8/6 358/8/6
f 354/8/6 355/8/6 359/8/6
f 356/8/6 357/8/6 359/8/6
f 355/8/6 356/8/6 359/8/6
f 359/8/6 357/8/6 360/8/6
f 360/8/6 357/8/6 361/8/6
f 361/8/6 357/8/6 362/8/6
f 360/8/6 361/8/6 363/8/6
f 363/8/6 361/8/6 364/8/6
f 365/7/6 366/7/6 367/7/6
f 367/7/6 366/7/6 368/7/6
f 369/5/6 370/5/6 373/5/6
f 373/5/6 370/5/6 374/5/6
f 371/5/6 372/5/6 375/5/6
f 375/5/6 372/5/6 376/5/6
f 373/4/6 374/4/6 377/4/6
f 375/4/6 376/4/6 378/4/6
f 369/5/6 373/5/6 379/5/6
f 377/4/6 378/4/6 379/4/6
f 373/4/6 377/4/6 379/4/6
f 376/5/6 372/5/6 380/5/6
f 379/4/6 378/4/6 380/4/6
f 378/4/6 376/4/6 380/4/6
f 369/5/6 379/5/6 381/5/6
f 379/5/6 380/5/6 381/5/6
f 380/5/6 372/5/6 382/5/6
f 381/5/6 380/5/6 382/5/6
