# MagicaVoxel @ Ephtracy

# group
g Electrocity-3

# material
mtllib Electrocity-3.mtl
usemtl palette

# normals
vn -1 0 0
vn 1 0 0
vn 0 0 1
vn 0 0 -1
vn 0 -1 0
vn 0 1 0

# texcoords
vt 0.00976563 0.5
vt 0.0488281 0.5
vt 0.0605469 0.5

# verts
v -44 0 36
v -44 0 24
v -44 0 16
v -44 0 -36
v -44 3 -1
v -44 3 -4
v -44 3 -7
v -44 3 -13
v -44 4 36
v -44 4 32
v -44 4 24
v -44 4 16
v -44 4 -1
v -44 4 -4
v -44 4 -7
v -44 4 -13
v -44 4 -36
v -44 6 36
v -44 6 32
v 40 4 32
v 40 4 -15
v 40 4 -18
v 40 4 -36
v 40 6 32
v 40 6 -36
v 44 0 36
v 44 0 -36
v 44 3 -15
v 44 3 -18
v 44 4 36
v 44 4 -15
v 44 4 -18
v 44 4 -36
v 44 6 36
v 44 6 -36
v -44 0 36
v -44 4 36
v -44 6 36
v 44 0 36
v 44 4 36
v 44 6 36
v -44 4 32
v -44 6 32
v -15 4 32
v -12 4 32
v 40 4 32
v 40 6 32
v -44 0 -36
v -44 4 -36
v -10 3 -36
v -10 4 -36
v -3 3 -36
v -3 4 -36
v 0 3 -36
v 0 4 -36
v 3 3 -36
v 3 4 -36
v 40 4 -36
v 40 6 -36
v 44 0 -36
v 44 4 -36
v 44 6 -36
v -44 0 36
v 44 0 36
v -44 0 24
v -15 0 24
v -44 0 16
v -15 0 16
v -44 0 -36
v 44 0 -36
v -44 4 32
v -15 4 32
v -12 4 32
v 40 4 32
v 24 4 25
v 32 4 25
v -44 4 24
v -15 4 24
v -12 4 24
v 15 4 24
v -44 4 16
v -15 4 16
v -12 4 16
v 8 4 16
v 15 4 13
v 24 4 13
v 15 4 7
v 24 4 7
v -44 4 -1
v -15 4 -1
v -44 4 -4
v -12 4 -4
v 24 4 -5
v 32 4 -5
v -44 4 -7
v 8 4 -7
v -44 4 -13
v -10 4 -13
v -3 4 -14
v 15 4 -14
v 0 4 -15
v 40 4 -15
v 3 4 -18
v 40 4 -18
v -32 4 -29
v -31 4 -29
v -32 4 -30
v -31 4 -30
v -44 4 -36
v -10 4 -36
v -3 4 -36
v 0 4 -36
v 3 4 -36
v 40 4 -36
v -44 6 36
v 44 6 36
v -44 6 32
v 40 6 32
v 40 6 -36
v 44 6 -36

# faces
f 5/1/1 4/1/1 3/1/1
f 6/1/1 4/1/1 5/1/1
f 7/1/1 4/1/1 6/1/1
f 8/1/1 4/1/1 7/1/1
f 9/1/1 2/1/1 1/1/1
f 10/1/1 2/1/1 9/1/1
f 11/3/1 3/3/1 2/3/1
f 11/1/1 2/1/1 10/1/1
f 12/1/1 5/1/1 3/1/1
f 12/3/1 3/3/1 11/3/1
f 13/2/1 6/2/1 5/2/1
f 13/1/1 5/1/1 12/1/1
f 14/1/1 7/1/1 6/1/1
f 14/2/1 6/2/1 13/2/1
f 15/3/1 8/3/1 7/3/1
f 15/1/1 7/1/1 14/1/1
f 16/1/1 4/1/1 8/1/1
f 16/3/1 8/3/1 15/3/1
f 17/1/1 4/1/1 16/1/1
f 18/2/1 10/2/1 9/2/1
f 19/2/1 10/2/1 18/2/1
f 24/2/1 21/2/1 20/2/1
f 24/2/1 23/2/1 22/2/1
f 24/2/1 22/2/1 21/2/1
f 25/2/1 23/2/1 24/2/1
f 26/1/2 27/1/2 28/1/2
f 28/1/2 27/1/2 29/1/2
f 26/1/2 28/1/2 30/1/2
f 28/2/2 29/2/2 31/2/2
f 30/1/2 28/1/2 31/1/2
f 29/1/2 27/1/2 32/1/2
f 31/2/2 29/2/2 32/2/2
f 32/1/2 27/1/2 33/1/2
f 30/2/2 31/2/2 34/2/2
f 31/2/2 32/2/2 34/2/2
f 32/2/2 33/2/2 34/2/2
f 34/2/2 33/2/2 35/2/2
f 39/1/3 37/1/3 36/1/3
f 40/2/3 38/2/3 37/2/3
f 40/1/3 37/1/3 39/1/3
f 41/2/3 38/2/3 40/2/3
f 42/2/4 43/2/4 44/2/4
f 44/2/4 43/2/4 45/2/4
f 45/2/4 43/2/4 46/2/4
f 46/2/4 43/2/4 47/2/4
f 48/1/4 49/1/4 50/1/4
f 50/1/4 49/1/4 51/1/4
f 48/1/4 50/1/4 52/1/4
f 50/3/4 51/3/4 52/3/4
f 52/3/4 51/3/4 53/3/4
f 48/1/4 52/1/4 54/1/4
f 52/1/4 53/1/4 54/1/4
f 54/1/4 53/1/4 55/1/4
f 48/1/4 54/1/4 56/1/4
f 54/2/4 55/2/4 56/2/4
f 56/2/4 55/2/4 57/2/4
f 56/1/4 57/1/4 58/1/4
f 56/1/4 58/1/4 60/1/4
f 48/1/4 56/1/4 60/1/4
f 58/2/4 59/2/4 61/2/4
f 60/1/4 58/1/4 61/1/4
f 61/2/4 59/2/4 62/2/4
f 65/1/5 64/1/5 63/1/5
f 66/1/5 64/1/5 65/1/5
f 67/3/5 66/3/5 65/3/5
f 68/1/5 64/1/5 66/1/5
f 68/3/5 66/3/5 67/3/5
f 69/1/5 68/1/5 67/1/5
f 70/1/5 64/1/5 68/1/5
f 70/1/5 68/1/5 69/1/5
f 73/1/6 74/1/6 75/1/6
f 75/1/6 74/1/6 76/1/6
f 71/1/6 72/1/6 77/1/6
f 72/2/6 73/2/6 78/2/6
f 77/1/6 72/1/6 78/1/6
f 73/1/6 75/1/6 79/1/6
f 78/2/6 73/2/6 79/2/6
f 79/1/6 75/1/6 80/1/6
f 77/3/6 78/3/6 81/3/6
f 78/2/6 79/2/6 82/2/6
f 81/3/6 78/3/6 82/3/6
f 79/3/6 80/3/6 83/3/6
f 82/2/6 79/2/6 83/2/6
f 83/3/6 80/3/6 84/3/6
f 80/1/6 75/1/6 85/1/6
f 84/3/6 80/3/6 85/3/6
f 75/3/6 76/3/6 86/3/6
f 85/1/6 75/1/6 86/1/6
f 84/3/6 85/3/6 87/3/6
f 85/3/6 86/3/6 87/3/6
f 86/3/6 76/3/6 88/3/6
f 87/3/6 86/3/6 88/3/6
f 81/1/6 82/1/6 89/1/6
f 82/2/6 83/2/6 90/2/6
f 89/1/6 82/1/6 90/1/6
f 89/2/6 90/2/6 91/2/6
f 83/1/6 84/1/6 92/1/6
f 91/2/6 90/2/6 92/2/6
f 90/2/6 83/2/6 92/2/6
f 88/3/6 76/3/6 93/3/6
f 87/1/6 88/1/6 93/1/6
f 76/1/6 74/1/6 94/1/6
f 93/3/6 76/3/6 94/3/6
f 91/1/6 92/1/6 95/1/6
f 84/3/6 87/3/6 96/3/6
f 95/1/6 92/1/6 96/1/6
f 92/1/6 84/1/6 96/1/6
f 95/3/6 96/3/6 97/3/6
f 97/3/6 96/3/6 98/3/6
f 98/3/6 96/3/6 99/3/6
f 87/1/6 93/1/6 100/1/6
f 99/3/6 96/3/6 100/3/6
f 93/1/6 94/1/6 100/1/6
f 96/3/6 87/3/6 100/3/6
f 99/1/6 100/1/6 101/1/6
f 94/1/6 74/1/6 102/1/6
f 101/1/6 100/1/6 102/1/6
f 100/1/6 94/1/6 102/1/6
f 101/2/6 102/2/6 103/2/6
f 103/2/6 102/2/6 104/2/6
f 97/1/6 98/1/6 105/1/6
f 105/1/6 98/1/6 106/1/6
f 97/1/6 105/1/6 107/1/6
f 105/3/6 106/3/6 107/3/6
f 106/1/6 98/1/6 108/1/6
f 107/3/6 106/3/6 108/3/6
f 97/1/6 107/1/6 109/1/6
f 107/1/6 108/1/6 109/1/6
f 98/3/6 99/3/6 110/3/6
f 109/1/6 108/1/6 110/1/6
f 108/1/6 98/1/6 110/1/6
f 99/1/6 101/1/6 111/1/6
f 110/3/6 99/3/6 111/3/6
f 101/2/6 103/2/6 112/2/6
f 111/1/6 101/1/6 112/1/6
f 103/1/6 104/1/6 113/1/6
f 112/2/6 103/2/6 113/2/6
f 113/1/6 104/1/6 114/1/6
f 115/2/6 116/2/6 117/2/6
f 117/2/6 116/2/6 118/2/6
f 118/2/6 116/2/6 119/2/6
f 119/2/6 116/2/6 120/2/6
