# MagicaVoxel @ Ephtracy

# group
g Electrocity-34

# material
mtllib Electrocity-34.mtl
usemtl palette

# normals
vn -1 0 0
vn 1 0 0
vn 0 0 1
vn 0 0 -1
vn 0 -1 0
vn 0 1 0

# texcoords
vt 0.0410156 0.5
vt 0.0527344 0.5
vt 0.0566406 0.5
vt 0.939453 0.5
vt 0.943359 0.5

# verts
v -4 0 -5
v -4 0 -13
v -4 1 -5
v -4 1 -13
v -4 2 -6
v -4 2 -12
v -4 8 -6
v -4 8 -12
v -4 9 -5
v -4 9 -13
v -3 2 -6
v -3 2 -12
v -3 3 -9
v -3 3 -10
v -3 4 -9
v -3 4 -10
v -3 5 -6
v -3 5 -8
v -3 5 -9
v -3 5 -10
v -3 6 -6
v -3 6 -8
v -3 6 -9
v -3 6 -10
v -3 8 -6
v -3 8 -12
v -1 2 -5
v -1 2 -6
v -1 2 -12
v -1 2 -13
v -1 8 -5
v -1 8 -6
v -1 8 -12
v -1 8 -13
v -3 2 -5
v -3 2 -6
v -3 2 -12
v -3 2 -13
v -3 5 -6
v -3 6 -6
v -3 8 -5
v -3 8 -6
v -3 8 -12
v -3 8 -13
v -1 2 -6
v -1 2 -12
v -1 4 -9
v -1 4 -10
v -1 5 -7
v -1 5 -8
v -1 5 -9
v -1 5 -10
v -1 6 -7
v -1 6 -8
v -1 6 -9
v -1 6 -10
v -1 8 -6
v -1 8 -12
v 0 0 -5
v 0 0 -13
v 0 1 -5
v 0 1 -13
v 0 2 -6
v 0 2 -12
v 0 8 -6
v 0 8 -12
v 0 9 -5
v 0 9 -13
v -4 0 -5
v -4 1 -5
v -4 9 -5
v -3 2 -5
v -3 8 -5
v -1 2 -5
v -1 8 -5
v 0 0 -5
v 0 1 -5
v 0 9 -5
v -3 2 -6
v -3 5 -6
v -3 6 -6
v -3 8 -6
v -2 5 -6
v -2 6 -6
v -1 2 -6
v -1 8 -6
v -4 2 -12
v -4 8 -12
v -3 2 -12
v -3 8 -12
v -1 2 -12
v -1 8 -12
v 0 2 -12
v 0 8 -12
v -4 2 -6
v -4 8 -6
v -3 2 -6
v -3 5 -6
v -3 6 -6
v -3 8 -6
v -1 2 -6
v -1 8 -6
v 0 2 -6
v 0 8 -6
v -3 2 -12
v -3 8 -12
v -1 2 -12
v -1 8 -12
v -4 0 -13
v -4 1 -13
v -4 9 -13
v -3 2 -13
v -3 8 -13
v -1 2 -13
v -1 8 -13
v 0 0 -13
v 0 1 -13
v 0 9 -13
v -4 0 -5
v 0 0 -5
v -4 0 -13
v 0 0 -13
v -3 8 -5
v -1 8 -5
v -4 8 -6
v -3 8 -6
v -1 8 -6
v 0 8 -6
v -4 8 -12
v -3 8 -12
v -1 8 -12
v 0 8 -12
v -3 8 -13
v -1 8 -13
v -3 2 -5
v -1 2 -5
v -4 2 -6
v -3 2 -6
v -1 2 -6
v 0 2 -6
v -4 2 -12
v -3 2 -12
v -1 2 -12
v 0 2 -12
v -3 2 -13
v -1 2 -13
v -4 9 -5
v 0 9 -5
v -4 9 -13
v 0 9 -13

# faces
f 3/3/1 2/3/1 1/3/1
f 4/3/1 2/3/1 3/3/1
f 5/2/1 4/2/1 3/2/1
f 6/2/1 4/2/1 5/2/1
f 7/2/1 5/2/1 3/2/1
f 8/2/1 4/2/1 6/2/1
f 9/2/1 7/2/1 3/2/1
f 9/2/1 8/2/1 7/2/1
f 10/2/1 4/2/1 8/2/1
f 10/2/1 8/2/1 9/2/1
f 13/1/1 12/1/1 11/1/1
f 14/1/1 12/1/1 13/1/1
f 15/1/1 13/1/1 11/1/1
f 15/5/1 14/5/1 13/5/1
f 16/1/1 12/1/1 14/1/1
f 16/5/1 14/5/1 15/5/1
f 17/1/1 15/1/1 11/1/1
f 17/1/1 16/1/1 15/1/1
f 18/1/1 16/1/1 17/1/1
f 19/1/1 16/1/1 18/1/1
f 20/1/1 12/1/1 16/1/1
f 20/1/1 16/1/1 19/1/1
f 21/5/1 18/5/1 17/5/1
f 22/1/1 19/1/1 18/1/1
f 22/5/1 18/5/1 21/5/1
f 23/4/1 20/4/1 19/4/1
f 23/1/1 19/1/1 22/1/1
f 24/1/1 12/1/1 20/1/1
f 24/4/1 20/4/1 23/4/1
f 25/1/1 23/1/1 22/1/1
f 25/1/1 22/1/1 21/1/1
f 25/1/1 24/1/1 23/1/1
f 26/1/1 12/1/1 24/1/1
f 26/1/1 24/1/1 25/1/1
f 31/2/1 28/2/1 27/2/1
f 32/2/1 28/2/1 31/2/1
f 33/2/1 30/2/1 29/2/1
f 34/2/1 30/2/1 33/2/1
f 35/2/2 36/2/2 39/2/2
f 35/2/2 39/2/2 40/2/2
f 35/2/2 40/2/2 41/2/2
f 41/2/2 40/2/2 42/2/2
f 37/2/2 38/2/2 43/2/2
f 43/2/2 38/2/2 44/2/2
f 45/1/2 46/1/2 47/1/2
f 47/1/2 46/1/2 48/1/2
f 45/1/2 47/1/2 49/1/2
f 49/1/2 47/1/2 50/1/2
f 47/5/2 48/5/2 51/5/2
f 50/1/2 47/1/2 51/1/2
f 48/1/2 46/1/2 52/1/2
f 51/5/2 48/5/2 52/5/2
f 49/5/2 50/5/2 53/5/2
f 45/1/2 49/1/2 53/1/2
f 50/1/2 51/1/2 54/1/2
f 53/5/2 50/5/2 54/5/2
f 51/4/2 52/4/2 55/4/2
f 54/1/2 51/1/2 55/1/2
f 52/1/2 46/1/2 56/1/2
f 55/4/2 52/4/2 56/4/2
f 45/1/2 53/1/2 57/1/2
f 54/1/2 55/1/2 57/1/2
f 55/1/2 56/1/2 57/1/2
f 53/1/2 54/1/2 57/1/2
f 56/1/2 46/1/2 58/1/2
f 57/1/2 56/1/2 58/1/2
f 59/3/2 60/3/2 61/3/2
f 61/3/2 60/3/2 62/3/2
f 61/2/2 62/2/2 63/2/2
f 63/2/2 62/2/2 64/2/2
f 61/2/2 63/2/2 65/2/2
f 64/2/2 62/2/2 66/2/2
f 61/2/2 65/2/2 67/2/2
f 65/2/2 66/2/2 67/2/2
f 66/2/2 62/2/2 68/2/2
f 67/2/2 66/2/2 68/2/2
f 72/2/3 71/2/3 70/2/3
f 73/2/3 71/2/3 72/2/3
f 74/2/3 72/2/3 70/2/3
f 75/2/3 71/2/3 73/2/3
f 76/3/3 70/3/3 69/3/3
f 77/2/3 75/2/3 74/2/3
f 77/3/3 70/3/3 76/3/3
f 77/2/3 74/2/3 70/2/3
f 78/2/3 71/2/3 75/2/3
f 78/2/3 75/2/3 77/2/3
f 83/1/3 80/1/3 79/1/3
f 83/5/3 81/5/3 80/5/3
f 84/1/3 82/1/3 81/1/3
f 84/5/3 81/5/3 83/5/3
f 85/1/3 83/1/3 79/1/3
f 85/1/3 84/1/3 83/1/3
f 86/1/3 82/1/3 84/1/3
f 86/1/3 84/1/3 85/1/3
f 89/2/3 88/2/3 87/2/3
f 90/2/3 88/2/3 89/2/3
f 93/2/3 92/2/3 91/2/3
f 94/2/3 92/2/3 93/2/3
f 95/2/4 96/2/4 97/2/4
f 97/2/4 96/2/4 98/2/4
f 98/2/4 96/2/4 99/2/4
f 99/2/4 96/2/4 100/2/4
f 101/2/4 102/2/4 103/2/4
f 103/2/4 102/2/4 104/2/4
f 105/1/4 106/1/4 107/1/4
f 107/1/4 106/1/4 108/1/4
f 110/2/4 111/2/4 112/2/4
f 112/2/4 111/2/4 113/2/4
f 110/2/4 112/2/4 114/2/4
f 113/2/4 111/2/4 115/2/4
f 109/3/4 110/3/4 116/3/4
f 114/2/4 115/2/4 117/2/4
f 116/3/4 110/3/4 117/3/4
f 110/2/4 114/2/4 117/2/4
f 115/2/4 111/2/4 118/2/4
f 117/2/4 115/2/4 118/2/4
f 121/3/5 120/3/5 119/3/5
f 122/3/5 120/3/5 121/3/5
f 126/2/5 124/2/5 123/2/5
f 127/2/5 124/2/5 126/2/5
f 129/2/5 126/2/5 125/2/5
f 130/2/5 126/2/5 129/2/5
f 131/2/5 128/2/5 127/2/5
f 132/2/5 128/2/5 131/2/5
f 133/2/5 131/2/5 130/2/5
f 134/2/5 131/2/5 133/2/5
f 135/2/6 136/2/6 138/2/6
f 138/2/6 136/2/6 139/2/6
f 137/2/6 138/2/6 141/2/6
f 141/2/6 138/2/6 142/2/6
f 139/2/6 140/2/6 143/2/6
f 143/2/6 140/2/6 144/2/6
f 142/2/6 143/2/6 145/2/6
f 145/2/6 143/2/6 146/2/6
f 147/2/6 148/2/6 149/2/6
f 149/2/6 148/2/6 150/2/6
