# MagicaVoxel @ Ephtracy

# group
g Electrocity-12

# material
mtllib Electrocity-12.mtl
usemtl palette

# normals
vn -1 0 0
vn 1 0 0
vn 0 0 1
vn 0 0 -1
vn 0 -1 0
vn 0 1 0

# texcoords
vt 0.0488281 0.5
vt 0.0527344 0.5
vt 0.939453 0.5
vt 0.943359 0.5

# verts
v -6 6 1
v -6 6 -2
v -6 10 1
v -6 10 -2
v -5 0 1
v -5 0 -0
v -5 0 -1
v -5 0 -2
v -5 6 1
v -5 6 -0
v -5 6 -1
v -5 6 -2
v -5 10 1
v -5 10 -0
v -5 10 -1
v -5 10 -2
v -5 15 1
v -5 15 -0
v -5 15 -1
v -5 15 -2
v -4 1 2
v -4 1 1
v -4 1 -2
v -4 1 -3
v -4 2 2
v -4 2 1
v -4 2 -2
v -4 2 -3
v -3 0 2
v -3 0 1
v -3 1 2
v -3 1 1
v 4 2 1
v 4 2 -0
v 4 2 -1
v 4 2 -2
v 4 7 1
v 4 7 -0
v 4 7 -1
v 4 7 -2
v 4 9 1
v 4 9 -0
v 4 9 -1
v 4 9 -2
v 4 14 1
v 4 14 -0
v 4 14 -1
v 4 14 -2
v -4 2 1
v -4 2 -0
v -4 2 -1
v -4 2 -2
v -4 6 -0
v -4 6 -1
v -4 7 1
v -4 7 -0
v -4 7 -1
v -4 7 -2
v -4 9 1
v -4 9 -0
v -4 9 -1
v -4 9 -2
v -4 10 -0
v -4 10 -1
v -4 14 1
v -4 14 -0
v -4 14 -1
v -4 14 -2
v 4 0 2
v 4 0 1
v 4 1 -2
v 4 1 -3
v 4 2 2
v 4 2 1
v 4 2 -2
v 4 2 -3
v 5 0 1
v 5 0 -0
v 5 0 -1
v 5 0 -2
v 5 6 1
v 5 6 -0
v 5 6 -1
v 5 6 -2
v 5 10 1
v 5 10 -0
v 5 10 -1
v 5 10 -2
v 5 15 1
v 5 15 -0
v 5 15 -1
v 5 15 -2
v 6 6 1
v 6 6 -2
v 6 10 1
v 6 10 -2
v -4 1 2
v -4 2 2
v -3 0 2
v -3 1 2
v 4 0 2
v 4 2 2
v -6 6 1
v -6 10 1
v -5 0 1
v -5 6 1
v -5 7 1
v -5 9 1
v -5 10 1
v -5 15 1
v -4 0 1
v -4 1 1
v -4 2 1
v -4 7 1
v -4 9 1
v -4 14 1
v -3 0 1
v -3 1 1
v 4 0 1
v 4 2 1
v 4 7 1
v 4 9 1
v 4 14 1
v 5 0 1
v 5 6 1
v 5 7 1
v 5 9 1
v 5 10 1
v 5 15 1
v 6 6 1
v 6 10 1
v -6 6 -2
v -6 10 -2
v -5 0 -2
v -5 6 -2
v -5 7 -2
v -5 9 -2
v -5 10 -2
v -5 15 -2
v -4 0 -2
v -4 1 -2
v -4 2 -2
v -4 7 -2
v -4 9 -2
v -4 14 -2
v 4 0 -2
v 4 1 -2
v 4 2 -2
v 4 7 -2
v 4 9 -2
v 4 14 -2
v 5 0 -2
v 5 6 -2
v 5 7 -2
v 5 9 -2
v 5 10 -2
v 5 15 -2
v 6 6 -2
v 6 10 -2
v -4 1 -3
v -4 2 -3
v 4 1 -3
v 4 2 -3
v -3 0 2
v 4 0 2
v -5 0 1
v -4 0 1
v -3 0 1
v 4 0 1
v 5 0 1
v -5 0 -0
v -4 0 -0
v 4 0 -0
v 5 0 -0
v -5 0 -1
v -4 0 -1
v 4 0 -1
v 5 0 -1
v -5 0 -2
v -4 0 -2
v 4 0 -2
v 5 0 -2
v -4 1 2
v -3 1 2
v -4 1 1
v -3 1 1
v -4 1 -2
v 4 1 -2
v -4 1 -3
v 4 1 -3
v -6 6 1
v -5 6 1
v 5 6 1
v 6 6 1
v -5 6 -0
v 5 6 -0
v -5 6 -1
v 5 6 -1
v -6 6 -2
v -5 6 -2
v 5 6 -2
v 6 6 -2
v -4 14 1
v 4 14 1
v -4 14 -0
v 4 14 -0
v -4 14 -1
v 4 14 -1
v -4 14 -2
v 4 14 -2
v -4 2 2
v 4 2 2
v -4 2 1
v 4 2 1
v -4 2 -0
v 4 2 -0
v -4 2 -1
v 4 2 -1
v -4 2 -2
v 4 2 -2
v -4 2 -3
v 4 2 -3
v -6 10 1
v -5 10 1
v 5 10 1
v 6 10 1
v -5 10 -0
v 5 10 -0
v -5 10 -1
v 5 10 -1
v -6 10 -2
v -5 10 -2
v 5 10 -2
v 6 10 -2
v -5 15 1
v 5 15 1
v -5 15 -0
v 5 15 -0
v -5 15 -1
v 5 15 -1
v -5 15 -2
v 5 15 -2

# faces
f 3/1/1 2/1/1 1/1/1
f 4/1/1 2/1/1 3/1/1
f 9/1/1 6/1/1 5/1/1
f 10/2/1 7/2/1 6/2/1
f 10/1/1 6/1/1 9/1/1
f 11/1/1 8/1/1 7/1/1
f 11/2/1 7/2/1 10/2/1
f 12/1/1 8/1/1 11/1/1
f 17/1/1 14/1/1 13/1/1
f 18/2/1 15/2/1 14/2/1
f 18/1/1 14/1/1 17/1/1
f 19/1/1 16/1/1 15/1/1
f 19/2/1 15/2/1 18/2/1
f 20/1/1 16/1/1 19/1/1
f 25/1/1 22/1/1 21/1/1
f 26/1/1 22/1/1 25/1/1
f 27/1/1 24/1/1 23/1/1
f 28/1/1 24/1/1 27/1/1
f 31/1/1 30/1/1 29/1/1
f 32/1/1 30/1/1 31/1/1
f 37/1/1 34/1/1 33/1/1
f 38/2/1 35/2/1 34/2/1
f 38/1/1 34/1/1 37/1/1
f 39/1/1 36/1/1 35/1/1
f 39/2/1 35/2/1 38/2/1
f 40/1/1 36/1/1 39/1/1
f 41/3/1 38/3/1 37/3/1
f 42/2/1 39/2/1 38/2/1
f 42/3/1 38/3/1 41/3/1
f 43/4/1 40/4/1 39/4/1
f 43/2/1 39/2/1 42/2/1
f 44/4/1 40/4/1 43/4/1
f 45/1/1 42/1/1 41/1/1
f 46/2/1 43/2/1 42/2/1
f 46/1/1 42/1/1 45/1/1
f 47/1/1 44/1/1 43/1/1
f 47/2/1 43/2/1 46/2/1
f 48/1/1 44/1/1 47/1/1
f 49/1/2 50/1/2 53/1/2
f 50/2/2 51/2/2 53/2/2
f 51/1/2 52/1/2 54/1/2
f 53/2/2 51/2/2 54/2/2
f 49/1/2 53/1/2 55/1/2
f 53/1/2 54/1/2 55/1/2
f 55/1/2 54/1/2 56/1/2
f 54/1/2 52/1/2 57/1/2
f 56/1/2 54/1/2 57/1/2
f 57/1/2 52/1/2 58/1/2
f 55/3/2 56/3/2 59/3/2
f 56/1/2 57/1/2 60/1/2
f 59/3/2 56/3/2 60/3/2
f 57/4/2 58/4/2 61/4/2
f 60/1/2 57/1/2 61/1/2
f 61/4/2 58/4/2 62/4/2
f 59/1/2 60/1/2 63/1/2
f 60/1/2 61/1/2 63/1/2
f 61/1/2 62/1/2 63/1/2
f 63/1/2 62/1/2 64/1/2
f 59/1/2 63/1/2 65/1/2
f 63/2/2 64/2/2 66/2/2
f 65/1/2 63/1/2 66/1/2
f 64/1/2 62/1/2 67/1/2
f 66/2/2 64/2/2 67/2/2
f 67/1/2 62/1/2 68/1/2
f 69/1/2 70/1/2 73/1/2
f 73/1/2 70/1/2 74/1/2
f 71/1/2 72/1/2 75/1/2
f 75/1/2 72/1/2 76/1/2
f 77/1/2 78/1/2 81/1/2
f 78/2/2 79/2/2 82/2/2
f 81/1/2 78/1/2 82/1/2
f 79/1/2 80/1/2 83/1/2
f 82/2/2 79/2/2 83/2/2
f 83/1/2 80/1/2 84/1/2
f 85/1/2 86/1/2 89/1/2
f 86/2/2 87/2/2 90/2/2
f 89/1/2 86/1/2 90/1/2
f 87/1/2 88/1/2 91/1/2
f 90/2/2 87/2/2 91/2/2
f 91/1/2 88/1/2 92/1/2
f 93/1/2 94/1/2 95/1/2
f 95/1/2 94/1/2 96/1/2
f 100/1/3 98/1/3 97/1/3
f 101/1/3 100/1/3 99/1/3
f 102/1/3 98/1/3 100/1/3
f 102/1/3 100/1/3 101/1/3
f 106/1/3 104/1/3 103/1/3
f 107/1/3 104/1/3 106/1/3
f 108/1/3 104/1/3 107/1/3
f 109/1/3 104/1/3 108/1/3
f 111/1/3 106/1/3 105/1/3
f 111/1/3 107/1/3 106/1/3
f 112/1/3 107/1/3 111/1/3
f 113/1/3 107/1/3 112/1/3
f 114/3/3 108/3/3 107/3/3
f 114/1/3 107/1/3 113/1/3
f 115/1/3 110/1/3 109/1/3
f 115/3/3 108/3/3 114/3/3
f 115/1/3 109/1/3 108/1/3
f 116/1/3 110/1/3 115/1/3
f 117/2/3 112/2/3 111/2/3
f 118/2/3 112/2/3 117/2/3
f 123/1/3 110/1/3 116/1/3
f 124/1/3 120/1/3 119/1/3
f 124/1/3 121/1/3 120/1/3
f 125/1/3 121/1/3 124/1/3
f 126/3/3 122/3/3 121/3/3
f 126/1/3 121/1/3 125/1/3
f 127/1/3 123/1/3 122/1/3
f 127/3/3 122/3/3 126/3/3
f 128/1/3 123/1/3 127/1/3
f 129/1/3 110/1/3 123/1/3
f 129/1/3 123/1/3 128/1/3
f 130/1/3 126/1/3 125/1/3
f 130/1/3 127/1/3 126/1/3
f 130/1/3 128/1/3 127/1/3
f 131/1/3 128/1/3 130/1/3
f 132/1/4 133/1/4 135/1/4
f 135/1/4 133/1/4 136/1/4
f 136/1/4 133/1/4 137/1/4
f 137/1/4 133/1/4 138/1/4
f 134/1/4 135/1/4 140/1/4
f 135/1/4 136/1/4 140/1/4
f 140/1/4 136/1/4 141/1/4
f 141/1/4 136/1/4 142/1/4
f 136/4/4 137/4/4 143/4/4
f 142/1/4 136/1/4 143/1/4
f 138/1/4 139/1/4 144/1/4
f 143/4/4 137/4/4 144/4/4
f 137/1/4 138/1/4 144/1/4
f 144/1/4 139/1/4 145/1/4
f 140/2/4 141/2/4 146/2/4
f 146/2/4 141/2/4 147/2/4
f 145/1/4 139/1/4 151/1/4
f 146/1/4 147/1/4 152/1/4
f 147/1/4 148/1/4 152/1/4
f 148/1/4 149/1/4 152/1/4
f 152/1/4 149/1/4 153/1/4
f 149/4/4 150/4/4 154/4/4
f 153/1/4 149/1/4 154/1/4
f 150/1/4 151/1/4 155/1/4
f 154/4/4 150/4/4 155/4/4
f 155/1/4 151/1/4 156/1/4
f 151/1/4 139/1/4 157/1/4
f 156/1/4 151/1/4 157/1/4
f 153/1/4 154/1/4 158/1/4
f 154/1/4 155/1/4 158/1/4
f 155/1/4 156/1/4 158/1/4
f 158/1/4 156/1/4 159/1/4
f 160/1/4 161/1/4 162/1/4
f 162/1/4 161/1/4 163/1/4
f 168/1/5 165/1/5 164/1/5
f 169/1/5 165/1/5 168/1/5
f 171/1/5 167/1/5 166/1/5
f 172/2/5 168/2/5 167/2/5
f 172/1/5 167/1/5 171/1/5
f 172/2/5 169/2/5 168/2/5
f 173/1/5 170/1/5 169/1/5
f 173/2/5 169/2/5 172/2/5
f 174/1/5 170/1/5 173/1/5
f 175/2/5 172/2/5 171/2/5
f 176/1/5 173/1/5 172/1/5
f 176/2/5 172/2/5 175/2/5
f 177/2/5 174/2/5 173/2/5
f 177/1/5 173/1/5 176/1/5
f 178/2/5 174/2/5 177/2/5
f 179/1/5 176/1/5 175/1/5
f 180/2/5 177/2/5 176/2/5
f 180/1/5 176/1/5 179/1/5
f 181/1/5 178/1/5 177/1/5
f 181/2/5 177/2/5 180/2/5
f 182/1/5 178/1/5 181/1/5
f 185/1/5 184/1/5 183/1/5
f 186/1/5 184/1/5 185/1/5
f 189/1/5 188/1/5 187/1/5
f 190/1/5 188/1/5 189/1/5
f 195/1/5 192/1/5 191/1/5
f 196/1/5 194/1/5 193/1/5
f 197/1/5 195/1/5 191/1/5
f 198/1/5 194/1/5 196/1/5
f 199/1/5 197/1/5 191/1/5
f 200/1/5 197/1/5 199/1/5
f 201/1/5 194/1/5 198/1/5
f 202/1/5 194/1/5 201/1/5
f 205/1/5 204/1/5 203/1/5
f 206/1/5 204/1/5 205/1/5
f 207/2/5 206/2/5 205/2/5
f 208/2/5 206/2/5 207/2/5
f 209/1/5 208/1/5 207/1/5
f 210/1/5 208/1/5 209/1/5
f 211/1/6 212/1/6 213/1/6
f 213/1/6 212/1/6 214/1/6
f 213/1/6 214/1/6 215/1/6
f 215/1/6 214/1/6 216/1/6
f 215/1/6 216/1/6 217/1/6
f 217/1/6 216/1/6 218/1/6
f 217/1/6 218/1/6 219/1/6
f 219/1/6 218/1/6 220/1/6
f 219/1/6 220/1/6 221/1/6
f 221/1/6 220/1/6 222/1/6
f 223/1/6 224/1/6 227/1/6
f 225/1/6 226/1/6 228/1/6
f 223/1/6 227/1/6 229/1/6
f 228/1/6 226/1/6 230/1/6
f 223/1/6 229/1/6 231/1/6
f 231/1/6 229/1/6 232/1/6
f 230/1/6 226/1/6 233/1/6
f 233/1/6 226/1/6 234/1/6
f 235/1/6 236/1/6 237/1/6
f 237/1/6 236/1/6 238/1/6
f 237/2/6 238/2/6 239/2/6
f 239/2/6 238/2/6 240/2/6
f 239/1/6 240/1/6 241/1/6
f 241/1/6 240/1/6 242/1/6
