# MagicaVoxel @ Ephtracy

# group
g Electrocity-17

# material
mtllib Electrocity-17.mtl
usemtl palette

# normals
vn -1 0 0
vn 1 0 0
vn 0 0 1
vn 0 0 -1
vn 0 -1 0
vn 0 1 0

# texcoords
vt 0.0566406 0.5
vt 0.0605469 0.5
vt 0.939453 0.5
vt 0.943359 0.5

# verts
v 20 0 32
v 20 0 30
v 20 12 32
v 20 12 30
v 24 0 32
v 24 0 31
v 24 0 30
v 24 1 32
v 24 1 31
v 24 4 32
v 24 4 30
v 24 5 32
v 24 5 30
v 24 7 32
v 24 7 30
v 24 8 32
v 24 8 30
v 24 11 32
v 24 11 31
v 24 12 32
v 24 12 31
v 24 12 30
v 20 0 32
v 20 12 32
v 21 0 32
v 21 4 32
v 21 5 32
v 21 7 32
v 21 8 32
v 21 12 32
v 22 5 32
v 22 7 32
v 23 0 32
v 23 1 32
v 23 11 32
v 23 12 32
v 24 0 32
v 24 1 32
v 24 4 32
v 24 5 32
v 24 7 32
v 24 8 32
v 24 11 32
v 24 12 32
v 20 0 30
v 20 12 30
v 21 0 30
v 21 4 30
v 21 5 30
v 21 7 30
v 21 8 30
v 21 12 30
v 22 5 30
v 22 7 30
v 24 0 30
v 24 4 30
v 24 5 30
v 24 7 30
v 24 8 30
v 24 12 30
v 20 0 32
v 21 0 32
v 23 0 32
v 24 0 32
v 23 0 31
v 24 0 31
v 20 0 30
v 21 0 30
v 24 0 30
v 20 12 32
v 21 12 32
v 23 12 32
v 24 12 32
v 23 12 31
v 24 12 31
v 20 12 30
v 21 12 30
v 24 12 30

# faces
f 3/1/1 2/1/1 1/1/1
f 4/1/1 2/1/1 3/1/1
f 5/1/2 6/1/2 8/1/2
f 6/2/2 7/2/2 9/2/2
f 8/1/2 6/1/2 9/1/2
f 8/2/2 9/2/2 10/2/2
f 9/2/2 7/2/2 11/2/2
f 10/2/2 9/2/2 11/2/2
f 10/1/2 11/1/2 12/1/2
f 12/1/2 11/1/2 13/1/2
f 12/2/2 13/2/2 14/2/2
f 14/2/2 13/2/2 15/2/2
f 14/1/2 15/1/2 16/1/2
f 16/1/2 15/1/2 17/1/2
f 16/2/2 17/2/2 18/2/2
f 18/2/2 17/2/2 19/2/2
f 18/1/2 19/1/2 20/1/2
f 19/2/2 17/2/2 21/2/2
f 20/1/2 19/1/2 21/1/2
f 21/2/2 17/2/2 22/2/2
f 25/1/3 24/1/3 23/1/3
f 26/1/3 24/1/3 25/1/3
f 27/1/3 24/1/3 26/1/3
f 28/1/3 24/1/3 27/1/3
f 29/1/3 24/1/3 28/1/3
f 30/1/3 24/1/3 29/1/3
f 31/1/3 27/1/3 26/1/3
f 31/3/3 28/3/3 27/3/3
f 32/1/3 29/1/3 28/1/3
f 32/3/3 28/3/3 31/3/3
f 33/2/3 26/2/3 25/2/3
f 34/2/3 26/2/3 33/2/3
f 35/2/3 30/2/3 29/2/3
f 36/2/3 30/2/3 35/2/3
f 37/1/3 34/1/3 33/1/3
f 38/2/3 26/2/3 34/2/3
f 38/1/3 34/1/3 37/1/3
f 39/1/3 31/1/3 26/1/3
f 39/2/3 26/2/3 38/2/3
f 40/2/3 32/2/3 31/2/3
f 40/1/3 31/1/3 39/1/3
f 41/1/3 29/1/3 32/1/3
f 41/2/3 32/2/3 40/2/3
f 42/2/3 35/2/3 29/2/3
f 42/1/3 29/1/3 41/1/3
f 43/1/3 36/1/3 35/1/3
f 43/2/3 35/2/3 42/2/3
f 44/1/3 36/1/3 43/1/3
f 45/1/4 46/1/4 47/1/4
f 47/1/4 46/1/4 48/1/4
f 48/1/4 46/1/4 49/1/4
f 49/1/4 46/1/4 50/1/4
f 50/1/4 46/1/4 51/1/4
f 51/1/4 46/1/4 52/1/4
f 48/1/4 49/1/4 53/1/4
f 49/4/4 50/4/4 53/4/4
f 50/1/4 51/1/4 54/1/4
f 53/4/4 50/4/4 54/4/4
f 47/2/4 48/2/4 55/2/4
f 48/1/4 53/1/4 56/1/4
f 55/2/4 48/2/4 56/2/4
f 53/2/4 54/2/4 57/2/4
f 56/1/4 53/1/4 57/1/4
f 54/1/4 51/1/4 58/1/4
f 57/2/4 54/2/4 58/2/4
f 51/2/4 52/2/4 59/2/4
f 58/1/4 51/1/4 59/1/4
f 59/2/4 52/2/4 60/2/4
f 65/2/5 63/2/5 62/2/5
f 65/1/5 64/1/5 63/1/5
f 66/1/5 64/1/5 65/1/5
f 67/1/5 62/1/5 61/1/5
f 68/2/5 65/2/5 62/2/5
f 68/1/5 62/1/5 67/1/5
f 68/2/5 66/2/5 65/2/5
f 69/2/5 66/2/5 68/2/5
f 71/2/6 72/2/6 74/2/6
f 72/1/6 73/1/6 74/1/6
f 74/1/6 73/1/6 75/1/6
f 70/1/6 71/1/6 76/1/6
f 71/2/6 74/2/6 77/2/6
f 76/1/6 71/1/6 77/1/6
f 74/2/6 75/2/6 77/2/6
f 77/2/6 75/2/6 78/2/6
