# MagicaVoxel @ Ephtracy

# group
g Electrocity-67

# material
mtllib Electrocity-67.mtl
usemtl palette

# normals
vn -1 0 0
vn 1 0 0
vn 0 0 1
vn 0 0 -1
vn 0 -1 0
vn 0 1 0

# texcoords
vt 0.0996094 0.5
vt 0.103516 0.5
vt 0.111328 0.5

# verts
v -63 0 63
v -63 0 -63
v -63 3 7
v -63 3 -9
v -63 4 63
v -63 4 7
v -63 4 -9
v -63 4 -63
v -63 8 -9
v -63 8 -63
v -63 10 63
v -63 10 7
v -39 4 -9
v -39 4 -63
v -39 5 -30
v -39 5 -31
v -39 6 -9
v -39 6 -30
v -39 6 -31
v -39 6 -63
v -37 6 -9
v -37 6 -63
v -37 8 -9
v -37 8 -63
v 61 4 13
v 61 4 12
v 61 10 13
v 61 10 12
v -49 6 -9
v -49 6 -63
v -49 8 -9
v -49 8 -63
v -47 4 -9
v -47 4 -63
v -47 6 -9
v -47 6 -63
v 46 4 11
v 46 4 7
v 46 10 11
v 46 10 7
v 47 4 12
v 47 4 11
v 47 10 12
v 47 10 11
v 55 4 13
v 55 4 12
v 55 10 13
v 55 10 12
v 59 4 -9
v 59 4 -12
v 59 8 -9
v 59 8 -12
v 63 0 63
v 63 0 -63
v 63 3 12
v 63 3 -12
v 63 4 63
v 63 4 12
v 63 4 -12
v 63 4 -63
v 63 8 -12
v 63 8 -63
v 63 10 63
v 63 10 12
v -63 0 63
v -63 4 63
v -63 10 63
v 63 0 63
v 63 4 63
v 63 10 63
v -63 4 -9
v -63 8 -9
v -49 6 -9
v -49 8 -9
v -47 4 -9
v -47 6 -9
v -39 4 -9
v -39 6 -9
v -37 6 -9
v -37 8 -9
v 59 4 -9
v 59 8 -9
v 59 4 -12
v 59 8 -12
v 63 4 -12
v 63 8 -12
v 55 4 13
v 55 10 13
v 61 4 13
v 61 10 13
v 47 4 12
v 47 10 12
v 55 4 12
v 55 10 12
v 61 4 12
v 61 10 12
v 63 4 12
v 63 10 12
v 46 4 11
v 46 10 11
v 47 4 11
v 47 10 11
v -63 4 7
v -63 10 7
v 46 4 7
v 46 10 7
v -63 0 -63
v -63 4 -63
v -63 8 -63
v -49 6 -63
v -49 8 -63
v -47 3 -63
v -47 4 -63
v -47 6 -63
v -39 3 -63
v -39 4 -63
v -39 6 -63
v -37 6 -63
v -37 8 -63
v 63 0 -63
v 63 4 -63
v 63 8 -63
v -63 0 63
v 63 0 63
v -63 0 -63
v 63 0 -63
v 55 4 13
v 61 4 13
v 47 4 12
v 55 4 12
v 61 4 12
v 63 4 12
v 46 4 11
v 47 4 11
v -63 4 7
v 46 4 7
v -63 4 -9
v -47 4 -9
v -39 4 -9
v 59 4 -9
v 59 4 -12
v 63 4 -12
v -47 4 -63
v -39 4 -63
v -49 6 -9
v -47 6 -9
v -39 6 -9
v -37 6 -9
v -39 6 -30
v -38 6 -30
v -39 6 -31
v -38 6 -31
v -49 6 -63
v -47 6 -63
v -39 6 -63
v -37 6 -63
v -63 8 -9
v -49 8 -9
v -37 8 -9
v 59 8 -9
v 59 8 -12
v 63 8 -12
v -63 8 -63
v -49 8 -63
v -37 8 -63
v 63 8 -63
v -63 10 63
v 63 10 63
v 55 10 13
v 61 10 13
v 47 10 12
v 55 10 12
v 61 10 12
v 63 10 12
v 46 10 11
v 47 10 11
v -63 10 7
v 46 10 7

# faces
f 3/1/1 2/1/1 1/1/1
f 4/1/1 2/1/1 3/1/1
f 5/1/1 3/1/1 1/1/1
f 6/2/1 4/2/1 3/2/1
f 6/1/1 3/1/1 5/1/1
f 7/1/1 2/1/1 4/1/1
f 7/2/1 4/2/1 6/2/1
f 8/1/1 2/1/1 7/1/1
f 9/3/1 8/3/1 7/3/1
f 10/3/1 8/3/1 9/3/1
f 11/3/1 6/3/1 5/3/1
f 12/3/1 6/3/1 11/3/1
f 15/3/1 14/3/1 13/3/1
f 16/3/1 14/3/1 15/3/1
f 17/3/1 15/3/1 13/3/1
f 18/2/1 16/2/1 15/2/1
f 18/3/1 15/3/1 17/3/1
f 19/3/1 14/3/1 16/3/1
f 19/2/1 16/2/1 18/2/1
f 20/3/1 14/3/1 19/3/1
f 23/3/1 22/3/1 21/3/1
f 24/3/1 22/3/1 23/3/1
f 27/3/1 26/3/1 25/3/1
f 28/3/1 26/3/1 27/3/1
f 29/3/2 30/3/2 31/3/2
f 31/3/2 30/3/2 32/3/2
f 33/3/2 34/3/2 35/3/2
f 35/3/2 34/3/2 36/3/2
f 37/3/2 38/3/2 39/3/2
f 39/3/2 38/3/2 40/3/2
f 41/3/2 42/3/2 43/3/2
f 43/3/2 42/3/2 44/3/2
f 45/3/2 46/3/2 47/3/2
f 47/3/2 46/3/2 48/3/2
f 49/3/2 50/3/2 51/3/2
f 51/3/2 50/3/2 52/3/2
f 53/1/2 54/1/2 55/1/2
f 55/1/2 54/1/2 56/1/2
f 53/1/2 55/1/2 57/1/2
f 55/2/2 56/2/2 58/2/2
f 57/1/2 55/1/2 58/1/2
f 56/1/2 54/1/2 59/1/2
f 58/2/2 56/2/2 59/2/2
f 59/1/2 54/1/2 60/1/2
f 59/3/2 60/3/2 61/3/2
f 61/3/2 60/3/2 62/3/2
f 57/3/2 58/3/2 63/3/2
f 63/3/2 58/3/2 64/3/2
f 68/1/3 66/1/3 65/1/3
f 69/3/3 67/3/3 66/3/3
f 69/1/3 66/1/3 68/1/3
f 70/3/3 67/3/3 69/3/3
f 73/3/3 72/3/3 71/3/3
f 74/3/3 72/3/3 73/3/3
f 75/3/3 73/3/3 71/3/3
f 76/3/3 73/3/3 75/3/3
f 79/3/3 78/3/3 77/3/3
f 81/3/3 79/3/3 77/3/3
f 81/3/3 80/3/3 79/3/3
f 82/3/3 80/3/3 81/3/3
f 85/3/3 84/3/3 83/3/3
f 86/3/3 84/3/3 85/3/3
f 87/3/4 88/3/4 89/3/4
f 89/3/4 88/3/4 90/3/4
f 91/3/4 92/3/4 93/3/4
f 93/3/4 92/3/4 94/3/4
f 95/3/4 96/3/4 97/3/4
f 97/3/4 96/3/4 98/3/4
f 99/3/4 100/3/4 101/3/4
f 101/3/4 100/3/4 102/3/4
f 103/3/4 104/3/4 105/3/4
f 105/3/4 104/3/4 106/3/4
f 108/3/4 109/3/4 110/3/4
f 110/3/4 109/3/4 111/3/4
f 107/1/4 108/1/4 112/1/4
f 108/3/4 110/3/4 113/3/4
f 112/1/4 108/1/4 113/1/4
f 113/3/4 110/3/4 114/3/4
f 107/1/4 112/1/4 115/1/4
f 112/2/4 113/2/4 115/2/4
f 115/2/4 113/2/4 116/2/4
f 116/3/4 117/3/4 118/3/4
f 107/1/4 115/1/4 120/1/4
f 115/1/4 116/1/4 120/1/4
f 116/3/4 118/3/4 121/3/4
f 120/1/4 116/1/4 121/1/4
f 118/3/4 119/3/4 121/3/4
f 121/3/4 119/3/4 122/3/4
f 125/1/5 124/1/5 123/1/5
f 126/1/5 124/1/5 125/1/5
f 127/2/6 128/2/6 130/2/6
f 130/2/6 128/2/6 131/2/6
f 129/2/6 130/2/6 134/2/6
f 131/2/6 132/2/6 134/2/6
f 130/2/6 131/2/6 134/2/6
f 133/2/6 134/2/6 136/2/6
f 135/2/6 136/2/6 137/2/6
f 137/2/6 136/2/6 138/2/6
f 138/2/6 136/2/6 139/2/6
f 134/2/6 132/2/6 140/2/6
f 139/2/6 136/2/6 140/2/6
f 136/2/6 134/2/6 140/2/6
f 140/2/6 132/2/6 141/2/6
f 141/2/6 132/2/6 142/2/6
f 138/2/6 139/2/6 143/2/6
f 143/2/6 139/2/6 144/2/6
f 147/3/6 148/3/6 149/3/6
f 149/3/6 148/3/6 150/3/6
f 149/2/6 150/2/6 151/2/6
f 150/3/6 148/3/6 152/3/6
f 151/2/6 150/2/6 152/2/6
f 145/3/6 146/3/6 153/3/6
f 153/3/6 146/3/6 154/3/6
f 151/3/6 152/3/6 155/3/6
f 152/3/6 148/3/6 156/3/6
f 155/3/6 152/3/6 156/3/6
f 159/3/6 160/3/6 161/3/6
f 157/3/6 158/3/6 163/3/6
f 163/3/6 158/3/6 164/3/6
f 161/3/6 162/3/6 165/3/6
f 159/3/6 161/3/6 165/3/6
f 165/3/6 162/3/6 166/3/6
f 167/3/6 168/3/6 169/3/6
f 169/3/6 168/3/6 170/3/6
f 167/3/6 169/3/6 171/3/6
f 171/3/6 169/3/6 172/3/6
f 170/3/6 168/3/6 173/3/6
f 173/3/6 168/3/6 174/3/6
f 167/3/6 171/3/6 175/3/6
f 175/3/6 171/3/6 176/3/6
f 167/3/6 175/3/6 177/3/6
f 177/3/6 175/3/6 178/3/6
