# MagicaVoxel @ Ephtracy

# group
g Electrocity-0

# material
mtllib Electrocity-0.mtl
usemtl palette

# normals
vn -1 0 0
vn 1 0 0
vn 0 0 1
vn 0 0 -1
vn 0 -1 0
vn 0 1 0

# texcoords
vt 0.00976563 0.5
vt 0.0488281 0.5
vt 0.0605469 0.5

# verts
v -44 0 36
v -44 0 -36
v -44 3 -23
v -44 3 -29
v -44 4 36
v -44 4 -23
v -44 4 -29
v -44 4 -32
v -44 4 -36
v -44 6 -32
v -44 6 -36
v 40 4 36
v 40 4 11
v 40 4 8
v 40 4 -8
v 40 4 -11
v 40 4 -32
v 40 6 36
v 40 6 -32
v 44 0 36
v 44 0 -36
v 44 3 11
v 44 3 8
v 44 4 36
v 44 4 11
v 44 4 8
v 44 4 -36
v 44 6 36
v 44 6 -36
v -44 0 36
v -44 4 36
v -10 3 36
v -10 4 36
v -3 3 36
v -3 4 36
v 0 3 36
v 0 4 36
v 3 3 36
v 3 4 36
v 40 4 36
v 40 6 36
v 44 0 36
v 44 4 36
v 44 6 36
v -44 4 -32
v -44 6 -32
v -1 4 -32
v 2 4 -32
v 40 4 -32
v 40 6 -32
v -44 0 -36
v -44 4 -36
v -44 6 -36
v 44 0 -36
v 44 4 -36
v 44 6 -36
v -44 0 36
v 44 0 36
v -44 0 -36
v 44 0 -36
v -44 4 36
v -10 4 36
v -3 4 36
v 0 4 36
v 3 4 36
v 40 4 36
v 8 4 24
v 32 4 24
v 8 4 16
v 24 4 16
v 3 4 11
v 24 4 11
v 32 4 11
v 40 4 11
v 0 4 8
v 24 4 8
v 32 4 8
v 40 4 8
v -3 4 5
v 24 4 5
v -3 4 -5
v 24 4 -5
v 24 4 -7
v 32 4 -7
v -1 4 -8
v 40 4 -8
v 2 4 -11
v 40 4 -11
v -44 4 -23
v -10 4 -23
v -44 4 -29
v -3 4 -29
v -44 4 -32
v -1 4 -32
v 2 4 -32
v 40 4 -32
v 40 6 36
v 44 6 36
v -44 6 -32
v 40 6 -32
v -44 6 -36
v 44 6 -36

# faces
f 3/1/1 2/1/1 1/1/1
f 4/1/1 2/1/1 3/1/1
f 5/1/1 3/1/1 1/1/1
f 6/3/1 4/3/1 3/3/1
f 6/1/1 3/1/1 5/1/1
f 7/1/1 2/1/1 4/1/1
f 7/3/1 4/3/1 6/3/1
f 8/1/1 2/1/1 7/1/1
f 9/1/1 2/1/1 8/1/1
f 10/2/1 9/2/1 8/2/1
f 11/2/1 9/2/1 10/2/1
f 18/2/1 13/2/1 12/2/1
f 18/2/1 17/2/1 16/2/1
f 18/2/1 16/2/1 15/2/1
f 18/2/1 15/2/1 14/2/1
f 18/2/1 14/2/1 13/2/1
f 19/2/1 17/2/1 18/2/1
f 20/1/2 21/1/2 22/1/2
f 22/1/2 21/1/2 23/1/2
f 20/1/2 22/1/2 24/1/2
f 22/2/2 23/2/2 25/2/2
f 24/1/2 22/1/2 25/1/2
f 23/1/2 21/1/2 26/1/2
f 25/2/2 23/2/2 26/2/2
f 26/1/2 21/1/2 27/1/2
f 24/2/2 25/2/2 28/2/2
f 25/2/2 26/2/2 28/2/2
f 26/2/2 27/2/2 28/2/2
f 28/2/2 27/2/2 29/2/2
f 32/1/3 31/1/3 30/1/3
f 33/1/3 31/1/3 32/1/3
f 34/1/3 32/1/3 30/1/3
f 34/3/3 33/3/3 32/3/3
f 35/3/3 33/3/3 34/3/3
f 36/1/3 34/1/3 30/1/3
f 36/1/3 35/1/3 34/1/3
f 37/1/3 35/1/3 36/1/3
f 38/1/3 36/1/3 30/1/3
f 38/2/3 37/2/3 36/2/3
f 39/2/3 37/2/3 38/2/3
f 40/1/3 39/1/3 38/1/3
f 42/1/3 40/1/3 38/1/3
f 42/1/3 38/1/3 30/1/3
f 43/2/3 41/2/3 40/2/3
f 43/1/3 40/1/3 42/1/3
f 44/2/3 41/2/3 43/2/3
f 47/2/3 46/2/3 45/2/3
f 48/2/3 46/2/3 47/2/3
f 49/2/3 46/2/3 48/2/3
f 50/2/3 46/2/3 49/2/3
f 51/1/4 52/1/4 54/1/4
f 52/2/4 53/2/4 55/2/4
f 54/1/4 52/1/4 55/1/4
f 55/2/4 53/2/4 56/2/4
f 59/1/5 58/1/5 57/1/5
f 60/1/5 58/1/5 59/1/5
f 65/1/6 66/1/6 67/1/6
f 67/1/6 66/1/6 68/1/6
f 65/1/6 67/1/6 69/1/6
f 67/3/6 68/3/6 69/3/6
f 69/3/6 68/3/6 70/3/6
f 64/2/6 65/2/6 71/2/6
f 65/1/6 69/1/6 71/1/6
f 69/1/6 70/1/6 71/1/6
f 70/3/6 68/3/6 72/3/6
f 71/1/6 70/1/6 72/1/6
f 68/1/6 66/1/6 73/1/6
f 72/3/6 68/3/6 73/3/6
f 73/1/6 66/1/6 74/1/6
f 63/1/6 64/1/6 75/1/6
f 64/2/6 71/2/6 75/2/6
f 73/2/6 74/2/6 75/2/6
f 72/2/6 73/2/6 75/2/6
f 71/2/6 72/2/6 75/2/6
f 75/2/6 74/2/6 76/2/6
f 76/2/6 74/2/6 77/2/6
f 77/2/6 74/2/6 78/2/6
f 62/3/6 63/3/6 79/3/6
f 63/1/6 75/1/6 79/1/6
f 75/1/6 76/1/6 79/1/6
f 76/3/6 77/3/6 80/3/6
f 79/1/6 76/1/6 80/1/6
f 62/3/6 79/3/6 81/3/6
f 79/3/6 80/3/6 81/3/6
f 80/3/6 77/3/6 82/3/6
f 81/3/6 80/3/6 82/3/6
f 81/1/6 82/1/6 83/1/6
f 82/3/6 77/3/6 83/3/6
f 77/1/6 78/1/6 84/1/6
f 83/3/6 77/3/6 84/3/6
f 81/1/6 83/1/6 85/1/6
f 83/1/6 84/1/6 85/1/6
f 84/1/6 78/1/6 86/1/6
f 85/1/6 84/1/6 86/1/6
f 85/2/6 86/2/6 87/2/6
f 87/2/6 86/2/6 88/2/6
f 61/1/6 62/1/6 89/1/6
f 62/3/6 81/3/6 90/3/6
f 89/1/6 62/1/6 90/1/6
f 89/3/6 90/3/6 91/3/6
f 81/1/6 85/1/6 92/1/6
f 91/3/6 90/3/6 92/3/6
f 90/3/6 81/3/6 92/3/6
f 91/1/6 92/1/6 93/1/6
f 85/2/6 87/2/6 94/2/6
f 93/1/6 92/1/6 94/1/6
f 92/1/6 85/1/6 94/1/6
f 87/1/6 88/1/6 95/1/6
f 94/2/6 87/2/6 95/2/6
f 95/1/6 88/1/6 96/1/6
f 97/2/6 98/2/6 100/2/6
f 99/2/6 100/2/6 101/2/6
f 100/2/6 98/2/6 102/2/6
f 101/2/6 100/2/6 102/2/6
