# MagicaVoxel @ Ephtracy

# group
g Electrocity-5

# material
mtllib Electrocity-5.mtl
usemtl palette

# normals
vn -1 0 0
vn 1 0 0
vn 0 0 1
vn 0 0 -1
vn 0 -1 0
vn 0 1 0

# texcoords
vt 0.00976563 0.5
vt 0.0449219 0.5
vt 0.0488281 0.5
vt 0.0566406 0.5

# verts
v 0 0 21
v 0 0 17
v 0 0 -2
v 0 0 -4
v 0 0 -24
v 0 0 -28
v 0 27 17
v 0 27 -2
v 0 27 -4
v 0 27 -24
v 0 28 21
v 0 28 -28
v 1 0 17
v 1 0 16
v 1 0 -2
v 1 0 -4
v 1 0 -24
v 1 1 17
v 1 1 16
v 1 27 17
v 1 27 -2
v 1 27 -4
v 1 27 -24
v 32 0 18
v 32 0 -2
v 32 1 18
v 32 1 -2
v 32 2 18
v 32 2 -2
v 36 2 18
v 36 2 -2
v 36 3 18
v 36 3 -2
v 36 4 18
v 36 4 -2
v 40 0 20
v 40 0 18
v 40 3 18
v 40 4 18
v 40 20 20
v 40 20 18
v 2 0 20
v 2 0 18
v 2 0 17
v 2 0 16
v 2 0 -24
v 2 1 17
v 2 1 16
v 2 27 20
v 2 27 18
v 2 27 17
v 2 27 -24
v 3 0 21
v 3 0 20
v 3 0 18
v 3 0 17
v 3 0 -24
v 3 0 -28
v 3 27 20
v 3 27 18
v 3 27 17
v 3 27 -24
v 3 28 21
v 3 28 -28
v 40 0 18
v 40 0 -2
v 40 3 18
v 40 3 -2
v 40 4 18
v 40 4 -2
v 43 0 20
v 43 0 18
v 43 20 20
v 43 20 18
v 0 0 21
v 0 28 21
v 3 0 21
v 3 28 21
v 40 0 20
v 40 20 20
v 43 0 20
v 43 20 20
v 2 0 18
v 2 27 18
v 3 0 18
v 3 27 18
v 32 0 18
v 32 1 18
v 32 2 18
v 36 1 18
v 36 2 18
v 36 3 18
v 36 4 18
v 40 0 18
v 40 3 18
v 40 4 18
v 0 0 -2
v 0 27 -2
v 1 0 -2
v 1 27 -2
v 0 0 -24
v 0 27 -24
v 1 0 -24
v 1 27 -24
v 2 0 -24
v 2 27 -24
v 3 0 -24
v 3 27 -24
v 2 0 20
v 2 27 20
v 3 0 20
v 3 27 20
v 40 0 18
v 40 3 18
v 40 4 18
v 40 20 18
v 43 0 18
v 43 20 18
v 0 0 17
v 0 27 17
v 1 0 17
v 1 1 17
v 1 27 17
v 2 0 17
v 2 1 17
v 2 27 17
v 3 0 17
v 3 27 17
v 32 0 -2
v 32 1 -2
v 32 2 -2
v 36 1 -2
v 36 2 -2
v 36 3 -2
v 36 4 -2
v 40 0 -2
v 40 3 -2
v 40 4 -2
v 0 0 -4
v 0 27 -4
v 1 0 -4
v 1 27 -4
v 0 0 -28
v 0 28 -28
v 3 0 -28
v 3 28 -28
v 0 0 21
v 3 0 21
v 1 0 20
v 2 0 20
v 3 0 20
v 40 0 20
v 43 0 20
v 2 0 18
v 3 0 18
v 32 0 18
v 40 0 18
v 43 0 18
v 0 0 17
v 1 0 17
v 2 0 17
v 3 0 17
v 1 0 16
v 2 0 16
v 0 0 -2
v 1 0 -2
v 32 0 -2
v 40 0 -2
v 0 0 -4
v 1 0 -4
v 0 0 -24
v 1 0 -24
v 2 0 -24
v 3 0 -24
v 0 0 -28
v 3 0 -28
v 2 27 20
v 3 27 20
v 2 27 18
v 3 27 18
v 0 27 17
v 1 27 17
v 2 27 17
v 3 27 17
v 0 27 -2
v 1 27 -2
v 0 27 -4
v 1 27 -4
v 0 27 -24
v 1 27 -24
v 2 27 -24
v 3 27 -24
v 32 2 18
v 36 2 18
v 32 2 -2
v 36 2 -2
v 36 4 18
v 40 4 18
v 36 4 -2
v 40 4 -2
v 40 20 20
v 43 20 20
v 40 20 18
v 43 20 18
v 0 28 21
v 3 28 21
v 0 28 -28
v 3 28 -28

# faces
f 7/3/1 2/3/1 1/3/1
f 8/3/1 4/3/1 3/3/1
f 9/3/1 4/3/1 8/3/1
f 10/3/1 6/3/1 5/3/1
f 11/3/1 9/3/1 8/3/1
f 11/3/1 10/3/1 9/3/1
f 11/3/1 7/3/1 1/3/1
f 11/3/1 8/3/1 7/3/1
f 12/3/1 6/3/1 10/3/1
f 12/3/1 10/3/1 11/3/1
f 18/3/1 14/3/1 13/3/1
f 19/2/1 15/2/1 14/2/1
f 19/3/1 14/3/1 18/3/1
f 20/2/1 19/2/1 18/2/1
f 21/2/1 15/2/1 19/2/1
f 21/2/1 19/2/1 20/2/1
f 22/2/1 17/2/1 16/2/1
f 23/2/1 17/2/1 22/2/1
f 26/1/1 25/1/1 24/1/1
f 27/1/1 25/1/1 26/1/1
f 28/4/1 27/4/1 26/4/1
f 29/4/1 27/4/1 28/4/1
f 32/1/1 31/1/1 30/1/1
f 33/1/1 31/1/1 32/1/1
f 34/4/1 33/4/1 32/4/1
f 35/4/1 33/4/1 34/4/1
f 38/2/1 37/2/1 36/2/1
f 39/2/1 38/2/1 36/2/1
f 40/2/1 39/2/1 36/2/1
f 41/2/1 39/2/1 40/2/1
f 44/3/2 45/3/2 47/3/2
f 45/2/2 46/2/2 48/2/2
f 47/3/2 45/3/2 48/3/2
f 42/2/2 43/2/2 49/2/2
f 49/2/2 43/2/2 50/2/2
f 47/2/2 48/2/2 51/2/2
f 48/2/2 46/2/2 52/2/2
f 51/2/2 48/2/2 52/2/2
f 53/3/2 54/3/2 59/3/2
f 55/3/2 56/3/2 60/3/2
f 60/3/2 56/3/2 61/3/2
f 57/3/2 58/3/2 62/3/2
f 60/3/2 61/3/2 63/3/2
f 61/3/2 62/3/2 63/3/2
f 53/3/2 59/3/2 63/3/2
f 59/3/2 60/3/2 63/3/2
f 62/3/2 58/3/2 64/3/2
f 63/3/2 62/3/2 64/3/2
f 65/1/2 66/1/2 67/1/2
f 67/1/2 66/1/2 68/1/2
f 67/4/2 68/4/2 69/4/2
f 69/4/2 68/4/2 70/4/2
f 71/2/2 72/2/2 73/2/2
f 73/2/2 72/2/2 74/2/2
f 77/3/3 76/3/3 75/3/3
f 78/3/3 76/3/3 77/3/3
f 81/2/3 80/2/3 79/2/3
f 82/2/3 80/2/3 81/2/3
f 85/3/3 84/3/3 83/3/3
f 86/3/3 84/3/3 85/3/3
f 90/1/3 88/1/3 87/1/3
f 90/4/3 89/4/3 88/4/3
f 91/4/3 89/4/3 90/4/3
f 94/1/3 90/1/3 87/1/3
f 94/1/3 91/1/3 90/1/3
f 94/1/3 92/1/3 91/1/3
f 95/4/3 93/4/3 92/4/3
f 95/1/3 92/1/3 94/1/3
f 96/4/3 93/4/3 95/4/3
f 99/3/3 98/3/3 97/3/3
f 100/3/3 98/3/3 99/3/3
f 103/3/3 102/3/3 101/3/3
f 104/3/3 102/3/3 103/3/3
f 107/3/3 106/3/3 105/3/3
f 108/3/3 106/3/3 107/3/3
f 109/3/4 110/3/4 111/3/4
f 111/3/4 110/3/4 112/3/4
f 113/2/4 114/2/4 117/2/4
f 115/2/4 116/2/4 117/2/4
f 114/2/4 115/2/4 117/2/4
f 117/2/4 116/2/4 118/2/4
f 119/3/4 120/3/4 121/3/4
f 121/3/4 120/3/4 122/3/4
f 122/3/4 120/3/4 123/3/4
f 124/3/4 125/3/4 127/3/4
f 125/3/4 126/3/4 127/3/4
f 127/3/4 126/3/4 128/3/4
f 129/1/4 130/1/4 132/1/4
f 130/4/4 131/4/4 132/4/4
f 132/4/4 131/4/4 133/4/4
f 129/1/4 132/1/4 136/1/4
f 132/1/4 133/1/4 136/1/4
f 133/1/4 134/1/4 136/1/4
f 134/4/4 135/4/4 137/4/4
f 136/1/4 134/1/4 137/1/4
f 137/4/4 135/4/4 138/4/4
f 139/3/4 140/3/4 141/3/4
f 141/3/4 140/3/4 142/3/4
f 143/3/4 144/3/4 145/3/4
f 145/3/4 144/3/4 146/3/4
f 149/3/5 148/3/5 147/3/5
f 150/3/5 148/3/5 149/3/5
f 151/3/5 148/3/5 150/3/5
f 154/2/5 150/2/5 149/2/5
f 157/2/5 153/2/5 152/2/5
f 158/2/5 153/2/5 157/2/5
f 159/3/5 149/3/5 147/3/5
f 160/2/5 154/2/5 149/2/5
f 160/3/5 149/3/5 159/3/5
f 161/3/5 155/3/5 154/3/5
f 161/2/5 154/2/5 160/2/5
f 162/3/5 155/3/5 161/3/5
f 163/3/5 161/3/5 160/3/5
f 164/3/5 161/3/5 163/3/5
f 166/2/5 164/2/5 163/2/5
f 167/1/5 157/1/5 156/1/5
f 168/1/5 157/1/5 167/1/5
f 169/3/5 166/3/5 165/3/5
f 170/2/5 164/2/5 166/2/5
f 170/3/5 166/3/5 169/3/5
f 172/2/5 164/2/5 170/2/5
f 173/2/5 164/2/5 172/2/5
f 175/3/5 172/3/5 171/3/5
f 175/3/5 174/3/5 173/3/5
f 175/3/5 173/3/5 172/3/5
f 176/3/5 174/3/5 175/3/5
f 179/3/5 178/3/5 177/3/5
f 180/3/5 178/3/5 179/3/5
f 185/3/5 182/3/5 181/3/5
f 186/3/5 182/3/5 185/3/5
f 189/3/5 188/3/5 187/3/5
f 190/3/5 188/3/5 189/3/5
f 191/3/5 184/3/5 183/3/5
f 192/3/5 184/3/5 191/3/5
f 193/4/6 194/4/6 195/4/6
f 195/4/6 194/4/6 196/4/6
f 197/4/6 198/4/6 199/4/6
f 199/4/6 198/4/6 200/4/6
f 201/2/6 202/2/6 203/2/6
f 203/2/6 202/2/6 204/2/6
f 205/3/6 206/3/6 207/3/6
f 207/3/6 206/3/6 208/3/6
