# MagicaVoxel @ Ephtracy

# group
g Electrocity-16

# material
mtllib Electrocity-16.mtl
usemtl palette

# normals
vn -1 0 0
vn 1 0 0
vn 0 0 1
vn 0 0 -1
vn 0 -1 0
vn 0 1 0

# texcoords
vt 0.0566406 0.5
vt 0.0605469 0.5

# verts
v -40 0 7
v -40 0 5
v -40 16 7
v -40 16 5
v -39 0 8
v -39 0 7
v -39 0 5
v -39 0 4
v -39 7 8
v -39 7 7
v -39 7 5
v -39 7 4
v -39 9 8
v -39 9 7
v -39 9 5
v -39 9 4
v -39 15 8
v -39 15 7
v -39 15 5
v -39 15 4
v -38 0 9
v -38 0 8
v -38 0 4
v -38 0 3
v -38 2 9
v -38 2 8
v -38 2 4
v -38 2 3
v -30 2 8
v -30 2 7
v -30 2 5
v -30 2 4
v -30 7 8
v -30 7 7
v -30 7 5
v -30 7 4
v -30 9 8
v -30 9 7
v -30 9 5
v -30 9 4
v -30 14 8
v -30 14 7
v -30 14 5
v -30 14 4
v -38 2 8
v -38 2 7
v -38 2 5
v -38 2 4
v -38 7 8
v -38 7 7
v -38 7 5
v -38 7 4
v -38 9 8
v -38 9 7
v -38 9 5
v -38 9 4
v -38 14 8
v -38 14 7
v -38 14 5
v -38 14 4
v -30 0 9
v -30 0 8
v -30 0 4
v -30 0 3
v -30 2 9
v -30 2 8
v -30 2 4
v -30 2 3
v -29 0 8
v -29 0 7
v -29 0 5
v -29 0 4
v -29 7 8
v -29 7 7
v -29 7 5
v -29 7 4
v -29 9 8
v -29 9 7
v -29 9 5
v -29 9 4
v -29 15 8
v -29 15 7
v -29 15 5
v -29 15 4
v -28 0 7
v -28 0 5
v -28 16 7
v -28 16 5
v -38 0 9
v -38 2 9
v -30 0 9
v -30 2 9
v -39 0 8
v -39 7 8
v -39 9 8
v -39 15 8
v -38 0 8
v -38 2 8
v -38 7 8
v -38 9 8
v -38 14 8
v -30 0 8
v -30 2 8
v -30 7 8
v -30 9 8
v -30 14 8
v -29 0 8
v -29 7 8
v -29 9 8
v -29 15 8
v -40 0 7
v -40 16 7
v -39 0 7
v -39 7 7
v -39 9 7
v -39 15 7
v -29 0 7
v -29 7 7
v -29 9 7
v -29 15 7
v -28 0 7
v -28 16 7
v -40 0 5
v -40 16 5
v -39 0 5
v -39 7 5
v -39 9 5
v -39 15 5
v -29 0 5
v -29 7 5
v -29 9 5
v -29 15 5
v -28 0 5
v -28 16 5
v -39 0 4
v -39 7 4
v -39 9 4
v -39 15 4
v -38 0 4
v -38 2 4
v -38 7 4
v -38 9 4
v -38 14 4
v -30 0 4
v -30 2 4
v -30 7 4
v -30 9 4
v -30 14 4
v -29 0 4
v -29 7 4
v -29 9 4
v -29 15 4
v -38 0 3
v -38 2 3
v -30 0 3
v -30 2 3
v -38 0 9
v -30 0 9
v -39 0 8
v -38 0 8
v -30 0 8
v -29 0 8
v -40 0 7
v -39 0 7
v -29 0 7
v -28 0 7
v -40 0 5
v -39 0 5
v -29 0 5
v -28 0 5
v -39 0 4
v -38 0 4
v -30 0 4
v -29 0 4
v -38 0 3
v -30 0 3
v -38 14 8
v -30 14 8
v -38 14 7
v -30 14 7
v -38 14 5
v -30 14 5
v -38 14 4
v -30 14 4
v -38 2 9
v -30 2 9
v -38 2 8
v -30 2 8
v -38 2 7
v -30 2 7
v -38 2 5
v -30 2 5
v -38 2 4
v -30 2 4
v -38 2 3
v -30 2 3
v -39 15 8
v -29 15 8
v -39 15 7
v -29 15 7
v -39 15 5
v -29 15 5
v -39 15 4
v -29 15 4
v -40 16 7
v -28 16 7
v -40 16 5
v -28 16 5

# faces
f 3/2/1 2/2/1 1/2/1
f 4/2/1 2/2/1 3/2/1
f 9/1/1 6/1/1 5/1/1
f 10/1/1 6/1/1 9/1/1
f 11/1/1 8/1/1 7/1/1
f 12/1/1 8/1/1 11/1/1
f 13/2/1 10/2/1 9/2/1
f 14/2/1 10/2/1 13/2/1
f 15/2/1 12/2/1 11/2/1
f 16/2/1 12/2/1 15/2/1
f 17/1/1 14/1/1 13/1/1
f 18/1/1 14/1/1 17/1/1
f 19/1/1 16/1/1 15/1/1
f 20/1/1 16/1/1 19/1/1
f 25/1/1 22/1/1 21/1/1
f 26/1/1 22/1/1 25/1/1
f 27/1/1 24/1/1 23/1/1
f 28/1/1 24/1/1 27/1/1
f 33/1/1 30/1/1 29/1/1
f 34/2/1 31/2/1 30/2/1
f 34/1/1 30/1/1 33/1/1
f 35/1/1 32/1/1 31/1/1
f 35/2/1 31/2/1 34/2/1
f 36/1/1 32/1/1 35/1/1
f 37/2/1 34/2/1 33/2/1
f 37/2/1 35/2/1 34/2/1
f 37/2/1 36/2/1 35/2/1
f 38/2/1 36/2/1 37/2/1
f 39/2/1 36/2/1 38/2/1
f 40/2/1 36/2/1 39/2/1
f 41/1/1 38/1/1 37/1/1
f 42/2/1 39/2/1 38/2/1
f 42/1/1 38/1/1 41/1/1
f 43/1/1 40/1/1 39/1/1
f 43/2/1 39/2/1 42/2/1
f 44/1/1 40/1/1 43/1/1
f 45/1/2 46/1/2 49/1/2
f 46/2/2 47/2/2 50/2/2
f 49/1/2 46/1/2 50/1/2
f 47/1/2 48/1/2 51/1/2
f 50/2/2 47/2/2 51/2/2
f 51/1/2 48/1/2 52/1/2
f 49/2/2 50/2/2 53/2/2
f 50/2/2 51/2/2 53/2/2
f 51/2/2 52/2/2 53/2/2
f 53/2/2 52/2/2 54/2/2
f 54/2/2 52/2/2 55/2/2
f 55/2/2 52/2/2 56/2/2
f 53/1/2 54/1/2 57/1/2
f 54/2/2 55/2/2 58/2/2
f 57/1/2 54/1/2 58/1/2
f 55/1/2 56/1/2 59/1/2
f 58/2/2 55/2/2 59/2/2
f 59/1/2 56/1/2 60/1/2
f 61/1/2 62/1/2 65/1/2
f 65/1/2 62/1/2 66/1/2
f 63/1/2 64/1/2 67/1/2
f 67/1/2 64/1/2 68/1/2
f 69/1/2 70/1/2 73/1/2
f 73/1/2 70/1/2 74/1/2
f 71/1/2 72/1/2 75/1/2
f 75/1/2 72/1/2 76/1/2
f 73/2/2 74/2/2 77/2/2
f 77/2/2 74/2/2 78/2/2
f 75/2/2 76/2/2 79/2/2
f 79/2/2 76/2/2 80/2/2
f 77/1/2 78/1/2 81/1/2
f 81/1/2 78/1/2 82/1/2
f 79/1/2 80/1/2 83/1/2
f 83/1/2 80/1/2 84/1/2
f 85/2/2 86/2/2 87/2/2
f 87/2/2 86/2/2 88/2/2
f 91/1/3 90/1/3 89/1/3
f 92/1/3 90/1/3 91/1/3
f 97/1/3 94/1/3 93/1/3
f 98/1/3 94/1/3 97/1/3
f 99/2/3 95/2/3 94/2/3
f 99/1/3 94/1/3 98/1/3
f 100/1/3 96/1/3 95/1/3
f 100/2/3 95/2/3 99/2/3
f 101/1/3 96/1/3 100/1/3
f 106/1/3 96/1/3 101/1/3
f 107/1/3 103/1/3 102/1/3
f 107/1/3 104/1/3 103/1/3
f 108/2/3 105/2/3 104/2/3
f 108/1/3 104/1/3 107/1/3
f 109/1/3 106/1/3 105/1/3
f 109/2/3 105/2/3 108/2/3
f 110/1/3 96/1/3 106/1/3
f 110/1/3 106/1/3 109/1/3
f 113/2/3 112/2/3 111/2/3
f 114/2/3 112/2/3 113/2/3
f 115/2/3 112/2/3 114/2/3
f 116/2/3 112/2/3 115/2/3
f 120/2/3 112/2/3 116/2/3
f 121/2/3 119/2/3 118/2/3
f 121/2/3 120/2/3 119/2/3
f 121/2/3 118/2/3 117/2/3
f 122/2/3 112/2/3 120/2/3
f 122/2/3 120/2/3 121/2/3
f 123/2/4 124/2/4 125/2/4
f 125/2/4 124/2/4 126/2/4
f 126/2/4 124/2/4 127/2/4
f 127/2/4 124/2/4 128/2/4
f 128/2/4 124/2/4 132/2/4
f 130/2/4 131/2/4 133/2/4
f 131/2/4 132/2/4 133/2/4
f 129/2/4 130/2/4 133/2/4
f 132/2/4 124/2/4 134/2/4
f 133/2/4 132/2/4 134/2/4
f 135/1/4 136/1/4 139/1/4
f 139/1/4 136/1/4 140/1/4
f 136/2/4 137/2/4 141/2/4
f 140/1/4 136/1/4 141/1/4
f 137/1/4 138/1/4 142/1/4
f 141/2/4 137/2/4 142/2/4
f 142/1/4 138/1/4 143/1/4
f 143/1/4 138/1/4 148/1/4
f 144/1/4 145/1/4 149/1/4
f 145/1/4 146/1/4 149/1/4
f 146/2/4 147/2/4 150/2/4
f 149/1/4 146/1/4 150/1/4
f 147/1/4 148/1/4 151/1/4
f 150/2/4 147/2/4 151/2/4
f 148/1/4 138/1/4 152/1/4
f 151/1/4 148/1/4 152/1/4
f 153/1/4 154/1/4 155/1/4
f 155/1/4 154/1/4 156/1/4
f 160/1/5 158/1/5 157/1/5
f 161/1/5 158/1/5 160/1/5
f 164/1/5 160/1/5 159/1/5
f 164/1/5 162/1/5 161/1/5
f 164/1/5 161/1/5 160/1/5
f 165/1/5 162/1/5 164/1/5
f 167/2/5 164/2/5 163/2/5
f 167/2/5 166/2/5 165/2/5
f 167/2/5 165/2/5 164/2/5
f 168/2/5 166/2/5 167/2/5
f 169/2/5 166/2/5 168/2/5
f 170/2/5 166/2/5 169/2/5
f 171/1/5 169/1/5 168/1/5
f 172/1/5 169/1/5 171/1/5
f 173/1/5 169/1/5 172/1/5
f 174/1/5 169/1/5 173/1/5
f 175/1/5 173/1/5 172/1/5
f 176/1/5 173/1/5 175/1/5
f 179/1/5 178/1/5 177/1/5
f 180/1/5 178/1/5 179/1/5
f 181/2/5 180/2/5 179/2/5
f 182/2/5 180/2/5 181/2/5
f 183/1/5 182/1/5 181/1/5
f 184/1/5 182/1/5 183/1/5
f 185/1/6 186/1/6 187/1/6
f 187/1/6 186/1/6 188/1/6
f 187/1/6 188/1/6 189/1/6
f 189/1/6 188/1/6 190/1/6
f 189/2/6 190/2/6 191/2/6
f 191/2/6 190/2/6 192/2/6
f 191/1/6 192/1/6 193/1/6
f 193/1/6 192/1/6 194/1/6
f 193/1/6 194/1/6 195/1/6
f 195/1/6 194/1/6 196/1/6
f 197/1/6 198/1/6 199/1/6
f 199/1/6 198/1/6 200/1/6
f 201/1/6 202/1/6 203/1/6
f 203/1/6 202/1/6 204/1/6
f 205/2/6 206/2/6 207/2/6
f 207/2/6 206/2/6 208/2/6
