# MagicaVoxel @ Ephtracy

# group
g Electrocity-53

# material
mtllib Electrocity-53.mtl
usemtl palette

# normals
vn -1 0 0
vn 1 0 0
vn 0 0 1
vn 0 0 -1
vn 0 -1 0
vn 0 1 0

# texcoords
vt 0.0292969 0.5
vt 0.0488281 0.5

# verts
v -44 0 36
v -44 0 -36
v -44 2 36
v -44 2 -36
v -44 4 36
v -44 4 -32
v -44 8 -32
v -44 8 -36
v 40 4 36
v 40 4 -32
v 40 8 36
v 40 8 -32
v 44 0 36
v 44 0 -36
v 44 2 36
v 44 2 -32
v 44 8 36
v 44 8 -32
v 44 8 -36
v -44 0 36
v -44 2 36
v -44 4 36
v 40 4 36
v 40 8 36
v 44 0 36
v 44 2 36
v 44 8 36
v -44 4 -32
v -44 8 -32
v 40 4 -32
v 40 8 -32
v -44 0 -36
v -44 2 -36
v -44 8 -36
v 40 2 -36
v 40 8 -36
v 44 0 -36
v 44 8 -36
v -44 0 36
v 44 0 36
v -44 0 -36
v 44 0 -36
v -44 4 36
v 40 4 36
v -44 4 -32
v 40 4 -32
v 40 8 36
v 44 8 36
v -44 8 -32
v 40 8 -32
v 44 8 -32
v -44 8 -36
v 40 8 -36
v 44 8 -36

# faces
f 3/2/1 2/2/1 1/2/1
f 4/2/1 2/2/1 3/2/1
f 5/1/1 4/1/1 3/1/1
f 6/1/1 4/1/1 5/1/1
f 7/1/1 4/1/1 6/1/1
f 8/1/1 4/1/1 7/1/1
f 11/1/1 10/1/1 9/1/1
f 12/1/1 10/1/1 11/1/1
f 13/2/2 14/2/2 15/2/2
f 15/2/2 14/2/2 16/2/2
f 15/1/2 16/1/2 17/1/2
f 16/2/2 14/2/2 18/2/2
f 17/1/2 16/1/2 18/1/2
f 18/2/2 14/2/2 19/2/2
f 23/1/3 22/1/3 21/1/3
f 25/2/3 21/2/3 20/2/3
f 26/1/3 24/1/3 23/1/3
f 26/2/3 21/2/3 25/2/3
f 26/1/3 23/1/3 21/1/3
f 27/1/3 24/1/3 26/1/3
f 30/1/3 29/1/3 28/1/3
f 31/1/3 29/1/3 30/1/3
f 32/2/4 33/2/4 35/2/4
f 33/1/4 34/1/4 35/1/4
f 35/1/4 34/1/4 36/1/4
f 32/2/4 35/2/4 37/2/4
f 35/2/4 36/2/4 37/2/4
f 37/2/4 36/2/4 38/2/4
f 41/2/5 40/2/5 39/2/5
f 42/2/5 40/2/5 41/2/5
f 43/1/6 44/1/6 45/1/6
f 45/1/6 44/1/6 46/1/6
f 47/1/6 48/1/6 50/1/6
f 50/1/6 48/1/6 51/1/6
f 49/1/6 50/1/6 52/1/6
f 50/2/6 51/2/6 53/2/6
f 52/1/6 50/1/6 53/1/6
f 53/2/6 51/2/6 54/2/6
