# MagicaVoxel @ Ephtracy

# group
g Electrocity-44

# material
mtllib Electrocity-44.mtl
usemtl palette

# normals
vn -1 0 0
vn 1 0 0
vn 0 0 1
vn 0 0 -1
vn 0 -1 0
vn 0 1 0

# texcoords
vt 0.0527344 0.5
vt 0.0566406 0.5
vt 0.0605469 0.5
vt 0.951172 0.5

# verts
v -44 0 -20
v -44 0 -24
v -44 1 -20
v -44 1 -24
v -43 1 -21
v -43 1 -23
v -43 3 -21
v -43 3 -23
v -43 5 -21
v -43 5 -23
v -43 6 -15
v -43 6 -21
v -43 8 -15
v -43 8 -23
v -39 0 -20
v -39 0 -24
v -39 1 -20
v -39 1 -24
v -38 1 -21
v -38 1 -23
v -38 3 -21
v -38 3 -23
v -38 5 -21
v -38 5 -23
v -38 6 -17
v -38 6 -21
v -38 8 -17
v -38 8 -23
v -37 8 -15
v -37 8 -17
v -37 9 -15
v -37 9 -17
v -37 10 -20
v -37 10 -21
v -37 14 -20
v -37 14 -21
v -36 2 -15
v -36 2 -17
v -36 6 -15
v -36 6 -17
v -36 9 -15
v -36 9 -17
v -36 9 -20
v -36 9 -21
v -36 10 -20
v -36 10 -21
v -36 14 -4
v -36 14 -7
v -36 14 -15
v -36 14 -20
v -36 14 -21
v -36 15 -20
v -36 15 -21
v -36 16 -4
v -36 16 -7
v -36 16 -17
v -35 1 -15
v -35 1 -17
v -35 2 -14
v -35 2 -15
v -35 2 -17
v -35 2 -18
v -35 10 -20
v -35 10 -21
v -35 11 -17
v -35 11 -18
v -35 11 -20
v -35 11 -21
v -35 13 -4
v -35 13 -7
v -35 13 -10
v -35 13 -14
v -35 13 -17
v -35 13 -18
v -35 13 -20
v -35 13 -21
v -35 14 -4
v -35 14 -7
v -35 14 -10
v -35 14 -14
v -35 14 -15
v -35 14 -20
v -35 14 -21
v -35 16 -4
v -35 16 -7
v -35 16 -10
v -35 16 -14
v -35 16 -17
v -35 16 -18
v -35 17 -4
v -35 17 -7
v -35 17 -10
v -35 17 -14
v -35 17 -17
v -33 0 -20
v -33 0 -24
v -33 1 -20
v -33 1 -24
v -32 1 -21
v -32 1 -23
v -32 3 -21
v -32 3 -23
v -32 5 -21
v -32 5 -23
v -32 6 -17
v -32 6 -21
v -32 8 -17
v -32 8 -23
v -32 10 -20
v -32 10 -21
v -32 11 -20
v -32 11 -21
v -32 13 -20
v -32 13 -21
v -32 14 -20
v -32 14 -21
v -28 0 -20
v -28 0 -24
v -28 1 -20
v -28 1 -24
v -27 1 -21
v -27 1 -23
v -27 3 -21
v -27 3 -23
v -27 5 -21
v -27 5 -23
v -27 6 -17
v -27 6 -21
v -27 8 -17
v -27 8 -23
v -41 1 -21
v -41 1 -23
v -41 3 -21
v -41 3 -23
v -41 5 -21
v -41 5 -23
v -41 6 -17
v -41 6 -21
v -41 8 -17
v -41 8 -23
v -40 0 -20
v -40 0 -24
v -40 1 -20
v -40 1 -24
v -36 1 -21
v -36 1 -23
v -36 3 -21
v -36 3 -23
v -36 5 -21
v -36 5 -23
v -36 6 -17
v -36 6 -21
v -36 8 -17
v -36 8 -23
v -36 10 -20
v -36 10 -21
v -36 11 -20
v -36 11 -21
v -36 13 -20
v -36 13 -21
v -36 14 -20
v -36 14 -21
v -35 0 -20
v -35 0 -24
v -35 1 -20
v -35 1 -24
v -33 1 -15
v -33 1 -17
v -33 2 -14
v -33 2 -15
v -33 2 -17
v -33 2 -18
v -33 10 -20
v -33 10 -21
v -33 11 -17
v -33 11 -18
v -33 11 -20
v -33 11 -21
v -33 13 -4
v -33 13 -7
v -33 13 -10
v -33 13 -14
v -33 13 -17
v -33 13 -18
v -33 13 -20
v -33 13 -21
v -33 14 -4
v -33 14 -7
v -33 14 -10
v -33 14 -14
v -33 14 -15
v -33 14 -20
v -33 14 -21
v -33 16 -4
v -33 16 -7
v -33 16 -10
v -33 16 -14
v -33 16 -17
v -33 16 -18
v -33 17 -4
v -33 17 -7
v -33 17 -10
v -33 17 -14
v -33 17 -17
v -32 2 -15
v -32 2 -17
v -32 6 -15
v -32 6 -17
v -32 9 -15
v -32 9 -17
v -32 9 -20
v -32 9 -21
v -32 10 -20
v -32 10 -21
v -32 14 -4
v -32 14 -7
v -32 14 -15
v -32 14 -20
v -32 14 -21
v -32 15 -20
v -32 15 -21
v -32 16 -4
v -32 16 -7
v -32 16 -17
v -31 8 -15
v -31 8 -17
v -31 9 -15
v -31 9 -17
v -31 10 -20
v -31 10 -21
v -31 14 -20
v -31 14 -21
v -30 1 -21
v -30 1 -23
v -30 3 -21
v -30 3 -23
v -30 5 -21
v -30 5 -23
v -30 6 -17
v -30 6 -21
v -30 8 -17
v -30 8 -23
v -29 0 -20
v -29 0 -24
v -29 1 -20
v -29 1 -24
v -25 1 -21
v -25 1 -23
v -25 3 -21
v -25 3 -23
v -25 5 -21
v -25 5 -23
v -25 6 -15
v -25 6 -21
v -25 8 -15
v -25 8 -23
v -24 0 -20
v -24 0 -24
v -24 1 -20
v -24 1 -24
v -36 14 -4
v -36 16 -4
v -35 13 -4
v -35 14 -4
v -35 16 -4
v -35 17 -4
v -33 13 -4
v -33 14 -4
v -33 16 -4
v -33 17 -4
v -32 14 -4
v -32 16 -4
v -35 2 -14
v -35 13 -14
v -33 2 -14
v -33 13 -14
v -43 6 -15
v -43 8 -15
v -37 8 -15
v -37 9 -15
v -36 2 -15
v -36 6 -15
v -36 9 -15
v -36 14 -15
v -35 1 -15
v -35 2 -15
v -35 14 -15
v -33 1 -15
v -33 2 -15
v -33 14 -15
v -32 2 -15
v -32 6 -15
v -32 9 -15
v -32 14 -15
v -31 8 -15
v -31 9 -15
v -25 6 -15
v -25 8 -15
v -44 0 -20
v -44 1 -20
v -40 0 -20
v -40 1 -20
v -39 0 -20
v -39 1 -20
v -37 10 -20
v -37 14 -20
v -36 9 -20
v -36 10 -20
v -36 11 -20
v -36 13 -20
v -36 14 -20
v -36 15 -20
v -35 0 -20
v -35 1 -20
v -35 10 -20
v -35 11 -20
v -35 13 -20
v -35 14 -20
v -33 0 -20
v -33 1 -20
v -33 10 -20
v -33 11 -20
v -33 13 -20
v -33 14 -20
v -32 9 -20
v -32 10 -20
v -32 11 -20
v -32 13 -20
v -32 14 -20
v -32 15 -20
v -31 10 -20
v -31 14 -20
v -29 0 -20
v -29 1 -20
v -28 0 -20
v -28 1 -20
v -24 0 -20
v -24 1 -20
v -43 1 -21
v -43 3 -21
v -43 5 -21
v -43 6 -21
v -41 1 -21
v -41 3 -21
v -41 5 -21
v -41 6 -21
v -38 1 -21
v -38 3 -21
v -38 5 -21
v -38 6 -21
v -36 1 -21
v -36 3 -21
v -36 5 -21
v -36 6 -21
v -32 1 -21
v -32 3 -21
v -32 5 -21
v -32 6 -21
v -30 1 -21
v -30 3 -21
v -30 5 -21
v -30 6 -21
v -27 1 -21
v -27 3 -21
v -27 5 -21
v -27 6 -21
v -25 1 -21
v -25 3 -21
v -25 5 -21
v -25 6 -21
v -41 6 -17
v -41 8 -17
v -38 6 -17
v -38 8 -17
v -37 8 -17
v -37 9 -17
v -36 2 -17
v -36 6 -17
v -36 8 -17
v -36 9 -17
v -36 16 -17
v -35 1 -17
v -35 2 -17
v -35 11 -17
v -35 13 -17
v -35 16 -17
v -35 17 -17
v -33 1 -17
v -33 2 -17
v -33 11 -17
v -33 13 -17
v -33 16 -17
v -33 17 -17
v -32 2 -17
v -32 6 -17
v -32 8 -17
v -32 9 -17
v -32 16 -17
v -31 8 -17
v -31 9 -17
v -30 6 -17
v -30 8 -17
v -27 6 -17
v -27 8 -17
v -35 2 -18
v -35 11 -18
v -35 13 -18
v -35 16 -18
v -33 2 -18
v -33 11 -18
v -33 13 -18
v -33 16 -18
v -37 10 -21
v -37 14 -21
v -36 9 -21
v -36 10 -21
v -36 11 -21
v -36 13 -21
v -36 14 -21
v -36 15 -21
v -35 10 -21
v -35 11 -21
v -35 13 -21
v -35 14 -21
v -33 10 -21
v -33 11 -21
v -33 13 -21
v -33 14 -21
v -32 9 -21
v -32 10 -21
v -32 11 -21
v -32 13 -21
v -32 14 -21
v -32 15 -21
v -31 10 -21
v -31 14 -21
v -43 1 -23
v -43 3 -23
v -43 5 -23
v -43 8 -23
v -41 1 -23
v -41 3 -23
v -41 5 -23
v -41 8 -23
v -38 1 -23
v -38 3 -23
v -38 5 -23
v -38 8 -23
v -36 1 -23
v -36 3 -23
v -36 5 -23
v -36 8 -23
v -32 1 -23
v -32 3 -23
v -32 5 -23
v -32 8 -23
v -30 1 -23
v -30 3 -23
v -30 5 -23
v -30 8 -23
v -27 1 -23
v -27 3 -23
v -27 5 -23
v -27 8 -23
v -25 1 -23
v -25 3 -23
v -25 5 -23
v -25 8 -23
v -44 0 -24
v -44 1 -24
v -40 0 -24
v -40 1 -24
v -39 0 -24
v -39 1 -24
v -35 0 -24
v -35 1 -24
v -33 0 -24
v -33 1 -24
v -29 0 -24
v -29 1 -24
v -28 0 -24
v -28 1 -24
v -24 0 -24
v -24 1 -24
v -44 0 -20
v -40 0 -20
v -39 0 -20
v -35 0 -20
v -33 0 -20
v -29 0 -20
v -28 0 -20
v -24 0 -20
v -44 0 -24
v -40 0 -24
v -39 0 -24
v -35 0 -24
v -33 0 -24
v -29 0 -24
v -28 0 -24
v -24 0 -24
v -35 1 -15
v -33 1 -15
v -35 1 -17
v -33 1 -17
v -35 2 -14
v -33 2 -14
v -36 2 -15
v -35 2 -15
v -33 2 -15
v -32 2 -15
v -36 2 -17
v -35 2 -17
v -33 2 -17
v -32 2 -17
v -35 2 -18
v -33 2 -18
v -43 6 -15
v -36 6 -15
v -32 6 -15
v -25 6 -15
v -41 6 -17
v -38 6 -17
v -36 6 -17
v -32 6 -17
v -30 6 -17
v -27 6 -17
v -43 6 -21
v -41 6 -21
v -38 6 -21
v -36 6 -21
v -32 6 -21
v -30 6 -21
v -27 6 -21
v -25 6 -21
v -36 9 -20
v -32 9 -20
v -36 9 -21
v -32 9 -21
v -37 10 -20
v -36 10 -20
v -32 10 -20
v -31 10 -20
v -37 10 -21
v -36 10 -21
v -32 10 -21
v -31 10 -21
v -35 11 -18
v -33 11 -18
v -36 11 -20
v -35 11 -20
v -33 11 -20
v -32 11 -20
v -36 11 -21
v -35 11 -21
v -33 11 -21
v -32 11 -21
v -35 13 -4
v -33 13 -4
v -35 13 -7
v -33 13 -7
v -35 13 -10
v -33 13 -10
v -35 13 -14
v -33 13 -14
v -36 14 -4
v -35 14 -4
v -33 14 -4
v -32 14 -4
v -36 14 -7
v -35 14 -7
v -33 14 -7
v -32 14 -7
v -35 14 -10
v -33 14 -10
v -35 14 -14
v -33 14 -14
v -36 14 -15
v -35 14 -15
v -33 14 -15
v -32 14 -15
v -36 14 -20
v -35 14 -20
v -33 14 -20
v -32 14 -20
v -36 14 -21
v -35 14 -21
v -33 14 -21
v -32 14 -21
v -44 1 -20
v -40 1 -20
v -39 1 -20
v -35 1 -20
v -33 1 -20
v -29 1 -20
v -28 1 -20
v -24 1 -20
v -43 1 -21
v -41 1 -21
v -38 1 -21
v -36 1 -21
v -32 1 -21
v -30 1 -21
v -27 1 -21
v -25 1 -21
v -43 1 -23
v -41 1 -23
v -38 1 -23
v -36 1 -23
v -32 1 -23
v -30 1 -23
v -27 1 -23
v -25 1 -23
v -44 1 -24
v -40 1 -24
v -39 1 -24
v -35 1 -24
v -33 1 -24
v -29 1 -24
v -28 1 -24
v -24 1 -24
v -43 8 -15
v -37 8 -15
v -31 8 -15
v -25 8 -15
v -41 8 -17
v -38 8 -17
v -37 8 -17
v -36 8 -17
v -32 8 -17
v -31 8 -17
v -30 8 -17
v -27 8 -17
v -43 8 -23
v -41 8 -23
v -38 8 -23
v -36 8 -23
v -32 8 -23
v -30 8 -23
v -27 8 -23
v -25 8 -23
v -37 9 -15
v -36 9 -15
v -32 9 -15
v -31 9 -15
v -37 9 -17
v -36 9 -17
v -32 9 -17
v -31 9 -17
v -36 10 -20
v -35 10 -20
v -33 10 -20
v -32 10 -20
v -36 10 -21
v -35 10 -21
v -33 10 -21
v -32 10 -21
v -35 13 -18
v -33 13 -18
v -36 13 -20
v -35 13 -20
v -33 13 -20
v -32 13 -20
v -36 13 -21
v -35 13 -21
v -33 13 -21
v -32 13 -21
v -37 14 -20
v -36 14 -20
v -32 14 -20
v -31 14 -20
v -37 14 -21
v -36 14 -21
v -32 14 -21
v -31 14 -21
v -36 15 -20
v -32 15 -20
v -36 15 -21
v -32 15 -21
v -36 16 -4
v -35 16 -4
v -33 16 -4
v -32 16 -4
v -36 16 -7
v -35 16 -7
v -33 16 -7
v -32 16 -7
v -35 16 -10
v -33 16 -10
v -35 16 -14
v -33 16 -14
v -36 16 -17
v -35 16 -17
v -33 16 -17
v -32 16 -17
v -35 16 -18
v -33 16 -18
v -35 17 -4
v -33 17 -4
v -35 17 -7
v -33 17 -7
v -35 17 -10
v -33 17 -10
v -35 17 -14
v -33 17 -14
v -35 17 -17
v -33 17 -17

# faces
f 3/3/1 2/3/1 1/3/1
f 4/3/1 2/3/1 3/3/1
f 7/3/1 6/3/1 5/3/1
f 8/3/1 6/3/1 7/3/1
f 9/4/1 8/4/1 7/4/1
f 10/4/1 8/4/1 9/4/1
f 12/3/1 10/3/1 9/3/1
f 13/3/1 12/3/1 11/3/1
f 14/3/1 10/3/1 12/3/1
f 14/3/1 12/3/1 13/3/1
f 17/3/1 16/3/1 15/3/1
f 18/3/1 16/3/1 17/3/1
f 21/3/1 20/3/1 19/3/1
f 22/3/1 20/3/1 21/3/1
f 23/4/1 22/4/1 21/4/1
f 24/4/1 22/4/1 23/4/1
f 26/3/1 24/3/1 23/3/1
f 27/3/1 26/3/1 25/3/1
f 28/3/1 24/3/1 26/3/1
f 28/3/1 26/3/1 27/3/1
f 31/3/1 30/3/1 29/3/1
f 32/3/1 30/3/1 31/3/1
f 35/1/1 34/1/1 33/1/1
f 36/1/1 34/1/1 35/1/1
f 39/3/1 38/3/1 37/3/1
f 40/3/1 38/3/1 39/3/1
f 45/1/1 44/1/1 43/1/1
f 46/1/1 44/1/1 45/1/1
f 49/3/1 42/3/1 41/3/1
f 52/1/1 51/1/1 50/1/1
f 53/1/1 51/1/1 52/1/1
f 54/2/1 48/2/1 47/2/1
f 55/3/1 49/3/1 48/3/1
f 55/2/1 48/2/1 54/2/1
f 56/3/1 42/3/1 49/3/1
f 56/3/1 49/3/1 55/3/1
f 60/3/1 58/3/1 57/3/1
f 61/3/1 58/3/1 60/3/1
f 65/3/1 62/3/1 61/3/1
f 66/3/1 62/3/1 65/3/1
f 67/1/1 64/1/1 63/1/1
f 68/1/1 64/1/1 67/1/1
f 72/3/1 60/3/1 59/3/1
f 73/2/1 66/2/1 65/2/1
f 73/2/1 67/2/1 66/2/1
f 74/2/1 67/2/1 73/2/1
f 75/2/1 67/2/1 74/2/1
f 77/2/1 70/2/1 69/2/1
f 78/3/1 71/3/1 70/3/1
f 78/2/1 70/2/1 77/2/1
f 79/4/1 72/4/1 71/4/1
f 79/3/1 71/3/1 78/3/1
f 80/3/1 60/3/1 72/3/1
f 80/4/1 72/4/1 79/4/1
f 81/3/1 60/3/1 80/3/1
f 82/1/1 76/1/1 75/1/1
f 83/1/1 76/1/1 82/1/1
f 88/3/1 74/3/1 73/3/1
f 89/3/1 74/3/1 88/3/1
f 90/2/1 85/2/1 84/2/1
f 91/3/1 86/3/1 85/3/1
f 91/2/1 85/2/1 90/2/1
f 92/4/1 87/4/1 86/4/1
f 92/3/1 86/3/1 91/3/1
f 93/3/1 88/3/1 87/3/1
f 93/4/1 87/4/1 92/4/1
f 94/3/1 88/3/1 93/3/1
f 97/3/1 96/3/1 95/3/1
f 98/3/1 96/3/1 97/3/1
f 101/3/1 100/3/1 99/3/1
f 102/3/1 100/3/1 101/3/1
f 103/4/1 102/4/1 101/4/1
f 104/4/1 102/4/1 103/4/1
f 106/3/1 104/3/1 103/3/1
f 107/3/1 106/3/1 105/3/1
f 108/3/1 104/3/1 106/3/1
f 108/3/1 106/3/1 107/3/1
f 111/1/1 110/1/1 109/1/1
f 112/1/1 110/1/1 111/1/1
f 115/1/1 114/1/1 113/1/1
f 116/1/1 114/1/1 115/1/1
f 119/3/1 118/3/1 117/3/1
f 120/3/1 118/3/1 119/3/1
f 123/3/1 122/3/1 121/3/1
f 124/3/1 122/3/1 123/3/1
f 125/4/1 124/4/1 123/4/1
f 126/4/1 124/4/1 125/4/1
f 128/3/1 126/3/1 125/3/1
f 129/3/1 128/3/1 127/3/1
f 130/3/1 126/3/1 128/3/1
f 130/3/1 128/3/1 129/3/1
f 131/3/2 132/3/2 133/3/2
f 133/3/2 132/3/2 134/3/2
f 133/4/2 134/4/2 135/4/2
f 135/4/2 134/4/2 136/4/2
f 135/3/2 136/3/2 138/3/2
f 137/3/2 138/3/2 139/3/2
f 138/3/2 136/3/2 140/3/2
f 139/3/2 138/3/2 140/3/2
f 141/3/2 142/3/2 143/3/2
f 143/3/2 142/3/2 144/3/2
f 145/3/2 146/3/2 147/3/2
f 147/3/2 146/3/2 148/3/2
f 147/4/2 148/4/2 149/4/2
f 149/4/2 148/4/2 150/4/2
f 149/3/2 150/3/2 152/3/2
f 151/3/2 152/3/2 153/3/2
f 152/3/2 150/3/2 154/3/2
f 153/3/2 152/3/2 154/3/2
f 155/1/2 156/1/2 157/1/2
f 157/1/2 156/1/2 158/1/2
f 159/1/2 160/1/2 161/1/2
f 161/1/2 160/1/2 162/1/2
f 163/3/2 164/3/2 165/3/2
f 165/3/2 164/3/2 166/3/2
f 167/3/2 168/3/2 170/3/2
f 170/3/2 168/3/2 171/3/2
f 171/3/2 172/3/2 175/3/2
f 175/3/2 172/3/2 176/3/2
f 173/1/2 174/1/2 177/1/2
f 177/1/2 174/1/2 178/1/2
f 169/3/2 170/3/2 182/3/2
f 175/2/2 176/2/2 183/2/2
f 176/2/2 177/2/2 183/2/2
f 183/2/2 177/2/2 184/2/2
f 184/2/2 177/2/2 185/2/2
f 179/2/2 180/2/2 187/2/2
f 180/3/2 181/3/2 188/3/2
f 187/2/2 180/2/2 188/2/2
f 181/4/2 182/4/2 189/4/2
f 188/3/2 181/3/2 189/3/2
f 182/3/2 170/3/2 190/3/2
f 189/4/2 182/4/2 190/4/2
f 190/3/2 170/3/2 191/3/2
f 185/1/2 186/1/2 192/1/2
f 192/1/2 186/1/2 193/1/2
f 183/3/2 184/3/2 198/3/2
f 198/3/2 184/3/2 199/3/2
f 194/2/2 195/2/2 200/2/2
f 195/3/2 196/3/2 201/3/2
f 200/2/2 195/2/2 201/2/2
f 196/4/2 197/4/2 202/4/2
f 201/3/2 196/3/2 202/3/2
f 197/3/2 198/3/2 203/3/2
f 202/4/2 197/4/2 203/4/2
f 203/3/2 198/3/2 204/3/2
f 205/3/2 206/3/2 207/3/2
f 207/3/2 206/3/2 208/3/2
f 211/1/2 212/1/2 213/1/2
f 213/1/2 212/1/2 214/1/2
f 209/3/2 210/3/2 217/3/2
f 218/1/2 219/1/2 220/1/2
f 220/1/2 219/1/2 221/1/2
f 215/2/2 216/2/2 222/2/2
f 216/3/2 217/3/2 223/3/2
f 222/2/2 216/2/2 223/2/2
f 217/3/2 210/3/2 224/3/2
f 223/3/2 217/3/2 224/3/2
f 225/3/2 226/3/2 227/3/2
f 227/3/2 226/3/2 228/3/2
f 229/1/2 230/1/2 231/1/2
f 231/1/2 230/1/2 232/1/2
f 233/3/2 234/3/2 235/3/2
f 235/3/2 234/3/2 236/3/2
f 235/4/2 236/4/2 237/4/2
f 237/4/2 236/4/2 238/4/2
f 237/3/2 238/3/2 240/3/2
f 239/3/2 240/3/2 241/3/2
f 240/3/2 238/3/2 242/3/2
f 241/3/2 240/3/2 242/3/2
f 243/3/2 244/3/2 245/3/2
f 245/3/2 244/3/2 246/3/2
f 247/3/2 248/3/2 249/3/2
f 249/3/2 248/3/2 250/3/2
f 249/4/2 250/4/2 251/4/2
f 251/4/2 250/4/2 252/4/2
f 251/3/2 252/3/2 254/3/2
f 253/3/2 254/3/2 255/3/2
f 254/3/2 252/3/2 256/3/2
f 255/3/2 254/3/2 256/3/2
f 257/3/2 258/3/2 259/3/2
f 259/3/2 258/3/2 260/3/2
f 264/2/3 262/2/3 261/2/3
f 265/2/3 262/2/3 264/2/3
f 267/2/3 264/2/3 263/2/3
f 267/2/3 266/2/3 265/2/3
f 267/2/3 265/2/3 264/2/3
f 268/2/3 266/2/3 267/2/3
f 269/2/3 266/2/3 268/2/3
f 270/2/3 266/2/3 269/2/3
f 271/2/3 269/2/3 268/2/3
f 272/2/3 269/2/3 271/2/3
f 275/3/3 274/3/3 273/3/3
f 276/3/3 274/3/3 275/3/3
f 279/3/3 278/3/3 277/3/3
f 282/3/3 279/3/3 277/3/3
f 282/3/3 280/3/3 279/3/3
f 283/3/3 280/3/3 282/3/3
f 286/3/3 282/3/3 281/3/3
f 286/3/3 284/3/3 283/3/3
f 286/3/3 283/3/3 282/3/3
f 287/3/3 284/3/3 286/3/3
f 288/3/3 286/3/3 285/3/3
f 289/3/3 286/3/3 288/3/3
f 291/3/3 290/3/3 289/3/3
f 292/3/3 290/3/3 291/3/3
f 293/3/3 290/3/3 292/3/3
f 294/3/3 290/3/3 293/3/3
f 295/3/3 293/3/3 292/3/3
f 296/3/3 293/3/3 295/3/3
f 297/3/3 295/3/3 292/3/3
f 298/3/3 295/3/3 297/3/3
f 301/3/3 300/3/3 299/3/3
f 302/3/3 300/3/3 301/3/3
f 308/1/3 306/1/3 305/1/3
f 309/1/3 306/1/3 308/1/3
f 310/1/3 306/1/3 309/1/3
f 311/1/3 306/1/3 310/1/3
f 313/3/3 304/3/3 303/3/3
f 314/3/3 304/3/3 313/3/3
f 315/1/3 308/1/3 307/1/3
f 316/1/3 310/1/3 309/1/3
f 317/1/3 310/1/3 316/1/3
f 318/1/3 312/1/3 311/1/3
f 321/1/3 315/1/3 307/1/3
f 321/1/3 316/1/3 315/1/3
f 322/1/3 316/1/3 321/1/3
f 323/1/3 318/1/3 317/1/3
f 324/1/3 312/1/3 318/1/3
f 324/1/3 318/1/3 323/1/3
f 325/1/3 321/1/3 307/1/3
f 326/1/3 321/1/3 325/1/3
f 327/1/3 323/1/3 322/1/3
f 328/1/3 323/1/3 327/1/3
f 329/1/3 312/1/3 324/1/3
f 330/1/3 312/1/3 329/1/3
f 331/1/3 328/1/3 327/1/3
f 331/1/3 329/1/3 328/1/3
f 331/1/3 327/1/3 326/1/3
f 332/1/3 329/1/3 331/1/3
f 333/3/3 320/3/3 319/3/3
f 334/3/3 320/3/3 333/3/3
f 337/3/3 336/3/3 335/3/3
f 338/3/3 336/3/3 337/3/3
f 343/3/3 340/3/3 339/3/3
f 344/4/3 341/4/3 340/4/3
f 344/3/3 340/3/3 343/3/3
f 345/3/3 342/3/3 341/3/3
f 345/4/3 341/4/3 344/4/3
f 346/3/3 342/3/3 345/3/3
f 351/3/3 348/3/3 347/3/3
f 352/4/3 349/4/3 348/4/3
f 352/3/3 348/3/3 351/3/3
f 353/3/3 350/3/3 349/3/3
f 353/4/3 349/4/3 352/4/3
f 354/3/3 350/3/3 353/3/3
f 359/3/3 356/3/3 355/3/3
f 360/4/3 357/4/3 356/4/3
f 360/3/3 356/3/3 359/3/3
f 361/3/3 358/3/3 357/3/3
f 361/4/3 357/4/3 360/4/3
f 362/3/3 358/3/3 361/3/3
f 367/3/3 364/3/3 363/3/3
f 368/4/3 365/4/3 364/4/3
f 368/3/3 364/3/3 367/3/3
f 369/3/3 366/3/3 365/3/3
f 369/4/3 365/4/3 368/4/3
f 370/3/3 366/3/3 369/3/3
f 371/3/4 372/3/4 373/3/4
f 373/3/4 372/3/4 374/3/4
f 375/3/4 376/3/4 379/3/4
f 379/3/4 376/3/4 380/3/4
f 377/3/4 378/3/4 383/3/4
f 380/3/4 381/3/4 383/3/4
f 379/3/4 380/3/4 383/3/4
f 378/3/4 379/3/4 383/3/4
f 383/3/4 381/3/4 384/3/4
f 384/3/4 381/3/4 385/3/4
f 385/3/4 381/3/4 386/3/4
f 382/3/4 383/3/4 388/3/4
f 388/3/4 383/3/4 389/3/4
f 386/3/4 387/3/4 392/3/4
f 392/3/4 387/3/4 393/3/4
f 390/3/4 391/3/4 394/3/4
f 391/3/4 392/3/4 394/3/4
f 389/3/4 390/3/4 394/3/4
f 394/3/4 392/3/4 395/3/4
f 395/3/4 392/3/4 396/3/4
f 396/3/4 392/3/4 397/3/4
f 397/3/4 392/3/4 398/3/4
f 396/3/4 397/3/4 399/3/4
f 399/3/4 397/3/4 400/3/4
f 401/3/4 402/3/4 403/3/4
f 403/3/4 402/3/4 404/3/4
f 405/3/4 406/3/4 409/3/4
f 409/3/4 406/3/4 410/3/4
f 407/3/4 408/3/4 411/3/4
f 411/3/4 408/3/4 412/3/4
f 413/1/4 414/1/4 416/1/4
f 416/1/4 414/1/4 417/1/4
f 417/1/4 414/1/4 418/1/4
f 418/1/4 414/1/4 419/1/4
f 415/1/4 416/1/4 421/1/4
f 417/1/4 418/1/4 422/1/4
f 422/1/4 418/1/4 423/1/4
f 419/1/4 420/1/4 424/1/4
f 415/1/4 421/1/4 425/1/4
f 421/1/4 422/1/4 425/1/4
f 422/2/4 423/2/4 426/2/4
f 425/1/4 422/1/4 426/1/4
f 423/1/4 424/1/4 427/1/4
f 426/2/4 423/2/4 427/2/4
f 424/1/4 420/1/4 428/1/4
f 427/1/4 424/1/4 428/1/4
f 415/1/4 425/1/4 429/1/4
f 429/1/4 425/1/4 430/1/4
f 426/1/4 427/1/4 431/1/4
f 431/1/4 427/1/4 432/1/4
f 428/1/4 420/1/4 433/1/4
f 433/1/4 420/1/4 434/1/4
f 431/1/4 432/1/4 435/1/4
f 432/1/4 433/1/4 435/1/4
f 430/1/4 431/1/4 435/1/4
f 435/1/4 433/1/4 436/1/4
f 437/3/4 438/3/4 441/3/4
f 438/4/4 439/4/4 442/4/4
f 441/3/4 438/3/4 442/3/4
f 439/3/4 440/3/4 443/3/4
f 442/4/4 439/4/4 443/4/4
f 443/3/4 440/3/4 444/3/4
f 445/3/4 446/3/4 449/3/4
f 446/4/4 447/4/4 450/4/4
f 449/3/4 446/3/4 450/3/4
f 447/3/4 448/3/4 451/3/4
f 450/4/4 447/4/4 451/4/4
f 451/3/4 448/3/4 452/3/4
f 453/3/4 454/3/4 457/3/4
f 454/4/4 455/4/4 458/4/4
f 457/3/4 454/3/4 458/3/4
f 455/3/4 456/3/4 459/3/4
f 458/4/4 455/4/4 459/4/4
f 459/3/4 456/3/4 460/3/4
f 461/3/4 462/3/4 465/3/4
f 462/4/4 463/4/4 466/4/4
f 465/3/4 462/3/4 466/3/4
f 463/3/4 464/3/4 467/3/4
f 466/4/4 463/4/4 467/4/4
f 467/3/4 464/3/4 468/3/4
f 469/3/4 470/3/4 471/3/4
f 471/3/4 470/3/4 472/3/4
f 473/3/4 474/3/4 475/3/4
f 475/3/4 474/3/4 476/3/4
f 477/3/4 478/3/4 479/3/4
f 479/3/4 478/3/4 480/3/4
f 481/3/4 482/3/4 483/3/4
f 483/3/4 482/3/4 484/3/4
f 493/3/5 486/3/5 485/3/5
f 494/3/5 486/3/5 493/3/5
f 495/3/5 488/3/5 487/3/5
f 496/3/5 488/3/5 495/3/5
f 497/3/5 490/3/5 489/3/5
f 498/3/5 490/3/5 497/3/5
f 499/3/5 492/3/5 491/3/5
f 500/3/5 492/3/5 499/3/5
f 503/3/5 502/3/5 501/3/5
f 504/3/5 502/3/5 503/3/5
f 508/3/5 506/3/5 505/3/5
f 509/3/5 506/3/5 508/3/5
f 511/3/5 508/3/5 507/3/5
f 512/3/5 508/3/5 511/3/5
f 513/3/5 510/3/5 509/3/5
f 514/3/5 510/3/5 513/3/5
f 515/3/5 513/3/5 512/3/5
f 516/3/5 513/3/5 515/3/5
f 521/3/5 518/3/5 517/3/5
f 522/3/5 518/3/5 521/3/5
f 523/3/5 518/3/5 522/3/5
f 524/3/5 520/3/5 519/3/5
f 525/3/5 520/3/5 524/3/5
f 526/3/5 520/3/5 525/3/5
f 527/3/5 521/3/5 517/3/5
f 528/3/5 521/3/5 527/3/5
f 529/3/5 523/3/5 522/3/5
f 530/3/5 523/3/5 529/3/5
f 531/3/5 525/3/5 524/3/5
f 532/3/5 525/3/5 531/3/5
f 533/3/5 520/3/5 526/3/5
f 534/3/5 520/3/5 533/3/5
f 537/1/5 536/1/5 535/1/5
f 538/1/5 536/1/5 537/1/5
f 543/1/5 540/1/5 539/1/5
f 544/1/5 540/1/5 543/1/5
f 545/1/5 542/1/5 541/1/5
f 546/1/5 542/1/5 545/1/5
f 550/2/5 548/2/5 547/2/5
f 551/2/5 548/2/5 550/2/5
f 553/1/5 550/1/5 549/1/5
f 554/1/5 550/1/5 553/1/5
f 555/1/5 552/1/5 551/1/5
f 556/1/5 552/1/5 555/1/5
f 559/2/5 558/2/5 557/2/5
f 560/2/5 558/2/5 559/2/5
f 561/3/5 560/3/5 559/3/5
f 562/3/5 560/3/5 561/3/5
f 563/4/5 562/4/5 561/4/5
f 564/4/5 562/4/5 563/4/5
f 569/2/5 566/2/5 565/2/5
f 570/2/5 566/2/5 569/2/5
f 571/2/5 568/2/5 567/2/5
f 572/2/5 568/2/5 571/2/5
f 573/3/5 570/3/5 569/3/5
f 574/3/5 572/3/5 571/3/5
f 575/3/5 573/3/5 569/3/5
f 576/3/5 572/3/5 574/3/5
f 577/3/5 575/3/5 569/3/5
f 578/3/5 575/3/5 577/3/5
f 579/3/5 572/3/5 576/3/5
f 580/3/5 572/3/5 579/3/5
f 585/1/5 582/1/5 581/1/5
f 586/1/5 582/1/5 585/1/5
f 587/1/5 584/1/5 583/1/5
f 588/1/5 584/1/5 587/1/5
f 589/3/6 590/3/6 597/3/6
f 597/3/6 590/3/6 598/3/6
f 591/3/6 592/3/6 599/3/6
f 599/3/6 592/3/6 600/3/6
f 593/3/6 594/3/6 601/3/6
f 601/3/6 594/3/6 602/3/6
f 595/3/6 596/3/6 603/3/6
f 603/3/6 596/3/6 604/3/6
f 589/3/6 597/3/6 605/3/6
f 598/3/6 590/3/6 606/3/6
f 591/3/6 599/3/6 607/3/6
f 600/3/6 592/3/6 608/3/6
f 593/3/6 601/3/6 609/3/6
f 602/3/6 594/3/6 610/3/6
f 595/3/6 603/3/6 611/3/6
f 604/3/6 596/3/6 612/3/6
f 589/3/6 605/3/6 613/3/6
f 605/3/6 606/3/6 613/3/6
f 606/3/6 590/3/6 614/3/6
f 613/3/6 606/3/6 614/3/6
f 591/3/6 607/3/6 615/3/6
f 607/3/6 608/3/6 615/3/6
f 608/3/6 592/3/6 616/3/6
f 615/3/6 608/3/6 616/3/6
f 593/3/6 609/3/6 617/3/6
f 609/3/6 610/3/6 617/3/6
f 610/3/6 594/3/6 618/3/6
f 617/3/6 610/3/6 618/3/6
f 611/3/6 612/3/6 619/3/6
f 595/3/6 611/3/6 619/3/6
f 612/3/6 596/3/6 620/3/6
f 619/3/6 612/3/6 620/3/6
f 621/3/6 622/3/6 625/3/6
f 625/3/6 622/3/6 626/3/6
f 626/3/6 622/3/6 627/3/6
f 623/3/6 624/3/6 630/3/6
f 630/3/6 624/3/6 631/3/6
f 631/3/6 624/3/6 632/3/6
f 621/3/6 625/3/6 633/3/6
f 633/3/6 625/3/6 634/3/6
f 627/3/6 628/3/6 635/3/6
f 626/3/6 627/3/6 635/3/6
f 635/3/6 628/3/6 636/3/6
f 630/3/6 631/3/6 637/3/6
f 629/3/6 630/3/6 637/3/6
f 637/3/6 631/3/6 638/3/6
f 632/3/6 624/3/6 639/3/6
f 639/3/6 624/3/6 640/3/6
f 641/3/6 642/3/6 645/3/6
f 645/3/6 642/3/6 646/3/6
f 643/3/6 644/3/6 647/3/6
f 647/3/6 644/3/6 648/3/6
f 649/1/6 650/1/6 653/1/6
f 653/1/6 650/1/6 654/1/6
f 651/1/6 652/1/6 655/1/6
f 655/1/6 652/1/6 656/1/6
f 657/2/6 658/2/6 660/2/6
f 660/2/6 658/2/6 661/2/6
f 659/1/6 660/1/6 663/1/6
f 663/1/6 660/1/6 664/1/6
f 661/1/6 662/1/6 665/1/6
f 665/1/6 662/1/6 666/1/6
f 667/1/6 668/1/6 671/1/6
f 671/1/6 668/1/6 672/1/6
f 669/1/6 670/1/6 673/1/6
f 673/1/6 670/1/6 674/1/6
f 675/1/6 676/1/6 677/1/6
f 677/1/6 676/1/6 678/1/6
f 679/2/6 680/2/6 683/2/6
f 683/2/6 680/2/6 684/2/6
f 681/2/6 682/2/6 685/2/6
f 685/2/6 682/2/6 686/2/6
f 683/3/6 684/3/6 687/3/6
f 685/3/6 686/3/6 688/3/6
f 683/3/6 687/3/6 689/3/6
f 688/3/6 686/3/6 690/3/6
f 683/3/6 689/3/6 691/3/6
f 691/3/6 689/3/6 692/3/6
f 690/3/6 686/3/6 693/3/6
f 693/3/6 686/3/6 694/3/6
f 692/3/6 693/3/6 695/3/6
f 695/3/6 693/3/6 696/3/6
f 697/2/6 698/2/6 699/2/6
f 699/2/6 698/2/6 700/2/6
f 699/3/6 700/3/6 701/3/6
f 701/3/6 700/3/6 702/3/6
f 701/4/6 702/4/6 703/4/6
f 703/4/6 702/4/6 704/4/6
f 703/3/6 704/3/6 705/3/6
f 705/3/6 704/3/6 706/3/6
