# MagicaVoxel @ Ephtracy

# group
g Electrocity-7

# material
mtllib Electrocity-7.mtl
usemtl palette

# normals
vn -1 0 0
vn 1 0 0
vn 0 0 1
vn 0 0 -1
vn 0 -1 0
vn 0 1 0

# texcoords
vt 0.0605469 0.5

# verts
v 3 1 19
v 3 1 18
v 3 5 19
v 3 5 18
v 4 0 18
v 4 0 15
v 4 0 10
v 4 0 9
v 4 0 3
v 4 0 2
v 4 1 18
v 4 1 12
v 4 1 10
v 4 1 9
v 4 1 7
v 4 1 5
v 4 1 3
v 4 1 2
v 4 1 -0
v 4 2 11
v 4 2 8
v 4 2 4
v 4 2 1
v 4 3 15
v 4 3 12
v 4 3 7
v 4 3 5
v 4 3 -0
v 4 3 -1
v 4 4 11
v 4 4 8
v 4 4 4
v 4 4 1
v 4 5 18
v 4 5 -1
v 17 0 17
v 17 0 14
v 17 4 18
v 17 4 17
v 17 5 18
v 17 5 14
v 20 0 15
v 20 0 14
v 20 1 15
v 20 1 14
v 22 2 15
v 22 2 14
v 22 4 15
v 22 4 14
v 25 1 15
v 25 1 14
v 25 3 15
v 25 3 14
v 27 0 15
v 27 0 14
v 27 1 15
v 27 1 14
v 29 2 15
v 29 2 14
v 29 4 15
v 29 4 14
v 33 5 15
v 33 5 14
v 33 10 15
v 33 10 14
v 38 4 15
v 38 4 14
v 38 9 15
v 38 9 14
v 4 1 19
v 4 1 18
v 4 5 19
v 4 5 18
v 5 0 18
v 5 0 15
v 5 0 10
v 5 0 9
v 5 0 3
v 5 0 2
v 5 1 12
v 5 1 10
v 5 1 9
v 5 1 7
v 5 1 5
v 5 1 3
v 5 1 2
v 5 1 -0
v 5 2 11
v 5 2 8
v 5 2 4
v 5 2 1
v 5 3 15
v 5 3 12
v 5 3 7
v 5 3 5
v 5 3 -0
v 5 3 -1
v 5 4 11
v 5 4 8
v 5 4 4
v 5 4 1
v 5 5 18
v 5 5 -1
v 18 0 17
v 18 0 14
v 18 1 15
v 18 1 14
v 18 4 18
v 18 4 17
v 18 5 18
v 18 5 15
v 19 2 15
v 19 2 14
v 19 4 15
v 19 4 14
v 21 0 15
v 21 0 14
v 21 1 15
v 21 1 14
v 23 1 15
v 23 1 14
v 23 3 15
v 23 3 14
v 26 2 15
v 26 2 14
v 26 4 15
v 26 4 14
v 28 0 15
v 28 0 14
v 28 1 15
v 28 1 14
v 30 1 15
v 30 1 14
v 30 3 15
v 30 3 14
v 31 3 15
v 31 3 14
v 31 4 15
v 31 4 14
v 34 4 15
v 34 4 14
v 34 9 15
v 34 9 14
v 39 4 15
v 39 4 14
v 39 7 15
v 39 7 14
v 40 7 15
v 40 7 14
v 40 10 15
v 40 10 14
v 3 1 19
v 3 5 19
v 4 1 19
v 4 5 19
v 4 0 18
v 4 1 18
v 4 5 18
v 5 0 18
v 5 5 18
v 17 4 18
v 17 5 18
v 18 4 18
v 18 5 18
v 17 0 17
v 17 4 17
v 18 0 17
v 18 4 17
v 18 1 15
v 18 5 15
v 19 2 15
v 19 4 15
v 20 0 15
v 20 1 15
v 21 0 15
v 21 1 15
v 22 2 15
v 22 4 15
v 23 1 15
v 23 3 15
v 25 1 15
v 25 3 15
v 26 2 15
v 26 4 15
v 27 0 15
v 27 1 15
v 28 0 15
v 28 1 15
v 29 2 15
v 29 4 15
v 30 1 15
v 30 3 15
v 31 3 15
v 31 4 15
v 33 5 15
v 33 10 15
v 34 4 15
v 34 9 15
v 38 4 15
v 38 9 15
v 39 4 15
v 39 7 15
v 40 7 15
v 40 10 15
v 4 1 12
v 4 3 12
v 5 1 12
v 5 3 12
v 4 0 10
v 4 1 10
v 5 0 10
v 5 1 10
v 4 2 8
v 4 4 8
v 5 2 8
v 5 4 8
v 4 1 5
v 4 3 5
v 5 1 5
v 5 3 5
v 4 0 3
v 4 1 3
v 5 0 3
v 5 1 3
v 4 2 1
v 4 4 1
v 5 2 1
v 5 4 1
v 3 1 18
v 3 5 18
v 4 1 18
v 4 5 18
v 4 0 15
v 4 3 15
v 5 0 15
v 5 3 15
v 17 0 14
v 17 5 14
v 18 0 14
v 18 1 14
v 19 2 14
v 19 4 14
v 20 0 14
v 20 1 14
v 21 0 14
v 21 1 14
v 22 2 14
v 22 4 14
v 23 1 14
v 23 3 14
v 25 1 14
v 25 3 14
v 26 2 14
v 26 4 14
v 27 0 14
v 27 1 14
v 28 0 14
v 28 1 14
v 29 2 14
v 29 4 14
v 30 1 14
v 30 3 14
v 31 3 14
v 31 4 14
v 33 5 14
v 33 10 14
v 34 4 14
v 34 9 14
v 38 4 14
v 38 9 14
v 39 4 14
v 39 7 14
v 40 7 14
v 40 10 14
v 4 2 11
v 4 4 11
v 5 2 11
v 5 4 11
v 4 0 9
v 4 1 9
v 5 0 9
v 5 1 9
v 4 1 7
v 4 3 7
v 5 1 7
v 5 3 7
v 4 2 4
v 4 4 4
v 5 2 4
v 5 4 4
v 4 0 2
v 4 1 2
v 5 0 2
v 5 1 2
v 4 1 -0
v 4 3 -0
v 5 1 -0
v 5 3 -0
v 4 3 -1
v 4 5 -1
v 5 3 -1
v 5 5 -1
v 4 0 18
v 5 0 18
v 17 0 17
v 18 0 17
v 4 0 15
v 5 0 15
v 20 0 15
v 21 0 15
v 27 0 15
v 28 0 15
v 17 0 14
v 18 0 14
v 20 0 14
v 21 0 14
v 27 0 14
v 28 0 14
v 4 0 10
v 5 0 10
v 4 0 9
v 5 0 9
v 4 0 3
v 5 0 3
v 4 0 2
v 5 0 2
v 3 1 19
v 4 1 19
v 3 1 18
v 4 1 18
v 18 1 15
v 20 1 15
v 21 1 15
v 23 1 15
v 25 1 15
v 27 1 15
v 28 1 15
v 30 1 15
v 18 1 14
v 20 1 14
v 21 1 14
v 23 1 14
v 25 1 14
v 27 1 14
v 28 1 14
v 30 1 14
v 4 1 12
v 5 1 12
v 4 1 10
v 5 1 10
v 4 1 9
v 5 1 9
v 4 1 7
v 5 1 7
v 4 1 5
v 5 1 5
v 4 1 3
v 5 1 3
v 4 1 2
v 5 1 2
v 4 1 -0
v 5 1 -0
v 4 3 15
v 5 3 15
v 23 3 15
v 25 3 15
v 30 3 15
v 31 3 15
v 23 3 14
v 25 3 14
v 30 3 14
v 31 3 14
v 4 3 12
v 5 3 12
v 4 3 7
v 5 3 7
v 4 3 5
v 5 3 5
v 4 3 -0
v 5 3 -0
v 4 3 -1
v 5 3 -1
v 17 4 18
v 18 4 18
v 17 4 17
v 18 4 17
v 19 4 15
v 22 4 15
v 26 4 15
v 29 4 15
v 31 4 15
v 34 4 15
v 38 4 15
v 39 4 15
v 19 4 14
v 22 4 14
v 26 4 14
v 29 4 14
v 31 4 14
v 34 4 14
v 38 4 14
v 39 4 14
v 4 4 11
v 5 4 11
v 4 4 8
v 5 4 8
v 4 4 4
v 5 4 4
v 4 4 1
v 5 4 1
v 39 7 15
v 40 7 15
v 39 7 14
v 40 7 14
v 34 9 15
v 38 9 15
v 34 9 14
v 38 9 14
v 19 2 15
v 22 2 15
v 26 2 15
v 29 2 15
v 19 2 14
v 22 2 14
v 26 2 14
v 29 2 14
v 4 2 11
v 5 2 11
v 4 2 8
v 5 2 8
v 4 2 4
v 5 2 4
v 4 2 1
v 5 2 1
v 3 5 19
v 4 5 19
v 3 5 18
v 4 5 18
v 5 5 18
v 17 5 18
v 18 5 18
v 18 5 15
v 33 5 15
v 17 5 14
v 33 5 14
v 4 5 -1
v 5 5 -1
v 33 10 15
v 40 10 15
v 33 10 14
v 40 10 14

# faces
f 3/1/1 2/1/1 1/1/1
f 4/1/1 2/1/1 3/1/1
f 11/1/1 6/1/1 5/1/1
f 13/1/1 8/1/1 7/1/1
f 14/1/1 8/1/1 13/1/1
f 17/1/1 10/1/1 9/1/1
f 18/1/1 10/1/1 17/1/1
f 20/1/1 15/1/1 14/1/1
f 20/1/1 13/1/1 12/1/1
f 20/1/1 14/1/1 13/1/1
f 21/1/1 15/1/1 20/1/1
f 22/1/1 19/1/1 18/1/1
f 22/1/1 18/1/1 17/1/1
f 22/1/1 17/1/1 16/1/1
f 23/1/1 19/1/1 22/1/1
f 24/1/1 6/1/1 11/1/1
f 25/1/1 20/1/1 12/1/1
f 26/1/1 15/1/1 21/1/1
f 27/1/1 22/1/1 16/1/1
f 28/1/1 19/1/1 23/1/1
f 30/1/1 25/1/1 24/1/1
f 30/1/1 20/1/1 25/1/1
f 31/1/1 27/1/1 26/1/1
f 31/1/1 26/1/1 21/1/1
f 32/1/1 22/1/1 27/1/1
f 32/1/1 27/1/1 31/1/1
f 33/1/1 29/1/1 28/1/1
f 33/1/1 28/1/1 23/1/1
f 34/1/1 32/1/1 31/1/1
f 34/1/1 33/1/1 32/1/1
f 34/1/1 30/1/1 24/1/1
f 34/1/1 31/1/1 30/1/1
f 34/1/1 24/1/1 11/1/1
f 35/1/1 29/1/1 33/1/1
f 35/1/1 33/1/1 34/1/1
f 39/1/1 37/1/1 36/1/1
f 40/1/1 39/1/1 38/1/1
f 41/1/1 37/1/1 39/1/1
f 41/1/1 39/1/1 40/1/1
f 44/1/1 43/1/1 42/1/1
f 45/1/1 43/1/1 44/1/1
f 48/1/1 47/1/1 46/1/1
f 49/1/1 47/1/1 48/1/1
f 52/1/1 51/1/1 50/1/1
f 53/1/1 51/1/1 52/1/1
f 56/1/1 55/1/1 54/1/1
f 57/1/1 55/1/1 56/1/1
f 60/1/1 59/1/1 58/1/1
f 61/1/1 59/1/1 60/1/1
f 64/1/1 63/1/1 62/1/1
f 65/1/1 63/1/1 64/1/1
f 68/1/1 67/1/1 66/1/1
f 69/1/1 67/1/1 68/1/1
f 70/1/2 71/1/2 72/1/2
f 72/1/2 71/1/2 73/1/2
f 76/1/2 77/1/2 81/1/2
f 81/1/2 77/1/2 82/1/2
f 78/1/2 79/1/2 85/1/2
f 85/1/2 79/1/2 86/1/2
f 82/1/2 83/1/2 88/1/2
f 80/1/2 81/1/2 88/1/2
f 81/1/2 82/1/2 88/1/2
f 88/1/2 83/1/2 89/1/2
f 86/1/2 87/1/2 90/1/2
f 85/1/2 86/1/2 90/1/2
f 84/1/2 85/1/2 90/1/2
f 90/1/2 87/1/2 91/1/2
f 74/1/2 75/1/2 92/1/2
f 80/1/2 88/1/2 93/1/2
f 89/1/2 83/1/2 94/1/2
f 84/1/2 90/1/2 95/1/2
f 91/1/2 87/1/2 96/1/2
f 92/1/2 93/1/2 98/1/2
f 93/1/2 88/1/2 98/1/2
f 94/1/2 95/1/2 99/1/2
f 89/1/2 94/1/2 99/1/2
f 95/1/2 90/1/2 100/1/2
f 99/1/2 95/1/2 100/1/2
f 96/1/2 97/1/2 101/1/2
f 91/1/2 96/1/2 101/1/2
f 92/1/2 98/1/2 102/1/2
f 100/1/2 101/1/2 102/1/2
f 99/1/2 100/1/2 102/1/2
f 98/1/2 99/1/2 102/1/2
f 74/1/2 92/1/2 102/1/2
f 101/1/2 97/1/2 103/1/2
f 102/1/2 101/1/2 103/1/2
f 104/1/2 105/1/2 106/1/2
f 106/1/2 105/1/2 107/1/2
f 104/1/2 106/1/2 109/1/2
f 108/1/2 109/1/2 110/1/2
f 109/1/2 106/1/2 111/1/2
f 110/1/2 109/1/2 111/1/2
f 112/1/2 113/1/2 114/1/2
f 114/1/2 113/1/2 115/1/2
f 116/1/2 117/1/2 118/1/2
f 118/1/2 117/1/2 119/1/2
f 120/1/2 121/1/2 122/1/2
f 122/1/2 121/1/2 123/1/2
f 124/1/2 125/1/2 126/1/2
f 126/1/2 125/1/2 127/1/2
f 128/1/2 129/1/2 130/1/2
f 130/1/2 129/1/2 131/1/2
f 132/1/2 133/1/2 134/1/2
f 134/1/2 133/1/2 135/1/2
f 136/1/2 137/1/2 138/1/2
f 138/1/2 137/1/2 139/1/2
f 140/1/2 141/1/2 142/1/2
f 142/1/2 141/1/2 143/1/2
f 144/1/2 145/1/2 146/1/2
f 146/1/2 145/1/2 147/1/2
f 148/1/2 149/1/2 150/1/2
f 150/1/2 149/1/2 151/1/2
f 154/1/3 153/1/3 152/1/3
f 155/1/3 153/1/3 154/1/3
f 159/1/3 157/1/3 156/1/3
f 159/1/3 158/1/3 157/1/3
f 160/1/3 158/1/3 159/1/3
f 163/1/3 162/1/3 161/1/3
f 164/1/3 162/1/3 163/1/3
f 167/1/3 166/1/3 165/1/3
f 168/1/3 166/1/3 167/1/3
f 171/1/3 170/1/3 169/1/3
f 172/1/3 170/1/3 171/1/3
f 174/1/3 171/1/3 169/1/3
f 175/1/3 174/1/3 173/1/3
f 176/1/3 171/1/3 174/1/3
f 176/1/3 174/1/3 175/1/3
f 177/1/3 171/1/3 176/1/3
f 178/1/3 170/1/3 172/1/3
f 179/1/3 177/1/3 176/1/3
f 179/1/3 178/1/3 177/1/3
f 180/1/3 178/1/3 179/1/3
f 182/1/3 178/1/3 180/1/3
f 183/1/3 182/1/3 181/1/3
f 184/1/3 170/1/3 178/1/3
f 184/1/3 182/1/3 183/1/3
f 184/1/3 178/1/3 182/1/3
f 186/1/3 183/1/3 181/1/3
f 187/1/3 186/1/3 185/1/3
f 188/1/3 183/1/3 186/1/3
f 188/1/3 186/1/3 187/1/3
f 189/1/3 183/1/3 188/1/3
f 190/1/3 170/1/3 184/1/3
f 191/1/3 189/1/3 188/1/3
f 191/1/3 190/1/3 189/1/3
f 192/1/3 190/1/3 191/1/3
f 193/1/3 190/1/3 192/1/3
f 194/1/3 170/1/3 190/1/3
f 194/1/3 190/1/3 193/1/3
f 195/1/3 170/1/3 194/1/3
f 197/1/3 195/1/3 194/1/3
f 197/1/3 196/1/3 195/1/3
f 198/1/3 196/1/3 197/1/3
f 200/1/3 196/1/3 198/1/3
f 201/1/3 200/1/3 199/1/3
f 202/1/3 200/1/3 201/1/3
f 203/1/3 200/1/3 202/1/3
f 204/1/3 196/1/3 200/1/3
f 204/1/3 200/1/3 203/1/3
f 207/1/3 206/1/3 205/1/3
f 208/1/3 206/1/3 207/1/3
f 211/1/3 210/1/3 209/1/3
f 212/1/3 210/1/3 211/1/3
f 215/1/3 214/1/3 213/1/3
f 216/1/3 214/1/3 215/1/3
f 219/1/3 218/1/3 217/1/3
f 220/1/3 218/1/3 219/1/3
f 223/1/3 222/1/3 221/1/3
f 224/1/3 222/1/3 223/1/3
f 227/1/3 226/1/3 225/1/3
f 228/1/3 226/1/3 227/1/3
f 229/1/4 230/1/4 231/1/4
f 231/1/4 230/1/4 232/1/4
f 233/1/4 234/1/4 235/1/4
f 235/1/4 234/1/4 236/1/4
f 237/1/4 238/1/4 239/1/4
f 239/1/4 238/1/4 240/1/4
f 240/1/4 238/1/4 241/1/4
f 241/1/4 238/1/4 242/1/4
f 240/1/4 241/1/4 244/1/4
f 243/1/4 244/1/4 245/1/4
f 244/1/4 241/1/4 246/1/4
f 245/1/4 244/1/4 246/1/4
f 246/1/4 241/1/4 247/1/4
f 242/1/4 238/1/4 248/1/4
f 246/1/4 247/1/4 249/1/4
f 247/1/4 248/1/4 249/1/4
f 249/1/4 248/1/4 250/1/4
f 250/1/4 248/1/4 252/1/4
f 251/1/4 252/1/4 253/1/4
f 248/1/4 238/1/4 254/1/4
f 253/1/4 252/1/4 254/1/4
f 252/1/4 248/1/4 254/1/4
f 251/1/4 253/1/4 256/1/4
f 255/1/4 256/1/4 257/1/4
f 256/1/4 253/1/4 258/1/4
f 257/1/4 256/1/4 258/1/4
f 258/1/4 253/1/4 259/1/4
f 254/1/4 238/1/4 260/1/4
f 258/1/4 259/1/4 261/1/4
f 259/1/4 260/1/4 261/1/4
f 261/1/4 260/1/4 262/1/4
f 262/1/4 260/1/4 263/1/4
f 260/1/4 238/1/4 264/1/4
f 263/1/4 260/1/4 264/1/4
f 264/1/4 238/1/4 265/1/4
f 264/1/4 265/1/4 267/1/4
f 265/1/4 266/1/4 267/1/4
f 267/1/4 266/1/4 268/1/4
f 268/1/4 266/1/4 270/1/4
f 269/1/4 270/1/4 271/1/4
f 271/1/4 270/1/4 272/1/4
f 272/1/4 270/1/4 273/1/4
f 270/1/4 266/1/4 274/1/4
f 273/1/4 270/1/4 274/1/4
f 275/1/4 276/1/4 277/1/4
f 277/1/4 276/1/4 278/1/4
f 279/1/4 280/1/4 281/1/4
f 281/1/4 280/1/4 282/1/4
f 283/1/4 284/1/4 285/1/4
f 285/1/4 284/1/4 286/1/4
f 287/1/4 288/1/4 289/1/4
f 289/1/4 288/1/4 290/1/4
f 291/1/4 292/1/4 293/1/4
f 293/1/4 292/1/4 294/1/4
f 295/1/4 296/1/4 297/1/4
f 297/1/4 296/1/4 298/1/4
f 299/1/4 300/1/4 301/1/4
f 301/1/4 300/1/4 302/1/4
f 307/1/5 304/1/5 303/1/5
f 308/1/5 304/1/5 307/1/5
f 313/1/5 306/1/5 305/1/5
f 314/1/5 306/1/5 313/1/5
f 315/1/5 310/1/5 309/1/5
f 316/1/5 310/1/5 315/1/5
f 317/1/5 312/1/5 311/1/5
f 318/1/5 312/1/5 317/1/5
f 321/1/5 320/1/5 319/1/5
f 322/1/5 320/1/5 321/1/5
f 325/1/5 324/1/5 323/1/5
f 326/1/5 324/1/5 325/1/5
f 329/1/5 328/1/5 327/1/5
f 330/1/5 328/1/5 329/1/5
f 339/1/5 332/1/5 331/1/5
f 340/1/5 332/1/5 339/1/5
f 341/1/5 334/1/5 333/1/5
f 342/1/5 334/1/5 341/1/5
f 343/1/5 336/1/5 335/1/5
f 344/1/5 336/1/5 343/1/5
f 345/1/5 338/1/5 337/1/5
f 346/1/5 338/1/5 345/1/5
f 349/1/5 348/1/5 347/1/5
f 350/1/5 348/1/5 349/1/5
f 353/1/5 352/1/5 351/1/5
f 354/1/5 352/1/5 353/1/5
f 357/1/5 356/1/5 355/1/5
f 358/1/5 356/1/5 357/1/5
f 361/1/5 360/1/5 359/1/5
f 362/1/5 360/1/5 361/1/5
f 369/1/5 366/1/5 365/1/5
f 370/1/5 366/1/5 369/1/5
f 371/1/5 368/1/5 367/1/5
f 372/1/5 368/1/5 371/1/5
f 373/1/5 364/1/5 363/1/5
f 374/1/5 364/1/5 373/1/5
f 377/1/5 376/1/5 375/1/5
f 378/1/5 376/1/5 377/1/5
f 381/1/5 380/1/5 379/1/5
f 382/1/5 380/1/5 381/1/5
f 385/1/5 384/1/5 383/1/5
f 386/1/5 384/1/5 385/1/5
f 395/1/5 388/1/5 387/1/5
f 396/1/5 388/1/5 395/1/5
f 397/1/5 390/1/5 389/1/5
f 398/1/5 390/1/5 397/1/5
f 399/1/5 392/1/5 391/1/5
f 400/1/5 392/1/5 399/1/5
f 401/1/5 394/1/5 393/1/5
f 402/1/5 394/1/5 401/1/5
f 405/1/5 404/1/5 403/1/5
f 406/1/5 404/1/5 405/1/5
f 409/1/5 408/1/5 407/1/5
f 410/1/5 408/1/5 409/1/5
f 413/1/5 412/1/5 411/1/5
f 414/1/5 412/1/5 413/1/5
f 417/1/5 416/1/5 415/1/5
f 418/1/5 416/1/5 417/1/5
f 419/1/6 420/1/6 423/1/6
f 423/1/6 420/1/6 424/1/6
f 421/1/6 422/1/6 425/1/6
f 425/1/6 422/1/6 426/1/6
f 427/1/6 428/1/6 429/1/6
f 429/1/6 428/1/6 430/1/6
f 431/1/6 432/1/6 433/1/6
f 433/1/6 432/1/6 434/1/6
f 435/1/6 436/1/6 437/1/6
f 437/1/6 436/1/6 438/1/6
f 440/1/6 441/1/6 442/1/6
f 440/1/6 442/1/6 444/1/6
f 442/1/6 443/1/6 444/1/6
f 444/1/6 443/1/6 445/1/6
f 438/1/6 439/1/6 446/1/6
f 446/1/6 439/1/6 447/1/6
f 448/1/6 449/1/6 450/1/6
f 450/1/6 449/1/6 451/1/6
