# MagicaVoxel @ Ephtracy

# group
g Electrocity-64

# material
mtllib Electrocity-64.mtl
usemtl palette

# normals
vn -1 0 0
vn 1 0 0
vn 0 0 1
vn 0 0 -1
vn 0 -1 0
vn 0 1 0

# texcoords
vt 0.0996094 0.5
vt 0.103516 0.5
vt 0.111328 0.5

# verts
v -63 0 63
v -63 0 -63
v -63 2 63
v -63 2 -63
v -63 4 63
v -63 4 -63
v -63 8 63
v -63 8 -63
v 62 3 4
v 62 3 2
v 62 4 4
v 62 4 2
v 27 5 63
v 27 5 7
v 27 8 63
v 27 8 7
v 43 4 63
v 43 4 23
v 43 5 63
v 43 5 23
v 53 4 23
v 53 4 7
v 53 5 23
v 53 5 7
v 54 4 7
v 54 4 -6
v 54 8 7
v 54 8 -6
v 59 3 4
v 59 3 2
v 59 4 4
v 59 4 2
v 63 0 63
v 63 0 -63
v 63 2 63
v 63 2 -63
v 63 4 63
v 63 4 -6
v 63 4 -63
v 63 8 -6
v 63 8 -63
v -63 0 63
v -63 2 63
v -63 4 63
v -63 8 63
v 27 5 63
v 27 8 63
v 43 4 63
v 43 5 63
v 63 0 63
v 63 2 63
v 63 4 63
v 43 4 23
v 43 5 23
v 53 4 23
v 53 5 23
v 27 5 7
v 27 8 7
v 53 4 7
v 53 5 7
v 54 4 7
v 54 8 7
v 59 3 2
v 59 4 2
v 62 3 2
v 62 4 2
v 54 4 -6
v 54 8 -6
v 63 4 -6
v 63 8 -6
v 59 3 4
v 59 4 4
v 62 3 4
v 62 4 4
v -63 0 -63
v -63 2 -63
v -63 4 -63
v -63 8 -63
v 63 0 -63
v 63 2 -63
v 63 4 -63
v 63 8 -63
v -63 0 63
v 63 0 63
v -63 0 -63
v 63 0 -63
v 59 3 4
v 62 3 4
v 59 3 2
v 62 3 2
v 43 4 63
v 63 4 63
v 43 4 23
v 53 4 23
v 53 4 7
v 54 4 7
v 59 4 4
v 62 4 4
v 59 4 2
v 62 4 2
v 54 4 -6
v 63 4 -6
v 27 5 63
v 43 5 63
v 43 5 23
v 53 5 23
v 27 5 7
v 53 5 7
v -63 8 63
v 27 8 63
v 27 8 7
v 54 8 7
v 54 8 -6
v 63 8 -6
v -63 8 -63
v 63 8 -63

# faces
f 3/1/1 2/1/1 1/1/1
f 4/1/1 2/1/1 3/1/1
f 5/2/1 4/2/1 3/2/1
f 6/2/1 4/2/1 5/2/1
f 7/3/1 6/3/1 5/3/1
f 8/3/1 6/3/1 7/3/1
f 11/2/1 10/2/1 9/2/1
f 12/2/1 10/2/1 11/2/1
f 13/3/2 14/3/2 15/3/2
f 15/3/2 14/3/2 16/3/2
f 17/3/2 18/3/2 19/3/2
f 19/3/2 18/3/2 20/3/2
f 21/3/2 22/3/2 23/3/2
f 23/3/2 22/3/2 24/3/2
f 25/3/2 26/3/2 27/3/2
f 27/3/2 26/3/2 28/3/2
f 29/2/2 30/2/2 31/2/2
f 31/2/2 30/2/2 32/2/2
f 33/1/2 34/1/2 35/1/2
f 35/1/2 34/1/2 36/1/2
f 35/2/2 36/2/2 37/2/2
f 37/2/2 36/2/2 38/2/2
f 38/2/2 36/2/2 39/2/2
f 38/3/2 39/3/2 40/3/2
f 40/3/2 39/3/2 41/3/2
f 46/3/3 45/3/3 44/3/3
f 47/3/3 45/3/3 46/3/3
f 48/2/3 44/2/3 43/2/3
f 48/3/3 46/3/3 44/3/3
f 49/3/3 46/3/3 48/3/3
f 50/1/3 43/1/3 42/1/3
f 51/2/3 48/2/3 43/2/3
f 51/1/3 43/1/3 50/1/3
f 52/2/3 48/2/3 51/2/3
f 55/3/3 54/3/3 53/3/3
f 56/3/3 54/3/3 55/3/3
f 60/3/3 58/3/3 57/3/3
f 61/3/3 60/3/3 59/3/3
f 62/3/3 58/3/3 60/3/3
f 62/3/3 60/3/3 61/3/3
f 65/2/3 64/2/3 63/2/3
f 66/2/3 64/2/3 65/2/3
f 69/3/3 68/3/3 67/3/3
f 70/3/3 68/3/3 69/3/3
f 71/2/4 72/2/4 73/2/4
f 73/2/4 72/2/4 74/2/4
f 75/1/4 76/1/4 79/1/4
f 76/2/4 77/2/4 80/2/4
f 79/1/4 76/1/4 80/1/4
f 77/3/4 78/3/4 81/3/4
f 80/2/4 77/2/4 81/2/4
f 81/3/4 78/3/4 82/3/4
f 85/1/5 84/1/5 83/1/5
f 86/1/5 84/1/5 85/1/5
f 87/2/6 88/2/6 89/2/6
f 89/2/6 88/2/6 90/2/6
f 91/2/6 92/2/6 93/2/6
f 93/2/6 92/2/6 94/2/6
f 94/2/6 92/2/6 95/2/6
f 95/2/6 92/2/6 96/2/6
f 96/2/6 92/2/6 97/2/6
f 97/2/6 92/2/6 98/2/6
f 96/2/6 97/2/6 99/2/6
f 98/2/6 92/2/6 100/2/6
f 96/2/6 99/2/6 101/2/6
f 99/2/6 100/2/6 101/2/6
f 100/2/6 92/2/6 102/2/6
f 101/2/6 100/2/6 102/2/6
f 103/3/6 104/3/6 105/3/6
f 103/3/6 105/3/6 107/3/6
f 105/3/6 106/3/6 107/3/6
f 107/3/6 106/3/6 108/3/6
f 109/3/6 110/3/6 111/3/6
f 111/3/6 112/3/6 113/3/6
f 109/3/6 111/3/6 115/3/6
f 113/3/6 114/3/6 115/3/6
f 111/3/6 113/3/6 115/3/6
f 115/3/6 114/3/6 116/3/6
