# MagicaVoxel @ Ephtracy

# group
g Electrocity-76

# material
mtllib Electrocity-76.mtl
usemtl palette

# normals
vn -1 0 0
vn 1 0 0
vn 0 0 1
vn 0 0 -1
vn 0 -1 0
vn 0 1 0

# texcoords
vt 0.0410156 0.5
vt 0.0527344 0.5
vt 0.939453 0.5
vt 0.943359 0.5

# verts
v -34 4 -8
v -34 4 -14
v -34 19 -8
v -34 19 -14
v -23 5 -8
v -23 5 -9
v -23 18 -8
v -23 18 -9
v -11 4 -3
v -11 4 -8
v -11 5 -4
v -11 5 -8
v -11 18 -4
v -11 18 -8
v -11 19 -3
v -11 19 -8
v -10 5 -4
v -10 5 -9
v -10 18 -4
v -10 18 -9
v -7 5 -3
v -7 5 -4
v -7 18 -3
v -7 18 -4
v -33 5 -8
v -33 5 -9
v -33 18 -8
v -33 18 -9
v -22 5 -8
v -22 5 -9
v -22 18 -8
v -22 18 -9
v -10 5 -3
v -10 5 -4
v -10 18 -3
v -10 18 -4
v -6 4 -3
v -6 4 -14
v -6 19 -3
v -6 19 -14
v -11 4 -3
v -11 19 -3
v -10 5 -3
v -10 18 -3
v -7 5 -3
v -7 18 -3
v -6 4 -3
v -6 19 -3
v -10 5 -4
v -10 18 -4
v -9 10 -4
v -9 11 -4
v -9 13 -4
v -9 14 -4
v -8 10 -4
v -8 11 -4
v -8 13 -4
v -8 14 -4
v -7 5 -4
v -7 18 -4
v -34 4 -8
v -34 19 -8
v -33 5 -8
v -33 18 -8
v -23 5 -8
v -23 18 -8
v -22 5 -8
v -22 18 -8
v -11 4 -8
v -11 5 -8
v -11 18 -8
v -11 19 -8
v -33 5 -9
v -33 18 -9
v -31 15 -9
v -31 16 -9
v -30 9 -9
v -30 10 -9
v -30 15 -9
v -30 16 -9
v -29 9 -9
v -29 10 -9
v -28 13 -9
v -28 14 -9
v -27 13 -9
v -27 14 -9
v -23 5 -9
v -23 18 -9
v -22 5 -9
v -22 18 -9
v -19 9 -9
v -19 10 -9
v -18 9 -9
v -18 10 -9
v -18 14 -9
v -18 15 -9
v -17 14 -9
v -17 15 -9
v -16 12 -9
v -16 13 -9
v -15 12 -9
v -15 13 -9
v -13 8 -9
v -13 9 -9
v -13 15 -9
v -13 16 -9
v -12 8 -9
v -12 9 -9
v -12 15 -9
v -12 16 -9
v -10 5 -9
v -10 18 -9
v -11 5 -4
v -11 18 -4
v -10 5 -4
v -10 18 -4
v -34 4 -14
v -34 19 -14
v -6 4 -14
v -6 19 -14
v -11 4 -3
v -6 4 -3
v -34 4 -8
v -11 4 -8
v -34 4 -14
v -6 4 -14
v -10 18 -3
v -7 18 -3
v -11 18 -4
v -10 18 -4
v -7 18 -4
v -33 18 -8
v -23 18 -8
v -22 18 -8
v -11 18 -8
v -33 18 -9
v -23 18 -9
v -22 18 -9
v -10 18 -9
v -10 5 -3
v -7 5 -3
v -11 5 -4
v -10 5 -4
v -7 5 -4
v -33 5 -8
v -23 5 -8
v -22 5 -8
v -11 5 -8
v -33 5 -9
v -23 5 -9
v -22 5 -9
v -10 5 -9
v -11 19 -3
v -6 19 -3
v -34 19 -8
v -11 19 -8
v -34 19 -14
v -6 19 -14

# faces
f 3/2/1 2/2/1 1/2/1
f 4/2/1 2/2/1 3/2/1
f 7/2/1 6/2/1 5/2/1
f 8/2/1 6/2/1 7/2/1
f 11/2/1 10/2/1 9/2/1
f 12/2/1 10/2/1 11/2/1
f 13/2/1 11/2/1 9/2/1
f 15/2/1 13/2/1 9/2/1
f 15/2/1 14/2/1 13/2/1
f 16/2/1 14/2/1 15/2/1
f 19/1/1 18/1/1 17/1/1
f 20/1/1 18/1/1 19/1/1
f 23/2/1 22/2/1 21/2/1
f 24/2/1 22/2/1 23/2/1
f 25/2/2 26/2/2 27/2/2
f 27/2/2 26/2/2 28/2/2
f 29/2/2 30/2/2 31/2/2
f 31/2/2 30/2/2 32/2/2
f 33/2/2 34/2/2 35/2/2
f 35/2/2 34/2/2 36/2/2
f 37/2/2 38/2/2 39/2/2
f 39/2/2 38/2/2 40/2/2
f 43/2/3 42/2/3 41/2/3
f 44/2/3 42/2/3 43/2/3
f 45/2/3 43/2/3 41/2/3
f 46/2/3 42/2/3 44/2/3
f 47/2/3 45/2/3 41/2/3
f 47/2/3 46/2/3 45/2/3
f 48/2/3 42/2/3 46/2/3
f 48/2/3 46/2/3 47/2/3
f 51/1/3 50/1/3 49/1/3
f 52/1/3 50/1/3 51/1/3
f 53/1/3 50/1/3 52/1/3
f 54/1/3 50/1/3 53/1/3
f 55/1/3 51/1/3 49/1/3
f 55/3/3 52/3/3 51/3/3
f 56/1/3 53/1/3 52/1/3
f 56/3/3 52/3/3 55/3/3
f 57/4/3 54/4/3 53/4/3
f 57/1/3 53/1/3 56/1/3
f 58/1/3 50/1/3 54/1/3
f 58/4/3 54/4/3 57/4/3
f 59/1/3 57/1/3 56/1/3
f 59/1/3 56/1/3 55/1/3
f 59/1/3 58/1/3 57/1/3
f 59/1/3 55/1/3 49/1/3
f 60/1/3 50/1/3 58/1/3
f 60/1/3 58/1/3 59/1/3
f 63/2/3 62/2/3 61/2/3
f 64/2/3 62/2/3 63/2/3
f 65/2/3 63/2/3 61/2/3
f 66/2/3 62/2/3 64/2/3
f 67/2/3 65/2/3 61/2/3
f 67/2/3 66/2/3 65/2/3
f 68/2/3 62/2/3 66/2/3
f 68/2/3 66/2/3 67/2/3
f 69/2/3 67/2/3 61/2/3
f 70/2/3 67/2/3 69/2/3
f 71/2/3 62/2/3 68/2/3
f 72/2/3 62/2/3 71/2/3
f 75/1/3 74/1/3 73/1/3
f 76/1/3 74/1/3 75/1/3
f 77/1/3 75/1/3 73/1/3
f 78/1/3 75/1/3 77/1/3
f 79/3/3 76/3/3 75/3/3
f 79/1/3 75/1/3 78/1/3
f 80/1/3 74/1/3 76/1/3
f 80/3/3 76/3/3 79/3/3
f 81/3/3 78/3/3 77/3/3
f 81/1/3 77/1/3 73/1/3
f 82/1/3 79/1/3 78/1/3
f 82/3/3 78/3/3 81/3/3
f 82/1/3 80/1/3 79/1/3
f 83/1/3 82/1/3 81/1/3
f 83/1/3 80/1/3 82/1/3
f 84/1/3 80/1/3 83/1/3
f 85/1/3 83/1/3 81/1/3
f 85/3/3 84/3/3 83/3/3
f 86/1/3 80/1/3 84/1/3
f 86/3/3 84/3/3 85/3/3
f 87/1/3 81/1/3 73/1/3
f 87/1/3 85/1/3 81/1/3
f 87/1/3 86/1/3 85/1/3
f 88/1/3 80/1/3 86/1/3
f 88/1/3 86/1/3 87/1/3
f 88/1/3 74/1/3 80/1/3
f 91/1/3 90/1/3 89/1/3
f 92/1/3 90/1/3 91/1/3
f 93/1/3 91/1/3 89/1/3
f 93/3/3 92/3/3 91/3/3
f 94/1/3 90/1/3 92/1/3
f 94/3/3 92/3/3 93/3/3
f 95/1/3 90/1/3 94/1/3
f 96/1/3 90/1/3 95/1/3
f 97/1/3 94/1/3 93/1/3
f 97/1/3 95/1/3 94/1/3
f 97/4/3 96/4/3 95/4/3
f 98/1/3 90/1/3 96/1/3
f 98/4/3 96/4/3 97/4/3
f 99/1/3 97/1/3 93/1/3
f 99/1/3 98/1/3 97/1/3
f 100/1/3 98/1/3 99/1/3
f 101/1/3 99/1/3 93/1/3
f 101/3/3 100/3/3 99/3/3
f 102/1/3 98/1/3 100/1/3
f 102/3/3 100/3/3 101/3/3
f 103/1/3 93/1/3 89/1/3
f 103/1/3 101/1/3 93/1/3
f 103/1/3 102/1/3 101/1/3
f 104/1/3 102/1/3 103/1/3
f 105/1/3 98/1/3 102/1/3
f 105/1/3 102/1/3 104/1/3
f 105/1/3 90/1/3 98/1/3
f 106/1/3 90/1/3 105/1/3
f 107/4/3 104/4/3 103/4/3
f 107/1/3 103/1/3 89/1/3
f 108/1/3 105/1/3 104/1/3
f 108/4/3 104/4/3 107/4/3
f 109/4/3 106/4/3 105/4/3
f 109/1/3 105/1/3 108/1/3
f 110/1/3 90/1/3 106/1/3
f 110/4/3 106/4/3 109/4/3
f 111/1/3 109/1/3 108/1/3
f 111/1/3 108/1/3 107/1/3
f 111/1/3 110/1/3 109/1/3
f 111/1/3 107/1/3 89/1/3
f 112/1/3 90/1/3 110/1/3
f 112/1/3 110/1/3 111/1/3
f 113/2/4 114/2/4 115/2/4
f 115/2/4 114/2/4 116/2/4
f 117/2/4 118/2/4 119/2/4
f 119/2/4 118/2/4 120/2/4
f 124/2/5 122/2/5 121/2/5
f 125/2/5 124/2/5 123/2/5
f 126/2/5 122/2/5 124/2/5
f 126/2/5 124/2/5 125/2/5
f 130/2/5 128/2/5 127/2/5
f 131/2/5 128/2/5 130/2/5
f 135/2/5 130/2/5 129/2/5
f 136/2/5 133/2/5 132/2/5
f 137/2/5 133/2/5 136/2/5
f 138/2/5 135/2/5 134/2/5
f 139/2/5 130/2/5 135/2/5
f 139/2/5 135/2/5 138/2/5
f 140/2/6 141/2/6 143/2/6
f 143/2/6 141/2/6 144/2/6
f 142/2/6 143/2/6 148/2/6
f 145/2/6 146/2/6 149/2/6
f 149/2/6 146/2/6 150/2/6
f 147/2/6 148/2/6 151/2/6
f 148/2/6 143/2/6 152/2/6
f 151/2/6 148/2/6 152/2/6
f 153/2/6 154/2/6 156/2/6
f 155/2/6 156/2/6 157/2/6
f 156/2/6 154/2/6 158/2/6
f 157/2/6 156/2/6 158/2/6
