# MagicaVoxel @ Ephtracy

# group
g Electrocity-77

# material
mtllib Electrocity-77.mtl
usemtl palette

# normals
vn -1 0 0
vn 1 0 0
vn 0 0 1
vn 0 0 -1
vn 0 -1 0
vn 0 1 0

# texcoords
vt 0.0410156 0.5
vt 0.0527344 0.5
vt 0.0605469 0.5
vt 0.939453 0.5
vt 0.943359 0.5

# verts
v -19 0 7
v -19 0 -18
v -19 1 7
v -19 1 -18
v -16 1 -5
v -16 1 -6
v -16 5 -6
v -16 5 -10
v -16 6 -5
v -16 6 -10
v -15 6 -5
v -15 6 -6
v -15 9 -5
v -15 9 -6
v -14 1 3
v -14 1 1
v -14 11 3
v -14 11 1
v -13 1 4
v -13 1 3
v -13 1 1
v -13 1 -0
v -13 5 -0
v -13 5 -5
v -13 7 -0
v -13 7 -5
v -13 11 4
v -13 11 3
v -13 11 1
v -13 11 -0
v -13 12 3
v -13 12 1
v -11 1 -16
v -11 1 -17
v -11 5 -10
v -11 5 -16
v -11 5 -17
v -11 5 -18
v -11 6 -10
v -11 6 -18
v -7 6 -6
v -7 6 -17
v -7 7 -7
v -7 7 -16
v -7 8 -8
v -7 8 -9
v -7 9 -6
v -7 9 -8
v -7 9 -9
v -7 9 -12
v -7 9 -13
v -7 10 -10
v -7 10 -11
v -7 10 -12
v -7 10 -13
v -7 10 -14
v -7 10 -15
v -7 11 -10
v -7 11 -11
v -7 11 -14
v -7 11 -15
v -7 12 -7
v -7 12 -16
v -7 13 -6
v -7 13 -17
v -11 1 4
v -11 1 3
v -11 1 1
v -11 1 -0
v -11 5 -0
v -11 5 -5
v -11 7 -0
v -11 7 -5
v -11 9 4
v -11 9 3
v -11 9 1
v -11 9 -0
v -10 1 3
v -10 1 1
v -10 8 3
v -10 8 1
v -7 1 -16
v -7 1 -17
v -7 5 -16
v -7 5 -17
v -6 0 7
v -6 0 -18
v -6 1 7
v -6 1 -5
v -6 1 -6
v -6 1 -18
v -6 5 -6
v -6 5 -18
v -6 6 -6
v -6 6 -17
v -6 6 -18
v -6 9 -5
v -6 9 -6
v -6 12 -6
v -6 12 -17
v -6 13 -6
v -6 13 -17
v -5 6 -6
v -5 6 -17
v -5 12 -6
v -5 12 -17
v -4 8 3
v -4 8 1
v -4 9 4
v -4 9 3
v -4 9 1
v -4 9 -0
v -4 11 4
v -4 11 3
v -4 11 1
v -4 11 -0
v -4 12 3
v -4 12 1
v -19 0 7
v -19 1 7
v -6 0 7
v -6 1 7
v -13 1 4
v -13 11 4
v -11 1 4
v -11 9 4
v -4 9 4
v -4 11 4
v -14 1 3
v -14 11 3
v -13 1 3
v -13 11 3
v -13 12 3
v -11 1 3
v -11 9 3
v -10 1 3
v -10 8 3
v -4 8 3
v -4 9 3
v -4 11 3
v -4 12 3
v -16 1 -5
v -16 6 -5
v -15 1 -5
v -15 6 -5
v -15 9 -5
v -13 5 -5
v -13 7 -5
v -11 5 -5
v -11 7 -5
v -6 1 -5
v -6 9 -5
v -7 9 -6
v -7 13 -6
v -6 6 -6
v -6 9 -6
v -6 12 -6
v -6 13 -6
v -5 6 -6
v -5 12 -6
v -11 1 -16
v -11 5 -16
v -10 1 -16
v -10 5 -16
v -7 1 -16
v -7 5 -16
v -14 1 1
v -14 11 1
v -13 1 1
v -13 11 1
v -13 12 1
v -11 1 1
v -11 9 1
v -10 1 1
v -10 8 1
v -4 8 1
v -4 9 1
v -4 11 1
v -4 12 1
v -13 1 -0
v -13 5 -0
v -13 7 -0
v -13 11 -0
v -11 1 -0
v -11 5 -0
v -11 7 -0
v -11 9 -0
v -4 9 -0
v -4 11 -0
v -16 1 -6
v -16 5 -6
v -15 1 -6
v -15 5 -6
v -15 6 -6
v -15 9 -6
v -7 6 -6
v -7 9 -6
v -6 1 -6
v -6 5 -6
v -16 5 -10
v -16 6 -10
v -11 5 -10
v -11 6 -10
v -11 1 -17
v -11 5 -17
v -10 1 -17
v -10 5 -17
v -7 1 -17
v -7 5 -17
v -7 6 -17
v -7 13 -17
v -6 6 -17
v -6 12 -17
v -6 13 -17
v -5 6 -17
v -5 12 -17
v -19 0 -18
v -19 1 -18
v -11 5 -18
v -11 6 -18
v -6 0 -18
v -6 1 -18
v -6 5 -18
v -6 6 -18
v -19 0 7
v -6 0 7
v -13 0 4
v -11 0 4
v -14 0 3
v -13 0 3
v -11 0 3
v -10 0 3
v -14 0 1
v -13 0 1
v -11 0 1
v -10 0 1
v -13 0 -0
v -11 0 -0
v -19 0 -18
v -6 0 -18
v -13 5 -0
v -11 5 -0
v -13 5 -5
v -11 5 -5
v -16 5 -6
v -15 5 -6
v -6 5 -6
v -16 5 -10
v -11 5 -10
v -11 5 -16
v -10 5 -16
v -7 5 -16
v -11 5 -17
v -10 5 -17
v -7 5 -17
v -11 5 -18
v -6 5 -18
v -6 6 -6
v -5 6 -6
v -6 6 -17
v -5 6 -17
v -10 8 3
v -4 8 3
v -10 8 1
v -4 8 1
v -11 9 4
v -4 9 4
v -11 9 3
v -4 9 3
v -11 9 1
v -4 9 1
v -11 9 -0
v -4 9 -0
v -19 1 7
v -6 1 7
v -13 1 4
v -11 1 4
v -14 1 3
v -13 1 3
v -11 1 3
v -10 1 3
v -14 1 1
v -13 1 1
v -11 1 1
v -10 1 1
v -13 1 -0
v -11 1 -0
v -16 1 -5
v -15 1 -5
v -6 1 -5
v -16 1 -6
v -15 1 -6
v -6 1 -6
v -11 1 -16
v -10 1 -16
v -7 1 -16
v -11 1 -17
v -10 1 -17
v -7 1 -17
v -19 1 -18
v -6 1 -18
v -16 6 -5
v -15 6 -5
v -15 6 -6
v -7 6 -6
v -16 6 -10
v -11 6 -10
v -7 6 -17
v -6 6 -17
v -11 6 -18
v -6 6 -18
v -13 7 -0
v -11 7 -0
v -13 7 -5
v -11 7 -5
v -15 9 -5
v -6 9 -5
v -15 9 -6
v -7 9 -6
v -6 9 -6
v -13 11 4
v -4 11 4
v -14 11 3
v -13 11 3
v -4 11 3
v -14 11 1
v -13 11 1
v -4 11 1
v -13 11 -0
v -4 11 -0
v -13 12 3
v -4 12 3
v -13 12 1
v -4 12 1
v -6 12 -6
v -5 12 -6
v -6 12 -17
v -5 12 -17
v -7 13 -6
v -6 13 -6
v -7 13 -17
v -6 13 -17

# faces
f 3/2/1 2/2/1 1/2/1
f 4/2/1 2/2/1 3/2/1
f 7/2/1 6/2/1 5/2/1
f 9/2/1 7/2/1 5/2/1
f 9/2/1 8/2/1 7/2/1
f 10/2/1 8/2/1 9/2/1
f 13/3/1 12/3/1 11/3/1
f 14/3/1 12/3/1 13/3/1
f 17/3/1 16/3/1 15/3/1
f 18/3/1 16/3/1 17/3/1
f 23/3/1 22/3/1 21/3/1
f 25/3/1 23/3/1 21/3/1
f 25/2/1 24/2/1 23/2/1
f 26/2/1 24/2/1 25/2/1
f 27/3/1 20/3/1 19/3/1
f 28/3/1 20/3/1 27/3/1
f 29/3/1 25/3/1 21/3/1
f 30/3/1 25/3/1 29/3/1
f 31/3/1 29/3/1 28/3/1
f 32/3/1 29/3/1 31/3/1
f 36/2/1 34/2/1 33/2/1
f 37/2/1 34/2/1 36/2/1
f 39/2/1 36/2/1 35/2/1
f 39/2/1 38/2/1 37/2/1
f 39/2/1 37/2/1 36/2/1
f 40/2/1 38/2/1 39/2/1
f 43/2/1 42/2/1 41/2/1
f 44/2/1 42/2/1 43/2/1
f 45/1/1 44/1/1 43/1/1
f 46/1/1 44/1/1 45/1/1
f 47/2/1 43/2/1 41/2/1
f 48/1/1 45/1/1 43/1/1
f 48/4/1 46/4/1 45/4/1
f 49/1/1 44/1/1 46/1/1
f 49/4/1 46/4/1 48/4/1
f 50/1/1 44/1/1 49/1/1
f 51/1/1 44/1/1 50/1/1
f 52/1/1 49/1/1 48/1/1
f 52/1/1 50/1/1 49/1/1
f 53/1/1 50/1/1 52/1/1
f 54/5/1 51/5/1 50/5/1
f 54/1/1 50/1/1 53/1/1
f 55/1/1 44/1/1 51/1/1
f 55/5/1 51/5/1 54/5/1
f 56/1/1 44/1/1 55/1/1
f 57/1/1 44/1/1 56/1/1
f 58/4/1 53/4/1 52/4/1
f 58/1/1 52/1/1 48/1/1
f 59/1/1 54/1/1 53/1/1
f 59/4/1 53/4/1 58/4/1
f 59/1/1 55/1/1 54/1/1
f 59/1/1 56/1/1 55/1/1
f 60/5/1 57/5/1 56/5/1
f 60/1/1 56/1/1 59/1/1
f 61/1/1 44/1/1 57/1/1
f 61/5/1 57/5/1 60/5/1
f 62/1/1 48/1/1 43/1/1
f 62/2/1 43/2/1 47/2/1
f 62/1/1 61/1/1 60/1/1
f 62/1/1 59/1/1 58/1/1
f 62/1/1 60/1/1 59/1/1
f 62/1/1 58/1/1 48/1/1
f 63/1/1 44/1/1 61/1/1
f 63/1/1 61/1/1 62/1/1
f 63/2/1 42/2/1 44/2/1
f 64/2/1 62/2/1 47/2/1
f 64/2/1 63/2/1 62/2/1
f 65/2/1 42/2/1 63/2/1
f 65/2/1 63/2/1 64/2/1
f 68/3/2 69/3/2 70/3/2
f 68/3/2 70/3/2 72/3/2
f 70/2/2 71/2/2 72/2/2
f 72/2/2 71/2/2 73/2/2
f 66/3/2 67/3/2 74/3/2
f 74/3/2 67/3/2 75/3/2
f 68/3/2 72/3/2 76/3/2
f 76/3/2 72/3/2 77/3/2
f 78/3/2 79/3/2 80/3/2
f 80/3/2 79/3/2 81/3/2
f 82/3/2 83/3/2 84/3/2
f 84/3/2 83/3/2 85/3/2
f 86/2/2 87/2/2 88/2/2
f 88/2/2 87/2/2 89/2/2
f 89/2/2 87/2/2 90/2/2
f 90/2/2 87/2/2 91/2/2
f 89/3/2 90/3/2 92/3/2
f 89/3/2 92/3/2 94/3/2
f 92/2/2 93/2/2 94/2/2
f 94/2/2 93/2/2 95/2/2
f 95/2/2 93/2/2 96/2/2
f 89/3/2 94/3/2 97/3/2
f 97/3/2 94/3/2 98/3/2
f 99/2/2 100/2/2 101/2/2
f 101/2/2 100/2/2 102/2/2
f 103/2/2 104/2/2 105/2/2
f 105/2/2 104/2/2 106/2/2
f 107/3/2 108/3/2 110/3/2
f 110/3/2 108/3/2 111/3/2
f 109/3/2 110/3/2 113/3/2
f 111/3/2 112/3/2 113/3/2
f 110/3/2 111/3/2 113/3/2
f 113/3/2 112/3/2 114/3/2
f 114/3/2 112/3/2 115/3/2
f 115/3/2 112/3/2 116/3/2
f 114/3/2 115/3/2 117/3/2
f 117/3/2 115/3/2 118/3/2
f 121/2/3 120/2/3 119/2/3
f 122/2/3 120/2/3 121/2/3
f 125/3/3 124/3/3 123/3/3
f 126/3/3 124/3/3 125/3/3
f 127/3/3 124/3/3 126/3/3
f 128/3/3 124/3/3 127/3/3
f 131/3/3 130/3/3 129/3/3
f 132/3/3 130/3/3 131/3/3
f 136/3/3 135/3/3 134/3/3
f 137/3/3 135/3/3 136/3/3
f 138/3/3 135/3/3 137/3/3
f 139/3/3 135/3/3 138/3/3
f 140/3/3 133/3/3 132/3/3
f 141/3/3 133/3/3 140/3/3
f 144/2/3 143/2/3 142/2/3
f 145/2/3 143/2/3 144/2/3
f 147/3/3 145/3/3 144/3/3
f 147/3/3 146/3/3 145/3/3
f 148/3/3 146/3/3 147/3/3
f 149/3/3 147/3/3 144/3/3
f 150/3/3 146/3/3 148/3/3
f 151/3/3 149/3/3 144/3/3
f 151/3/3 150/3/3 149/3/3
f 152/3/3 146/3/3 150/3/3
f 152/3/3 150/3/3 151/3/3
f 156/2/3 154/2/3 153/2/3
f 157/2/3 154/2/3 156/2/3
f 158/2/3 154/2/3 157/2/3
f 159/2/3 156/2/3 155/2/3
f 159/2/3 157/2/3 156/2/3
f 160/2/3 157/2/3 159/2/3
f 163/2/3 162/2/3 161/2/3
f 164/2/3 162/2/3 163/2/3
f 165/3/3 164/3/3 163/3/3
f 166/3/3 164/3/3 165/3/3
f 167/3/4 168/3/4 169/3/4
f 169/3/4 168/3/4 170/3/4
f 172/3/4 173/3/4 174/3/4
f 174/3/4 173/3/4 175/3/4
f 175/3/4 173/3/4 176/3/4
f 176/3/4 173/3/4 177/3/4
f 170/3/4 171/3/4 178/3/4
f 178/3/4 171/3/4 179/3/4
f 180/3/4 181/3/4 184/3/4
f 184/3/4 181/3/4 185/3/4
f 182/3/4 183/3/4 186/3/4
f 186/3/4 183/3/4 187/3/4
f 187/3/4 183/3/4 188/3/4
f 188/3/4 183/3/4 189/3/4
f 190/2/4 191/2/4 192/2/4
f 192/2/4 191/2/4 193/2/4
f 194/3/4 195/3/4 196/3/4
f 196/3/4 195/3/4 197/3/4
f 192/3/4 193/3/4 198/3/4
f 198/3/4 193/3/4 199/3/4
f 200/2/4 201/2/4 202/2/4
f 202/2/4 201/2/4 203/2/4
f 204/2/4 205/2/4 206/2/4
f 206/2/4 205/2/4 207/2/4
f 206/3/4 207/3/4 208/3/4
f 208/3/4 207/3/4 209/3/4
f 210/2/4 211/2/4 212/2/4
f 212/2/4 211/2/4 213/2/4
f 213/2/4 211/2/4 214/2/4
f 212/2/4 213/2/4 215/2/4
f 215/2/4 213/2/4 216/2/4
f 217/2/4 218/2/4 221/2/4
f 221/2/4 218/2/4 222/2/4
f 219/2/4 220/2/4 223/2/4
f 223/2/4 220/2/4 224/2/4
f 227/2/5 226/2/5 225/2/5
f 228/2/5 226/2/5 227/2/5
f 229/2/5 227/2/5 225/2/5
f 230/3/5 228/3/5 227/3/5
f 230/2/5 227/2/5 229/2/5
f 231/2/5 226/2/5 228/2/5
f 231/3/5 228/3/5 230/3/5
f 232/2/5 226/2/5 231/2/5
f 233/3/5 230/3/5 229/3/5
f 233/2/5 229/2/5 225/2/5
f 233/3/5 232/3/5 231/3/5
f 233/3/5 231/3/5 230/3/5
f 234/3/5 232/3/5 233/3/5
f 235/3/5 232/3/5 234/3/5
f 236/2/5 226/2/5 232/2/5
f 236/3/5 232/3/5 235/3/5
f 237/3/5 235/3/5 234/3/5
f 237/2/5 234/2/5 233/2/5
f 238/2/5 236/2/5 235/2/5
f 238/3/5 235/3/5 237/3/5
f 239/2/5 233/2/5 225/2/5
f 239/2/5 237/2/5 233/2/5
f 239/2/5 238/2/5 237/2/5
f 240/2/5 226/2/5 236/2/5
f 240/2/5 238/2/5 239/2/5
f 240/2/5 236/2/5 238/2/5
f 243/2/5 242/2/5 241/2/5
f 244/2/5 242/2/5 243/2/5
f 248/2/5 246/2/5 245/2/5
f 248/2/5 247/2/5 246/2/5
f 249/2/5 247/2/5 248/2/5
f 250/2/5 247/2/5 249/2/5
f 251/2/5 247/2/5 250/2/5
f 252/2/5 247/2/5 251/2/5
f 255/2/5 247/2/5 252/2/5
f 256/2/5 254/2/5 253/2/5
f 256/2/5 255/2/5 254/2/5
f 257/2/5 247/2/5 255/2/5
f 257/2/5 255/2/5 256/2/5
f 260/2/5 259/2/5 258/2/5
f 261/2/5 259/2/5 260/2/5
f 264/3/5 263/3/5 262/3/5
f 265/3/5 263/3/5 264/3/5
f 268/3/5 267/3/5 266/3/5
f 269/3/5 267/3/5 268/3/5
f 272/3/5 271/3/5 270/3/5
f 273/3/5 271/3/5 272/3/5
f 274/2/6 275/2/6 276/2/6
f 276/2/6 275/2/6 277/2/6
f 274/2/6 276/2/6 278/2/6
f 278/2/6 276/2/6 279/2/6
f 277/2/6 275/2/6 280/2/6
f 280/2/6 275/2/6 281/2/6
f 274/2/6 278/2/6 282/2/6
f 281/2/6 275/2/6 285/2/6
f 282/2/6 283/2/6 286/2/6
f 284/2/6 285/2/6 287/2/6
f 282/2/6 286/2/6 288/2/6
f 286/2/6 287/2/6 288/2/6
f 274/2/6 282/2/6 288/2/6
f 288/2/6 287/2/6 289/2/6
f 287/2/6 285/2/6 290/2/6
f 289/2/6 287/2/6 290/2/6
f 285/2/6 275/2/6 290/2/6
f 274/2/6 288/2/6 291/2/6
f 291/2/6 292/2/6 294/2/6
f 292/2/6 293/2/6 294/2/6
f 294/2/6 293/2/6 295/2/6
f 295/2/6 293/2/6 296/2/6
f 291/2/6 294/2/6 297/2/6
f 296/2/6 293/2/6 299/2/6
f 274/2/6 291/2/6 300/2/6
f 298/2/6 299/2/6 300/2/6
f 297/2/6 298/2/6 300/2/6
f 291/2/6 297/2/6 300/2/6
f 299/2/6 293/2/6 301/2/6
f 300/2/6 299/2/6 301/2/6
f 302/2/6 303/2/6 304/2/6
f 302/2/6 304/2/6 306/2/6
f 304/2/6 305/2/6 306/2/6
f 306/2/6 305/2/6 307/2/6
f 307/2/6 305/2/6 308/2/6
f 307/2/6 308/2/6 310/2/6
f 308/2/6 309/2/6 310/2/6
f 310/2/6 309/2/6 311/2/6
f 312/2/6 313/2/6 314/2/6
f 314/2/6 313/2/6 315/2/6
f 316/3/6 317/3/6 318/3/6
f 318/3/6 317/3/6 319/3/6
f 319/3/6 317/3/6 320/3/6
f 321/3/6 322/3/6 324/3/6
f 324/3/6 322/3/6 325/3/6
f 323/3/6 324/3/6 326/3/6
f 326/3/6 324/3/6 327/3/6
f 327/3/6 328/3/6 329/3/6
f 329/3/6 328/3/6 330/3/6
f 331/3/6 332/3/6 333/3/6
f 333/3/6 332/3/6 334/3/6
f 335/2/6 336/2/6 337/2/6
f 337/2/6 336/2/6 338/2/6
f 339/2/6 340/2/6 341/2/6
f 341/2/6 340/2/6 342/2/6
