# MagicaVoxel @ Ephtracy

# group
g Electrocity-75

# material
mtllib Electrocity-75.mtl
usemtl palette

# normals
vn -1 0 0
vn 1 0 0
vn 0 0 1
vn 0 0 -1
vn 0 -1 0
vn 0 1 0

# texcoords
vt 0.0175781 0.5
vt 0.0253906 0.5
vt 0.0292969 0.5
vt 0.0566406 0.5

# verts
v -36 4 28
v -36 4 27
v -36 4 25
v -36 6 27
v -36 6 25
v -36 24 28
v -36 24 27
v -36 24 25
v -23 12 28
v -23 12 25
v -23 16 28
v -23 16 25
v -11 12 28
v -11 12 25
v -11 16 28
v -11 16 25
v -31 12 28
v -31 12 25
v -31 16 28
v -31 16 25
v -19 12 28
v -19 12 25
v -19 16 28
v -19 16 25
v -6 4 28
v -6 4 27
v -6 4 25
v -6 6 27
v -6 6 25
v -6 24 28
v -6 24 27
v -6 24 25
v -36 4 28
v -36 24 28
v -32 12 28
v -32 16 28
v -31 11 28
v -31 12 28
v -31 16 28
v -31 17 28
v -23 11 28
v -23 12 28
v -23 16 28
v -23 17 28
v -22 12 28
v -22 16 28
v -20 12 28
v -20 16 28
v -19 11 28
v -19 12 28
v -19 16 28
v -19 17 28
v -11 11 28
v -11 12 28
v -11 16 28
v -11 17 28
v -10 12 28
v -10 16 28
v -6 4 28
v -6 24 28
v -36 4 25
v -36 6 25
v -36 24 25
v -32 12 25
v -32 16 25
v -31 11 25
v -31 12 25
v -31 16 25
v -31 17 25
v -23 11 25
v -23 12 25
v -23 16 25
v -23 17 25
v -22 12 25
v -22 16 25
v -20 12 25
v -20 16 25
v -19 11 25
v -19 12 25
v -19 16 25
v -19 17 25
v -11 11 25
v -11 12 25
v -11 16 25
v -11 17 25
v -10 12 25
v -10 16 25
v -6 4 25
v -6 6 25
v -6 24 25
v -36 4 28
v -6 4 28
v -36 4 27
v -6 4 27
v -36 4 25
v -6 4 25
v -31 16 28
v -23 16 28
v -19 16 28
v -11 16 28
v -31 16 25
v -23 16 25
v -19 16 25
v -11 16 25
v -31 12 28
v -23 12 28
v -19 12 28
v -11 12 28
v -31 12 25
v -23 12 25
v -19 12 25
v -11 12 25
v -36 24 28
v -6 24 28
v -36 24 27
v -6 24 27
v -36 24 25
v -6 24 25

# faces
f 4/3/1 2/3/1 1/3/1
f 4/1/1 3/1/1 2/1/1
f 5/1/1 3/1/1 4/1/1
f 6/3/1 4/3/1 1/3/1
f 7/2/1 5/2/1 4/2/1
f 7/3/1 4/3/1 6/3/1
f 8/2/1 5/2/1 7/2/1
f 11/4/1 10/4/1 9/4/1
f 12/4/1 10/4/1 11/4/1
f 15/4/1 14/4/1 13/4/1
f 16/4/1 14/4/1 15/4/1
f 17/4/2 18/4/2 19/4/2
f 19/4/2 18/4/2 20/4/2
f 21/4/2 22/4/2 23/4/2
f 23/4/2 22/4/2 24/4/2
f 25/3/2 26/3/2 28/3/2
f 26/1/2 27/1/2 28/1/2
f 28/1/2 27/1/2 29/1/2
f 25/3/2 28/3/2 30/3/2
f 28/2/2 29/2/2 31/2/2
f 30/3/2 28/3/2 31/3/2
f 31/2/2 29/2/2 32/2/2
f 35/3/3 34/3/3 33/3/3
f 36/3/3 34/3/3 35/3/3
f 37/3/3 35/3/3 33/3/3
f 38/4/3 36/4/3 35/4/3
f 38/3/3 35/3/3 37/3/3
f 39/3/3 34/3/3 36/3/3
f 39/4/3 36/4/3 38/4/3
f 40/3/3 34/3/3 39/3/3
f 41/4/3 38/4/3 37/4/3
f 41/3/3 37/3/3 33/3/3
f 42/4/3 38/4/3 41/4/3
f 43/4/3 40/4/3 39/4/3
f 44/3/3 34/3/3 40/3/3
f 44/4/3 40/4/3 43/4/3
f 45/4/3 43/4/3 42/4/3
f 45/3/3 42/3/3 41/3/3
f 46/3/3 44/3/3 43/3/3
f 46/4/3 43/4/3 45/4/3
f 47/3/3 45/3/3 41/3/3
f 47/3/3 46/3/3 45/3/3
f 48/3/3 44/3/3 46/3/3
f 48/3/3 46/3/3 47/3/3
f 49/3/3 47/3/3 41/3/3
f 49/3/3 41/3/3 33/3/3
f 50/4/3 48/4/3 47/4/3
f 50/3/3 47/3/3 49/3/3
f 51/3/3 44/3/3 48/3/3
f 51/4/3 48/4/3 50/4/3
f 52/3/3 34/3/3 44/3/3
f 52/3/3 44/3/3 51/3/3
f 53/4/3 50/4/3 49/4/3
f 53/3/3 49/3/3 33/3/3
f 54/4/3 50/4/3 53/4/3
f 55/4/3 52/4/3 51/4/3
f 56/3/3 34/3/3 52/3/3
f 56/4/3 52/4/3 55/4/3
f 57/4/3 55/4/3 54/4/3
f 57/3/3 54/3/3 53/3/3
f 58/3/3 56/3/3 55/3/3
f 58/4/3 55/4/3 57/4/3
f 59/3/3 57/3/3 53/3/3
f 59/3/3 53/3/3 33/3/3
f 59/3/3 58/3/3 57/3/3
f 60/3/3 34/3/3 56/3/3
f 60/3/3 58/3/3 59/3/3
f 60/3/3 56/3/3 58/3/3
f 62/2/4 63/2/4 64/2/4
f 64/2/4 63/2/4 65/2/4
f 62/2/4 64/2/4 66/2/4
f 64/4/4 65/4/4 67/4/4
f 66/2/4 64/2/4 67/2/4
f 65/2/4 63/2/4 68/2/4
f 67/4/4 65/4/4 68/4/4
f 68/2/4 63/2/4 69/2/4
f 66/4/4 67/4/4 70/4/4
f 62/2/4 66/2/4 70/2/4
f 70/4/4 67/4/4 71/4/4
f 68/4/4 69/4/4 72/4/4
f 69/2/4 63/2/4 73/2/4
f 72/4/4 69/4/4 73/4/4
f 71/4/4 72/4/4 74/4/4
f 70/2/4 71/2/4 74/2/4
f 72/2/4 73/2/4 75/2/4
f 74/4/4 72/4/4 75/4/4
f 70/2/4 74/2/4 76/2/4
f 74/2/4 75/2/4 76/2/4
f 75/2/4 73/2/4 77/2/4
f 76/2/4 75/2/4 77/2/4
f 70/2/4 76/2/4 78/2/4
f 62/2/4 70/2/4 78/2/4
f 76/4/4 77/4/4 79/4/4
f 78/2/4 76/2/4 79/2/4
f 77/2/4 73/2/4 80/2/4
f 79/4/4 77/4/4 80/4/4
f 73/2/4 63/2/4 81/2/4
f 80/2/4 73/2/4 81/2/4
f 78/4/4 79/4/4 82/4/4
f 62/2/4 78/2/4 82/2/4
f 82/4/4 79/4/4 83/4/4
f 80/4/4 81/4/4 84/4/4
f 81/2/4 63/2/4 85/2/4
f 84/4/4 81/4/4 85/4/4
f 83/4/4 84/4/4 86/4/4
f 82/2/4 83/2/4 86/2/4
f 84/2/4 85/2/4 87/2/4
f 86/4/4 84/4/4 87/4/4
f 61/1/4 62/1/4 88/1/4
f 82/2/4 86/2/4 89/2/4
f 88/1/4 62/1/4 89/1/4
f 62/2/4 82/2/4 89/2/4
f 86/2/4 87/2/4 89/2/4
f 87/2/4 85/2/4 90/2/4
f 89/2/4 87/2/4 90/2/4
f 85/2/4 63/2/4 90/2/4
f 93/3/5 92/3/5 91/3/5
f 94/3/5 92/3/5 93/3/5
f 95/1/5 94/1/5 93/1/5
f 96/1/5 94/1/5 95/1/5
f 101/4/5 98/4/5 97/4/5
f 102/4/5 98/4/5 101/4/5
f 103/4/5 100/4/5 99/4/5
f 104/4/5 100/4/5 103/4/5
f 105/4/6 106/4/6 109/4/6
f 109/4/6 106/4/6 110/4/6
f 107/4/6 108/4/6 111/4/6
f 111/4/6 108/4/6 112/4/6
f 113/3/6 114/3/6 115/3/6
f 115/3/6 114/3/6 116/3/6
f 115/2/6 116/2/6 117/2/6
f 117/2/6 116/2/6 118/2/6
