# MagicaVoxel @ Ephtracy

# group
g Electrocity-18

# material
mtllib Electrocity-18.mtl
usemtl palette

# normals
vn -1 0 0
vn 1 0 0
vn 0 0 1
vn 0 0 -1
vn 0 -1 0
vn 0 1 0

# texcoords
vt 0.0566406 0.5
vt 0.0605469 0.5
vt 0.939453 0.5
vt 0.943359 0.5

# verts
v 16 0 32
v 16 0 31
v 16 0 30
v 16 1 32
v 16 1 31
v 16 4 32
v 16 4 30
v 16 5 32
v 16 5 30
v 16 7 32
v 16 7 30
v 16 8 32
v 16 8 30
v 16 11 32
v 16 11 31
v 16 12 32
v 16 12 31
v 16 12 30
v 20 0 32
v 20 0 30
v 20 12 32
v 20 12 30
v 16 0 32
v 16 1 32
v 16 4 32
v 16 5 32
v 16 7 32
v 16 8 32
v 16 11 32
v 16 12 32
v 17 0 32
v 17 1 32
v 17 11 32
v 17 12 32
v 18 5 32
v 18 7 32
v 19 0 32
v 19 4 32
v 19 5 32
v 19 7 32
v 19 8 32
v 19 12 32
v 20 0 32
v 20 12 32
v 16 0 30
v 16 4 30
v 16 5 30
v 16 7 30
v 16 8 30
v 16 12 30
v 18 5 30
v 18 7 30
v 19 0 30
v 19 4 30
v 19 5 30
v 19 7 30
v 19 8 30
v 19 12 30
v 20 0 30
v 20 12 30
v 16 0 32
v 17 0 32
v 19 0 32
v 20 0 32
v 16 0 31
v 17 0 31
v 16 0 30
v 19 0 30
v 20 0 30
v 16 12 32
v 17 12 32
v 19 12 32
v 20 12 32
v 16 12 31
v 17 12 31
v 16 12 30
v 19 12 30
v 20 12 30

# faces
f 4/1/1 2/1/1 1/1/1
f 5/2/1 3/2/1 2/2/1
f 5/1/1 2/1/1 4/1/1
f 6/2/1 5/2/1 4/2/1
f 7/2/1 3/2/1 5/2/1
f 7/2/1 5/2/1 6/2/1
f 8/1/1 7/1/1 6/1/1
f 9/1/1 7/1/1 8/1/1
f 10/2/1 9/2/1 8/2/1
f 11/2/1 9/2/1 10/2/1
f 12/1/1 11/1/1 10/1/1
f 13/1/1 11/1/1 12/1/1
f 14/2/1 13/2/1 12/2/1
f 15/2/1 13/2/1 14/2/1
f 16/1/1 15/1/1 14/1/1
f 17/2/1 13/2/1 15/2/1
f 17/1/1 15/1/1 16/1/1
f 18/2/1 13/2/1 17/2/1
f 19/1/2 20/1/2 21/1/2
f 21/1/2 20/1/2 22/1/2
f 31/1/3 24/1/3 23/1/3
f 32/2/3 25/2/3 24/2/3
f 32/1/3 24/1/3 31/1/3
f 33/1/3 30/1/3 29/1/3
f 33/2/3 29/2/3 28/2/3
f 34/1/3 30/1/3 33/1/3
f 35/1/3 26/1/3 25/1/3
f 35/2/3 27/2/3 26/2/3
f 36/1/3 28/1/3 27/1/3
f 36/2/3 27/2/3 35/2/3
f 37/2/3 32/2/3 31/2/3
f 38/2/3 25/2/3 32/2/3
f 38/2/3 32/2/3 37/2/3
f 38/1/3 35/1/3 25/1/3
f 39/3/3 36/3/3 35/3/3
f 39/1/3 35/1/3 38/1/3
f 40/1/3 28/1/3 36/1/3
f 40/3/3 36/3/3 39/3/3
f 41/2/3 34/2/3 33/2/3
f 41/1/3 28/1/3 40/1/3
f 41/2/3 33/2/3 28/2/3
f 42/2/3 34/2/3 41/2/3
f 43/1/3 40/1/3 39/1/3
f 43/1/3 38/1/3 37/1/3
f 43/1/3 42/1/3 41/1/3
f 43/1/3 41/1/3 40/1/3
f 43/1/3 39/1/3 38/1/3
f 44/1/3 42/1/3 43/1/3
f 46/1/4 47/1/4 51/1/4
f 47/2/4 48/2/4 51/2/4
f 48/1/4 49/1/4 52/1/4
f 51/2/4 48/2/4 52/2/4
f 45/2/4 46/2/4 53/2/4
f 46/1/4 51/1/4 54/1/4
f 53/2/4 46/2/4 54/2/4
f 51/4/4 52/4/4 55/4/4
f 54/1/4 51/1/4 55/1/4
f 52/1/4 49/1/4 56/1/4
f 55/4/4 52/4/4 56/4/4
f 49/2/4 50/2/4 57/2/4
f 56/1/4 49/1/4 57/1/4
f 57/2/4 50/2/4 58/2/4
f 54/1/4 55/1/4 59/1/4
f 55/1/4 56/1/4 59/1/4
f 57/1/4 58/1/4 59/1/4
f 56/1/4 57/1/4 59/1/4
f 53/1/4 54/1/4 59/1/4
f 59/1/4 58/1/4 60/1/4
f 65/1/5 62/1/5 61/1/5
f 66/2/5 63/2/5 62/2/5
f 66/1/5 62/1/5 65/1/5
f 67/2/5 66/2/5 65/2/5
f 68/1/5 64/1/5 63/1/5
f 68/2/5 66/2/5 67/2/5
f 68/2/5 63/2/5 66/2/5
f 69/1/5 64/1/5 68/1/5
f 70/1/6 71/1/6 74/1/6
f 71/2/6 72/2/6 75/2/6
f 74/1/6 71/1/6 75/1/6
f 74/2/6 75/2/6 76/2/6
f 72/1/6 73/1/6 77/1/6
f 76/2/6 75/2/6 77/2/6
f 75/2/6 72/2/6 77/2/6
f 77/1/6 73/1/6 78/1/6
