# MagicaVoxel @ Ephtracy

# group
g Electrocity-10

# material
mtllib Electrocity-10.mtl
usemtl palette

# normals
vn -1 0 0
vn 1 0 0
vn 0 0 1
vn 0 0 -1
vn 0 -1 0
vn 0 1 0

# texcoords
vt 0.0527344 0.5
vt 0.0605469 0.5
vt 0.943359 0.5

# verts
v 38 0 -4
v 38 0 -18
v 38 1 -5
v 38 1 -11
v 38 1 -12
v 38 1 -17
v 38 4 -8
v 38 4 -9
v 38 5 -8
v 38 5 -9
v 38 6 -8
v 38 6 -9
v 38 6 -13
v 38 6 -14
v 38 7 -13
v 38 7 -14
v 38 8 -13
v 38 8 -14
v 38 9 -5
v 38 9 -11
v 38 10 -5
v 38 10 -11
v 38 11 -7
v 38 11 -8
v 38 11 -9
v 38 12 -7
v 38 12 -8
v 38 12 -9
v 38 13 -5
v 38 13 -11
v 38 13 -12
v 38 13 -17
v 38 14 -4
v 38 14 -18
v 41 0 -4
v 41 0 -18
v 41 13 -4
v 41 13 -18
v 41 14 -4
v 41 14 -18
v 38 0 -4
v 38 14 -4
v 39 0 -4
v 39 13 -4
v 41 0 -4
v 41 13 -4
v 41 14 -4
v 38 0 -18
v 38 14 -18
v 39 0 -18
v 39 13 -18
v 41 0 -18
v 41 13 -18
v 41 14 -18
v 38 0 -4
v 39 0 -4
v 41 0 -4
v 38 0 -18
v 39 0 -18
v 41 0 -18
v 38 14 -4
v 41 14 -4
v 38 14 -18
v 41 14 -18

# faces
f 3/2/1 2/2/1 1/2/1
f 4/2/1 2/2/1 3/2/1
f 5/2/1 2/2/1 4/2/1
f 6/2/1 2/2/1 5/2/1
f 7/1/1 4/1/1 3/1/1
f 8/1/1 4/1/1 7/1/1
f 9/1/1 7/1/1 3/1/1
f 9/3/1 8/3/1 7/3/1
f 10/1/1 4/1/1 8/1/1
f 10/3/1 8/3/1 9/3/1
f 11/1/1 9/1/1 3/1/1
f 11/2/1 10/2/1 9/2/1
f 12/1/1 4/1/1 10/1/1
f 12/2/1 10/2/1 11/2/1
f 13/1/1 6/1/1 5/1/1
f 14/1/1 6/1/1 13/1/1
f 15/1/1 13/1/1 5/1/1
f 15/3/1 14/3/1 13/3/1
f 16/1/1 6/1/1 14/1/1
f 16/3/1 14/3/1 15/3/1
f 17/1/1 15/1/1 5/1/1
f 17/2/1 16/2/1 15/2/1
f 18/1/1 6/1/1 16/1/1
f 18/2/1 16/2/1 17/2/1
f 19/2/1 3/2/1 1/2/1
f 19/1/1 11/1/1 3/1/1
f 19/1/1 12/1/1 11/1/1
f 20/2/1 5/2/1 4/2/1
f 20/1/1 12/1/1 19/1/1
f 20/1/1 4/1/1 12/1/1
f 21/2/1 19/2/1 1/2/1
f 21/2/1 20/2/1 19/2/1
f 22/2/1 5/2/1 20/2/1
f 22/2/1 20/2/1 21/2/1
f 23/1/1 22/1/1 21/1/1
f 24/1/1 22/1/1 23/1/1
f 25/1/1 22/1/1 24/1/1
f 26/1/1 23/1/1 21/1/1
f 26/3/1 24/3/1 23/3/1
f 27/2/1 25/2/1 24/2/1
f 27/3/1 24/3/1 26/3/1
f 28/1/1 22/1/1 25/1/1
f 28/2/1 25/2/1 27/2/1
f 29/2/1 21/2/1 1/2/1
f 29/1/1 27/1/1 26/1/1
f 29/1/1 28/1/1 27/1/1
f 29/1/1 26/1/1 21/1/1
f 30/1/1 22/1/1 28/1/1
f 30/1/1 28/1/1 29/1/1
f 30/2/1 5/2/1 22/2/1
f 31/1/1 17/1/1 5/1/1
f 31/2/1 5/2/1 30/2/1
f 31/1/1 18/1/1 17/1/1
f 32/1/1 6/1/1 18/1/1
f 32/1/1 18/1/1 31/1/1
f 32/2/1 2/2/1 6/2/1
f 33/2/1 31/2/1 30/2/1
f 33/2/1 30/2/1 29/2/1
f 33/2/1 32/2/1 31/2/1
f 33/2/1 29/2/1 1/2/1
f 34/2/1 2/2/1 32/2/1
f 34/2/1 32/2/1 33/2/1
f 35/1/2 36/1/2 37/1/2
f 37/1/2 36/1/2 38/1/2
f 37/2/2 38/2/2 39/2/2
f 39/2/2 38/2/2 40/2/2
f 43/2/3 42/2/3 41/2/3
f 44/2/3 42/2/3 43/2/3
f 45/1/3 44/1/3 43/1/3
f 46/2/3 42/2/3 44/2/3
f 46/1/3 44/1/3 45/1/3
f 47/2/3 42/2/3 46/2/3
f 48/2/4 49/2/4 50/2/4
f 50/2/4 49/2/4 51/2/4
f 50/1/4 51/1/4 52/1/4
f 51/2/4 49/2/4 53/2/4
f 52/1/4 51/1/4 53/1/4
f 53/2/4 49/2/4 54/2/4
f 58/2/5 56/2/5 55/2/5
f 59/1/5 57/1/5 56/1/5
f 59/2/5 56/2/5 58/2/5
f 60/1/5 57/1/5 59/1/5
f 61/2/6 62/2/6 63/2/6
f 63/2/6 62/2/6 64/2/6
