# MagicaVoxel @ Ephtracy

# group
g Electrocity-27

# material
mtllib Electrocity-27.mtl
usemtl palette

# normals
vn -1 0 0
vn 1 0 0
vn 0 0 1
vn 0 0 -1
vn 0 -1 0
vn 0 1 0

# texcoords
vt 0.0253906 0.5
vt 0.0292969 0.5
vt 0.0449219 0.5
vt 0.0488281 0.5

# verts
v 40 0 36
v 40 0 -36
v 40 2 34
v 40 2 21
v 40 2 17
v 40 2 4
v 40 2 -0
v 40 2 -13
v 40 2 -17
v 40 2 -30
v 40 3 35
v 40 3 34
v 40 3 21
v 40 3 20
v 40 3 18
v 40 3 17
v 40 3 4
v 40 3 3
v 40 3 1
v 40 3 -0
v 40 3 -13
v 40 3 -14
v 40 3 -16
v 40 3 -17
v 40 3 -30
v 40 3 -31
v 40 24 35
v 40 24 34
v 40 24 21
v 40 24 20
v 40 24 18
v 40 24 17
v 40 24 4
v 40 24 3
v 40 24 1
v 40 24 -0
v 40 24 -13
v 40 24 -14
v 40 24 -16
v 40 24 -17
v 40 24 -30
v 40 24 -31
v 40 25 34
v 40 25 21
v 40 25 17
v 40 25 4
v 40 25 -0
v 40 25 -13
v 40 25 -17
v 40 25 -30
v 40 26 36
v 40 26 -36
v 41 2 34
v 41 2 21
v 41 2 17
v 41 2 4
v 41 2 -0
v 41 2 -13
v 41 2 -17
v 41 2 -30
v 41 3 35
v 41 3 34
v 41 3 21
v 41 3 20
v 41 3 18
v 41 3 17
v 41 3 4
v 41 3 3
v 41 3 1
v 41 3 -0
v 41 3 -13
v 41 3 -14
v 41 3 -16
v 41 3 -17
v 41 3 -30
v 41 3 -31
v 41 24 35
v 41 24 34
v 41 24 21
v 41 24 20
v 41 24 18
v 41 24 17
v 41 24 4
v 41 24 3
v 41 24 1
v 41 24 -0
v 41 24 -13
v 41 24 -14
v 41 24 -16
v 41 24 -17
v 41 24 -30
v 41 24 -31
v 41 25 34
v 41 25 21
v 41 25 17
v 41 25 4
v 41 25 -0
v 41 25 -13
v 41 25 -17
v 41 25 -30
v 44 0 36
v 44 0 -36
v 44 2 34
v 44 2 21
v 44 2 17
v 44 2 4
v 44 2 -0
v 44 2 -13
v 44 2 -17
v 44 2 -30
v 44 3 35
v 44 3 34
v 44 3 21
v 44 3 20
v 44 3 18
v 44 3 17
v 44 3 4
v 44 3 3
v 44 3 1
v 44 3 -0
v 44 3 -13
v 44 3 -14
v 44 3 -16
v 44 3 -17
v 44 3 -30
v 44 3 -31
v 44 24 35
v 44 24 34
v 44 24 21
v 44 24 20
v 44 24 18
v 44 24 17
v 44 24 4
v 44 24 3
v 44 24 1
v 44 24 -0
v 44 24 -13
v 44 24 -14
v 44 24 -16
v 44 24 -17
v 44 24 -30
v 44 24 -31
v 44 25 34
v 44 25 21
v 44 25 17
v 44 25 4
v 44 25 -0
v 44 25 -13
v 44 25 -17
v 44 25 -30
v 44 26 36
v 44 26 -36
v 40 0 36
v 40 26 36
v 44 0 36
v 44 26 36
v 40 2 21
v 40 3 21
v 40 24 21
v 40 25 21
v 41 2 21
v 41 3 21
v 41 24 21
v 41 25 21
v 40 3 20
v 40 24 20
v 41 3 20
v 41 24 20
v 40 2 4
v 40 3 4
v 40 24 4
v 40 25 4
v 41 2 4
v 41 3 4
v 41 24 4
v 41 25 4
v 40 3 3
v 40 24 3
v 41 3 3
v 41 24 3
v 40 2 -13
v 40 3 -13
v 40 24 -13
v 40 25 -13
v 41 2 -13
v 41 3 -13
v 41 24 -13
v 41 25 -13
v 40 3 -14
v 40 24 -14
v 41 3 -14
v 41 24 -14
v 40 2 -30
v 40 3 -30
v 40 24 -30
v 40 25 -30
v 41 2 -30
v 41 3 -30
v 41 24 -30
v 41 25 -30
v 40 3 -31
v 40 24 -31
v 41 3 -31
v 41 24 -31
v 40 3 35
v 40 24 35
v 41 3 35
v 41 24 35
v 40 2 34
v 40 3 34
v 40 24 34
v 40 25 34
v 41 2 34
v 41 3 34
v 41 24 34
v 41 25 34
v 40 3 18
v 40 24 18
v 41 3 18
v 41 24 18
v 40 2 17
v 40 3 17
v 40 24 17
v 40 25 17
v 41 2 17
v 41 3 17
v 41 24 17
v 41 25 17
v 40 3 1
v 40 24 1
v 41 3 1
v 41 24 1
v 40 2 -0
v 40 3 -0
v 40 24 -0
v 40 25 -0
v 41 2 -0
v 41 3 -0
v 41 24 -0
v 41 25 -0
v 40 3 -16
v 40 24 -16
v 41 3 -16
v 41 24 -16
v 40 2 -17
v 40 3 -17
v 40 24 -17
v 40 25 -17
v 41 2 -17
v 41 3 -17
v 41 24 -17
v 41 25 -17
v 40 0 -36
v 40 26 -36
v 44 0 -36
v 44 26 -36
v 40 0 36
v 44 0 36
v 40 0 -36
v 44 0 -36
v 40 24 35
v 41 24 35
v 40 24 34
v 41 24 34
v 40 24 21
v 41 24 21
v 40 24 20
v 41 24 20
v 40 24 18
v 41 24 18
v 40 24 17
v 41 24 17
v 40 24 4
v 41 24 4
v 40 24 3
v 41 24 3
v 40 24 1
v 41 24 1
v 40 24 -0
v 41 24 -0
v 40 24 -13
v 41 24 -13
v 40 24 -14
v 41 24 -14
v 40 24 -16
v 41 24 -16
v 40 24 -17
v 41 24 -17
v 40 24 -30
v 41 24 -30
v 40 24 -31
v 41 24 -31
v 40 25 34
v 41 25 34
v 40 25 21
v 41 25 21
v 40 25 17
v 41 25 17
v 40 25 4
v 41 25 4
v 40 25 -0
v 41 25 -0
v 40 25 -13
v 41 25 -13
v 40 25 -17
v 41 25 -17
v 40 25 -30
v 41 25 -30
v 40 2 34
v 41 2 34
v 40 2 21
v 41 2 21
v 40 2 17
v 41 2 17
v 40 2 4
v 41 2 4
v 40 2 -0
v 41 2 -0
v 40 2 -13
v 41 2 -13
v 40 2 -17
v 41 2 -17
v 40 2 -30
v 41 2 -30
v 40 3 35
v 41 3 35
v 40 3 34
v 41 3 34
v 40 3 21
v 41 3 21
v 40 3 20
v 41 3 20
v 40 3 18
v 41 3 18
v 40 3 17
v 41 3 17
v 40 3 4
v 41 3 4
v 40 3 3
v 41 3 3
v 40 3 1
v 41 3 1
v 40 3 -0
v 41 3 -0
v 40 3 -13
v 41 3 -13
v 40 3 -14
v 41 3 -14
v 40 3 -16
v 41 3 -16
v 40 3 -17
v 41 3 -17
v 40 3 -30
v 41 3 -30
v 40 3 -31
v 41 3 -31
v 40 26 36
v 44 26 36
v 40 26 -36
v 44 26 -36

# faces
f 3/4/1 2/4/1 1/4/1
f 4/4/1 2/4/1 3/4/1
f 5/4/1 2/4/1 4/4/1
f 6/4/1 2/4/1 5/4/1
f 7/4/1 2/4/1 6/4/1
f 8/4/1 2/4/1 7/4/1
f 9/4/1 2/4/1 8/4/1
f 10/4/1 2/4/1 9/4/1
f 11/4/1 3/4/1 1/4/1
f 12/4/1 3/4/1 11/4/1
f 13/4/1 5/4/1 4/4/1
f 14/4/1 5/4/1 13/4/1
f 15/4/1 5/4/1 14/4/1
f 16/4/1 5/4/1 15/4/1
f 17/4/1 7/4/1 6/4/1
f 18/4/1 7/4/1 17/4/1
f 19/4/1 7/4/1 18/4/1
f 20/4/1 7/4/1 19/4/1
f 21/4/1 9/4/1 8/4/1
f 22/4/1 9/4/1 21/4/1
f 23/4/1 9/4/1 22/4/1
f 24/4/1 9/4/1 23/4/1
f 25/4/1 2/4/1 10/4/1
f 26/4/1 2/4/1 25/4/1
f 27/4/1 11/4/1 1/4/1
f 30/4/1 15/4/1 14/4/1
f 31/4/1 15/4/1 30/4/1
f 34/4/1 19/4/1 18/4/1
f 35/4/1 19/4/1 34/4/1
f 38/4/1 23/4/1 22/4/1
f 39/4/1 23/4/1 38/4/1
f 42/4/1 2/4/1 26/4/1
f 43/4/1 28/4/1 27/4/1
f 44/4/1 32/4/1 31/4/1
f 44/4/1 30/4/1 29/4/1
f 44/4/1 31/4/1 30/4/1
f 45/4/1 32/4/1 44/4/1
f 46/4/1 36/4/1 35/4/1
f 46/4/1 34/4/1 33/4/1
f 46/4/1 35/4/1 34/4/1
f 47/4/1 36/4/1 46/4/1
f 48/4/1 40/4/1 39/4/1
f 48/4/1 38/4/1 37/4/1
f 48/4/1 39/4/1 38/4/1
f 49/4/1 40/4/1 48/4/1
f 50/4/1 42/4/1 41/4/1
f 51/4/1 47/4/1 46/4/1
f 51/4/1 50/4/1 49/4/1
f 51/4/1 45/4/1 44/4/1
f 51/4/1 43/4/1 27/4/1
f 51/4/1 48/4/1 47/4/1
f 51/4/1 49/4/1 48/4/1
f 51/4/1 27/4/1 1/4/1
f 51/4/1 46/4/1 45/4/1
f 51/4/1 44/4/1 43/4/1
f 52/4/1 42/4/1 50/4/1
f 52/4/1 50/4/1 51/4/1
f 52/4/1 2/4/1 42/4/1
f 62/3/1 54/3/1 53/3/1
f 63/3/1 54/3/1 62/3/1
f 66/3/1 56/3/1 55/3/1
f 67/3/1 56/3/1 66/3/1
f 70/3/1 58/3/1 57/3/1
f 71/3/1 58/3/1 70/3/1
f 74/3/1 60/3/1 59/3/1
f 75/3/1 60/3/1 74/3/1
f 77/3/1 64/3/1 63/3/1
f 77/3/1 62/3/1 61/3/1
f 77/3/1 63/3/1 62/3/1
f 78/3/1 64/3/1 77/3/1
f 79/3/1 64/3/1 78/3/1
f 80/3/1 64/3/1 79/3/1
f 81/3/1 68/3/1 67/3/1
f 81/3/1 66/3/1 65/3/1
f 81/3/1 67/3/1 66/3/1
f 82/3/1 68/3/1 81/3/1
f 83/3/1 68/3/1 82/3/1
f 84/3/1 68/3/1 83/3/1
f 85/3/1 72/3/1 71/3/1
f 85/3/1 70/3/1 69/3/1
f 85/3/1 71/3/1 70/3/1
f 86/3/1 72/3/1 85/3/1
f 87/3/1 72/3/1 86/3/1
f 88/3/1 72/3/1 87/3/1
f 89/3/1 76/3/1 75/3/1
f 89/3/1 75/3/1 74/3/1
f 89/3/1 74/3/1 73/3/1
f 90/3/1 76/3/1 89/3/1
f 91/3/1 76/3/1 90/3/1
f 92/3/1 76/3/1 91/3/1
f 93/3/1 79/3/1 78/3/1
f 94/3/1 79/3/1 93/3/1
f 95/3/1 83/3/1 82/3/1
f 96/3/1 83/3/1 95/3/1
f 97/3/1 87/3/1 86/3/1
f 98/3/1 87/3/1 97/3/1
f 99/3/1 91/3/1 90/3/1
f 100/3/1 91/3/1 99/3/1
f 101/4/2 102/4/2 103/4/2
f 103/4/2 102/4/2 104/4/2
f 104/4/2 102/4/2 105/4/2
f 105/4/2 102/4/2 106/4/2
f 106/4/2 102/4/2 107/4/2
f 107/4/2 102/4/2 108/4/2
f 108/4/2 102/4/2 109/4/2
f 109/4/2 102/4/2 110/4/2
f 101/4/2 103/4/2 111/4/2
f 103/2/2 104/2/2 112/2/2
f 111/4/2 103/4/2 112/4/2
f 104/4/2 105/4/2 113/4/2
f 112/2/2 104/2/2 113/2/2
f 113/4/2 105/4/2 114/4/2
f 114/4/2 105/4/2 115/4/2
f 105/2/2 106/2/2 116/2/2
f 115/4/2 105/4/2 116/4/2
f 106/4/2 107/4/2 117/4/2
f 116/2/2 106/2/2 117/2/2
f 117/4/2 107/4/2 118/4/2
f 118/4/2 107/4/2 119/4/2
f 107/2/2 108/2/2 120/2/2
f 119/4/2 107/4/2 120/4/2
f 108/4/2 109/4/2 121/4/2
f 120/2/2 108/2/2 121/2/2
f 121/4/2 109/4/2 122/4/2
f 122/4/2 109/4/2 123/4/2
f 109/2/2 110/2/2 124/2/2
f 123/4/2 109/4/2 124/4/2
f 110/4/2 102/4/2 125/4/2
f 124/2/2 110/2/2 125/2/2
f 125/4/2 102/4/2 126/4/2
f 101/4/2 111/4/2 127/4/2
f 111/2/2 112/2/2 127/2/2
f 112/2/2 113/2/2 127/2/2
f 113/2/2 114/2/2 127/2/2
f 127/2/2 114/2/2 128/2/2
f 128/2/2 114/2/2 129/2/2
f 114/4/2 115/4/2 130/4/2
f 129/2/2 114/2/2 130/2/2
f 115/2/2 116/2/2 131/2/2
f 130/4/2 115/4/2 131/4/2
f 116/2/2 117/2/2 131/2/2
f 117/2/2 118/2/2 131/2/2
f 131/2/2 118/2/2 132/2/2
f 132/2/2 118/2/2 133/2/2
f 118/4/2 119/4/2 134/4/2
f 133/2/2 118/2/2 134/2/2
f 119/2/2 120/2/2 135/2/2
f 134/4/2 119/4/2 135/4/2
f 121/2/2 122/2/2 135/2/2
f 120/2/2 121/2/2 135/2/2
f 135/2/2 122/2/2 136/2/2
f 136/2/2 122/2/2 137/2/2
f 122/4/2 123/4/2 138/4/2
f 137/2/2 122/2/2 138/2/2
f 123/2/2 124/2/2 139/2/2
f 138/4/2 123/4/2 139/4/2
f 125/2/2 126/2/2 139/2/2
f 124/2/2 125/2/2 139/2/2
f 139/2/2 126/2/2 140/2/2
f 140/2/2 126/2/2 141/2/2
f 126/4/2 102/4/2 142/4/2
f 141/2/2 126/2/2 142/2/2
f 128/2/2 129/2/2 143/2/2
f 127/4/2 128/4/2 143/4/2
f 129/4/2 130/4/2 144/4/2
f 143/2/2 129/2/2 144/2/2
f 131/4/2 132/4/2 144/4/2
f 130/4/2 131/4/2 144/4/2
f 132/2/2 133/2/2 145/2/2
f 144/4/2 132/4/2 145/4/2
f 135/4/2 136/4/2 146/4/2
f 145/2/2 133/2/2 146/2/2
f 133/4/2 134/4/2 146/4/2
f 134/4/2 135/4/2 146/4/2
f 136/2/2 137/2/2 147/2/2
f 146/4/2 136/4/2 147/4/2
f 137/4/2 138/4/2 148/4/2
f 147/2/2 137/2/2 148/2/2
f 138/4/2 139/4/2 148/4/2
f 139/4/2 140/4/2 148/4/2
f 140/2/2 141/2/2 149/2/2
f 148/4/2 140/4/2 149/4/2
f 141/4/2 142/4/2 150/4/2
f 149/2/2 141/2/2 150/2/2
f 146/4/2 147/4/2 151/4/2
f 147/4/2 148/4/2 151/4/2
f 149/4/2 150/4/2 151/4/2
f 101/4/2 127/4/2 151/4/2
f 145/4/2 146/4/2 151/4/2
f 148/4/2 149/4/2 151/4/2
f 143/4/2 144/4/2 151/4/2
f 127/4/2 143/4/2 151/4/2
f 144/4/2 145/4/2 151/4/2
f 150/4/2 142/4/2 152/4/2
f 151/4/2 150/4/2 152/4/2
f 142/4/2 102/4/2 152/4/2
f 155/4/3 154/4/3 153/4/3
f 156/4/3 154/4/3 155/4/3
f 161/4/3 158/4/3 157/4/3
f 162/4/3 158/4/3 161/4/3
f 163/4/3 160/4/3 159/4/3
f 164/4/3 160/4/3 163/4/3
f 167/4/3 166/4/3 165/4/3
f 168/4/3 166/4/3 167/4/3
f 173/4/3 170/4/3 169/4/3
f 174/4/3 170/4/3 173/4/3
f 175/4/3 172/4/3 171/4/3
f 176/4/3 172/4/3 175/4/3
f 179/4/3 178/4/3 177/4/3
f 180/4/3 178/4/3 179/4/3
f 185/4/3 182/4/3 181/4/3
f 186/4/3 182/4/3 185/4/3
f 187/4/3 184/4/3 183/4/3
f 188/4/3 184/4/3 187/4/3
f 191/4/3 190/4/3 189/4/3
f 192/4/3 190/4/3 191/4/3
f 197/4/3 194/4/3 193/4/3
f 198/4/3 194/4/3 197/4/3
f 199/4/3 196/4/3 195/4/3
f 200/4/3 196/4/3 199/4/3
f 203/4/3 202/4/3 201/4/3
f 204/4/3 202/4/3 203/4/3
f 205/4/4 206/4/4 207/4/4
f 207/4/4 206/4/4 208/4/4
f 209/4/4 210/4/4 213/4/4
f 213/4/4 210/4/4 214/4/4
f 211/4/4 212/4/4 215/4/4
f 215/4/4 212/4/4 216/4/4
f 217/4/4 218/4/4 219/4/4
f 219/4/4 218/4/4 220/4/4
f 221/4/4 222/4/4 225/4/4
f 225/4/4 222/4/4 226/4/4
f 223/4/4 224/4/4 227/4/4
f 227/4/4 224/4/4 228/4/4
f 229/4/4 230/4/4 231/4/4
f 231/4/4 230/4/4 232/4/4
f 233/4/4 234/4/4 237/4/4
f 237/4/4 234/4/4 238/4/4
f 235/4/4 236/4/4 239/4/4
f 239/4/4 236/4/4 240/4/4
f 241/4/4 242/4/4 243/4/4
f 243/4/4 242/4/4 244/4/4
f 245/4/4 246/4/4 249/4/4
f 249/4/4 246/4/4 250/4/4
f 247/4/4 248/4/4 251/4/4
f 251/4/4 248/4/4 252/4/4
f 253/4/4 254/4/4 255/4/4
f 255/4/4 254/4/4 256/4/4
f 259/4/5 258/4/5 257/4/5
f 260/4/5 258/4/5 259/4/5
f 263/4/5 262/4/5 261/4/5
f 264/4/5 262/4/5 263/4/5
f 267/4/5 266/4/5 265/4/5
f 268/4/5 266/4/5 267/4/5
f 271/4/5 270/4/5 269/4/5
f 272/4/5 270/4/5 271/4/5
f 275/4/5 274/4/5 273/4/5
f 276/4/5 274/4/5 275/4/5
f 279/4/5 278/4/5 277/4/5
f 280/4/5 278/4/5 279/4/5
f 283/4/5 282/4/5 281/4/5
f 284/4/5 282/4/5 283/4/5
f 287/4/5 286/4/5 285/4/5
f 288/4/5 286/4/5 287/4/5
f 291/4/5 290/4/5 289/4/5
f 292/4/5 290/4/5 291/4/5
f 295/4/5 294/4/5 293/4/5
f 296/4/5 294/4/5 295/4/5
f 299/4/5 298/4/5 297/4/5
f 300/4/5 298/4/5 299/4/5
f 303/4/5 302/4/5 301/4/5
f 304/4/5 302/4/5 303/4/5
f 307/4/5 306/4/5 305/4/5
f 308/4/5 306/4/5 307/4/5
f 309/4/6 310/4/6 311/4/6
f 311/4/6 310/4/6 312/4/6
f 313/4/6 314/4/6 315/4/6
f 315/4/6 314/4/6 316/4/6
f 317/4/6 318/4/6 319/4/6
f 319/4/6 318/4/6 320/4/6
f 321/4/6 322/4/6 323/4/6
f 323/4/6 322/4/6 324/4/6
f 325/4/6 326/4/6 327/4/6
f 327/4/6 326/4/6 328/4/6
f 329/4/6 330/4/6 331/4/6
f 331/4/6 330/4/6 332/4/6
f 333/4/6 334/4/6 335/4/6
f 335/4/6 334/4/6 336/4/6
f 337/4/6 338/4/6 339/4/6
f 339/4/6 338/4/6 340/4/6
f 341/4/6 342/4/6 343/4/6
f 343/4/6 342/4/6 344/4/6
f 345/4/6 346/4/6 347/4/6
f 347/4/6 346/4/6 348/4/6
f 349/4/6 350/4/6 351/4/6
f 351/4/6 350/4/6 352/4/6
f 353/4/6 354/4/6 355/4/6
f 355/4/6 354/4/6 356/4/6
f 357/4/6 358/4/6 359/4/6
f 359/4/6 358/4/6 360/4/6
