# MagicaVoxel @ Ephtracy

# group
g Шокла-12

# material
mtllib Шокла-12.mtl
usemtl palette

# normals
vn -1 0 0
vn 1 0 0
vn 0 0 1
vn 0 0 -1
vn 0 -1 0
vn 0 1 0

# texcoords
vt 0.0566406 0.5
vt 0.0605469 0.5
vt 0.939453 0.5
vt 0.943359 0.5

# verts
v 0 0 2
v 0 0 1
v 0 0 -1
v 0 0 -3
v 0 0 -5
v 0 0 -6
v 0 1 2
v 0 1 1
v 0 1 -5
v 0 1 -6
v 0 4 2
v 0 4 -1
v 0 4 -3
v 0 4 -6
v 0 5 2
v 0 5 -0
v 0 5 -1
v 0 5 -3
v 0 5 -4
v 0 5 -6
v 0 7 2
v 0 7 -0
v 0 7 -1
v 0 7 -3
v 0 7 -4
v 0 7 -6
v 0 8 2
v 0 8 -1
v 0 8 -3
v 0 8 -6
v 0 11 2
v 0 11 1
v 0 11 -5
v 0 11 -6
v 0 12 2
v 0 12 1
v 0 12 -1
v 0 12 -3
v 0 12 -5
v 0 12 -6
v 2 0 2
v 2 0 -1
v 2 0 -3
v 2 0 -6
v 2 4 2
v 2 4 -1
v 2 4 -3
v 2 4 -6
v 2 5 2
v 2 5 -0
v 2 5 -1
v 2 5 -3
v 2 5 -4
v 2 5 -6
v 2 7 2
v 2 7 -0
v 2 7 -1
v 2 7 -3
v 2 7 -4
v 2 7 -6
v 2 8 2
v 2 8 -1
v 2 8 -3
v 2 8 -6
v 2 12 2
v 2 12 -1
v 2 12 -3
v 2 12 -6
v 0 0 2
v 0 1 2
v 0 4 2
v 0 5 2
v 0 7 2
v 0 8 2
v 0 11 2
v 0 12 2
v 1 0 2
v 1 1 2
v 1 11 2
v 1 12 2
v 2 0 2
v 2 4 2
v 2 5 2
v 2 7 2
v 2 8 2
v 2 12 2
v 0 0 -6
v 0 1 -6
v 0 4 -6
v 0 5 -6
v 0 7 -6
v 0 8 -6
v 0 11 -6
v 0 12 -6
v 1 0 -6
v 1 1 -6
v 1 11 -6
v 1 12 -6
v 2 0 -6
v 2 4 -6
v 2 5 -6
v 2 7 -6
v 2 8 -6
v 2 12 -6
v 0 0 2
v 1 0 2
v 2 0 2
v 0 0 1
v 1 0 1
v 0 0 -1
v 2 0 -1
v 0 0 -3
v 2 0 -3
v 0 0 -5
v 1 0 -5
v 0 0 -6
v 1 0 -6
v 2 0 -6
v 0 12 2
v 1 12 2
v 2 12 2
v 0 12 1
v 1 12 1
v 0 12 -1
v 2 12 -1
v 0 12 -3
v 2 12 -3
v 0 12 -5
v 1 12 -5
v 0 12 -6
v 1 12 -6
v 2 12 -6

# faces
f 7/1/1 2/1/1 1/1/1
f 8/2/1 3/2/1 2/2/1
f 8/1/1 2/1/1 7/1/1
f 9/1/1 6/1/1 5/1/1
f 9/2/1 5/2/1 4/2/1
f 10/1/1 6/1/1 9/1/1
f 11/2/1 8/2/1 7/2/1
f 12/2/1 3/2/1 8/2/1
f 12/2/1 8/2/1 11/2/1
f 12/1/1 4/1/1 3/1/1
f 13/2/1 10/2/1 9/2/1
f 13/1/1 4/1/1 12/1/1
f 13/2/1 9/2/1 4/2/1
f 14/2/1 10/2/1 13/2/1
f 15/1/1 12/1/1 11/1/1
f 15/1/1 13/1/1 12/1/1
f 15/1/1 14/1/1 13/1/1
f 16/1/1 14/1/1 15/1/1
f 17/1/1 14/1/1 16/1/1
f 18/1/1 14/1/1 17/1/1
f 19/1/1 14/1/1 18/1/1
f 20/1/1 14/1/1 19/1/1
f 21/2/1 16/2/1 15/2/1
f 22/3/1 17/3/1 16/3/1
f 22/2/1 16/2/1 21/2/1
f 23/1/1 18/1/1 17/1/1
f 23/3/1 17/3/1 22/3/1
f 24/3/1 19/3/1 18/3/1
f 24/1/1 18/1/1 23/1/1
f 25/2/1 20/2/1 19/2/1
f 25/3/1 19/3/1 24/3/1
f 26/2/1 20/2/1 25/2/1
f 27/1/1 22/1/1 21/1/1
f 27/1/1 23/1/1 22/1/1
f 27/1/1 26/1/1 25/1/1
f 27/1/1 25/1/1 24/1/1
f 27/1/1 24/1/1 23/1/1
f 28/1/1 26/1/1 27/1/1
f 29/1/1 26/1/1 28/1/1
f 30/1/1 26/1/1 29/1/1
f 31/2/1 28/2/1 27/2/1
f 32/2/1 28/2/1 31/2/1
f 33/2/1 30/2/1 29/2/1
f 34/2/1 30/2/1 33/2/1
f 35/1/1 32/1/1 31/1/1
f 36/2/1 28/2/1 32/2/1
f 36/1/1 32/1/1 35/1/1
f 37/1/1 29/1/1 28/1/1
f 37/2/1 28/2/1 36/2/1
f 38/2/1 33/2/1 29/2/1
f 38/1/1 29/1/1 37/1/1
f 39/1/1 34/1/1 33/1/1
f 39/2/1 33/2/1 38/2/1
f 40/1/1 34/1/1 39/1/1
f 41/2/2 42/2/2 45/2/2
f 42/1/2 43/1/2 46/1/2
f 45/2/2 42/2/2 46/2/2
f 43/2/2 44/2/2 47/2/2
f 46/1/2 43/1/2 47/1/2
f 47/2/2 44/2/2 48/2/2
f 45/1/2 46/1/2 49/1/2
f 46/1/2 47/1/2 49/1/2
f 47/1/2 48/1/2 49/1/2
f 49/1/2 48/1/2 50/1/2
f 50/1/2 48/1/2 51/1/2
f 51/1/2 48/1/2 52/1/2
f 52/1/2 48/1/2 53/1/2
f 53/1/2 48/1/2 54/1/2
f 49/2/2 50/2/2 55/2/2
f 50/4/2 51/4/2 56/4/2
f 55/2/2 50/2/2 56/2/2
f 51/1/2 52/1/2 57/1/2
f 56/4/2 51/4/2 57/4/2
f 52/4/2 53/4/2 58/4/2
f 57/1/2 52/1/2 58/1/2
f 53/2/2 54/2/2 59/2/2
f 58/4/2 53/4/2 59/4/2
f 59/2/2 54/2/2 60/2/2
f 55/1/2 56/1/2 61/1/2
f 56/1/2 57/1/2 61/1/2
f 59/1/2 60/1/2 61/1/2
f 58/1/2 59/1/2 61/1/2
f 57/1/2 58/1/2 61/1/2
f 61/1/2 60/1/2 62/1/2
f 62/1/2 60/1/2 63/1/2
f 63/1/2 60/1/2 64/1/2
f 61/2/2 62/2/2 65/2/2
f 62/1/2 63/1/2 66/1/2
f 65/2/2 62/2/2 66/2/2
f 63/2/2 64/2/2 67/2/2
f 66/1/2 63/1/2 67/1/2
f 67/2/2 64/2/2 68/2/2
f 77/1/3 70/1/3 69/1/3
f 78/2/3 71/2/3 70/2/3
f 78/1/3 70/1/3 77/1/3
f 79/1/3 76/1/3 75/1/3
f 79/2/3 75/2/3 74/2/3
f 80/1/3 76/1/3 79/1/3
f 81/2/3 78/2/3 77/2/3
f 82/2/3 71/2/3 78/2/3
f 82/2/3 78/2/3 81/2/3
f 82/1/3 72/1/3 71/1/3
f 83/2/3 73/2/3 72/2/3
f 83/1/3 72/1/3 82/1/3
f 84/1/3 74/1/3 73/1/3
f 84/2/3 73/2/3 83/2/3
f 85/2/3 80/2/3 79/2/3
f 85/1/3 74/1/3 84/1/3
f 85/2/3 79/2/3 74/2/3
f 86/2/3 80/2/3 85/2/3
f 87/1/4 88/1/4 95/1/4
f 88/2/4 89/2/4 96/2/4
f 95/1/4 88/1/4 96/1/4
f 93/1/4 94/1/4 97/1/4
f 92/2/4 93/2/4 97/2/4
f 97/1/4 94/1/4 98/1/4
f 95/2/4 96/2/4 99/2/4
f 96/2/4 89/2/4 100/2/4
f 99/2/4 96/2/4 100/2/4
f 89/1/4 90/1/4 100/1/4
f 90/2/4 91/2/4 101/2/4
f 100/1/4 90/1/4 101/1/4
f 91/1/4 92/1/4 102/1/4
f 101/2/4 91/2/4 102/2/4
f 97/2/4 98/2/4 103/2/4
f 102/1/4 92/1/4 103/1/4
f 92/2/4 97/2/4 103/2/4
f 103/2/4 98/2/4 104/2/4
f 108/1/5 106/1/5 105/1/5
f 109/2/5 107/2/5 106/2/5
f 109/1/5 106/1/5 108/1/5
f 110/2/5 109/2/5 108/2/5
f 111/2/5 107/2/5 109/2/5
f 111/2/5 109/2/5 110/2/5
f 112/1/5 111/1/5 110/1/5
f 113/1/5 111/1/5 112/1/5
f 114/2/5 113/2/5 112/2/5
f 115/2/5 113/2/5 114/2/5
f 116/1/5 115/1/5 114/1/5
f 117/2/5 113/2/5 115/2/5
f 117/1/5 115/1/5 116/1/5
f 118/2/5 113/2/5 117/2/5
f 119/1/6 120/1/6 122/1/6
f 120/2/6 121/2/6 123/2/6
f 122/1/6 120/1/6 123/1/6
f 122/2/6 123/2/6 124/2/6
f 123/2/6 121/2/6 125/2/6
f 124/2/6 123/2/6 125/2/6
f 124/1/6 125/1/6 126/1/6
f 126/1/6 125/1/6 127/1/6
f 126/2/6 127/2/6 128/2/6
f 128/2/6 127/2/6 129/2/6
f 128/1/6 129/1/6 130/1/6
f 129/2/6 127/2/6 131/2/6
f 130/1/6 129/1/6 131/1/6
f 131/2/6 127/2/6 132/2/6
