# MagicaVoxel @ Ephtracy

# group
g Шокла-10

# material
mtllib Шокла-10.mtl
usemtl palette

# normals
vn -1 0 0
vn 1 0 0
vn 0 0 1
vn 0 0 -1
vn 0 -1 0
vn 0 1 0

# texcoords
vt 0.0175781 0.5
vt 0.0253906 0.5

# verts
v -50 0 -42
v -50 0 -46
v -50 2 -42
v -50 2 -46
v -50 20 -42
v -50 20 -46
v -42 0 50
v -42 0 46
v -42 0 -46
v -42 0 -50
v -42 2 50
v -42 2 46
v -42 2 -46
v -42 2 -50
v -42 20 50
v -42 20 46
v -42 20 -46
v -42 20 -50
v -38 0 46
v -38 0 6
v -38 0 -10
v -38 0 -46
v -38 2 46
v -38 2 6
v -38 2 -10
v -38 2 -46
v -38 20 46
v -38 20 6
v -38 20 -10
v -38 20 -46
v -18 0 10
v -18 0 6
v -18 2 10
v -18 2 6
v -10 0 -10
v -10 0 -14
v -10 2 -10
v -10 2 -14
v 6 0 -14
v 6 0 -35
v 6 0 -42
v 6 0 -46
v 6 1 -34
v 6 1 -35
v 6 2 -10
v 6 2 -14
v 6 2 -34
v 6 2 -42
v 6 2 -46
v 6 3 -33
v 6 3 -34
v 6 4 -25
v 6 4 -33
v 6 6 -24
v 6 6 -25
v 6 7 -42
v 6 7 -43
v 6 10 -23
v 6 10 -24
v 6 13 -34
v 6 13 -36
v 6 13 -40
v 6 13 -43
v 6 14 -23
v 6 14 -24
v 6 14 -33
v 6 14 -34
v 6 14 -36
v 6 14 -40
v 6 15 -24
v 6 15 -26
v 6 15 -32
v 6 15 -33
v 6 16 -26
v 6 16 -32
v 6 20 -10
v 6 20 -46
v 22 0 -10
v 22 0 -14
v 22 2 -10
v 22 2 -14
v 26 0 -14
v 26 0 -46
v 26 2 -10
v 26 2 -14
v 26 2 -46
v 26 20 -10
v 26 20 -46
v 38 0 10
v 38 0 6
v 38 2 10
v 38 2 6
v 42 0 -10
v 42 0 -14
v 42 2 -10
v 42 2 -14
v 46 0 46
v 46 0 10
v 46 0 6
v 46 0 -10
v 46 0 -14
v 46 0 -46
v 46 2 50
v 46 2 46
v 46 2 10
v 46 2 6
v 46 2 -10
v 46 2 -14
v 46 2 -46
v 46 20 50
v 46 20 -46
v -42 0 -42
v -42 0 -44
v -42 2 -42
v -42 2 -44
v -42 20 -42
v -42 20 -44
v -40 0 -44
v -40 0 -46
v -40 2 -44
v -40 2 -46
v -40 20 -44
v -40 20 -46
v -34 0 46
v -34 0 10
v -34 0 -14
v -34 0 -46
v -34 2 50
v -34 2 46
v -34 2 10
v -34 2 6
v -34 2 -10
v -34 2 -14
v -34 2 -46
v -34 20 50
v -34 20 6
v -34 20 -10
v -34 20 -46
v -26 0 10
v -26 0 6
v -26 2 10
v -26 2 6
v -18 0 -10
v -18 0 -14
v -18 2 -10
v -18 2 -14
v 10 0 -14
v 10 0 -35
v 10 0 -42
v 10 0 -46
v 10 1 -34
v 10 1 -35
v 10 2 -10
v 10 2 -14
v 10 2 -34
v 10 2 -42
v 10 2 -46
v 10 3 -33
v 10 3 -34
v 10 4 -25
v 10 4 -33
v 10 6 -24
v 10 6 -25
v 10 7 -42
v 10 7 -43
v 10 10 -23
v 10 10 -24
v 10 13 -34
v 10 13 -36
v 10 13 -40
v 10 13 -43
v 10 14 -23
v 10 14 -24
v 10 14 -33
v 10 14 -34
v 10 14 -36
v 10 14 -40
v 10 15 -24
v 10 15 -26
v 10 15 -32
v 10 15 -33
v 10 16 -26
v 10 16 -32
v 10 20 -10
v 10 20 -46
v 14 0 -10
v 14 0 -14
v 14 2 -10
v 14 2 -14
v 30 0 10
v 30 0 6
v 30 0 -14
v 30 0 -46
v 30 2 10
v 30 2 6
v 30 2 -10
v 30 2 -14
v 30 2 -46
v 30 20 -10
v 30 20 -46
v 34 0 -10
v 34 0 -14
v 34 2 -10
v 34 2 -14
v 50 0 50
v 50 0 -50
v 50 2 50
v 50 2 -50
v 50 20 50
v 50 20 -50
v -42 0 50
v -42 2 50
v -42 20 50
v -34 2 50
v -34 20 50
v 46 2 50
v 46 20 50
v 50 0 50
v 50 2 50
v 50 20 50
v -34 0 10
v -34 2 10
v -26 0 10
v -26 2 10
v -18 0 10
v -18 2 10
v 30 0 10
v 30 2 10
v 38 0 10
v 38 2 10
v 46 0 10
v 46 2 10
v -38 0 -10
v -38 2 -10
v -38 20 -10
v -34 2 -10
v -34 20 -10
v -18 0 -10
v -18 2 -10
v -10 0 -10
v -10 2 -10
v 6 2 -10
v 6 20 -10
v 10 2 -10
v 10 20 -10
v 14 0 -10
v 14 2 -10
v 22 0 -10
v 22 2 -10
v 26 2 -10
v 26 20 -10
v 30 2 -10
v 30 20 -10
v 34 0 -10
v 34 2 -10
v 42 0 -10
v 42 2 -10
v 46 0 -10
v 46 2 -10
v 6 15 -32
v 6 16 -32
v 10 15 -32
v 10 16 -32
v 6 14 -33
v 6 15 -33
v 10 14 -33
v 10 15 -33
v 6 13 -34
v 6 14 -34
v 10 13 -34
v 10 14 -34
v 6 13 -40
v 6 14 -40
v 10 13 -40
v 10 14 -40
v -50 0 -42
v -50 2 -42
v -50 20 -42
v -42 0 -42
v -42 2 -42
v -42 20 -42
v 6 0 -42
v 6 2 -42
v 6 7 -42
v 10 0 -42
v 10 2 -42
v 10 7 -42
v 6 7 -43
v 6 13 -43
v 10 7 -43
v 10 13 -43
v -42 0 -44
v -42 2 -44
v -42 20 -44
v -40 0 -44
v -40 2 -44
v -40 20 -44
v -40 0 -46
v -40 2 -46
v -40 20 -46
v -38 0 -46
v -38 2 -46
v -38 20 -46
v -34 0 -46
v -34 2 -46
v -34 20 -46
v 6 0 -46
v 6 2 -46
v 6 20 -46
v 10 0 -46
v 10 2 -46
v 10 20 -46
v 26 0 -46
v 26 2 -46
v 26 20 -46
v 30 0 -46
v 30 2 -46
v 30 20 -46
v 46 0 -46
v 46 2 -46
v 46 20 -46
v -42 0 46
v -42 2 46
v -42 20 46
v -38 0 46
v -38 2 46
v -38 20 46
v -34 0 46
v -34 2 46
v 46 0 46
v 46 2 46
v -38 0 6
v -38 2 6
v -38 20 6
v -34 2 6
v -34 20 6
v -26 0 6
v -26 2 6
v -18 0 6
v -18 2 6
v 30 0 6
v 30 2 6
v 38 0 6
v 38 2 6
v 46 0 6
v 46 2 6
v -34 0 -14
v -34 2 -14
v -18 0 -14
v -18 2 -14
v -10 0 -14
v -10 2 -14
v 6 0 -14
v 6 2 -14
v 10 0 -14
v 10 2 -14
v 14 0 -14
v 14 2 -14
v 22 0 -14
v 22 2 -14
v 26 0 -14
v 26 2 -14
v 30 0 -14
v 30 2 -14
v 34 0 -14
v 34 2 -14
v 42 0 -14
v 42 2 -14
v 46 0 -14
v 46 2 -14
v 6 10 -23
v 6 14 -23
v 10 10 -23
v 10 14 -23
v 6 6 -24
v 6 10 -24
v 6 14 -24
v 6 15 -24
v 10 6 -24
v 10 10 -24
v 10 14 -24
v 10 15 -24
v 6 4 -25
v 6 6 -25
v 10 4 -25
v 10 6 -25
v 6 15 -26
v 6 16 -26
v 10 15 -26
v 10 16 -26
v 6 3 -33
v 6 4 -33
v 10 3 -33
v 10 4 -33
v 6 1 -34
v 6 2 -34
v 6 3 -34
v 10 1 -34
v 10 2 -34
v 10 3 -34
v 6 0 -35
v 6 1 -35
v 10 0 -35
v 10 1 -35
v 6 13 -36
v 6 14 -36
v 10 13 -36
v 10 14 -36
v -50 0 -46
v -50 2 -46
v -50 20 -46
v -42 0 -46
v -42 2 -46
v -42 20 -46
v -42 0 -50
v -42 2 -50
v -42 20 -50
v 50 0 -50
v 50 2 -50
v 50 20 -50
v -42 0 50
v 50 0 50
v -42 0 46
v -38 0 46
v -34 0 46
v 46 0 46
v -34 0 10
v -26 0 10
v -18 0 10
v 30 0 10
v 38 0 10
v 46 0 10
v -38 0 6
v -26 0 6
v -18 0 6
v 30 0 6
v 38 0 6
v 46 0 6
v -38 0 -10
v -18 0 -10
v -10 0 -10
v 14 0 -10
v 22 0 -10
v 34 0 -10
v 42 0 -10
v 46 0 -10
v -34 0 -14
v -18 0 -14
v -10 0 -14
v 6 0 -14
v 10 0 -14
v 14 0 -14
v 22 0 -14
v 26 0 -14
v 30 0 -14
v 34 0 -14
v 42 0 -14
v 46 0 -14
v 6 0 -35
v 10 0 -35
v -50 0 -42
v -42 0 -42
v 6 0 -42
v 10 0 -42
v -42 0 -44
v -40 0 -44
v -50 0 -46
v -42 0 -46
v -40 0 -46
v -38 0 -46
v -34 0 -46
v 6 0 -46
v 10 0 -46
v 26 0 -46
v 30 0 -46
v 46 0 -46
v -42 0 -50
v 50 0 -50
v 6 13 -34
v 10 13 -34
v 6 13 -36
v 10 13 -36
v 6 13 -40
v 10 13 -40
v 6 13 -43
v 10 13 -43
v 6 14 -23
v 10 14 -23
v 6 14 -24
v 10 14 -24
v 6 14 -33
v 10 14 -33
v 6 14 -34
v 10 14 -34
v 6 14 -36
v 10 14 -36
v 6 14 -40
v 10 14 -40
v 6 15 -24
v 10 15 -24
v 6 15 -26
v 10 15 -26
v 6 15 -32
v 10 15 -32
v 6 15 -33
v 10 15 -33
v 6 16 -26
v 10 16 -26
v 6 16 -32
v 10 16 -32
v 6 1 -34
v 10 1 -34
v 6 1 -35
v 10 1 -35
v -34 2 50
v 46 2 50
v -34 2 46
v 46 2 46
v -34 2 10
v -26 2 10
v -18 2 10
v 30 2 10
v 38 2 10
v 46 2 10
v -34 2 6
v -26 2 6
v -18 2 6
v 30 2 6
v 38 2 6
v 46 2 6
v -34 2 -10
v -18 2 -10
v -10 2 -10
v 6 2 -10
v 10 2 -10
v 14 2 -10
v 22 2 -10
v 26 2 -10
v 30 2 -10
v 34 2 -10
v 42 2 -10
v 46 2 -10
v -34 2 -14
v -18 2 -14
v -10 2 -14
v 6 2 -14
v 10 2 -14
v 14 2 -14
v 22 2 -14
v 26 2 -14
v 30 2 -14
v 34 2 -14
v 42 2 -14
v 46 2 -14
v 6 3 -33
v 10 3 -33
v 6 3 -34
v 10 3 -34
v 6 4 -25
v 10 4 -25
v 6 4 -33
v 10 4 -33
v 6 6 -24
v 10 6 -24
v 6 6 -25
v 10 6 -25
v 6 7 -42
v 10 7 -42
v 6 7 -43
v 10 7 -43
v 6 10 -23
v 10 10 -23
v 6 10 -24
v 10 10 -24
v -42 20 50
v -34 20 50
v 46 20 50
v 50 20 50
v -42 20 46
v -38 20 46
v -38 20 6
v -34 20 6
v -38 20 -10
v -34 20 -10
v 6 20 -10
v 10 20 -10
v 26 20 -10
v 30 20 -10
v -50 20 -42
v -42 20 -42
v -42 20 -44
v -40 20 -44
v -50 20 -46
v -42 20 -46
v -40 20 -46
v -38 20 -46
v -34 20 -46
v 6 20 -46
v 10 20 -46
v 26 20 -46
v 30 20 -46
v 46 20 -46
v -42 20 -50
v 50 20 -50

# faces
f 3/1/1 2/1/1 1/1/1
f 4/1/1 2/1/1 3/1/1
f 5/2/1 4/2/1 3/2/1
f 6/2/1 4/2/1 5/2/1
f 11/1/1 8/1/1 7/1/1
f 12/1/1 8/1/1 11/1/1
f 13/1/1 10/1/1 9/1/1
f 14/1/1 10/1/1 13/1/1
f 15/2/1 12/2/1 11/2/1
f 16/2/1 12/2/1 15/2/1
f 17/2/1 14/2/1 13/2/1
f 18/2/1 14/2/1 17/2/1
f 23/1/1 20/1/1 19/1/1
f 24/1/1 20/1/1 23/1/1
f 25/1/1 22/1/1 21/1/1
f 26/1/1 22/1/1 25/1/1
f 27/2/1 24/2/1 23/2/1
f 28/2/1 24/2/1 27/2/1
f 29/2/1 26/2/1 25/2/1
f 30/2/1 26/2/1 29/2/1
f 33/1/1 32/1/1 31/1/1
f 34/1/1 32/1/1 33/1/1
f 37/1/1 36/1/1 35/1/1
f 38/1/1 36/1/1 37/1/1
f 43/1/1 40/1/1 39/1/1
f 44/1/1 40/1/1 43/1/1
f 46/1/1 43/1/1 39/1/1
f 47/1/1 43/1/1 46/1/1
f 48/1/1 42/1/1 41/1/1
f 49/1/1 42/1/1 48/1/1
f 50/2/1 47/2/1 46/2/1
f 50/2/1 46/2/1 45/2/1
f 51/2/1 47/2/1 50/2/1
f 52/2/1 50/2/1 45/2/1
f 53/2/1 50/2/1 52/2/1
f 54/2/1 52/2/1 45/2/1
f 55/2/1 52/2/1 54/2/1
f 56/2/1 49/2/1 48/2/1
f 57/2/1 49/2/1 56/2/1
f 58/2/1 54/2/1 45/2/1
f 59/2/1 54/2/1 58/2/1
f 63/2/1 49/2/1 57/2/1
f 64/2/1 58/2/1 45/2/1
f 67/2/1 61/2/1 60/2/1
f 68/2/1 61/2/1 67/2/1
f 69/2/1 63/2/1 62/2/1
f 70/2/1 65/2/1 64/2/1
f 73/2/1 69/2/1 68/2/1
f 73/2/1 68/2/1 67/2/1
f 73/2/1 67/2/1 66/2/1
f 74/2/1 71/2/1 70/2/1
f 75/2/1 73/2/1 72/2/1
f 76/2/1 74/2/1 70/2/1
f 76/2/1 75/2/1 74/2/1
f 76/2/1 70/2/1 64/2/1
f 76/2/1 64/2/1 45/2/1
f 77/2/1 73/2/1 75/2/1
f 77/2/1 75/2/1 76/2/1
f 77/2/1 49/2/1 63/2/1
f 77/2/1 69/2/1 73/2/1
f 77/2/1 63/2/1 69/2/1
f 80/1/1 79/1/1 78/1/1
f 81/1/1 79/1/1 80/1/1
f 85/1/1 83/1/1 82/1/1
f 86/1/1 83/1/1 85/1/1
f 87/2/1 85/2/1 84/2/1
f 87/2/1 86/2/1 85/2/1
f 88/2/1 86/2/1 87/2/1
f 91/1/1 90/1/1 89/1/1
f 92/1/1 90/1/1 91/1/1
f 95/1/1 94/1/1 93/1/1
f 96/1/1 94/1/1 95/1/1
f 104/1/1 98/1/1 97/1/1
f 105/1/1 98/1/1 104/1/1
f 106/1/1 100/1/1 99/1/1
f 107/1/1 100/1/1 106/1/1
f 108/1/1 102/1/1 101/1/1
f 109/1/1 102/1/1 108/1/1
f 110/2/1 107/2/1 106/2/1
f 110/2/1 105/2/1 104/2/1
f 110/2/1 109/2/1 108/2/1
f 110/2/1 108/2/1 107/2/1
f 110/2/1 104/2/1 103/2/1
f 110/2/1 106/2/1 105/2/1
f 111/2/1 109/2/1 110/2/1
f 112/1/2 113/1/2 114/1/2
f 114/1/2 113/1/2 115/1/2
f 114/2/2 115/2/2 116/2/2
f 116/2/2 115/2/2 117/2/2
f 118/1/2 119/1/2 120/1/2
f 120/1/2 119/1/2 121/1/2
f 120/2/2 121/2/2 122/2/2
f 122/2/2 121/2/2 123/2/2
f 124/1/2 125/1/2 129/1/2
f 129/1/2 125/1/2 130/1/2
f 126/1/2 127/1/2 133/1/2
f 133/1/2 127/1/2 134/1/2
f 130/2/2 131/2/2 135/2/2
f 128/2/2 129/2/2 135/2/2
f 129/2/2 130/2/2 135/2/2
f 135/2/2 131/2/2 136/2/2
f 133/2/2 134/2/2 137/2/2
f 132/2/2 133/2/2 137/2/2
f 137/2/2 134/2/2 138/2/2
f 139/1/2 140/1/2 141/1/2
f 141/1/2 140/1/2 142/1/2
f 143/1/2 144/1/2 145/1/2
f 145/1/2 144/1/2 146/1/2
f 147/1/2 148/1/2 151/1/2
f 151/1/2 148/1/2 152/1/2
f 147/1/2 151/1/2 154/1/2
f 154/1/2 151/1/2 155/1/2
f 149/1/2 150/1/2 156/1/2
f 156/1/2 150/1/2 157/1/2
f 154/2/2 155/2/2 158/2/2
f 153/2/2 154/2/2 158/2/2
f 158/2/2 155/2/2 159/2/2
f 153/2/2 158/2/2 160/2/2
f 160/2/2 158/2/2 161/2/2
f 153/2/2 160/2/2 162/2/2
f 162/2/2 160/2/2 163/2/2
f 156/2/2 157/2/2 164/2/2
f 164/2/2 157/2/2 165/2/2
f 153/2/2 162/2/2 166/2/2
f 166/2/2 162/2/2 167/2/2
f 165/2/2 157/2/2 171/2/2
f 153/2/2 166/2/2 172/2/2
f 168/2/2 169/2/2 175/2/2
f 175/2/2 169/2/2 176/2/2
f 170/2/2 171/2/2 177/2/2
f 172/2/2 173/2/2 178/2/2
f 176/2/2 177/2/2 181/2/2
f 175/2/2 176/2/2 181/2/2
f 174/2/2 175/2/2 181/2/2
f 178/2/2 179/2/2 182/2/2
f 180/2/2 181/2/2 183/2/2
f 178/2/2 182/2/2 184/2/2
f 182/2/2 183/2/2 184/2/2
f 172/2/2 178/2/2 184/2/2
f 153/2/2 172/2/2 184/2/2
f 183/2/2 181/2/2 185/2/2
f 184/2/2 183/2/2 185/2/2
f 171/2/2 157/2/2 185/2/2
f 181/2/2 177/2/2 185/2/2
f 177/2/2 171/2/2 185/2/2
f 186/1/2 187/1/2 188/1/2
f 188/1/2 187/1/2 189/1/2
f 190/1/2 191/1/2 194/1/2
f 194/1/2 191/1/2 195/1/2
f 192/1/2 193/1/2 197/1/2
f 197/1/2 193/1/2 198/1/2
f 196/2/2 197/2/2 199/2/2
f 197/2/2 198/2/2 199/2/2
f 199/2/2 198/2/2 200/2/2
f 201/1/2 202/1/2 203/1/2
f 203/1/2 202/1/2 204/1/2
f 205/1/2 206/1/2 207/1/2
f 207/1/2 206/1/2 208/1/2
f 207/2/2 208/2/2 209/2/2
f 209/2/2 208/2/2 210/2/2
f 214/1/3 212/1/3 211/1/3
f 214/2/3 213/2/3 212/2/3
f 215/2/3 213/2/3 214/2/3
f 216/1/3 214/1/3 211/1/3
f 218/1/3 216/1/3 211/1/3
f 219/2/3 217/2/3 216/2/3
f 219/1/3 216/1/3 218/1/3
f 220/2/3 217/2/3 219/2/3
f 223/1/3 222/1/3 221/1/3
f 224/1/3 222/1/3 223/1/3
f 227/1/3 226/1/3 225/1/3
f 228/1/3 226/1/3 227/1/3
f 231/1/3 230/1/3 229/1/3
f 232/1/3 230/1/3 231/1/3
f 236/1/3 234/1/3 233/1/3
f 236/2/3 235/2/3 234/2/3
f 237/2/3 235/2/3 236/2/3
f 238/1/3 236/1/3 233/1/3
f 239/1/3 236/1/3 238/1/3
f 242/1/3 241/1/3 240/1/3
f 244/1/3 242/1/3 240/1/3
f 244/2/3 243/2/3 242/2/3
f 245/2/3 243/2/3 244/2/3
f 246/1/3 244/1/3 240/1/3
f 247/1/3 244/1/3 246/1/3
f 250/1/3 249/1/3 248/1/3
f 252/1/3 250/1/3 248/1/3
f 252/2/3 251/2/3 250/2/3
f 253/2/3 251/2/3 252/2/3
f 254/1/3 252/1/3 248/1/3
f 255/1/3 252/1/3 254/1/3
f 258/1/3 257/1/3 256/1/3
f 259/1/3 257/1/3 258/1/3
f 262/2/3 261/2/3 260/2/3
f 263/2/3 261/2/3 262/2/3
f 266/2/3 265/2/3 264/2/3
f 267/2/3 265/2/3 266/2/3
f 270/2/3 269/2/3 268/2/3
f 271/2/3 269/2/3 270/2/3
f 274/2/3 273/2/3 272/2/3
f 275/2/3 273/2/3 274/2/3
f 279/1/3 277/1/3 276/1/3
f 280/2/3 278/2/3 277/2/3
f 280/1/3 277/1/3 279/1/3
f 281/2/3 278/2/3 280/2/3
f 285/1/3 283/1/3 282/1/3
f 286/2/3 284/2/3 283/2/3
f 286/1/3 283/1/3 285/1/3
f 287/2/3 284/2/3 286/2/3
f 290/2/3 289/2/3 288/2/3
f 291/2/3 289/2/3 290/2/3
f 295/1/3 293/1/3 292/1/3
f 296/2/3 294/2/3 293/2/3
f 296/1/3 293/1/3 295/1/3
f 297/2/3 294/2/3 296/2/3
f 301/1/3 299/1/3 298/1/3
f 302/2/3 300/2/3 299/2/3
f 302/1/3 299/1/3 301/1/3
f 303/2/3 300/2/3 302/2/3
f 307/1/3 305/1/3 304/1/3
f 308/2/3 306/2/3 305/2/3
f 308/1/3 305/1/3 307/1/3
f 309/2/3 306/2/3 308/2/3
f 313/1/3 311/1/3 310/1/3
f 314/2/3 312/2/3 311/2/3
f 314/1/3 311/1/3 313/1/3
f 315/2/3 312/2/3 314/2/3
f 319/1/3 317/1/3 316/1/3
f 320/2/3 318/2/3 317/2/3
f 320/1/3 317/1/3 319/1/3
f 321/2/3 318/2/3 320/2/3
f 322/1/4 323/1/4 325/1/4
f 323/2/4 324/2/4 326/2/4
f 325/1/4 323/1/4 326/1/4
f 326/2/4 324/2/4 327/2/4
f 328/1/4 329/1/4 330/1/4
f 330/1/4 329/1/4 331/1/4
f 332/1/4 333/1/4 335/1/4
f 333/2/4 334/2/4 335/2/4
f 335/2/4 334/2/4 336/2/4
f 332/1/4 335/1/4 337/1/4
f 337/1/4 335/1/4 338/1/4
f 339/1/4 340/1/4 341/1/4
f 341/1/4 340/1/4 342/1/4
f 343/1/4 344/1/4 345/1/4
f 345/1/4 344/1/4 346/1/4
f 347/1/4 348/1/4 349/1/4
f 349/1/4 348/1/4 350/1/4
f 351/1/4 352/1/4 353/1/4
f 353/1/4 352/1/4 354/1/4
f 355/1/4 356/1/4 357/1/4
f 357/1/4 356/1/4 358/1/4
f 359/1/4 360/1/4 361/1/4
f 361/1/4 360/1/4 362/1/4
f 363/1/4 364/1/4 365/1/4
f 365/1/4 364/1/4 366/1/4
f 367/1/4 368/1/4 369/1/4
f 369/1/4 368/1/4 370/1/4
f 371/2/4 372/2/4 373/2/4
f 373/2/4 372/2/4 374/2/4
f 375/2/4 376/2/4 379/2/4
f 379/2/4 376/2/4 380/2/4
f 377/2/4 378/2/4 381/2/4
f 381/2/4 378/2/4 382/2/4
f 383/2/4 384/2/4 385/2/4
f 385/2/4 384/2/4 386/2/4
f 387/2/4 388/2/4 389/2/4
f 389/2/4 388/2/4 390/2/4
f 391/2/4 392/2/4 393/2/4
f 393/2/4 392/2/4 394/2/4
f 395/1/4 396/1/4 398/1/4
f 396/2/4 397/2/4 399/2/4
f 398/1/4 396/1/4 399/1/4
f 399/2/4 397/2/4 400/2/4
f 401/1/4 402/1/4 403/1/4
f 403/1/4 402/1/4 404/1/4
f 405/2/4 406/2/4 407/2/4
f 407/2/4 406/2/4 408/2/4
f 409/1/4 410/1/4 412/1/4
f 410/2/4 411/2/4 413/2/4
f 412/1/4 410/1/4 413/1/4
f 413/2/4 411/2/4 414/2/4
f 415/1/4 416/1/4 418/1/4
f 416/2/4 417/2/4 419/2/4
f 418/1/4 416/1/4 419/1/4
f 419/2/4 417/2/4 420/2/4
f 423/1/5 422/1/5 421/1/5
f 424/1/5 422/1/5 423/1/5
f 425/1/5 422/1/5 424/1/5
f 426/1/5 422/1/5 425/1/5
f 427/1/5 425/1/5 424/1/5
f 432/1/5 422/1/5 426/1/5
f 433/1/5 427/1/5 424/1/5
f 433/1/5 428/1/5 427/1/5
f 434/1/5 428/1/5 433/1/5
f 435/1/5 430/1/5 429/1/5
f 436/1/5 430/1/5 435/1/5
f 437/1/5 432/1/5 431/1/5
f 438/1/5 422/1/5 432/1/5
f 438/1/5 432/1/5 437/1/5
f 446/1/5 422/1/5 438/1/5
f 447/1/5 440/1/5 439/1/5
f 448/1/5 440/1/5 447/1/5
f 449/1/5 442/1/5 441/1/5
f 450/1/5 442/1/5 449/1/5
f 451/1/5 442/1/5 450/1/5
f 452/1/5 442/1/5 451/1/5
f 453/1/5 444/1/5 443/1/5
f 454/1/5 444/1/5 453/1/5
f 455/1/5 444/1/5 454/1/5
f 456/1/5 444/1/5 455/1/5
f 457/1/5 446/1/5 445/1/5
f 458/1/5 422/1/5 446/1/5
f 458/1/5 446/1/5 457/1/5
f 459/1/5 451/1/5 450/1/5
f 460/1/5 451/1/5 459/1/5
f 465/1/5 462/1/5 461/1/5
f 467/1/5 465/1/5 461/1/5
f 467/1/5 466/1/5 465/1/5
f 468/1/5 466/1/5 467/1/5
f 469/1/5 466/1/5 468/1/5
f 470/1/5 447/1/5 439/1/5
f 471/1/5 447/1/5 470/1/5
f 472/1/5 464/1/5 463/1/5
f 473/1/5 464/1/5 472/1/5
f 474/1/5 455/1/5 454/1/5
f 475/1/5 455/1/5 474/1/5
f 476/1/5 422/1/5 458/1/5
f 477/1/5 475/1/5 474/1/5
f 477/1/5 476/1/5 475/1/5
f 477/1/5 473/1/5 472/1/5
f 477/1/5 469/1/5 468/1/5
f 477/1/5 474/1/5 473/1/5
f 477/1/5 472/1/5 471/1/5
f 477/1/5 471/1/5 470/1/5
f 477/1/5 470/1/5 469/1/5
f 478/1/5 422/1/5 476/1/5
f 478/1/5 476/1/5 477/1/5
f 481/2/5 480/2/5 479/2/5
f 482/2/5 480/2/5 481/2/5
f 485/2/5 484/2/5 483/2/5
f 486/2/5 484/2/5 485/2/5
f 489/2/5 488/2/5 487/2/5
f 490/2/5 488/2/5 489/2/5
f 493/2/5 492/2/5 491/2/5
f 494/2/5 492/2/5 493/2/5
f 497/2/5 496/2/5 495/2/5
f 498/2/5 496/2/5 497/2/5
f 501/2/5 500/2/5 499/2/5
f 502/2/5 500/2/5 501/2/5
f 505/2/5 504/2/5 503/2/5
f 506/2/5 504/2/5 505/2/5
f 509/2/5 508/2/5 507/2/5
f 510/2/5 508/2/5 509/2/5
f 511/1/6 512/1/6 513/1/6
f 513/1/6 512/1/6 514/1/6
f 515/1/6 516/1/6 517/1/6
f 517/1/6 516/1/6 518/1/6
f 519/1/6 520/1/6 525/1/6
f 525/1/6 520/1/6 526/1/6
f 521/1/6 522/1/6 527/1/6
f 527/1/6 522/1/6 528/1/6
f 523/1/6 524/1/6 529/1/6
f 529/1/6 524/1/6 530/1/6
f 531/1/6 532/1/6 543/1/6
f 543/1/6 532/1/6 544/1/6
f 533/1/6 534/1/6 545/1/6
f 545/1/6 534/1/6 546/1/6
f 535/1/6 536/1/6 547/1/6
f 547/1/6 536/1/6 548/1/6
f 537/1/6 538/1/6 549/1/6
f 549/1/6 538/1/6 550/1/6
f 539/1/6 540/1/6 551/1/6
f 551/1/6 540/1/6 552/1/6
f 541/1/6 542/1/6 553/1/6
f 553/1/6 542/1/6 554/1/6
f 555/2/6 556/2/6 557/2/6
f 557/2/6 556/2/6 558/2/6
f 559/2/6 560/2/6 561/2/6
f 561/2/6 560/2/6 562/2/6
f 563/2/6 564/2/6 565/2/6
f 565/2/6 564/2/6 566/2/6
f 567/2/6 568/2/6 569/2/6
f 569/2/6 568/2/6 570/2/6
f 571/2/6 572/2/6 573/2/6
f 573/2/6 572/2/6 574/2/6
f 575/2/6 576/2/6 579/2/6
f 579/2/6 576/2/6 580/2/6
f 580/2/6 576/2/6 581/2/6
f 581/2/6 576/2/6 582/2/6
f 589/2/6 590/2/6 591/2/6
f 589/2/6 591/2/6 593/2/6
f 591/2/6 592/2/6 593/2/6
f 593/2/6 592/2/6 594/2/6
f 594/2/6 592/2/6 595/2/6
f 583/2/6 584/2/6 596/2/6
f 596/2/6 584/2/6 597/2/6
f 585/2/6 586/2/6 598/2/6
f 598/2/6 586/2/6 599/2/6
f 587/2/6 588/2/6 600/2/6
f 600/2/6 588/2/6 601/2/6
f 577/2/6 578/2/6 602/2/6
f 600/2/6 601/2/6 603/2/6
f 601/2/6 602/2/6 603/2/6
f 594/2/6 595/2/6 603/2/6
f 596/2/6 597/2/6 603/2/6
f 599/2/6 600/2/6 603/2/6
f 598/2/6 599/2/6 603/2/6
f 597/2/6 598/2/6 603/2/6
f 595/2/6 596/2/6 603/2/6
f 602/2/6 578/2/6 604/2/6
f 603/2/6 602/2/6 604/2/6
