# MagicaVoxel @ Ephtracy

# group
g Шокла-1

# material
mtllib Шокла-1.mtl
usemtl palette

# normals
vn -1 0 0
vn 1 0 0
vn 0 0 1
vn 0 0 -1
vn 0 -1 0
vn 0 1 0

# texcoords
vt 0.0175781 0.5
vt 0.0253906 0.5

# verts
v -50 0 50
v -50 0 -50
v -50 3 50
v -50 3 -50
v 42 0 -10
v 42 0 -35
v 42 0 -46
v 42 0 -50
v 42 3 -10
v 42 3 -35
v 42 3 -46
v 42 3 -50
v 46 1 -35
v 46 1 -36
v 46 3 -35
v 46 3 -36
v 50 0 50
v 50 0 46
v 50 0 -10
v 50 0 -35
v 50 0 -36
v 50 0 -45
v 50 0 -46
v 50 1 -35
v 50 1 -36
v 50 3 50
v 50 3 46
v 50 3 -10
v 50 3 -36
v 50 3 -45
v 50 3 -46
v -50 0 50
v -50 3 50
v 50 0 50
v 50 3 50
v 42 0 -35
v 42 3 -35
v 46 0 -35
v 46 1 -35
v 46 3 -35
v 50 0 -35
v 50 1 -35
v 46 1 -36
v 46 3 -36
v 50 1 -36
v 50 3 -36
v 42 0 -10
v 42 3 -10
v 50 0 -10
v 50 3 -10
v 42 0 -46
v 42 3 -46
v 50 0 -46
v 50 3 -46
v -50 0 -50
v -50 3 -50
v 42 0 -50
v 42 3 -50
v -50 0 50
v 50 0 50
v -46 0 46
v 34 0 46
v 38 0 46
v 50 0 46
v 34 0 45
v 38 0 45
v 42 0 -10
v 50 0 -10
v 42 0 -35
v 46 0 -35
v 50 0 -35
v 46 0 -36
v 50 0 -36
v 42 0 -45
v 50 0 -45
v -46 0 -46
v 42 0 -46
v 50 0 -46
v -50 0 -50
v 42 0 -50
v 46 1 -35
v 50 1 -35
v 46 1 -36
v 50 1 -36
v -50 3 50
v 50 3 50
v -46 3 46
v 34 3 46
v 38 3 46
v 50 3 46
v 34 3 45
v 38 3 45
v 42 3 -10
v 50 3 -10
v 42 3 -35
v 46 3 -35
v 46 3 -36
v 50 3 -36
v 42 3 -45
v 50 3 -45
v -46 3 -46
v 42 3 -46
v 50 3 -46
v -50 3 -50
v 42 3 -50

# faces
f 3/2/1 2/2/1 1/2/1
f 4/2/1 2/2/1 3/2/1
f 5/1/2 6/1/2 9/1/2
f 9/1/2 6/1/2 10/1/2
f 7/2/2 8/2/2 11/2/2
f 11/2/2 8/2/2 12/2/2
f 13/1/2 14/1/2 15/1/2
f 15/1/2 14/1/2 16/1/2
f 20/2/2 21/2/2 24/2/2
f 21/1/2 22/1/2 25/1/2
f 24/2/2 21/2/2 25/2/2
f 17/2/2 18/2/2 26/2/2
f 18/1/2 19/1/2 27/1/2
f 26/2/2 18/2/2 27/2/2
f 27/1/2 19/1/2 28/1/2
f 25/1/2 22/1/2 29/1/2
f 22/2/2 23/2/2 30/2/2
f 29/1/2 22/1/2 30/1/2
f 30/2/2 23/2/2 31/2/2
f 34/2/3 33/2/3 32/2/3
f 35/2/3 33/2/3 34/2/3
f 38/1/3 37/1/3 36/1/3
f 39/1/3 37/1/3 38/1/3
f 40/1/3 37/1/3 39/1/3
f 41/2/3 39/2/3 38/2/3
f 42/2/3 39/2/3 41/2/3
f 45/1/3 44/1/3 43/1/3
f 46/1/3 44/1/3 45/1/3
f 47/1/4 48/1/4 49/1/4
f 49/1/4 48/1/4 50/1/4
f 51/2/4 52/2/4 53/2/4
f 53/2/4 52/2/4 54/2/4
f 55/2/4 56/2/4 57/2/4
f 57/2/4 56/2/4 58/2/4
f 61/2/5 60/2/5 59/2/5
f 62/2/5 60/2/5 61/2/5
f 63/2/5 60/2/5 62/2/5
f 64/2/5 60/2/5 63/2/5
f 65/1/5 62/1/5 61/1/5
f 65/2/5 63/2/5 62/2/5
f 66/1/5 64/1/5 63/1/5
f 66/2/5 63/2/5 65/2/5
f 67/1/5 66/1/5 65/1/5
f 67/1/5 64/1/5 66/1/5
f 68/1/5 64/1/5 67/1/5
f 69/1/5 67/1/5 65/1/5
f 72/1/5 70/1/5 69/1/5
f 72/2/5 71/2/5 70/2/5
f 73/2/5 71/2/5 72/2/5
f 74/1/5 69/1/5 65/1/5
f 74/1/5 72/1/5 69/1/5
f 74/1/5 73/1/5 72/1/5
f 75/1/5 73/1/5 74/1/5
f 76/2/5 61/2/5 59/2/5
f 76/1/5 65/1/5 61/1/5
f 76/1/5 74/1/5 65/1/5
f 77/2/5 75/2/5 74/2/5
f 77/1/5 74/1/5 76/1/5
f 78/2/5 75/2/5 77/2/5
f 79/2/5 76/2/5 59/2/5
f 79/2/5 77/2/5 76/2/5
f 80/2/5 77/2/5 79/2/5
f 81/2/6 82/2/6 83/2/6
f 83/2/6 82/2/6 84/2/6
f 85/2/6 86/2/6 87/2/6
f 87/2/6 86/2/6 88/2/6
f 88/2/6 86/2/6 89/2/6
f 89/2/6 86/2/6 90/2/6
f 87/1/6 88/1/6 91/1/6
f 88/2/6 89/2/6 91/2/6
f 89/1/6 90/1/6 92/1/6
f 91/2/6 89/2/6 92/2/6
f 91/1/6 92/1/6 93/1/6
f 92/1/6 90/1/6 93/1/6
f 93/1/6 90/1/6 94/1/6
f 91/1/6 93/1/6 95/1/6
f 95/1/6 96/1/6 97/1/6
f 91/1/6 95/1/6 99/1/6
f 97/1/6 98/1/6 99/1/6
f 95/1/6 97/1/6 99/1/6
f 99/1/6 98/1/6 100/1/6
f 85/2/6 87/2/6 101/2/6
f 87/1/6 91/1/6 101/1/6
f 91/1/6 99/1/6 101/1/6
f 99/2/6 100/2/6 102/2/6
f 101/1/6 99/1/6 102/1/6
f 102/2/6 100/2/6 103/2/6
f 85/2/6 101/2/6 104/2/6
f 101/2/6 102/2/6 104/2/6
f 104/2/6 102/2/6 105/2/6
