# MagicaVoxel @ Ephtracy

# group
g firstBuild-12

# material
mtllib firstBuild-12.mtl
usemtl palette

# normals
vn -1 0 0
vn 1 0 0
vn 0 0 1
vn 0 0 -1
vn 0 -1 0
vn 0 1 0

# texcoords
vt 0.0527344 0.5
vt 0.0605469 0.5
vt 0.130859 0.5

# verts
v -22 2 11
v -22 2 8
v -22 3 11
v -22 3 8
v -22 4 11
v -22 4 8
v -21 0 10
v -21 0 9
v -21 2 10
v -21 2 9
v -20 0 10
v -20 0 9
v -20 2 10
v -20 2 9
v -19 2 11
v -19 2 8
v -19 3 11
v -19 3 8
v -19 4 11
v -19 4 8
v -22 2 11
v -22 3 11
v -22 4 11
v -19 2 11
v -19 3 11
v -19 4 11
v -21 0 10
v -21 2 10
v -20 0 10
v -20 2 10
v -21 0 9
v -21 2 9
v -20 0 9
v -20 2 9
v -22 2 8
v -22 3 8
v -22 4 8
v -19 2 8
v -19 3 8
v -19 4 8
v -21 0 10
v -20 0 10
v -21 0 9
v -20 0 9
v -22 2 11
v -19 2 11
v -21 2 10
v -20 2 10
v -21 2 9
v -20 2 9
v -22 2 8
v -19 2 8
v -22 4 11
v -19 4 11
v -22 4 8
v -19 4 8

# faces
f 3/1/1 2/1/1 1/1/1
f 4/1/1 2/1/1 3/1/1
f 5/3/1 4/3/1 3/3/1
f 6/3/1 4/3/1 5/3/1
f 9/2/1 8/2/1 7/2/1
f 10/2/1 8/2/1 9/2/1
f 11/2/2 12/2/2 13/2/2
f 13/2/2 12/2/2 14/2/2
f 15/1/2 16/1/2 17/1/2
f 17/1/2 16/1/2 18/1/2
f 17/3/2 18/3/2 19/3/2
f 19/3/2 18/3/2 20/3/2
f 24/1/3 22/1/3 21/1/3
f 25/3/3 23/3/3 22/3/3
f 25/1/3 22/1/3 24/1/3
f 26/3/3 23/3/3 25/3/3
f 29/2/3 28/2/3 27/2/3
f 30/2/3 28/2/3 29/2/3
f 31/2/4 32/2/4 33/2/4
f 33/2/4 32/2/4 34/2/4
f 35/1/4 36/1/4 38/1/4
f 36/3/4 37/3/4 39/3/4
f 38/1/4 36/1/4 39/1/4
f 39/3/4 37/3/4 40/3/4
f 43/2/5 42/2/5 41/2/5
f 44/2/5 42/2/5 43/2/5
f 47/1/5 46/1/5 45/1/5
f 48/1/5 46/1/5 47/1/5
f 49/1/5 47/1/5 45/1/5
f 50/1/5 46/1/5 48/1/5
f 51/1/5 49/1/5 45/1/5
f 51/1/5 50/1/5 49/1/5
f 52/1/5 46/1/5 50/1/5
f 52/1/5 50/1/5 51/1/5
f 53/3/6 54/3/6 55/3/6
f 55/3/6 54/3/6 56/3/6
