# MagicaVoxel @ Ephtracy

# group
g firstBuild-6

# material
mtllib firstBuild-6.mtl
usemtl palette

# normals
vn -1 0 0
vn 1 0 0
vn 0 0 1
vn 0 0 -1
vn 0 -1 0
vn 0 1 0

# texcoords
vt 0.0253906 0.5
vt 0.0292969 0.5

# verts
v -40 24 -10
v -40 24 -30
v -40 44 -10
v -40 44 -30
v -36 24 -10
v -36 24 -12
v -36 24 -26
v -36 43 -12
v -36 43 -26
v -36 44 -10
v -36 44 -26
v 4 24 -26
v 4 24 -29
v 4 24 -30
v 4 43 -26
v 4 43 -29
v 4 44 -26
v 4 44 -30
v -40 24 -10
v -40 44 -10
v -36 24 -10
v -36 44 -10
v -36 24 -26
v -36 43 -26
v -36 44 -26
v 4 24 -26
v 4 43 -26
v 4 44 -26
v -40 24 -30
v -40 44 -30
v 4 24 -30
v 4 44 -30
v -40 24 -10
v -36 24 -10
v -39 24 -12
v -36 24 -12
v -36 24 -26
v 4 24 -26
v -39 24 -29
v 4 24 -29
v -40 24 -30
v 4 24 -30
v -40 44 -10
v -36 44 -10
v -36 44 -26
v 4 44 -26
v -40 44 -30
v 4 44 -30

# faces
f 3/2/1 2/2/1 1/2/1
f 4/2/1 2/2/1 3/2/1
f 5/2/2 6/2/2 8/2/2
f 6/1/2 7/1/2 8/1/2
f 8/1/2 7/1/2 9/1/2
f 5/2/2 8/2/2 10/2/2
f 8/2/2 9/2/2 10/2/2
f 10/2/2 9/2/2 11/2/2
f 12/1/2 13/1/2 15/1/2
f 13/2/2 14/2/2 16/2/2
f 15/1/2 13/1/2 16/1/2
f 15/2/2 16/2/2 17/2/2
f 16/2/2 14/2/2 18/2/2
f 17/2/2 16/2/2 18/2/2
f 21/2/3 20/2/3 19/2/3
f 22/2/3 20/2/3 21/2/3
f 26/1/3 24/1/3 23/1/3
f 27/2/3 25/2/3 24/2/3
f 27/1/3 24/1/3 26/1/3
f 28/2/3 25/2/3 27/2/3
f 29/2/4 30/2/4 31/2/4
f 31/2/4 30/2/4 32/2/4
f 35/2/5 34/2/5 33/2/5
f 36/2/5 34/2/5 35/2/5
f 37/1/5 36/1/5 35/1/5
f 39/2/5 35/2/5 33/2/5
f 39/1/5 38/1/5 37/1/5
f 39/1/5 37/1/5 35/1/5
f 40/1/5 38/1/5 39/1/5
f 41/2/5 39/2/5 33/2/5
f 41/2/5 40/2/5 39/2/5
f 42/2/5 40/2/5 41/2/5
f 43/2/6 44/2/6 45/2/6
f 43/2/6 45/2/6 47/2/6
f 45/2/6 46/2/6 47/2/6
f 47/2/6 46/2/6 48/2/6
