# MagicaVoxel @ Ephtracy

# group
g firstBuild-19

# material
mtllib firstBuild-19.mtl
usemtl palette

# normals
vn -1 0 0
vn 1 0 0
vn 0 0 1
vn 0 0 -1
vn 0 -1 0
vn 0 1 0

# texcoords
vt 0.0566406 0.5
vt 0.0605469 0.5
vt 0.939453 0.5
vt 0.943359 0.5

# verts
v -10 2 6
v -10 2 5
v -10 2 3
v -10 2 2
v -10 3 6
v -10 3 5
v -10 6 6
v -10 6 3
v -10 7 6
v -10 7 4
v -10 7 3
v -10 9 6
v -10 9 4
v -10 9 3
v -10 10 6
v -10 10 3
v -10 13 6
v -10 13 5
v -10 14 6
v -10 14 5
v -10 14 3
v -10 14 2
v -8 2 6
v -8 2 3
v -8 2 2
v -8 6 6
v -8 6 3
v -8 7 6
v -8 7 4
v -8 7 3
v -8 9 6
v -8 9 4
v -8 9 3
v -8 10 6
v -8 10 3
v -8 14 6
v -8 14 3
v -8 14 2
v -10 2 6
v -10 3 6
v -10 6 6
v -10 7 6
v -10 9 6
v -10 10 6
v -10 13 6
v -10 14 6
v -9 2 6
v -9 3 6
v -9 13 6
v -9 14 6
v -8 2 6
v -8 6 6
v -8 7 6
v -8 9 6
v -8 10 6
v -8 14 6
v -10 2 2
v -10 14 2
v -8 2 2
v -8 14 2
v -10 2 6
v -9 2 6
v -8 2 6
v -10 2 5
v -9 2 5
v -10 2 3
v -8 2 3
v -10 2 2
v -8 2 2
v -10 14 6
v -9 14 6
v -8 14 6
v -10 14 5
v -9 14 5
v -10 14 3
v -8 14 3
v -10 14 2
v -8 14 2

# faces
f 5/1/1 2/1/1 1/1/1
f 6/2/1 3/2/1 2/2/1
f 6/1/1 2/1/1 5/1/1
f 7/2/1 6/2/1 5/2/1
f 8/1/1 4/1/1 3/1/1
f 8/2/1 6/2/1 7/2/1
f 8/2/1 3/2/1 6/2/1
f 9/1/1 8/1/1 7/1/1
f 10/1/1 8/1/1 9/1/1
f 11/1/1 4/1/1 8/1/1
f 11/1/1 8/1/1 10/1/1
f 12/2/1 10/2/1 9/2/1
f 13/3/1 11/3/1 10/3/1
f 13/2/1 10/2/1 12/2/1
f 14/1/1 4/1/1 11/1/1
f 14/3/1 11/3/1 13/3/1
f 15/1/1 13/1/1 12/1/1
f 15/1/1 14/1/1 13/1/1
f 16/1/1 4/1/1 14/1/1
f 16/1/1 14/1/1 15/1/1
f 17/2/1 16/2/1 15/2/1
f 18/2/1 16/2/1 17/2/1
f 19/1/1 18/1/1 17/1/1
f 20/2/1 16/2/1 18/2/1
f 20/1/1 18/1/1 19/1/1
f 21/1/1 4/1/1 16/1/1
f 21/2/1 16/2/1 20/2/1
f 22/1/1 4/1/1 21/1/1
f 23/2/2 24/2/2 26/2/2
f 24/1/2 25/1/2 27/1/2
f 26/2/2 24/2/2 27/2/2
f 26/1/2 27/1/2 28/1/2
f 28/1/2 27/1/2 29/1/2
f 27/1/2 25/1/2 30/1/2
f 29/1/2 27/1/2 30/1/2
f 28/2/2 29/2/2 31/2/2
f 29/4/2 30/4/2 32/4/2
f 31/2/2 29/2/2 32/2/2
f 30/1/2 25/1/2 33/1/2
f 32/4/2 30/4/2 33/4/2
f 31/1/2 32/1/2 34/1/2
f 32/1/2 33/1/2 34/1/2
f 33/1/2 25/1/2 35/1/2
f 34/1/2 33/1/2 35/1/2
f 34/2/2 35/2/2 36/2/2
f 35/1/2 25/1/2 37/1/2
f 36/2/2 35/2/2 37/2/2
f 37/1/2 25/1/2 38/1/2
f 47/1/3 40/1/3 39/1/3
f 48/2/3 41/2/3 40/2/3
f 48/1/3 40/1/3 47/1/3
f 49/1/3 46/1/3 45/1/3
f 49/2/3 45/2/3 44/2/3
f 50/1/3 46/1/3 49/1/3
f 51/2/3 48/2/3 47/2/3
f 52/2/3 41/2/3 48/2/3
f 52/2/3 48/2/3 51/2/3
f 52/1/3 42/1/3 41/1/3
f 53/2/3 43/2/3 42/2/3
f 53/1/3 42/1/3 52/1/3
f 54/1/3 44/1/3 43/1/3
f 54/2/3 43/2/3 53/2/3
f 55/2/3 50/2/3 49/2/3
f 55/1/3 44/1/3 54/1/3
f 55/2/3 49/2/3 44/2/3
f 56/2/3 50/2/3 55/2/3
f 57/1/4 58/1/4 59/1/4
f 59/1/4 58/1/4 60/1/4
f 64/1/5 62/1/5 61/1/5
f 65/2/5 63/2/5 62/2/5
f 65/1/5 62/1/5 64/1/5
f 66/2/5 65/2/5 64/2/5
f 67/2/5 63/2/5 65/2/5
f 67/2/5 65/2/5 66/2/5
f 68/1/5 67/1/5 66/1/5
f 69/1/5 67/1/5 68/1/5
f 70/1/6 71/1/6 73/1/6
f 71/2/6 72/2/6 74/2/6
f 73/1/6 71/1/6 74/1/6
f 73/2/6 74/2/6 75/2/6
f 74/2/6 72/2/6 76/2/6
f 75/2/6 74/2/6 76/2/6
f 75/1/6 76/1/6 77/1/6
f 77/1/6 76/1/6 78/1/6
