# MagicaVoxel @ Ephtracy

# group
g firstBuild-11

# material
mtllib firstBuild-11.mtl
usemtl palette

# normals
vn -1 0 0
vn 1 0 0
vn 0 0 1
vn 0 0 -1
vn 0 -1 0
vn 0 1 0

# texcoords
vt 0.0214844 0.5
vt 0.0527344 0.5
vt 0.0605469 0.5
vt 0.939453 0.5
vt 0.943359 0.5

# verts
v -36 0 -14
v -36 0 -26
v -36 1 -15
v -36 1 -26
v -36 16 -14
v -36 16 -15
v -36 22 -14
v -36 22 -15
v -24 16 -14
v -24 16 -15
v -24 22 -14
v -24 22 -15
v -20 12 -14
v -20 12 -15
v -20 16 -14
v -20 16 -15
v -16 8 -14
v -16 8 -15
v -16 12 -14
v -16 12 -15
v -12 0 -14
v -12 0 -15
v -12 0 -26
v -12 1 -15
v -12 1 -26
v -12 8 -14
v -12 8 -15
v -36 0 -14
v -36 16 -14
v -36 22 -14
v -35 1 -14
v -35 11 -14
v -35 12 -14
v -35 15 -14
v -34 8 -14
v -34 9 -14
v -33 8 -14
v -33 9 -14
v -33 13 -14
v -33 14 -14
v -32 13 -14
v -32 14 -14
v -31 1 -14
v -31 11 -14
v -31 12 -14
v -31 15 -14
v -30 1 -14
v -30 11 -14
v -30 12 -14
v -30 15 -14
v -29 8 -14
v -29 9 -14
v -29 13 -14
v -29 14 -14
v -28 8 -14
v -28 9 -14
v -28 13 -14
v -28 14 -14
v -25 1 -14
v -25 11 -14
v -25 12 -14
v -25 15 -14
v -24 0 -14
v -24 16 -14
v -24 22 -14
v -20 12 -14
v -20 16 -14
v -16 8 -14
v -16 12 -14
v -12 0 -14
v -12 8 -14
v -36 1 -15
v -36 16 -15
v -36 22 -15
v -35 1 -15
v -35 11 -15
v -35 12 -15
v -35 15 -15
v -34 8 -15
v -34 9 -15
v -33 8 -15
v -33 9 -15
v -33 13 -15
v -33 14 -15
v -32 13 -15
v -32 14 -15
v -31 1 -15
v -31 11 -15
v -31 12 -15
v -31 15 -15
v -30 1 -15
v -30 11 -15
v -30 12 -15
v -30 15 -15
v -29 8 -15
v -29 9 -15
v -29 13 -15
v -29 14 -15
v -28 8 -15
v -28 9 -15
v -28 13 -15
v -28 14 -15
v -25 1 -15
v -25 11 -15
v -25 12 -15
v -25 15 -15
v -24 1 -15
v -24 16 -15
v -24 22 -15
v -20 12 -15
v -20 16 -15
v -16 8 -15
v -16 12 -15
v -12 1 -15
v -12 8 -15
v -36 0 -26
v -36 1 -26
v -12 0 -26
v -12 1 -26
v -36 0 -14
v -24 0 -14
v -12 0 -14
v -24 0 -15
v -12 0 -15
v -36 0 -26
v -12 0 -26
v -36 1 -15
v -35 1 -15
v -31 1 -15
v -30 1 -15
v -25 1 -15
v -24 1 -15
v -12 1 -15
v -36 1 -26
v -12 1 -26
v -16 8 -14
v -12 8 -14
v -16 8 -15
v -12 8 -15
v -20 12 -14
v -16 12 -14
v -20 12 -15
v -16 12 -15
v -24 16 -14
v -20 16 -14
v -24 16 -15
v -20 16 -15
v -36 22 -14
v -24 22 -14
v -36 22 -15
v -24 22 -15

# faces
f 3/3/1 2/3/1 1/3/1
f 4/3/1 2/3/1 3/3/1
f 5/3/1 3/3/1 1/3/1
f 6/3/1 3/3/1 5/3/1
f 7/1/1 6/1/1 5/1/1
f 8/1/1 6/1/1 7/1/1
f 9/1/2 10/1/2 11/1/2
f 11/1/2 10/1/2 12/1/2
f 13/1/2 14/1/2 15/1/2
f 15/1/2 14/1/2 16/1/2
f 17/1/2 18/1/2 19/1/2
f 19/1/2 18/1/2 20/1/2
f 21/1/2 22/1/2 24/1/2
f 22/3/2 23/3/2 24/3/2
f 24/3/2 23/3/2 25/3/2
f 21/1/2 24/1/2 26/1/2
f 26/1/2 24/1/2 27/1/2
f 31/3/3 29/3/3 28/3/3
f 32/3/3 29/3/3 31/3/3
f 33/3/3 29/3/3 32/3/3
f 34/3/3 29/3/3 33/3/3
f 35/2/3 32/2/3 31/2/3
f 36/2/3 32/2/3 35/2/3
f 37/2/3 35/2/3 31/2/3
f 37/5/3 36/5/3 35/5/3
f 38/2/3 32/2/3 36/2/3
f 38/5/3 36/5/3 37/5/3
f 39/2/3 34/2/3 33/2/3
f 40/2/3 34/2/3 39/2/3
f 41/2/3 39/2/3 33/2/3
f 41/4/3 40/4/3 39/4/3
f 42/2/3 34/2/3 40/2/3
f 42/4/3 40/4/3 41/4/3
f 43/3/3 31/3/3 28/3/3
f 43/2/3 37/2/3 31/2/3
f 43/2/3 38/2/3 37/2/3
f 44/3/3 33/3/3 32/3/3
f 44/2/3 38/2/3 43/2/3
f 44/2/3 32/2/3 38/2/3
f 45/2/3 41/2/3 33/2/3
f 45/3/3 33/3/3 44/3/3
f 45/2/3 42/2/3 41/2/3
f 46/2/3 34/2/3 42/2/3
f 46/2/3 42/2/3 45/2/3
f 46/3/3 29/3/3 34/3/3
f 47/3/3 45/3/3 44/3/3
f 47/3/3 44/3/3 43/3/3
f 47/3/3 46/3/3 45/3/3
f 47/3/3 43/3/3 28/3/3
f 48/3/3 46/3/3 47/3/3
f 49/3/3 46/3/3 48/3/3
f 50/3/3 29/3/3 46/3/3
f 50/3/3 46/3/3 49/3/3
f 51/2/3 48/2/3 47/2/3
f 52/2/3 48/2/3 51/2/3
f 53/2/3 50/2/3 49/2/3
f 54/2/3 50/2/3 53/2/3
f 55/2/3 51/2/3 47/2/3
f 55/5/3 52/5/3 51/5/3
f 56/2/3 48/2/3 52/2/3
f 56/5/3 52/5/3 55/5/3
f 57/5/3 54/5/3 53/5/3
f 57/2/3 53/2/3 49/2/3
f 58/2/3 50/2/3 54/2/3
f 58/5/3 54/5/3 57/5/3
f 59/3/3 47/3/3 28/3/3
f 59/2/3 55/2/3 47/2/3
f 59/2/3 56/2/3 55/2/3
f 60/3/3 49/3/3 48/3/3
f 60/2/3 56/2/3 59/2/3
f 60/2/3 48/2/3 56/2/3
f 61/2/3 58/2/3 57/2/3
f 61/3/3 49/3/3 60/3/3
f 61/2/3 57/2/3 49/2/3
f 62/2/3 50/2/3 58/2/3
f 62/2/3 58/2/3 61/2/3
f 62/3/3 29/3/3 50/3/3
f 63/3/3 59/3/3 28/3/3
f 63/3/3 61/3/3 60/3/3
f 63/3/3 62/3/3 61/3/3
f 63/3/3 60/3/3 59/3/3
f 64/1/3 30/1/3 29/1/3
f 64/3/3 62/3/3 63/3/3
f 64/3/3 29/3/3 62/3/3
f 65/1/3 30/1/3 64/1/3
f 66/1/3 64/1/3 63/1/3
f 67/1/3 64/1/3 66/1/3
f 68/1/3 66/1/3 63/1/3
f 69/1/3 66/1/3 68/1/3
f 70/1/3 68/1/3 63/1/3
f 71/1/3 68/1/3 70/1/3
f 72/3/4 73/3/4 75/3/4
f 75/3/4 73/3/4 76/3/4
f 76/3/4 73/3/4 77/3/4
f 77/3/4 73/3/4 78/3/4
f 75/2/4 76/2/4 79/2/4
f 79/2/4 76/2/4 80/2/4
f 75/2/4 79/2/4 81/2/4
f 79/5/4 80/5/4 81/5/4
f 80/2/4 76/2/4 82/2/4
f 81/5/4 80/5/4 82/5/4
f 77/2/4 78/2/4 83/2/4
f 83/2/4 78/2/4 84/2/4
f 77/2/4 83/2/4 85/2/4
f 83/4/4 84/4/4 85/4/4
f 84/2/4 78/2/4 86/2/4
f 85/4/4 84/4/4 86/4/4
f 75/2/4 81/2/4 87/2/4
f 81/2/4 82/2/4 87/2/4
f 76/3/4 77/3/4 88/3/4
f 87/2/4 82/2/4 88/2/4
f 82/2/4 76/2/4 88/2/4
f 77/2/4 85/2/4 89/2/4
f 88/3/4 77/3/4 89/3/4
f 85/2/4 86/2/4 89/2/4
f 78/3/4 73/3/4 90/3/4
f 89/2/4 86/2/4 90/2/4
f 86/2/4 78/2/4 90/2/4
f 88/3/4 89/3/4 91/3/4
f 87/3/4 88/3/4 91/3/4
f 89/3/4 90/3/4 91/3/4
f 91/3/4 90/3/4 92/3/4
f 92/3/4 90/3/4 93/3/4
f 90/3/4 73/3/4 94/3/4
f 93/3/4 90/3/4 94/3/4
f 91/2/4 92/2/4 95/2/4
f 95/2/4 92/2/4 96/2/4
f 93/2/4 94/2/4 97/2/4
f 97/2/4 94/2/4 98/2/4
f 91/2/4 95/2/4 99/2/4
f 95/5/4 96/5/4 99/5/4
f 96/2/4 92/2/4 100/2/4
f 99/5/4 96/5/4 100/5/4
f 97/5/4 98/5/4 101/5/4
f 93/2/4 97/2/4 101/2/4
f 98/2/4 94/2/4 102/2/4
f 101/5/4 98/5/4 102/5/4
f 91/2/4 99/2/4 103/2/4
f 99/2/4 100/2/4 103/2/4
f 92/3/4 93/3/4 104/3/4
f 103/2/4 100/2/4 104/2/4
f 100/2/4 92/2/4 104/2/4
f 93/2/4 101/2/4 105/2/4
f 104/3/4 93/3/4 105/3/4
f 101/2/4 102/2/4 105/2/4
f 94/3/4 73/3/4 106/3/4
f 105/2/4 102/2/4 106/2/4
f 102/2/4 94/2/4 106/2/4
f 104/3/4 105/3/4 107/3/4
f 103/3/4 104/3/4 107/3/4
f 105/3/4 106/3/4 107/3/4
f 73/1/4 74/1/4 108/1/4
f 107/3/4 106/3/4 108/3/4
f 106/3/4 73/3/4 108/3/4
f 108/1/4 74/1/4 109/1/4
f 107/1/4 108/1/4 110/1/4
f 110/1/4 108/1/4 111/1/4
f 107/1/4 110/1/4 112/1/4
f 112/1/4 110/1/4 113/1/4
f 107/1/4 112/1/4 114/1/4
f 114/1/4 112/1/4 115/1/4
f 116/3/4 117/3/4 118/3/4
f 118/3/4 117/3/4 119/3/4
f 123/3/5 121/3/5 120/3/5
f 123/1/5 122/1/5 121/1/5
f 124/1/5 122/1/5 123/1/5
f 125/3/5 123/3/5 120/3/5
f 125/3/5 124/3/5 123/3/5
f 126/3/5 124/3/5 125/3/5
f 127/3/6 128/3/6 134/3/6
f 132/3/6 133/3/6 134/3/6
f 131/3/6 132/3/6 134/3/6
f 130/3/6 131/3/6 134/3/6
f 129/3/6 130/3/6 134/3/6
f 128/3/6 129/3/6 134/3/6
f 134/3/6 133/3/6 135/3/6
f 136/1/6 137/1/6 138/1/6
f 138/1/6 137/1/6 139/1/6
f 140/1/6 141/1/6 142/1/6
f 142/1/6 141/1/6 143/1/6
f 144/1/6 145/1/6 146/1/6
f 146/1/6 145/1/6 147/1/6
f 148/1/6 149/1/6 150/1/6
f 150/1/6 149/1/6 151/1/6
