# MagicaVoxel @ Ephtracy

# group
g firstBuild-15

# material
mtllib firstBuild-15.mtl
usemtl palette

# normals
vn -1 0 0
vn 1 0 0
vn 0 0 1
vn 0 0 -1
vn 0 -1 0
vn 0 1 0

# texcoords
vt 0.0371094 0.5
vt 0.0449219 0.5
vt 0.951172 0.5
vt 0.962891 0.5

# verts
v 19 42 -16
v 19 42 -18
v 19 43 -16
v 19 43 -17
v 19 45 -16
v 19 45 -17
v 19 46 -16
v 19 46 -18
v 21 41 -17
v 21 41 -18
v 21 42 -17
v 21 42 -18
v 21 46 -17
v 21 46 -18
v 21 47 -17
v 21 47 -18
v 22 24 -20
v 22 24 -22
v 22 39 -16
v 22 39 -18
v 22 40 -16
v 22 40 -17
v 22 41 -17
v 22 41 -18
v 22 42 -18
v 22 42 -19
v 22 42 -20
v 22 42 -22
v 22 43 -18
v 22 45 -18
v 22 46 -18
v 22 46 -19
v 22 47 -17
v 22 47 -18
v 22 48 -16
v 22 48 -17
v 22 49 -16
v 22 49 -18
v 23 24 -19
v 23 24 -20
v 23 24 -22
v 23 24 -23
v 23 25 -19
v 23 25 -20
v 23 29 -19
v 23 29 -20
v 23 33 -19
v 23 33 -20
v 23 37 -19
v 23 37 -20
v 23 41 -19
v 23 41 -20
v 23 42 -19
v 23 42 -20
v 23 42 -22
v 23 42 -23
v 23 43 -21
v 23 43 -22
v 23 45 -20
v 23 45 -21
v 23 46 -19
v 23 46 -20
v 25 39 -16
v 25 39 -17
v 25 40 -16
v 25 40 -17
v 25 48 -16
v 25 48 -17
v 25 49 -16
v 25 49 -17
v 28 42 -16
v 28 42 -17
v 28 43 -16
v 28 43 -17
v 28 45 -16
v 28 45 -17
v 28 46 -16
v 28 46 -17
v 20 42 -16
v 20 42 -17
v 20 43 -16
v 20 43 -17
v 20 45 -16
v 20 45 -17
v 20 46 -16
v 20 46 -17
v 23 39 -16
v 23 39 -17
v 23 40 -16
v 23 40 -17
v 23 48 -16
v 23 48 -17
v 23 49 -16
v 23 49 -17
v 25 24 -19
v 25 24 -20
v 25 24 -22
v 25 24 -23
v 25 25 -19
v 25 25 -20
v 25 29 -19
v 25 29 -20
v 25 33 -19
v 25 33 -20
v 25 37 -19
v 25 37 -20
v 25 42 -19
v 25 42 -20
v 25 42 -22
v 25 42 -23
v 25 43 -21
v 25 43 -22
v 25 45 -20
v 25 45 -21
v 25 46 -19
v 25 46 -20
v 26 24 -20
v 26 24 -22
v 26 39 -16
v 26 39 -18
v 26 40 -16
v 26 40 -17
v 26 41 -17
v 26 41 -18
v 26 42 -18
v 26 42 -19
v 26 42 -20
v 26 42 -22
v 26 43 -18
v 26 45 -18
v 26 46 -18
v 26 46 -19
v 26 47 -17
v 26 47 -18
v 26 48 -16
v 26 48 -17
v 26 49 -16
v 26 49 -18
v 27 41 -17
v 27 41 -18
v 27 42 -17
v 27 42 -18
v 27 46 -17
v 27 46 -18
v 27 47 -17
v 27 47 -18
v 29 42 -16
v 29 42 -18
v 29 43 -16
v 29 43 -17
v 29 45 -16
v 29 45 -17
v 29 46 -16
v 29 46 -18
v 19 42 -16
v 19 43 -16
v 19 45 -16
v 19 46 -16
v 20 42 -16
v 20 43 -16
v 20 45 -16
v 20 46 -16
v 22 39 -16
v 22 40 -16
v 22 48 -16
v 22 49 -16
v 23 39 -16
v 23 40 -16
v 23 48 -16
v 23 49 -16
v 25 39 -16
v 25 40 -16
v 25 48 -16
v 25 49 -16
v 26 39 -16
v 26 40 -16
v 26 48 -16
v 26 49 -16
v 28 42 -16
v 28 43 -16
v 28 45 -16
v 28 46 -16
v 29 42 -16
v 29 43 -16
v 29 45 -16
v 29 46 -16
v 19 43 -17
v 19 45 -17
v 20 42 -17
v 20 43 -17
v 20 45 -17
v 20 46 -17
v 21 41 -17
v 21 42 -17
v 21 46 -17
v 21 47 -17
v 22 40 -17
v 22 41 -17
v 22 43 -17
v 22 45 -17
v 22 47 -17
v 22 48 -17
v 23 39 -17
v 23 40 -17
v 23 42 -17
v 23 43 -17
v 23 45 -17
v 23 46 -17
v 23 48 -17
v 23 49 -17
v 25 39 -17
v 25 40 -17
v 25 42 -17
v 25 43 -17
v 25 45 -17
v 25 46 -17
v 25 48 -17
v 25 49 -17
v 26 40 -17
v 26 41 -17
v 26 43 -17
v 26 45 -17
v 26 47 -17
v 26 48 -17
v 27 41 -17
v 27 42 -17
v 27 46 -17
v 27 47 -17
v 28 42 -17
v 28 43 -17
v 28 45 -17
v 28 46 -17
v 29 43 -17
v 29 45 -17
v 23 24 -19
v 23 25 -19
v 23 29 -19
v 23 33 -19
v 23 37 -19
v 23 41 -19
v 23 42 -19
v 24 24 -19
v 24 25 -19
v 24 29 -19
v 24 33 -19
v 24 37 -19
v 24 41 -19
v 25 24 -19
v 25 25 -19
v 25 29 -19
v 25 33 -19
v 25 37 -19
v 25 42 -19
v 22 24 -20
v 22 42 -20
v 23 24 -20
v 23 25 -20
v 23 29 -20
v 23 33 -20
v 23 37 -20
v 23 41 -20
v 23 42 -20
v 25 24 -20
v 25 25 -20
v 25 29 -20
v 25 33 -20
v 25 37 -20
v 25 42 -20
v 26 24 -20
v 26 42 -20
v 19 42 -18
v 19 46 -18
v 20 43 -18
v 20 45 -18
v 21 41 -18
v 21 42 -18
v 21 46 -18
v 21 47 -18
v 22 39 -18
v 22 41 -18
v 22 42 -18
v 22 43 -18
v 22 45 -18
v 22 46 -18
v 22 47 -18
v 22 49 -18
v 23 40 -18
v 23 42 -18
v 23 46 -18
v 23 48 -18
v 25 40 -18
v 25 42 -18
v 25 46 -18
v 25 48 -18
v 26 39 -18
v 26 41 -18
v 26 42 -18
v 26 43 -18
v 26 45 -18
v 26 46 -18
v 26 47 -18
v 26 49 -18
v 27 41 -18
v 27 42 -18
v 27 46 -18
v 27 47 -18
v 28 43 -18
v 28 45 -18
v 29 42 -18
v 29 46 -18
v 22 42 -19
v 22 46 -19
v 23 42 -19
v 23 46 -19
v 25 42 -19
v 25 46 -19
v 26 42 -19
v 26 46 -19
v 23 45 -20
v 23 46 -20
v 25 45 -20
v 25 46 -20
v 23 43 -21
v 23 45 -21
v 25 43 -21
v 25 45 -21
v 22 24 -22
v 22 42 -22
v 23 24 -22
v 23 42 -22
v 23 43 -22
v 25 24 -22
v 25 42 -22
v 25 43 -22
v 26 24 -22
v 26 42 -22
v 23 24 -23
v 23 42 -23
v 25 24 -23
v 25 42 -23
v 23 24 -19
v 24 24 -19
v 25 24 -19
v 22 24 -20
v 23 24 -20
v 24 24 -20
v 25 24 -20
v 26 24 -20
v 22 24 -22
v 23 24 -22
v 25 24 -22
v 26 24 -22
v 23 24 -23
v 25 24 -23
v 22 39 -16
v 23 39 -16
v 25 39 -16
v 26 39 -16
v 23 39 -17
v 25 39 -17
v 22 39 -18
v 26 39 -18
v 21 41 -17
v 22 41 -17
v 26 41 -17
v 27 41 -17
v 21 41 -18
v 22 41 -18
v 26 41 -18
v 27 41 -18
v 19 42 -16
v 20 42 -16
v 28 42 -16
v 29 42 -16
v 20 42 -17
v 21 42 -17
v 27 42 -17
v 28 42 -17
v 19 42 -18
v 21 42 -18
v 22 42 -18
v 23 42 -18
v 25 42 -18
v 26 42 -18
v 27 42 -18
v 29 42 -18
v 22 42 -19
v 23 42 -19
v 25 42 -19
v 26 42 -19
v 19 45 -16
v 20 45 -16
v 28 45 -16
v 29 45 -16
v 19 45 -17
v 20 45 -17
v 28 45 -17
v 29 45 -17
v 22 48 -16
v 23 48 -16
v 25 48 -16
v 26 48 -16
v 22 48 -17
v 23 48 -17
v 25 48 -17
v 26 48 -17
v 22 40 -16
v 23 40 -16
v 25 40 -16
v 26 40 -16
v 22 40 -17
v 23 40 -17
v 25 40 -17
v 26 40 -17
v 22 42 -20
v 23 42 -20
v 25 42 -20
v 26 42 -20
v 22 42 -22
v 23 42 -22
v 25 42 -22
v 26 42 -22
v 23 42 -23
v 25 42 -23
v 19 43 -16
v 20 43 -16
v 28 43 -16
v 29 43 -16
v 19 43 -17
v 20 43 -17
v 28 43 -17
v 29 43 -17
v 23 43 -21
v 25 43 -21
v 23 43 -22
v 25 43 -22
v 23 45 -20
v 25 45 -20
v 23 45 -21
v 25 45 -21
v 19 46 -16
v 20 46 -16
v 28 46 -16
v 29 46 -16
v 20 46 -17
v 21 46 -17
v 27 46 -17
v 28 46 -17
v 19 46 -18
v 21 46 -18
v 22 46 -18
v 23 46 -18
v 25 46 -18
v 26 46 -18
v 27 46 -18
v 29 46 -18
v 22 46 -19
v 23 46 -19
v 25 46 -19
v 26 46 -19
v 23 46 -20
v 25 46 -20
v 21 47 -17
v 22 47 -17
v 26 47 -17
v 27 47 -17
v 21 47 -18
v 22 47 -18
v 26 47 -18
v 27 47 -18
v 22 49 -16
v 23 49 -16
v 25 49 -16
v 26 49 -16
v 23 49 -17
v 25 49 -17
v 22 49 -18
v 26 49 -18

# faces
f 3/2/1 2/2/1 1/2/1
f 4/2/1 2/2/1 3/2/1
f 6/2/1 2/2/1 4/2/1
f 7/2/1 6/2/1 5/2/1
f 8/2/1 2/2/1 6/2/1
f 8/2/1 6/2/1 7/2/1
f 11/2/1 10/2/1 9/2/1
f 12/2/1 10/2/1 11/2/1
f 15/2/1 14/2/1 13/2/1
f 16/2/1 14/2/1 15/2/1
f 21/2/1 20/2/1 19/2/1
f 22/2/1 20/2/1 21/2/1
f 23/2/1 20/2/1 22/2/1
f 24/2/1 20/2/1 23/2/1
f 27/1/1 18/1/1 17/1/1
f 28/1/1 18/1/1 27/1/1
f 29/1/1 26/1/1 25/1/1
f 30/1/1 26/1/1 29/1/1
f 31/1/1 26/1/1 30/1/1
f 32/1/1 26/1/1 31/1/1
f 36/2/1 34/2/1 33/2/1
f 37/2/1 36/2/1 35/2/1
f 38/2/1 34/2/1 36/2/1
f 38/2/1 36/2/1 37/2/1
f 43/3/1 40/3/1 39/3/1
f 44/3/1 40/3/1 43/3/1
f 45/1/1 44/1/1 43/1/1
f 46/1/1 44/1/1 45/1/1
f 47/3/1 46/3/1 45/3/1
f 48/3/1 46/3/1 47/3/1
f 49/1/1 48/1/1 47/1/1
f 50/1/1 48/1/1 49/1/1
f 51/3/1 50/3/1 49/3/1
f 52/3/1 50/3/1 51/3/1
f 53/1/1 52/1/1 51/1/1
f 54/1/1 52/1/1 53/1/1
f 55/1/1 42/1/1 41/1/1
f 56/1/1 42/1/1 55/1/1
f 57/1/1 54/1/1 53/1/1
f 57/1/1 55/1/1 54/1/1
f 58/1/1 55/1/1 57/1/1
f 59/1/1 57/1/1 53/1/1
f 60/1/1 57/1/1 59/1/1
f 61/1/1 59/1/1 53/1/1
f 62/1/1 59/1/1 61/1/1
f 65/2/1 64/2/1 63/2/1
f 66/2/1 64/2/1 65/2/1
f 69/2/1 68/2/1 67/2/1
f 70/2/1 68/2/1 69/2/1
f 73/2/1 72/2/1 71/2/1
f 74/2/1 72/2/1 73/2/1
f 77/2/1 76/2/1 75/2/1
f 78/2/1 76/2/1 77/2/1
f 79/2/2 80/2/2 81/2/2
f 81/2/2 80/2/2 82/2/2
f 83/2/2 84/2/2 85/2/2
f 85/2/2 84/2/2 86/2/2
f 87/2/2 88/2/2 89/2/2
f 89/2/2 88/2/2 90/2/2
f 91/2/2 92/2/2 93/2/2
f 93/2/2 92/2/2 94/2/2
f 95/1/2 96/1/2 99/1/2
f 99/1/2 96/1/2 100/1/2
f 99/3/2 100/3/2 101/3/2
f 101/3/2 100/3/2 102/3/2
f 101/1/2 102/1/2 103/1/2
f 103/1/2 102/1/2 104/1/2
f 103/3/2 104/3/2 105/3/2
f 105/3/2 104/3/2 106/3/2
f 105/1/2 106/1/2 107/1/2
f 107/1/2 106/1/2 108/1/2
f 97/1/2 98/1/2 109/1/2
f 109/1/2 98/1/2 110/1/2
f 107/1/2 108/1/2 111/1/2
f 108/1/2 109/1/2 111/1/2
f 111/1/2 109/1/2 112/1/2
f 107/1/2 111/1/2 113/1/2
f 113/1/2 111/1/2 114/1/2
f 107/1/2 113/1/2 115/1/2
f 115/1/2 113/1/2 116/1/2
f 119/2/2 120/2/2 121/2/2
f 121/2/2 120/2/2 122/2/2
f 122/2/2 120/2/2 123/2/2
f 123/2/2 120/2/2 124/2/2
f 117/1/2 118/1/2 127/1/2
f 127/1/2 118/1/2 128/1/2
f 125/1/2 126/1/2 129/1/2
f 129/1/2 126/1/2 130/1/2
f 130/1/2 126/1/2 131/1/2
f 131/1/2 126/1/2 132/1/2
f 133/2/2 134/2/2 136/2/2
f 135/2/2 136/2/2 137/2/2
f 136/2/2 134/2/2 138/2/2
f 137/2/2 136/2/2 138/2/2
f 139/2/2 140/2/2 141/2/2
f 141/2/2 140/2/2 142/2/2
f 143/2/2 144/2/2 145/2/2
f 145/2/2 144/2/2 146/2/2
f 147/2/2 148/2/2 149/2/2
f 149/2/2 148/2/2 150/2/2
f 150/2/2 148/2/2 152/2/2
f 151/2/2 152/2/2 153/2/2
f 152/2/2 148/2/2 154/2/2
f 153/2/2 152/2/2 154/2/2
f 159/2/3 156/2/3 155/2/3
f 160/2/3 156/2/3 159/2/3
f 161/2/3 158/2/3 157/2/3
f 162/2/3 158/2/3 161/2/3
f 167/2/3 164/2/3 163/2/3
f 168/2/3 164/2/3 167/2/3
f 169/2/3 166/2/3 165/2/3
f 170/2/3 166/2/3 169/2/3
f 175/2/3 172/2/3 171/2/3
f 176/2/3 172/2/3 175/2/3
f 177/2/3 174/2/3 173/2/3
f 178/2/3 174/2/3 177/2/3
f 183/2/3 180/2/3 179/2/3
f 184/2/3 180/2/3 183/2/3
f 185/2/3 182/2/3 181/2/3
f 186/2/3 182/2/3 185/2/3
f 190/2/3 188/2/3 187/2/3
f 191/2/3 188/2/3 190/2/3
f 194/2/3 190/2/3 189/2/3
f 195/2/3 192/2/3 191/2/3
f 198/2/3 194/2/3 193/2/3
f 199/4/3 191/4/3 190/4/3
f 199/2/3 190/2/3 194/2/3
f 199/2/3 194/2/3 198/2/3
f 200/2/3 196/2/3 195/2/3
f 200/4/3 191/4/3 199/4/3
f 200/2/3 195/2/3 191/2/3
f 201/2/3 196/2/3 200/2/3
f 204/2/3 199/2/3 198/2/3
f 204/2/3 202/2/3 201/2/3
f 204/2/3 201/2/3 200/2/3
f 204/2/3 200/2/3 199/2/3
f 204/2/3 198/2/3 197/2/3
f 205/2/3 202/2/3 204/2/3
f 206/2/3 202/2/3 205/2/3
f 207/2/3 202/2/3 206/2/3
f 208/2/3 202/2/3 207/2/3
f 209/2/3 202/2/3 208/2/3
f 211/2/3 204/2/3 203/2/3
f 212/4/3 205/4/3 204/4/3
f 212/2/3 204/2/3 211/2/3
f 213/2/3 206/2/3 205/2/3
f 213/4/3 205/4/3 212/4/3
f 214/3/3 207/3/3 206/3/3
f 214/2/3 206/2/3 213/2/3
f 215/2/3 208/2/3 207/2/3
f 215/3/3 207/3/3 214/3/3
f 216/4/3 209/4/3 208/4/3
f 216/2/3 208/2/3 215/2/3
f 217/2/3 210/2/3 209/2/3
f 217/4/3 209/4/3 216/4/3
f 218/2/3 210/2/3 217/2/3
f 219/2/3 216/2/3 215/2/3
f 219/2/3 217/2/3 216/2/3
f 219/2/3 215/2/3 214/2/3
f 219/2/3 214/2/3 213/2/3
f 219/2/3 213/2/3 212/2/3
f 220/2/3 217/2/3 219/2/3
f 221/2/3 217/2/3 220/2/3
f 222/2/3 217/2/3 221/2/3
f 223/2/3 217/2/3 222/2/3
f 224/2/3 217/2/3 223/2/3
f 225/2/3 221/2/3 220/2/3
f 226/2/3 221/2/3 225/2/3
f 227/2/3 223/2/3 222/2/3
f 228/2/3 223/2/3 227/2/3
f 229/2/3 221/2/3 226/2/3
f 230/4/3 222/4/3 221/4/3
f 230/2/3 221/2/3 229/2/3
f 231/2/3 227/2/3 222/2/3
f 231/4/3 222/4/3 230/4/3
f 232/2/3 227/2/3 231/2/3
f 233/2/3 231/2/3 230/2/3
f 234/2/3 231/2/3 233/2/3
f 242/3/3 236/3/3 235/3/3
f 243/1/3 237/1/3 236/1/3
f 243/3/3 236/3/3 242/3/3
f 244/3/3 238/3/3 237/3/3
f 244/1/3 237/1/3 243/1/3
f 245/1/3 239/1/3 238/1/3
f 245/3/3 238/3/3 244/3/3
f 246/3/3 240/3/3 239/3/3
f 246/1/3 239/1/3 245/1/3
f 247/1/3 241/1/3 240/1/3
f 247/3/3 240/3/3 246/3/3
f 248/1/3 243/1/3 242/1/3
f 249/3/3 244/3/3 243/3/3
f 249/1/3 243/1/3 248/1/3
f 250/1/3 245/1/3 244/1/3
f 250/3/3 244/3/3 249/3/3
f 251/3/3 246/3/3 245/3/3
f 251/1/3 245/1/3 250/1/3
f 252/1/3 247/1/3 246/1/3
f 252/3/3 246/3/3 251/3/3
f 253/1/3 241/1/3 247/1/3
f 253/1/3 247/1/3 252/1/3
f 256/1/3 255/1/3 254/1/3
f 257/1/3 255/1/3 256/1/3
f 258/1/3 255/1/3 257/1/3
f 259/1/3 255/1/3 258/1/3
f 260/1/3 255/1/3 259/1/3
f 261/1/3 255/1/3 260/1/3
f 262/1/3 255/1/3 261/1/3
f 269/1/3 264/1/3 263/1/3
f 269/1/3 268/1/3 267/1/3
f 269/1/3 267/1/3 266/1/3
f 269/1/3 266/1/3 265/1/3
f 269/1/3 265/1/3 264/1/3
f 270/1/3 268/1/3 269/1/3
f 271/2/4 272/2/4 273/2/4
f 273/2/4 272/2/4 274/2/4
f 271/2/4 273/2/4 276/2/4
f 274/2/4 272/2/4 277/2/4
f 275/2/4 276/2/4 280/2/4
f 276/2/4 273/2/4 281/2/4
f 280/2/4 276/2/4 281/2/4
f 273/4/4 274/4/4 282/4/4
f 281/2/4 273/2/4 282/2/4
f 277/2/4 278/2/4 283/2/4
f 282/4/4 274/4/4 283/4/4
f 274/2/4 277/2/4 283/2/4
f 283/2/4 278/2/4 284/2/4
f 284/2/4 278/2/4 285/2/4
f 280/2/4 281/2/4 287/2/4
f 279/2/4 280/2/4 287/2/4
f 287/2/4 281/2/4 288/2/4
f 285/2/4 286/2/4 289/2/4
f 284/2/4 285/2/4 289/2/4
f 289/2/4 286/2/4 290/2/4
f 287/4/4 288/4/4 291/4/4
f 279/2/4 287/2/4 291/2/4
f 291/4/4 288/4/4 292/4/4
f 289/4/4 290/4/4 293/4/4
f 290/2/4 286/2/4 294/2/4
f 293/4/4 290/4/4 294/4/4
f 291/2/4 292/2/4 295/2/4
f 279/2/4 291/2/4 295/2/4
f 295/2/4 292/2/4 296/2/4
f 296/2/4 292/2/4 297/2/4
f 293/2/4 294/2/4 300/2/4
f 300/2/4 294/2/4 301/2/4
f 294/2/4 286/2/4 302/2/4
f 301/2/4 294/2/4 302/2/4
f 296/2/4 297/2/4 303/2/4
f 297/2/4 298/2/4 303/2/4
f 303/2/4 298/2/4 304/2/4
f 300/2/4 301/2/4 305/2/4
f 299/2/4 300/2/4 305/2/4
f 305/2/4 301/2/4 306/2/4
f 304/2/4 298/2/4 307/2/4
f 298/4/4 299/4/4 307/4/4
f 299/2/4 305/2/4 308/2/4
f 307/4/4 299/4/4 308/4/4
f 304/2/4 307/2/4 309/2/4
f 307/2/4 308/2/4 309/2/4
f 308/2/4 305/2/4 310/2/4
f 309/2/4 308/2/4 310/2/4
f 311/1/4 312/1/4 313/1/4
f 313/1/4 312/1/4 314/1/4
f 315/1/4 316/1/4 317/1/4
f 317/1/4 316/1/4 318/1/4
f 319/1/4 320/1/4 321/1/4
f 321/1/4 320/1/4 322/1/4
f 323/1/4 324/1/4 325/1/4
f 325/1/4 324/1/4 326/1/4
f 327/1/4 328/1/4 329/1/4
f 329/1/4 328/1/4 330/1/4
f 330/1/4 331/1/4 333/1/4
f 333/1/4 331/1/4 334/1/4
f 332/1/4 333/1/4 335/1/4
f 335/1/4 333/1/4 336/1/4
f 337/1/4 338/1/4 339/1/4
f 339/1/4 338/1/4 340/1/4
f 345/3/5 342/3/5 341/3/5
f 346/1/5 343/1/5 342/1/5
f 346/3/5 342/3/5 345/3/5
f 347/1/5 343/1/5 346/1/5
f 349/1/5 345/1/5 344/1/5
f 349/1/5 348/1/5 347/1/5
f 349/1/5 347/1/5 346/1/5
f 349/1/5 346/1/5 345/1/5
f 350/1/5 348/1/5 349/1/5
f 351/1/5 348/1/5 350/1/5
f 352/1/5 348/1/5 351/1/5
f 353/1/5 351/1/5 350/1/5
f 354/1/5 351/1/5 353/1/5
f 359/2/5 356/2/5 355/2/5
f 360/2/5 358/2/5 357/2/5
f 361/2/5 359/2/5 355/2/5
f 361/2/5 360/2/5 359/2/5
f 362/2/5 358/2/5 360/2/5
f 362/2/5 360/2/5 361/2/5
f 367/2/5 364/2/5 363/2/5
f 368/2/5 364/2/5 367/2/5
f 369/2/5 366/2/5 365/2/5
f 370/2/5 366/2/5 369/2/5
f 375/2/5 372/2/5 371/2/5
f 378/2/5 374/2/5 373/2/5
f 379/2/5 376/2/5 375/2/5
f 379/2/5 375/2/5 371/2/5
f 380/2/5 376/2/5 379/2/5
f 385/2/5 378/2/5 377/2/5
f 386/2/5 374/2/5 378/2/5
f 386/2/5 378/2/5 385/2/5
f 387/1/5 384/1/5 383/1/5
f 387/1/5 383/1/5 382/1/5
f 387/1/5 382/1/5 381/1/5
f 388/1/5 384/1/5 387/1/5
f 389/1/5 384/1/5 388/1/5
f 390/1/5 384/1/5 389/1/5
f 395/2/5 392/2/5 391/2/5
f 396/2/5 392/2/5 395/2/5
f 397/2/5 394/2/5 393/2/5
f 398/2/5 394/2/5 397/2/5
f 403/2/5 400/2/5 399/2/5
f 404/2/5 400/2/5 403/2/5
f 405/2/5 402/2/5 401/2/5
f 406/2/5 402/2/5 405/2/5
f 407/2/6 408/2/6 411/2/6
f 411/2/6 408/2/6 412/2/6
f 409/2/6 410/2/6 413/2/6
f 413/2/6 410/2/6 414/2/6
f 415/1/6 416/1/6 419/1/6
f 419/1/6 416/1/6 420/1/6
f 417/1/6 418/1/6 421/1/6
f 421/1/6 418/1/6 422/1/6
f 420/1/6 421/1/6 423/1/6
f 423/1/6 421/1/6 424/1/6
f 425/2/6 426/2/6 429/2/6
f 429/2/6 426/2/6 430/2/6
f 427/2/6 428/2/6 431/2/6
f 431/2/6 428/2/6 432/2/6
f 433/1/6 434/1/6 435/1/6
f 435/1/6 434/1/6 436/1/6
f 437/1/6 438/1/6 439/1/6
f 439/1/6 438/1/6 440/1/6
f 441/2/6 442/2/6 445/2/6
f 443/2/6 444/2/6 448/2/6
f 445/2/6 446/2/6 449/2/6
f 441/2/6 445/2/6 449/2/6
f 449/2/6 446/2/6 450/2/6
f 447/2/6 448/2/6 455/2/6
f 448/2/6 444/2/6 456/2/6
f 455/2/6 448/2/6 456/2/6
f 453/1/6 454/1/6 457/1/6
f 452/1/6 453/1/6 457/1/6
f 451/1/6 452/1/6 457/1/6
f 457/1/6 454/1/6 458/1/6
f 458/1/6 454/1/6 459/1/6
f 459/1/6 454/1/6 460/1/6
f 458/1/6 459/1/6 461/1/6
f 461/1/6 459/1/6 462/1/6
f 463/2/6 464/2/6 467/2/6
f 467/2/6 464/2/6 468/2/6
f 465/2/6 466/2/6 469/2/6
f 469/2/6 466/2/6 470/2/6
f 471/2/6 472/2/6 475/2/6
f 473/2/6 474/2/6 476/2/6
f 471/2/6 475/2/6 477/2/6
f 475/2/6 476/2/6 477/2/6
f 476/2/6 474/2/6 478/2/6
f 477/2/6 476/2/6 478/2/6
