# MagicaVoxel @ Ephtracy

# group
g firstBuild-8

# material
mtllib firstBuild-8.mtl
usemtl palette

# normals
vn -1 0 0
vn 1 0 0
vn 0 0 1
vn 0 0 -1
vn 0 -1 0
vn 0 1 0

# texcoords
vt 0.0253906 0.5
vt 0.0292969 0.5

# verts
v -40 24 30
v -40 24 -10
v -40 28 30
v -40 28 -10
v 8 24 -26
v 8 24 -29
v 8 24 -30
v 8 27 -26
v 8 27 -29
v 8 28 -26
v 8 28 -30
v 36 24 26
v 36 24 -26
v 36 27 26
v 36 27 -26
v 36 28 26
v 36 28 -26
v -36 24 26
v -36 24 -10
v -36 27 26
v -36 27 -10
v -36 28 26
v -36 28 -10
v 40 24 30
v 40 24 -30
v 40 28 30
v 40 28 -30
v -40 24 30
v -40 28 30
v 40 24 30
v 40 28 30
v 8 24 -26
v 8 27 -26
v 8 28 -26
v 36 24 -26
v 36 27 -26
v 36 28 -26
v -36 24 26
v -36 27 26
v -36 28 26
v 36 24 26
v 36 27 26
v 36 28 26
v -40 24 -10
v -40 28 -10
v -39 24 -10
v -39 27 -10
v -36 24 -10
v -36 27 -10
v -36 28 -10
v 8 24 -30
v 8 28 -30
v 40 24 -30
v 40 28 -30
v -40 24 30
v 40 24 30
v -39 24 29
v 39 24 29
v -36 24 26
v 36 24 26
v -40 24 -10
v -39 24 -10
v -36 24 -10
v 8 24 -26
v 36 24 -26
v 8 24 -29
v 39 24 -29
v 8 24 -30
v 40 24 -30
v -40 28 30
v 40 28 30
v -36 28 26
v 36 28 26
v -40 28 -10
v -36 28 -10
v 8 28 -26
v 36 28 -26
v 8 28 -30
v 40 28 -30

# faces
f 3/2/1 2/2/1 1/2/1
f 4/2/1 2/2/1 3/2/1
f 8/1/1 6/1/1 5/1/1
f 9/2/1 7/2/1 6/2/1
f 9/1/1 6/1/1 8/1/1
f 10/2/1 9/2/1 8/2/1
f 11/2/1 7/2/1 9/2/1
f 11/2/1 9/2/1 10/2/1
f 14/1/1 13/1/1 12/1/1
f 15/1/1 13/1/1 14/1/1
f 16/2/1 15/2/1 14/2/1
f 17/2/1 15/2/1 16/2/1
f 18/1/2 19/1/2 20/1/2
f 20/1/2 19/1/2 21/1/2
f 20/2/2 21/2/2 22/2/2
f 22/2/2 21/2/2 23/2/2
f 24/2/2 25/2/2 26/2/2
f 26/2/2 25/2/2 27/2/2
f 30/2/3 29/2/3 28/2/3
f 31/2/3 29/2/3 30/2/3
f 35/1/3 33/1/3 32/1/3
f 36/2/3 34/2/3 33/2/3
f 36/1/3 33/1/3 35/1/3
f 37/2/3 34/2/3 36/2/3
f 38/1/4 39/1/4 41/1/4
f 39/2/4 40/2/4 42/2/4
f 41/1/4 39/1/4 42/1/4
f 42/2/4 40/2/4 43/2/4
f 44/2/4 45/2/4 46/2/4
f 46/2/4 45/2/4 47/2/4
f 46/1/4 47/1/4 48/1/4
f 47/2/4 45/2/4 49/2/4
f 48/1/4 47/1/4 49/1/4
f 49/2/4 45/2/4 50/2/4
f 51/2/4 52/2/4 53/2/4
f 53/2/4 52/2/4 54/2/4
f 57/2/5 56/2/5 55/2/5
f 58/2/5 56/2/5 57/2/5
f 59/1/5 58/1/5 57/1/5
f 60/1/5 58/1/5 59/1/5
f 61/2/5 57/2/5 55/2/5
f 62/1/5 59/1/5 57/1/5
f 62/2/5 57/2/5 61/2/5
f 63/1/5 59/1/5 62/1/5
f 65/1/5 58/1/5 60/1/5
f 66/1/5 65/1/5 64/1/5
f 67/2/5 56/2/5 58/2/5
f 67/1/5 65/1/5 66/1/5
f 67/1/5 58/1/5 65/1/5
f 68/2/5 67/2/5 66/2/5
f 69/2/5 56/2/5 67/2/5
f 69/2/5 67/2/5 68/2/5
f 70/2/6 71/2/6 72/2/6
f 72/2/6 71/2/6 73/2/6
f 70/2/6 72/2/6 74/2/6
f 74/2/6 72/2/6 75/2/6
f 73/2/6 71/2/6 77/2/6
f 76/2/6 77/2/6 78/2/6
f 77/2/6 71/2/6 79/2/6
f 78/2/6 77/2/6 79/2/6
